<svg width="52" height="52" viewBox="0 0 52 52" fill="none" xmlns="http://www.w3.org/2000/svg">
<path d="M52.0001 26C52.0001 40.365 40.3651 52 26.0001 52C11.6351 52 0.0001297 40.365 0.0001297 26C0.0001297 11.635 11.6351 -4.75321e-07 26.0001 -4.75321e-07C40.3651 -4.75321e-07 52.0001 11.635 52.0001 26ZM21.2421 39.715C32.7731 39.715 39.0781 30.16 39.0781 21.879C39.0781 21.606 39.0781 21.333 39.0651 21.073C40.2871 20.189 41.3531 19.084 42.1981 17.823C41.0801 18.317 39.8711 18.655 38.5971 18.811C39.8971 18.031 40.8851 16.809 41.3531 15.34C40.1441 16.055 38.8051 16.575 37.3751 16.861C36.2311 15.639 34.6061 14.885 32.7991 14.885C29.3411 14.885 26.5331 17.693 26.5331 21.151C26.5331 21.645 26.5851 22.126 26.7021 22.581C21.4891 22.321 16.8741 19.825 13.7801 16.029C13.2471 16.952 12.9351 18.031 12.9351 19.175C12.9351 21.346 14.0401 23.27 15.7301 24.388C14.7031 24.362 13.7411 24.076 12.8961 23.608C12.8961 23.634 12.8961 23.66 12.8961 23.686C12.8961 26.728 15.0541 29.25 17.9271 29.835C17.4071 29.978 16.8481 30.056 16.2761 30.056C15.8731 30.056 15.4831 30.017 15.0931 29.939C15.8861 32.435 18.2001 34.242 20.9431 34.294C18.7981 35.971 16.0941 36.972 13.1561 36.972C12.6491 36.972 12.1551 36.946 11.6611 36.881C14.4041 38.675 17.7061 39.715 21.2421 39.715Z" fill="white"/>
</svg>
