<?xml version="1.0" encoding="UTF-8"?><svg id="_レイヤー_1" xmlns="http://www.w3.org/2000/svg" viewBox="0 0 99.25 80.46"><defs><style>path{fill:white;}</style></defs><path d="m89.09,20.03c.06.87.06,1.75.06,2.63,0,26.84-20.48,57.8-57.94,57.8v-.02c-11.06.02-21.9-3.15-31.21-9.11,1.61.19,3.23.29,4.85.29,9.17,0,18.08-3.06,25.29-8.71-8.71-.16-16.35-5.83-19.02-14.11,3.05.59,6.2.47,9.19-.35-9.5-1.91-16.33-10.24-16.33-19.91v-.26c2.83,1.57,6,2.45,9.24,2.54C4.27,24.87,1.51,12.99,6.91,3.71c10.34,12.69,25.59,20.41,41.97,21.22-1.64-7.06.6-14.45,5.89-19.41,8.2-7.69,21.1-7.3,28.81.88,4.56-.9,8.93-2.57,12.93-4.93-1.52,4.7-4.7,8.7-8.95,11.24,4.04-.47,7.98-1.55,11.69-3.2-2.73,4.09-6.18,7.65-10.16,10.52Z"/></svg>