<?xml version="1.0" encoding="UTF-8"?><svg id="_レイヤー_2" xmlns="http://www.w3.org/2000/svg" viewBox="0 0 169.6 73.14"><defs><style>.cls-1{fill:#d70051;}</style></defs><g id="Layer_1"><path class="cls-1" d="m8.22,65.28c2.14-1.79,3.08-2.82,3.08-5.2,0-2.67-.94-3.92-2.96-3.92-2.17,0-3.1,1.3-3.1,4.36,0,.83.07,1.54.12,1.88v.06h.6v-.09c-.06-.28-.14-.98-.14-1.86,0-2.7.75-3.85,2.51-3.85,1.59,0,2.37,1.12,2.37,3.41s-1,3.23-2.9,4.86c-2.25,1.8-2.62,2.43-2.62,4.54v.08h6.21v-.51h-5.62c0-1.57.35-2.09,2.44-3.77Z"/><path class="cls-1" d="m16.41,56.16c-2.25,0-3.25,2.07-3.25,6.71s1,6.83,3.25,6.83,3.25-2.11,3.25-6.83-1-6.71-3.25-6.71Zm2.66,6.71c0,5.6-1.42,6.32-2.66,6.32s-2.66-.72-2.66-6.32c0-4.29.82-6.2,2.66-6.2s2.66,1.91,2.66,6.2Z"/><path class="cls-1" d="m24.64,65.28c2.14-1.79,3.08-2.82,3.08-5.2,0-2.67-.94-3.92-2.96-3.92-2.17,0-3.1,1.3-3.1,4.36,0,.84.07,1.54.12,1.88v.06h.6v-.09c-.06-.28-.13-.98-.13-1.86,0-2.7.75-3.85,2.51-3.85,1.59,0,2.37,1.12,2.37,3.41s-1,3.23-2.9,4.86c-2.25,1.8-2.62,2.43-2.62,4.54v.08h6.21v-.51h-5.62c0-1.57.35-2.09,2.44-3.77Z"/><path class="cls-1" d="m34.26,56.3h-.9l-4.98,8.99v.02s0,.47,0,.47h5.3v3.79h.59v-3.79h1.83v-.51h-1.83v-8.97Zm-5.26,8.97l4.67-8.37v8.37h-4.67Z"/><path class="cls-1" d="m13.51,47.45v4.01l-5.58.61.06.6,19.03-2.07c2.5.92,5.49,1.67,8.83,2.21l.09-.59c-2.8-.45-5.32-1.05-7.52-1.77l6.71-.73-.06-.6-7.96.87c-1.99-.74-3.68-1.59-4.96-2.53h13.75v-.6h-7.73v-1.96h5.91v-.6h-5.91v-2.04h6.03s0-3.61,0-3.61H7.49v5.52c0,3.16-.99,5.58-3.2,7.82l.43.42c1.5-1.52,2.47-3.12,2.96-4.95h5.83Zm12.33,2.67l-11.73,1.28v-3.95h7.08c1.17.98,2.76,1.88,4.65,2.67Zm1.73-3.27h-11.45v-1.96h11.45v1.96Zm0-2.56h-11.45v-2.04h11.45v2.04Zm-19.48-5.03h25.51v2.39H8.09v-2.39Zm0,2.99h7.43v2.04h-5.91v.6h5.91v1.96h-7.7c.18-.84.26-1.73.26-2.69v-1.9Z"/><path class="cls-1" d="m54.13,31.44h.46v3.78h.6v-3.78h.46c3.32,1.25,8.3,2.33,15.18,3.29l.08-.59c-5.78-.81-10.2-1.7-13.41-2.7h12.28v-.6h-14.03c-.14-.05-.27-.1-.4-.16l-.06.16h-.11v-1.57h12.78v-.6h-12.78v-1.58h14.24v-.6h-10.11c1.1-.79,2.06-1.67,2.8-2.56h8.04v-.6h-6.01c.9-.56,1.71-1.13,2.38-1.67l-.38-.47c-.86.69-1.95,1.43-3.17,2.14h-4.14v-2.22h-.6v2.22h-5.79v-2.22h-.6v2.22h-4.39c-.97-.77-2.05-1.52-3.15-2.17l-.3.52c.85.5,1.69,1.06,2.47,1.65h-6.85v.6h8.07c.97.82,1.9,1.69,2.7,2.56h-10.04v.6h14.24v1.58h-12.78v.6h12.78v1.57h-.11l-.06-.16c-.13.05-.26.1-.4.16h-14.03v.6h12.28c-3.21,1-7.63,1.89-13.41,2.7l.08.59c6.89-.96,11.86-2.04,15.19-3.29Zm-2.92-4.96c-.76-.85-1.65-1.73-2.59-2.56h12.71c-.82.9-1.87,1.78-3.07,2.56h-7.04Z"/><path class="cls-1" d="m36.32,15.63V3.8h-.6v11.82c0,.83,0,.96-1.99.96-.75,0-2.12-.01-4.39-.08l-.02.6c2.27.07,3.65.08,4.41.08,1.96,0,2.59-.12,2.59-1.56Z"/><path class="cls-1" d="m14.4,11.74H5.57v5.42h.6v-4.82h8.23v5.46h.6v-5.46h8.43v2.9c0,.76-.13.76-1.8.76-.65,0-1.91-.03-3.99-.08l-.02.6c2.08.05,3.35.08,4,.08,1.63,0,2.21-.04,2.36-.94h.04s0-.51,0-.51c0-.04,0-.07,0-.11v-3.3s-9.04,0-9.04,0v-1.92h10.84v-.6h-10.84v-2.87h9.58v-.6h-9.58v-1.81h-.6v1.81h-7c.55-.62.97-1.27,1.26-1.94l-.55-.24c-.61,1.42-1.88,2.73-3.66,3.8l.31.52c.83-.5,1.56-1.05,2.17-1.64v.1h7.48v2.87H3.77v.6h10.63v1.92Z"/><rect class="cls-1" x="28.15" y="4.88" width=".6" height="9.77"/><path class="cls-1" d="m42.49,45.14v7.48h8.07v-8.34h-7.52c.85-1.47,1.44-3.19,1.83-5.27h13.31v2.46c0,1.07-.03,2.03-.1,2.9h-5.59v.6h5.54c-.47,4.79-2.06,6.48-4.85,7.88l.27.54c3.28-1.64,4.75-3.87,5.18-8.42h7.15v8.92h.6v-8.92h3.96v-.6h-3.96v-5.36h3.62v-.6h-30.1v.6h4.35c-.82,4.2-2.47,6.87-5.52,8.9l.33.5c1.41-.94,2.53-2,3.42-3.27Zm.6-.26h6.87v7.14h-6.87v-7.14Zm15.7-5.87h7.01v5.36h-7.1c.06-.88.09-1.84.09-2.9v-2.46Z"/><path class="cls-1" d="m65.25,68.78c-1.43,0-3.21,0-3.38-.18,0,0-.01-.03-.01-.12v-4.48h-10.41c.23-.64.34-1.33.34-2.08h-.6c0,.75-.13,1.44-.4,2.07h-8.06v.6h7.75c-1.36,2.21-4.75,3.58-10.78,4.5l.09.59c6.51-.99,10.08-2.54,11.4-5.09h10.07v3.88c0,.88.57.91,3.99.91,3.81,0,4.33-.1,4.99-2.82l-.58-.14c-.56,2.29-.69,2.36-4.41,2.36Z"/><path class="cls-1" d="m54.81,55.59h-.6v1.83h-14.14s0,2.27,0,2.27h.6v-1.67h10.84c-.21,1.74-4.09,3.25-10.47,4.05l.07.6c6.94-.87,10.82-2.52,11-4.64h4.78v3.08c-.01.12-.01.24,0,.34h0c.03.2.1.36.21.49.38.44,1.12.45,1.97.47h0c.79.02,1.62.03,2.47.03s1.63-.01,2.39-.03h.13s0-.3,0-.3v.3c2.58-.08,3.08-.14,3.48-1.72l-.58-.15c-.28,1.1-.3,1.19-2.9,1.27h-.13c-.76.02-1.53.03-2.38.03-.7,0-1.37,0-2.03-.02h-.41c-.66-.02-1.35-.04-1.56-.27-.02-.02-.05-.06-.07-.16v-3.36h12.2v1.99h.6v-2.59h-15.49s0-1.82,0-1.82Z"/><path class="cls-1" d="m20.78,21.34l-.5-.33c-1.5,2.27-4.04,4.47-7.16,6.2l.29.53c2.34-1.3,4.37-2.86,5.9-4.53h4.15v11.98h.6v-4.11h12.34v-.6h-12.34v-3.42h12.34v-.6h-12.34v-3.26h12.45v-.6h-16.67c.35-.42.66-.84.95-1.27Z"/><path class="cls-1" d="m12.63,21.2c-1.39,2.82-4.54,6.02-8.22,8.33l.32.51c1.98-1.25,3.82-2.75,5.32-4.32v9.47h.6v-10.08h-.03c1.09-1.22,1.97-2.46,2.55-3.65l-.54-.26Z"/><path class="cls-1" d="m61.95,6.41c-.88,1.89-2.95,3.64-5.99,5.05l.25.54c1.81-.84,3.3-1.81,4.42-2.86,3.19.95,6.14,2.19,8.78,3.69l.3-.52c-2.59-1.47-5.48-2.7-8.59-3.65.6-.64,1.06-1.31,1.39-2l-.54-.25Z"/><polygon class="cls-1" points="54.59 18.99 55.19 18.99 55.19 14.51 70.24 14.51 70.24 13.91 55.19 13.91 55.19 12.36 54.59 12.36 54.59 13.91 39.55 13.91 39.55 14.51 54.59 14.51 54.59 18.99"/><path class="cls-1" d="m40.13,12.19l.21.56c2.8-1.02,5-2.28,6.51-3.7,2.43.73,4.75,1.71,6.71,2.84l.3-.52c-1.92-1.1-4.17-2.07-6.54-2.8.59-.64,1.05-1.31,1.37-2.01l-.41-.19h21.46v-.6h-14.54v-2h-.6v2h-14.54v.6h8.05c-1.07,2.26-3.9,4.33-7.99,5.82Z"/><path class="cls-1" d="m144.21,57.69c3.79-1.07,5.45-1.95,6.36-3.36.17-.26.29-.53.41-.81.1.28.22.55.37.8.84,1.41,2.37,2.29,5.86,3.37,2.21.68,4.52,1.21,6.86,1.58l.09-.59c-2.31-.36-4.6-.88-6.78-1.56-3.77-1.16-4.88-2.01-5.52-3.1-.14-.23-.24-.48-.33-.73h12.29v-.6h-12.48v-2.18h-.6v2.18h-13.57v.6h13.25c-.1.25-.21.49-.36.72-.7,1.09-1.91,1.95-6.01,3.1-2.38.67-4.87,1.2-7.38,1.56l.09.59c2.54-.37,5.04-.89,7.45-1.57Z"/><polygon class="cls-1" points="106.45 52.68 106.47 52.68 106.47 54.69 107.07 54.69 107.07 52.68 128.95 52.68 128.95 54.69 129.55 54.69 129.55 52.09 129.55 52.09 129.55 52.08 124.31 52.08 125.99 50.99 125.66 50.49 123.3 52.03 123.33 52.08 119.2 52.08 117.29 50.41 116.9 50.86 118.29 52.08 112.74 52.08 110.83 50.41 110.43 50.86 111.83 52.08 106.45 52.08 106.45 52.68"/><path class="cls-1" d="m105.84,57.21h12.33v.41c0,1.1-.49,1.46-2.01,1.46h-2.12v.6h2.12c1.35,0,2.61-.25,2.61-2.06v-.41h11.95v-.6h-11.95v-.68l6.88-1.62h0s.01,0,.01,0v-.6h-15.26v.6h12.65l-4.88,1.15v1.16h-12.33v.6Z"/><polygon class="cls-1" points="139.47 62.35 139.49 62.35 139.49 64.35 140.09 64.35 140.09 62.35 162.63 62.35 162.63 64.35 163.23 64.35 163.23 62.35 163.23 62.35 163.23 61.75 157.84 61.75 159.56 60.65 159.24 60.15 156.81 61.69 156.85 61.75 152.58 61.75 150.62 60.07 150.23 60.53 151.66 61.75 145.93 61.75 143.96 60.07 143.57 60.53 145 61.75 139.47 61.75 139.47 62.35"/><path class="cls-1" d="m152.14,65.59l7.09-1.62h0s.02,0,.02,0v-.6h-15.7v.6h13.02l-5.02,1.15v1.16h-12.7v.6h12.7v.41c0,1.1-.5,1.46-2.08,1.46h-2.18v.6h2.18c1.39,0,2.67-.25,2.67-2.06v-.41h12.31v-.6h-12.31v-.68Z"/><rect class="cls-1" x="106.46" y="61.24" width="9.17" height=".6" transform="translate(-4.44 8.81) rotate(-4.45)"/><polygon class="cls-1" points="128.32 60.35 127.72 60.35 127.72 66.95 117.34 66.95 117.34 67.55 127.72 67.55 127.72 70 128.32 70 128.32 67.55 130.74 67.55 130.74 66.95 128.32 66.95 128.32 60.35"/><path class="cls-1" d="m112.15,64.65h4.15v-.6h-4.57v-2.12h-.6v2.12h-4.96v.6h4.58c-.53.54-1.09,1.05-1.7,1.48-1.16.83-2.44,1.46-3.83,1.88l.17.57c1.44-.44,2.79-1.1,4-1.96.62-.44,1.19-.95,1.73-1.5v4.88h.6v-4.93c.47.44.97.85,1.48,1.22.94.68,1.95,1.27,3.01,1.74l.24-.55c-1.02-.46-2-1.02-2.9-1.67-.49-.36-.95-.75-1.41-1.17Z"/><polygon class="cls-1" points="125.84 63.29 119.81 61.97 119.68 62.56 125.72 63.88 125.84 63.29"/><polygon class="cls-1" points="118.51 64.8 124.54 66.12 124.67 65.53 118.64 64.21 118.51 64.8"/><path class="cls-1" d="m144.04,39.02c-1.75,1.01-4,1.81-6.88,2.47l.13.59c2.94-.67,5.25-1.5,7.05-2.53l-.3-.52Z"/><path class="cls-1" d="m141.01,48.85v-5.3c1.15-.49,2.18-1.03,3.06-1.62l-.33-.5c-1.76,1.18-4.07,2.15-6.88,2.9l.15.58c1.23-.33,2.35-.71,3.4-1.12v5.07h.6Z"/><path class="cls-1" d="m162.06,47.71v-5.38h-.6v5.38c0,.5,0,.57-1.73.57h0c-.5,0-.69,0-1.15-.02-.3,0-.71-.02-1.39-.04v.6c.67.02,1.08.03,1.38.04.46.01.66.02,1.16.02h0c1.73,0,2.33-.05,2.33-1.17Z"/><rect class="cls-1" x="157.73" y="39.88" width="6.21" height=".6"/><polygon class="cls-1" points="151.08 39.39 150.48 39.39 150.48 41.71 144.92 41.71 144.92 42.31 150.48 42.31 150.48 48.74 151.08 48.74 151.08 42.31 164.52 42.31 164.52 41.71 151.08 41.71 151.08 39.39"/><path class="cls-1" d="m147.09,43.07l-.57-.19c-.51,1.58-1.44,3.14-2.7,4.51l.44.4c1.31-1.44,2.29-3.07,2.82-4.73Z"/><path class="cls-1" d="m156.41,47.62l.54-.25c-.81-1.75-1.8-3.31-2.95-4.64l-.45.39c1.11,1.28,2.07,2.8,2.86,4.5Z"/><rect class="cls-1" x="152.07" y="39.93" width="3.82" height=".6"/><path class="cls-1" d="m140.04,19.45v-3.29h24.09v-.6h-12.5v-.9h-.6v.9h-10.98v-.12h-.6v4.01c0,1.7-1.16,3.95-2.63,5.12l.37.47c1.6-1.27,2.86-3.73,2.86-5.59Z"/><path class="cls-1" d="m139.9,22.91v.6h12.5v.73c0,.29,0,.38-1.83.38-.95,0-2.53-.02-4.26-.06v.6c1.72.04,3.31.06,4.26.06,1.67,0,2.43,0,2.43-.98v-.73h11.59v-.6h-11.59v-.88h10.22v-.6h-10.22v-.92c3.41-.08,6.48-.18,9.17-.31l-.03-.6c-1.33.06-2.75.12-4.26.17v-.76h5.46v-.6h-5.46v-.81h5.65v-.6h-5.65v-.81h-.6v.81h-11.42v-.81h-.6v.81h-4.14v.6h4.14v.81h-4.12v.6h4.12v.6h.6v-.6h11.42v.78c-4.31.14-9.31.23-14.95.26v.6c3.62-.02,6.98-.07,10.07-.13v.9h-11.13v.6h11.13v.88h-12.5Zm5.96-4.49v-.81h11.42v.81h-11.42Z"/><path class="cls-1" d="m137.15,9.61c10.39-.69,17.54-2.25,21.28-4.63h0s.13,0,.13,0v-.6h-8.57c.19-.07.36-.13.52-.19l-.22-.56c-2.42.96-7.96,2.08-12.87,2.61l.06.6c3.67-.39,7.68-1.11,10.52-1.86h9.24c-1.5.8-3.46,1.49-5.86,2.08-1.54-.43-3.44-.93-5.22-1.38l-.15.58c1.38.35,2.84.73,4.14,1.08-3.55.77-7.93,1.34-13.04,1.68l.04.6Z"/><path class="cls-1" d="m155.94,7.88l-.21-.56c-2.74,1.02-8.9,2.21-14.32,2.77l.06.6c4.03-.41,8.47-1.17,11.64-1.96h10.31c-1.68.86-3.92,1.6-6.65,2.23-1.83-.48-3.95-1-5.83-1.42l-.13.59c1.49.34,3.13.73,4.66,1.12-3.91.8-8.74,1.39-14.37,1.74l.04.6c11.49-.72,19.4-2.35,23.51-4.84h0s.14,0,.14,0v-.6h-9.56c.25-.08.49-.16.71-.24Z"/><path class="cls-1" d="m151.19,30.57h11.01v-.6h-11.01v-1.1h12.6v-.6h-7.8c.55-.28,1.03-.56,1.43-.8l-.32-.51c-.62.39-1.49.85-2.46,1.31h-7.49c-.73-.44-1.57-.89-2.5-1.33l-.26.54c.55.26,1.07.52,1.55.79h-7.96v.6h12.6v1.1h-11.01v.6h11.01v1.16h-13.56v.6h13.56v1.12s0,.06-.01.1h-13.38v.6h12.84c-1.38.95-5.36,2.12-12.23,2.63l.04.6c5.81-.43,11.67-1.56,13.04-3.19,1.37,1.63,7.23,2.76,13.04,3.19l.04-.6c-6.87-.51-10.85-1.68-12.23-2.63h12.84v-.6h-13.38s-.01-.07-.01-.1v-1.12h13.56v-.6h-13.56v-1.16Z"/><polygon class="cls-1" points="99.04 55.97 99.04 51.32 73.8 51.31 73.8 51.91 98.44 51.91 98.44 55.38 73.8 55.38 73.8 55.98 98.74 55.98 99.04 55.97"/><path class="cls-1" d="m98.8,63.79l.03-.6h-24.96v.6h23.53c-4.12,1.74-13.09,3.95-23.43,5.04l.06.6c6.32-.67,12.14-1.75,16.67-2.9l8.21,2.96.2-.56-7.39-2.66c3.21-.86,5.68-1.73,7.09-2.47Z"/><rect class="cls-1" x="86.29" y="57.43" width=".6" height="4.36"/><path class="cls-1" d="m76.07,6.89l-.59-.1c-.17,1.04-.68,2.14-1.47,3.2l.48.36c.84-1.13,1.39-2.33,1.58-3.46Z"/><rect class="cls-1" x="77.22" y="3.96" width=".59" height="9.96"/><path class="cls-1" d="m80.57,8.85c-.2-.79-.52-1.6-.94-2.36l-.52.29c.39.71.7,1.48.88,2.22l.58-.14Z"/><path class="cls-1" d="m98.42,13.74v-4.7h-13.83v4.69h.59v-1.31h12.64v1.32h.59Zm-13.23-4.11h12.64v.79h-12.64v-.79Zm0,2.2v-.81h12.64v.81h-12.64Z"/><polygon class="cls-1" points="133.04 7.66 123.04 7.66 123.04 6.79 131.09 6.79 131.09 6.19 123.04 6.19 123.04 5.22 132.39 5.22 132.39 4.63 123.04 4.63 123.04 3.75 122.45 3.75 122.45 4.63 113.18 4.63 113.18 5.22 122.45 5.22 122.45 6.19 114.49 6.19 114.49 6.79 122.45 6.79 122.45 7.66 112.86 7.66 112.86 8.25 133.04 8.25 133.04 7.66"/><path class="cls-1" d="m129.8,13.74v-4.7h-13.83v4.69h.59v-1.31h12.64v1.32h.59Zm-13.23-4.11h12.64v.79h-12.64v-.79Zm0,2.2v-.81h12.64v.81h-12.64Z"/><polygon class="cls-1" points="101.65 7.66 91.65 7.66 91.65 6.79 99.7 6.79 99.7 6.19 91.65 6.19 91.65 5.22 101 5.22 101 4.63 91.65 4.63 91.65 3.75 91.06 3.75 91.06 4.63 81.79 4.63 81.79 5.22 91.06 5.22 91.06 6.19 83.1 6.19 83.1 6.79 91.06 6.79 91.06 7.66 81.47 7.66 81.47 8.25 101.65 8.25 101.65 7.66"/><rect class="cls-1" x="108.37" y="3.89" width=".6" height="10.03"/><path class="cls-1" d="m107.22,6.89l-.59-.1c-.17,1.04-.68,2.14-1.47,3.2l.48.36c.84-1.13,1.39-2.33,1.58-3.46Z"/><path class="cls-1" d="m111.73,8.85c-.2-.79-.52-1.6-.94-2.36l-.53.29c.39.71.7,1.48.88,2.21l.58-.15Z"/><path class="cls-1" d="m77.6,19.91h-4.05v.6h6.75v1.13h-6.29v.6h6.29v2.17h.6v-2.17h6.44v-.6h-6.44v-1.13h7.05v-.6h-4.58c.64-.62,1.22-1.29,1.68-1.97h2.9v-.6h-7.05v-.98h6.13v-.6h-6.13v-.64h-.6v.64h-5.98v.6h5.98v.98h-6.9v.6h2.77c.53.66,1.02,1.33,1.44,1.97Zm6.71-1.97c-.51.69-1.14,1.36-1.83,1.97h-4.16c-.39-.63-.87-1.3-1.38-1.97h7.38Z"/><path class="cls-1" d="m89.99,24.19v-3.65h9.47c-.63.67-1.99,1.34-3.86,1.94-1.36-.41-2.71-.9-4-1.46l-.24.55c1.04.45,2.12.86,3.21,1.21-.99.27-2.09.52-3.28.74l.11.59c1.57-.29,2.99-.64,4.2-1.01.08.02.16.05.23.07,1.62.46,3.28.81,4.95,1.04l.08-.59c-1.43-.2-2.85-.48-4.25-.85,1.87-.68,3.13-1.44,3.6-2.22h.04v-.6h-10.26v-3.97h9.9v1.76h-8.5v.6h9.1v-2.96h-11.12v8.82h.61Z"/><path class="cls-1" d="m120.88,24.19v-3.65h9.47c-.63.67-2.01,1.35-3.9,1.94-1.31-.4-2.6-.86-3.84-1.4l-.24.55c.99.43,2.02.8,3.05,1.14-.98.27-2.07.52-3.25.74l.11.59c1.56-.29,2.96-.63,4.16-1.01.13.04.27.09.4.13,1.62.46,3.28.81,4.95,1.04l.08-.59c-1.49-.2-2.97-.52-4.42-.91,1.89-.68,3.17-1.45,3.64-2.23h.04v-.6h-10.26v-3.97h9.9v1.76h-8.51v.6h9.11v-2.96h-11.12v8.82h.61Z"/><path class="cls-1" d="m108.49,19.91h-4.05v.6h6.75v1.13h-6.29v.6h6.29v2.17h.6v-2.17h6.44v-.6h-6.44v-1.13h7.05v-.6h-4.58c.64-.62,1.22-1.29,1.68-1.97h2.9v-.6h-7.05v-.98h6.13v-.6h-6.13v-.64h-.6v.64h-5.98v.6h5.98v.98h-6.9v.6h2.77c.53.66,1.02,1.33,1.44,1.97Zm6.71-1.97c-.51.69-1.14,1.36-1.83,1.97h-4.16c-.39-.63-.87-1.3-1.38-1.97h7.38Z"/><path class="cls-1" d="m73.77,40.72l.02.6c5.08-.16,10.18-.46,14.73-.87v3.67h.6v-3.72c4.84-.45,9-1,11.76-1.61l-.13-.59c-5.41,1.18-16.25,2.19-26.98,2.52Z"/><path class="cls-1" d="m74.06,48.99l.02.6c13.89-.36,23.61-1.98,26-4.32l-.42-.43c-2.25,2.2-12.05,3.79-25.59,4.15Z"/><path class="cls-1" d="m84.48,45.38c-3.5-.41-7.02-.77-10.77-1.11l-.05.6c3.74.34,7.25.7,10.75,1.11l.07-.6Z"/><path class="cls-1" d="m104.86,40.72l.02.6c5.08-.16,10.18-.46,14.73-.87v3.67h.6v-3.72c4.84-.45,9-1,11.76-1.6l-.13-.59c-5.41,1.18-16.25,2.19-26.98,2.52Z"/><path class="cls-1" d="m105.16,48.99l.02.6c13.89-.36,23.61-1.98,26-4.32l-.42-.43c-2.25,2.2-12.05,3.79-25.59,4.15Z"/><path class="cls-1" d="m115.58,45.38c-3.5-.41-7.03-.77-10.77-1.11l-.05.6c3.73.34,7.25.7,10.75,1.11l.07-.6Z"/><path class="cls-1" d="m101.15,25.03h-.6v2.76h-4.1v-2.82h-.6v.92h-17.4v.6h17.4v1.31h-20.91v.6h14.06c-.26,1.37-2.94,2.1-9.29,2.58l.04.6c6.03-.46,9.61-1.13,9.85-3.18h11.54v-.6h0v-2.76Z"/><path class="cls-1" d="m100.55,33.48h-4.09v-.94h0v-1.78h-.6v2.72h-15.68v-.94h-.6v.94h-5.63v.6h5.63v1.31h.6v-1.31h15.69v.2c0,2.21-3.46,3.05-14.22,3.45l.02.6c10.03-.37,14.8-1.07,14.8-4.05v-.2h4.69v-.11h0v-3.14h-.6v2.65Z"/><path class="cls-1" d="m110.51,35.39h.6v-1.31h15.69v.2c0,2.21-3.46,3.05-14.22,3.45l.02.6c10.03-.37,14.8-1.07,14.8-4.05v-.2h4.69v-.11h0v-3.14h-.6v2.65h-4.09v-.94h0v-1.78h-.6v2.72h-15.68v-.94h-.6v.94h-6.29v.6h6.29v1.31Z"/><path class="cls-1" d="m132.09,25.03h-.6v2.76h-4.1v-2.82h-.6v.92h-17.4v.6h17.4v1.31h-20.91v.6h14.06c-.26,1.37-2.94,2.1-9.29,2.58l.04.6c6.03-.46,9.61-1.13,9.85-3.18h11.54v-.6h0v-2.76Z"/><path class="cls-1" d="m0,0v73.14h169.6V0H0Zm169,72.54H.6V.6h168.4v71.95Z"/></g></svg>