<?xml version="1.0" encoding="UTF-8"?><svg id="_レイヤー_2" xmlns="http://www.w3.org/2000/svg" viewBox="0 0 2006.35 113.31"><defs><style>.cls-1{stroke-width:5.9px;}.cls-1,.cls-2,.cls-3,.cls-4,.cls-5{stroke:#221714;stroke-miterlimit:10;}.cls-1,.cls-5{fill:none;}.cls-2{fill:#251611;}.cls-2,.cls-5{stroke-width:3.93px;}.cls-3{stroke-width:1.97px;}.cls-3,.cls-4{fill:#231815;}.cls-4{stroke-width:1.78px;}</style></defs><g id="Layer_1"><g><path class="cls-5" d="m1.97,74.62c0-1.73.19-3.9.57-5.06h3.39c-.19,1.01-.57,3.33-.57,5.06,0,12.72,19.04,28.05,84.64,28.05,63.16,0,89.54-12.57,89.54-28.62,0-10.41-13.95-19.37-55.23-19.37h-47.88v-2.6s45.24,0,45.24,0c35.07,0,46-8.53,46-18.21,0-13.45-25.64-24-74.65-24C31.37,9.85,11.01,24.02,11.01,37.76c0,1.88.57,3.9.75,4.77h-3.39c-.38-.72-.75-2.6-.75-4.77,0-14.89,20.93-30.51,85.39-30.51,51.28,0,78.04,11.42,78.04,26.6,0,8.24-6.59,16.62-28.65,18.94v.29c27.71,1.59,40.53,10.12,40.53,20.96,0,17.78-27.33,31.23-92.94,31.23S1.97,88.5,1.97,74.62Z"/><path class="cls-5" d="m1137.1,69.34c0-1.73.19-3.9.57-5.06h3.39c-.19,1.01-.57,3.33-.57,5.06,0,12.72,19.04,28.05,84.64,28.05s89.54-12.57,89.54-28.62c0-10.41-13.95-19.37-55.23-19.37h-47.88v-2.6h45.24c35.07,0,46-8.53,46-18.21,0-13.45-25.64-24-74.65-24-61.64,0-82,14.17-82,27.9,0,1.88.57,3.9.75,4.77h-3.39c-.38-.72-.75-2.6-.75-4.77,0-14.89,20.93-30.51,85.39-30.51,51.28,0,78.04,11.42,78.04,26.6,0,8.24-6.59,16.62-28.65,18.94v.29c27.71,1.59,40.53,10.12,40.53,20.96,0,17.78-27.33,31.23-92.94,31.23-68.42,0-88.03-16.77-88.03-30.65Z"/><path class="cls-5" d="m384.45,77.8c0-13.44,21.11-21.69,61.46-23.27v-.15c-32.62-1.88-49.58-9.54-49.58-21.83,0-16.77,28.84-25.59,78.41-25.59s78.43,8.82,78.43,25.59c0,12.29-16.97,19.95-49.58,21.83v.15c40.33,1.59,61.44,9.83,61.44,23.27,0,18.22-32.79,27.76-90.29,27.76s-90.29-9.54-90.29-27.76Zm177.2,0c0-14.46-29.79-21.97-86.9-21.97s-86.9,7.52-86.9,21.97c0,16.48,31.67,25.15,86.9,25.15s86.9-8.67,86.9-25.15Zm-11.88-45.25c0-15.03-27.52-22.99-75.02-22.99-47.51,0-75.02,7.95-75.02,22.99,0,13.59,25.64,20.67,75.02,20.67s75.02-7.08,75.02-20.67Z"/><path class="cls-2" d="m1565.22,101.06V32.78h-50.33v-2.6h39.78c10.55,0,10.55-.58,10.55-27.9h3.4v98.79h-3.4Z"/><path class="cls-5" d="m1602.69,50.85c0-30.07,33.56-48.87,90.11-48.87,57.12,0,90.86,18.79,90.86,48.87,0,30.65-33.74,49.73-90.86,49.73s-90.11-19.08-90.11-49.73Zm177.57,0c0-28.48-32.42-46.26-87.46-46.26s-86.72,17.78-86.72,46.26c0,29.06,32.24,47.13,86.72,47.13s87.46-18.07,87.46-47.13Z"/><line class="cls-1" x1="875.81" y1="55.59" x2="1071.44" y2="55.59"/><line class="cls-1" x1="221" y1="102.29" x2="348.96" y2="10.93"/><line class="cls-1" x1="1349.59" y1="100.73" x2="1477.54" y2="9.38"/><path class="cls-1" d="m818.69,23.67c-37.42-5.96-68.86-12.28-98.53-19.96-29.67,7.68-61.11,14-98.53,19.96m6.64,47.34h183.77m-8.86-27.64h-166.06m142.81-13.35h-119.56m59.78,40.99V28.29m-14.7,28.61h-43.95m118.51,0h-43.95"/><rect class="cls-1" x="1838.71" y="4.17" width="164.69" height="70.65"/><line class="cls-1" x1="1838.71" y1="39.15" x2="2003.7" y2="39.15"/><g><path class="cls-4" d="m1838.01,104.07h2.6c0,2.57,1.74,6.03,15.25,6.03s15.9-2.57,15.9-5.1c0-1.5-.92-2.57-3.6-3.03-2.96-.5-8.95-.61-13.04-.71-3.82-.07-10.7-.32-13.48-1.14-2.6-.78-3.88-2.46-3.88-4.56,0-4.28,5.67-7.52,17.82-7.52,14.37,0,17.29,3.92,17.29,8.13h-2.57c0-3.28-2.78-5.81-14.72-5.81-10.27,0-15.08,2.14-15.08,4.99,0,1.5.93,2.46,3.06,2.92,2.5.57,8.91.71,13.33.86,4.6.14,10.34.32,13.26,1,2.99.68,4.35,2.5,4.35,4.71,0,3.49-2.89,7.59-18.65,7.59s-17.86-5.28-17.86-8.34Z"/><path class="cls-4" d="m1898.29,100.8v-12.3h2.74v12.3c0,6.17,5.67,9.27,15.65,9.27s15.69-3.1,15.69-9.27v-12.3h2.56v12.3c0,7.66-6.7,11.62-18.32,11.62s-18.32-3.96-18.32-11.62Z"/><path class="cls-4" d="m1959.65,88.5h3.99l30.98,20.18h.07v-20.18h2.64v23.46h-2.56l-32.4-21.14h-.04v21.14h-2.67v-23.46Z"/></g><g><path class="cls-3" d="m642.78,85.31h32.52v2.59h-29.49v9.95h25.63v2.36h-25.63v10.97h-3.03v-25.87Z"/><path class="cls-3" d="m707.26,85.31h23.39c11.13,0,15.06,2.71,15.06,7.39,0,3.14-2.01,5.7-7.31,6.17v.08c6.29.43,7.19,3.66,7.19,6.84v5.39h-3.03v-5.39c0-3.07-1.1-5.54-8.73-5.54h-23.55v10.93h-3.03v-25.87Zm26.07,12.66c6.53,0,9.47-1.96,9.47-4.95,0-3.3-3.11-5.11-12.15-5.11h-20.37v10.07h23.04Z"/><path class="cls-3" d="m779.76,85.31h3.03v25.87h-3.03v-25.87Z"/></g></g></g></svg>