<?xml version="1.0" encoding="UTF-8"?><svg id="_レイヤー_2" xmlns="http://www.w3.org/2000/svg" viewBox="0 0 338.02 95.98"><defs><style>.cls-1{fill:#1f1613;}</style></defs><g id="_編集モード"><polygon class="cls-1" points="4.23 21.21 5.56 21.21 5.56 1.49 9.79 1.49 9.79 .25 0 .25 0 1.49 4.23 1.49 4.23 21.21"/><path class="cls-1" d="m18.65,21.14l.02.08h1.47L15.42.25h-1.71l-4.69,20.84-.03.12h1.4l1.17-5.43h5.93l1.15,5.35Zm-1.38-6.46h-5.46L14.55,1.88l2.72,12.79Z"/><polygon class="cls-1" points="28.14 21.21 29.34 21.21 33.7 1.79 33.64 21.12 33.64 21.21 34.94 21.21 34.94 .25 32.87 .25 28.79 18.68 24.72 .33 24.7 .25 22.59 .25 22.59 21.21 23.84 21.21 23.78 1.93 28.12 21.14 28.14 21.21"/><path class="cls-1" d="m47.05,21.14l.02.08h1.47L43.82.25h-1.71l-4.69,20.84-.03.12h1.4l1.17-5.43h5.93l1.15,5.35Zm-1.38-6.46h-5.46l2.75-12.79,2.72,12.79Z"/><path class="cls-1" d="m61.91.25h-1.71l-4.69,20.84-.03.12h1.4l1.17-5.43h5.93l1.15,5.35.02.08h1.47L61.91.25Zm1.85,14.42h-5.46l2.75-12.79,2.72,12.79Z"/><path class="cls-1" d="m77.83,6.13c0-4.06-1.5-5.88-4.86-5.88h-3.89v20.96h1.3v-9.34h2.71c2.36,0,3.37,1.03,3.37,3.43v5.91h1.3v-6c0-2.21-.86-3.59-2.48-4,1.71-.5,2.54-2.17,2.54-5.09Zm-1.3.13c0,3.2-1.05,4.51-3.62,4.51h-2.52V1.49h2.58c2.5,0,3.56,1.42,3.56,4.76Z"/><polygon class="cls-1" points="84.99 21.21 84.99 1.49 89.22 1.49 89.22 .25 79.43 .25 79.43 1.49 83.66 1.49 83.66 21.21 84.99 21.21"/><path class="cls-1" d="m96.69.25v15.53c0,3.67,1.68,5.68,4.74,5.68s4.74-2.02,4.74-5.68V.25h-1.24v15.56c0,2.83-1.23,4.38-3.47,4.38s-3.47-1.56-3.47-4.38V.25h-1.3Z"/><polygon class="cls-1" points="118.37 19.05 111.37 .32 111.35 .25 109.38 .25 109.38 21.21 110.65 21.21 110.59 1.78 117.87 21.15 117.9 21.21 119.55 21.21 119.55 .25 118.27 .25 118.37 19.05"/><rect class="cls-1" x="122.98" y=".25" width="1.3" height="20.96"/><polygon class="cls-1" points="136.82 .25 132.59 19.57 128.35 .33 128.33 .25 126.87 .25 131.66 21.14 131.68 21.21 133.41 21.21 138.19 .25 136.82 .25"/><polygon class="cls-1" points="148.08 1.49 148.08 .25 140.62 .25 140.62 21.21 148.3 21.21 148.3 19.97 141.92 19.97 141.92 11.24 147.04 11.24 147.04 10.1 141.92 10.1 141.92 1.49 148.08 1.49"/><path class="cls-1" d="m157.94,15.31v5.91h1.3v-6c0-2.21-.86-3.59-2.48-4,1.71-.5,2.54-2.17,2.54-5.09,0-4.06-1.5-5.88-4.86-5.88h-3.89v20.96h1.3v-9.34h2.71c2.36,0,3.37,1.03,3.37,3.43Zm.06-9.06c0,3.2-1.05,4.51-3.62,4.51h-2.52V1.49h2.58c2.5,0,3.56,1.42,3.56,4.76Z"/><path class="cls-1" d="m166.19,11.41l.3.14c1.03.46,2.06.96,2.65,1.53.47.45,1.04,1.33,1.04,2.96,0,2.8-1.13,4.22-3.37,4.22-2.5,0-3.34-1.61-3.34-6.37v-.1h-1.24v.1c0,4.68.77,7.58,4.58,7.58,3.02,0,4.68-1.95,4.68-5.5,0-1.59-.48-2.89-1.39-3.76-.66-.66-1.73-1.18-2.68-1.63l-.19-.09c-.19-.09-.37-.17-.56-.25-.84-.38-1.63-.73-2.19-1.33-.66-.7-.98-1.79-.98-3.34,0-2.76,1.18-4.35,3.24-4.35,2.31,0,3.06,1.67,3.06,6.87v.1h1.27v-.1c0-6.04-1.1-8.08-4.36-8.08-2.87,0-4.52,2.05-4.52,5.62,0,2.3.7,3.52,1.29,4.14.73.73,1.73,1.2,2.7,1.65Z"/><rect class="cls-1" x="174.57" y=".25" width="1.3" height="20.96"/><polygon class="cls-1" points="183.86 21.21 183.86 1.49 188.09 1.49 188.09 .25 178.3 .25 178.3 1.49 182.53 1.49 182.53 21.21 183.86 21.21"/><polygon class="cls-1" points="195.66 21.21 195.66 13.31 200.27 .38 200.31 .25 198.9 .25 195.09 11.37 191.27 .32 191.25 .25 189.74 .25 194.36 13.31 194.36 21.21 195.66 21.21"/><path class="cls-1" d="m10.14,47.31c0-7.5-1.59-10.42-5.65-10.42H1.04v20.96h3.79c3.87,0,5.31-2.86,5.31-10.54Zm-1.3,0c0,6.78-1.08,9.3-3.97,9.3h-2.52v-18.48h2.17c3.15,0,4.32,2.49,4.32,9.18Z"/><polygon class="cls-1" points="20.81 56.62 14.43 56.62 14.43 47.89 19.54 47.89 19.54 46.74 14.43 46.74 14.43 38.14 20.58 38.14 20.58 36.9 13.13 36.9 13.13 57.86 20.81 57.86 20.81 56.62"/><path class="cls-1" d="m26.51,36.9h-3.44v20.96h1.3v-6.91h2.27c3.45,0,4.99-2.14,4.99-6.95s-1.53-7.11-5.12-7.11Zm3.84,7.17c0,4-1.12,5.71-3.75,5.71h-2.23v-11.63h2.17c2.71,0,3.81,1.72,3.81,5.93Z"/><path class="cls-1" d="m34.55,52.43h5.93l1.15,5.35.02.08h1.47l-4.71-20.96h-1.71l-4.69,20.84-.03.12h1.4l1.17-5.43Zm.23-1.11l2.75-12.79,2.72,12.79h-5.46Z"/><path class="cls-1" d="m52.95,51.95v5.91h1.3v-6c0-2.21-.86-3.59-2.48-4,1.71-.5,2.54-2.17,2.54-5.09,0-4.06-1.5-5.88-4.86-5.88h-3.89v20.96h1.3v-9.34h2.71c2.36,0,3.37,1.03,3.37,3.44Zm.06-9.06c0,3.2-1.05,4.51-3.62,4.51h-2.52v-9.27h2.58c2.5,0,3.56,1.42,3.56,4.76Z"/><polygon class="cls-1" points="61.48 57.86 61.48 38.14 65.71 38.14 65.71 36.9 55.92 36.9 55.92 38.14 60.15 38.14 60.15 57.86 61.48 57.86"/><polygon class="cls-1" points="78.99 57.76 78.99 57.86 80.29 57.86 80.29 36.9 78.22 36.9 74.13 55.33 70.06 36.97 70.05 36.9 67.94 36.9 67.94 57.86 69.18 57.86 69.12 38.57 73.47 57.78 73.48 57.86 74.69 57.86 79.05 38.43 78.99 57.76"/><polygon class="cls-1" points="84.87 47.89 89.98 47.89 89.98 46.74 84.87 46.74 84.87 38.14 91.02 38.14 91.02 36.9 83.56 36.9 83.56 57.86 91.24 57.86 91.24 56.62 84.87 56.62 84.87 47.89"/><polygon class="cls-1" points="102.49 55.69 95.5 36.96 95.47 36.9 93.5 36.9 93.5 57.86 94.78 57.86 94.71 38.42 102 57.79 102.02 57.86 103.67 57.86 103.67 36.9 102.4 36.9 102.49 55.69"/><polygon class="cls-1" points="105.91 38.14 110.13 38.14 110.13 57.86 111.47 57.86 111.47 38.14 115.7 38.14 115.7 36.9 105.91 36.9 105.91 38.14"/><path class="cls-1" d="m128,36.64c-3.5,0-5.05,3.28-5.05,10.64s1.56,10.83,5.05,10.83,5.05-3.34,5.05-10.83-1.56-10.64-5.05-10.64Zm3.72,10.64c0,6.63-1.15,9.59-3.72,9.59s-3.75-2.96-3.75-9.59,1.16-9.4,3.75-9.4,3.72,2.9,3.72,9.4Z"/><polygon class="cls-1" points="136.01 57.86 137.32 57.86 137.32 48.46 142.55 48.46 142.55 47.31 137.32 47.31 137.32 38.14 143.37 38.14 143.37 36.9 136.01 36.9 136.01 57.86"/><rect class="cls-1" x="151.03" y="36.9" width="1.3" height="20.96"/><polygon class="cls-1" points="164.29 57.79 164.32 57.86 165.97 57.86 165.97 36.9 164.69 36.9 164.79 55.69 157.79 36.96 157.77 36.9 155.8 36.9 155.8 57.86 157.07 57.86 157.01 38.42 164.29 57.79"/><polygon class="cls-1" points="169.24 57.86 170.54 57.86 170.54 48.46 175.78 48.46 175.78 47.31 170.54 47.31 170.54 38.14 176.6 38.14 176.6 36.9 169.24 36.9 169.24 57.86"/><path class="cls-1" d="m183.13,36.64c-3.5,0-5.05,3.28-5.05,10.64s1.56,10.83,5.05,10.83,5.05-3.34,5.05-10.83-1.56-10.64-5.05-10.64Zm3.72,10.64c0,6.63-1.15,9.59-3.72,9.59s-3.75-2.96-3.75-9.59,1.16-9.4,3.75-9.4,3.72,2.9,3.72,9.4Z"/><path class="cls-1" d="m198.53,51.95v5.91h1.3v-6c0-2.21-.86-3.59-2.48-4,1.71-.5,2.54-2.17,2.54-5.09,0-4.06-1.5-5.88-4.86-5.88h-3.89v20.96h1.3v-9.34h2.71c2.36,0,3.37,1.03,3.37,3.44Zm.06-9.06c0,3.2-1.05,4.51-3.62,4.51h-2.52v-9.27h2.58c2.5,0,3.56,1.42,3.56,4.76Z"/><polygon class="cls-1" points="209.32 55.33 205.26 36.97 205.24 36.9 203.13 36.9 203.13 57.86 204.38 57.86 204.31 38.57 208.66 57.78 208.68 57.86 209.88 57.86 214.24 38.43 214.18 57.76 214.18 57.86 215.48 57.86 215.48 36.9 213.41 36.9 209.32 55.33"/><path class="cls-1" d="m222.66,36.9l-4.69,20.84-.03.12h1.41l1.17-5.43h5.93l1.15,5.35.02.08h1.47l-4.71-20.96h-1.71Zm3.55,14.42h-5.46l2.75-12.79,2.72,12.79Z"/><polygon class="cls-1" points="233.85 57.86 233.85 38.14 238.08 38.14 238.08 36.9 228.29 36.9 228.29 38.14 232.51 38.14 232.51 57.86 233.85 57.86"/><rect class="cls-1" x="240.47" y="36.9" width="1.3" height="20.96"/><path class="cls-1" d="m250,36.64c-3.5,0-5.05,3.28-5.05,10.64s1.56,10.83,5.05,10.83,5.05-3.34,5.05-10.83-1.56-10.64-5.05-10.64Zm3.72,10.64c0,6.63-1.15,9.59-3.72,9.59s-3.75-2.96-3.75-9.59,1.16-9.4,3.75-9.4,3.72,2.9,3.72,9.4Z"/><polygon class="cls-1" points="267 55.69 260 36.96 259.98 36.9 258.01 36.9 258.01 57.86 259.28 57.86 259.22 38.42 266.51 57.79 266.53 57.86 268.18 57.86 268.18 36.9 266.91 36.9 267 55.69"/><path class="cls-1" d="m280.2,36.9h-3.44v20.96h3.79c3.87,0,5.31-2.86,5.31-10.54s-1.58-10.42-5.65-10.42Zm4.35,10.42c0,6.78-1.08,9.3-3.97,9.3h-2.52v-18.48h2.17c3.15,0,4.32,2.49,4.32,9.18Z"/><polygon class="cls-1" points="290.15 47.89 295.26 47.89 295.26 46.74 290.15 46.74 290.15 38.14 296.3 38.14 296.3 36.9 288.84 36.9 288.84 57.86 296.52 57.86 296.52 56.62 290.15 56.62 290.15 47.89"/><path class="cls-1" d="m303.66,47.22l-.19-.09c-.19-.09-.37-.17-.56-.25-.84-.38-1.63-.73-2.19-1.33-.66-.7-.98-1.79-.98-3.34,0-2.76,1.18-4.35,3.25-4.35,2.31,0,3.06,1.67,3.06,6.87v.1h1.27v-.1c0-6.04-1.1-8.08-4.36-8.08-2.87,0-4.52,2.05-4.52,5.62,0,2.3.7,3.52,1.29,4.14.73.73,1.73,1.2,2.7,1.65l.3.14c1.03.46,2.06.96,2.65,1.53.47.45,1.04,1.33,1.04,2.96,0,2.8-1.13,4.22-3.37,4.22-2.5,0-3.34-1.61-3.34-6.37v-.1h-1.24v.1c0,4.68.77,7.58,4.58,7.58,3.02,0,4.68-1.95,4.68-5.5,0-1.59-.48-2.89-1.39-3.76-.66-.66-1.73-1.18-2.68-1.63Z"/><rect class="cls-1" x="310.81" y="36.9" width="1.3" height="20.96"/><path class="cls-1" d="m319.8,49.24h3.69v1.48c0,4.14-1.05,6.15-3.21,6.15-2.52,0-3.69-2.94-3.69-9.24,0-6.74,1.15-9.75,3.72-9.75,2.12,0,3.15,1.83,3.15,5.58,0,1.06-.03,2.02-.06,2.39v.11s1.23,0,1.23,0v-.09c.04-.44.07-1.44.07-2.44,0-4.63-1.4-6.79-4.39-6.79-3.47,0-5.02,3.39-5.02,10.99,0,7.15,1.55,10.48,4.87,10.48,1.78,0,2.94-.92,3.51-2.82-.04,1.38-.07,2.33-.09,2.43l.09.04v.1h1.11v-9.73h-4.96v1.11Z"/><polygon class="cls-1" points="336.84 55.69 329.84 36.96 329.81 36.9 327.85 36.9 327.85 57.86 329.12 57.86 329.06 38.42 336.34 57.79 336.37 57.86 338.02 57.86 338.02 36.9 336.74 36.9 336.84 55.69"/><rect class="cls-1" x="1.2" y="74.76" width="1.3" height="20.96"/><polygon class="cls-1" points="14.96 93.56 7.96 74.83 7.93 74.76 5.96 74.76 5.96 95.73 7.24 95.73 7.17 76.29 14.46 95.66 14.48 95.73 16.14 95.73 16.14 74.76 14.86 74.76 14.96 93.56"/><polygon class="cls-1" points="18.37 76.01 22.59 76.01 22.59 95.73 23.93 95.73 23.93 76.01 28.16 76.01 28.16 74.76 18.37 74.76 18.37 76.01"/><polygon class="cls-1" points="31.69 85.76 36.81 85.76 36.81 84.61 31.69 84.61 31.69 76.01 37.85 76.01 37.85 74.76 30.39 74.76 30.39 95.73 38.07 95.73 38.07 94.49 31.69 94.49 31.69 85.76"/><path class="cls-1" d="m49.08,80.64c0-4.06-1.5-5.88-4.86-5.88h-3.89v20.96h1.3v-9.34h2.71c2.36,0,3.37,1.03,3.37,3.44v5.91h1.3v-6c0-2.21-.86-3.59-2.48-4,1.71-.5,2.54-2.17,2.54-5.09Zm-1.3.13c0,3.2-1.05,4.51-3.62,4.51h-2.52v-9.27h2.58c2.5,0,3.56,1.42,3.56,4.76Z"/><path class="cls-1" d="m56.22,74.76l-4.69,20.84-.03.12h1.4l1.17-5.43h5.93l1.15,5.35.02.08h1.47l-4.71-20.96h-1.71Zm3.55,14.42h-5.46l2.75-12.79,2.72,12.79Z"/><path class="cls-1" d="m73.66,87.7h-1.24v.11c.04.56.04,1.14.04,1.38,0,3.73-1.04,5.55-3.18,5.55-2.66,0-3.75-2.75-3.75-9.49s1.09-9.49,3.75-9.49c2.16,0,3.12,1.82,3.12,5.9,0,.65,0,1.45-.03,2.14v.1s1.24,0,1.24,0v-.09c.04-.63.04-1.57.04-2.18,0-4.85-1.4-7.1-4.39-7.1-3.52,0-5.02,3.21-5.02,10.73s1.46,10.73,5.05,10.73c2.98,0,4.42-2.21,4.42-6.76,0-.36,0-.95-.03-1.43v-.09Z"/><polygon class="cls-1" points="74.76 76.01 78.99 76.01 78.99 95.73 80.32 95.73 80.32 76.01 84.55 76.01 84.55 74.76 74.76 74.76 74.76 76.01"/><rect class="cls-1" x="86.94" y="74.76" width="1.3" height="20.96"/><path class="cls-1" d="m96.47,74.51c-3.5,0-5.05,3.28-5.05,10.64s1.56,10.83,5.05,10.83,5.06-3.34,5.06-10.83-1.56-10.64-5.06-10.64Zm3.72,10.64c0,6.63-1.15,9.59-3.72,9.59s-3.75-2.96-3.75-9.59,1.16-9.4,3.75-9.4,3.72,2.9,3.72,9.4Z"/><polygon class="cls-1" points="113.48 93.56 106.48 74.83 106.45 74.76 104.48 74.76 104.48 95.73 105.76 95.73 105.7 76.29 112.98 95.66 113 95.73 114.66 95.73 114.66 74.76 113.38 74.76 113.48 93.56"/><path class="cls-1" d="m126.67,74.76h-3.44v20.96h3.79c3.87,0,5.31-2.86,5.31-10.54s-1.59-10.42-5.65-10.42Zm4.35,10.42c0,6.78-1.08,9.3-3.97,9.3h-2.52v-18.48h2.17c3.15,0,4.32,2.49,4.32,9.18Z"/><polygon class="cls-1" points="136.62 85.76 141.73 85.76 141.73 84.61 136.62 84.61 136.62 76.01 142.77 76.01 142.77 74.76 135.32 74.76 135.32 95.73 143 95.73 143 94.49 136.62 94.49 136.62 85.76"/><path class="cls-1" d="m150.13,85.09l-.19-.09c-.19-.09-.37-.17-.56-.25-.84-.38-1.63-.73-2.19-1.33-.66-.7-.98-1.79-.98-3.34,0-2.76,1.18-4.35,3.24-4.35,2.31,0,3.06,1.67,3.06,6.87v.1h1.27v-.1c0-6.04-1.1-8.08-4.36-8.08-2.87,0-4.52,2.05-4.52,5.62,0,2.3.7,3.52,1.29,4.14.73.73,1.73,1.2,2.7,1.65l.3.14c1.03.46,2.06.96,2.65,1.53.48.45,1.04,1.33,1.04,2.96,0,2.8-1.13,4.22-3.37,4.22-2.5,0-3.34-1.61-3.34-6.37v-.1h-1.24v.1c0,4.68.77,7.58,4.58,7.58,3.02,0,4.68-1.95,4.68-5.5,0-1.59-.48-2.89-1.39-3.76-.66-.66-1.73-1.18-2.68-1.63Z"/><rect class="cls-1" x="157.28" y="74.76" width="1.3" height="20.96"/><path class="cls-1" d="m166.27,87.11h3.69v1.48c0,4.14-1.05,6.15-3.21,6.15-2.52,0-3.69-2.94-3.69-9.24,0-6.74,1.15-9.75,3.72-9.75,2.12,0,3.15,1.83,3.15,5.58,0,1.06-.03,2.02-.06,2.39v.11s1.23,0,1.23,0v-.09c.04-.44.07-1.44.07-2.44,0-4.63-1.4-6.79-4.39-6.79-3.47,0-5.02,3.39-5.02,10.99,0,7.15,1.55,10.48,4.87,10.48,1.78,0,2.94-.92,3.51-2.81-.04,1.34-.07,2.33-.09,2.42l.09.04v.1h1.11v-9.73h-4.96v1.11Z"/><polygon class="cls-1" points="183.31 93.56 176.31 74.83 176.29 74.76 174.32 74.76 174.32 95.73 175.59 95.73 175.53 76.29 182.81 95.66 182.84 95.73 184.49 95.73 184.49 74.76 183.22 74.76 183.31 93.56"/><path class="cls-1" d="m202.22,87.7h-1.24v.11c.04.56.04,1.14.04,1.38,0,3.73-1.04,5.55-3.18,5.55-2.66,0-3.75-2.75-3.75-9.49s1.09-9.49,3.75-9.49c2.16,0,3.12,1.82,3.12,5.9,0,.65,0,1.45-.03,2.14v.1s1.24,0,1.24,0v-.09c.04-.63.04-1.57.04-2.18,0-4.85-1.4-7.1-4.39-7.1-3.52,0-5.02,3.21-5.02,10.73s1.46,10.73,5.05,10.73c2.98,0,4.42-2.21,4.42-6.76,0-.36,0-.95-.03-1.43v-.09Z"/><path class="cls-1" d="m210.02,74.51c-3.5,0-5.05,3.28-5.05,10.64s1.56,10.83,5.05,10.83,5.05-3.34,5.05-10.83-1.56-10.64-5.05-10.64Zm3.72,10.64c0,6.63-1.15,9.59-3.72,9.59s-3.75-2.96-3.75-9.59,1.16-9.4,3.75-9.4,3.72,2.9,3.72,9.4Z"/><path class="cls-1" d="m226.2,90.33c0,2.83-1.23,4.38-3.47,4.38s-3.47-1.56-3.47-4.38v-15.56h-1.3v15.53c0,3.67,1.68,5.69,4.74,5.69s4.74-2.02,4.74-5.69v-15.53h-1.24v15.56Z"/><path class="cls-1" d="m239.4,80.64c0-4.06-1.5-5.88-4.86-5.88h-3.89v20.96h1.3v-9.34h2.71c2.36,0,3.37,1.03,3.37,3.44v5.91h1.3v-6c0-2.21-.86-3.59-2.48-4,1.71-.5,2.54-2.17,2.54-5.09Zm-1.3.13c0,3.2-1.05,4.51-3.62,4.51h-2.52v-9.27h2.58c2.5,0,3.56,1.42,3.56,4.76Z"/><path class="cls-1" d="m247.52,85.09l-.19-.09c-.19-.09-.37-.17-.56-.25-.84-.38-1.63-.73-2.19-1.33-.66-.7-.98-1.79-.98-3.34,0-2.76,1.18-4.35,3.25-4.35,2.31,0,3.06,1.67,3.06,6.87v.1h1.27v-.1c0-6.04-1.1-8.08-4.36-8.08-2.87,0-4.52,2.05-4.52,5.62,0,2.3.7,3.52,1.29,4.14.73.73,1.73,1.2,2.7,1.65l.3.14c1.03.46,2.06.96,2.65,1.53.47.45,1.04,1.33,1.04,2.96,0,2.8-1.13,4.22-3.37,4.22-2.5,0-3.34-1.61-3.34-6.37v-.1h-1.24v.1c0,4.68.77,7.58,4.58,7.58,3.02,0,4.68-1.95,4.68-5.5,0-1.59-.48-2.89-1.39-3.76-.66-.66-1.73-1.18-2.68-1.63Z"/><polygon class="cls-1" points="255.81 85.76 260.92 85.76 260.92 84.61 255.81 84.61 255.81 76.01 261.96 76.01 261.96 74.76 254.51 74.76 254.51 95.73 262.19 95.73 262.19 94.49 255.81 94.49 255.81 85.76"/></g></svg>