<?xml version="1.0" encoding="UTF-8"?><svg id="_レイヤー_2" xmlns="http://www.w3.org/2000/svg" viewBox="0 0 147.2 35.76"><defs><style>.cls-1{fill:#231815;stroke-width:.25px;}.cls-1,.cls-2,.cls-3,.cls-4{stroke:#221714;stroke-miterlimit:10;}.cls-2{fill:#251611;}.cls-2,.cls-4{stroke-width:.5px;}.cls-3{stroke-width:.75px;}.cls-3,.cls-4{fill:none;}</style></defs><g id="Layer_1"><path class="cls-4" d="m26.09,9.4c0-.22.02-.5.07-.64h.43c-.02.13-.07.42-.07.64,0,1.62,2.42,3.56,10.76,3.56,8.03,0,11.38-1.6,11.38-3.64,0-1.32-1.77-2.46-7.02-2.46h-6.09v-.33s5.75,0,5.75,0c4.46,0,5.85-1.08,5.85-2.31,0-1.71-3.26-3.05-9.49-3.05-7.83,0-10.42,1.8-10.42,3.55,0,.24.07.5.1.61h-.43c-.05-.09-.1-.33-.1-.61,0-1.89,2.66-3.88,10.85-3.88,6.52,0,9.92,1.45,9.92,3.38,0,1.05-.84,2.11-3.64,2.41v.04c3.52.2,5.15,1.29,5.15,2.66,0,2.26-3.47,3.97-11.81,3.97s-11.19-2.13-11.19-3.9Z"/><path class="cls-4" d="m26.09,30.43c0-.22.02-.5.07-.64h.43c-.02.13-.07.42-.07.64,0,1.62,2.42,3.56,10.76,3.56s11.38-1.6,11.38-3.64c0-1.32-1.77-2.46-7.02-2.46h-6.09v-.33h5.75c4.46,0,5.85-1.08,5.85-2.31,0-1.71-3.26-3.05-9.49-3.05-7.83,0-10.42,1.8-10.42,3.55,0,.24.07.5.1.61h-.43c-.05-.09-.1-.33-.1-.61,0-1.89,2.66-3.88,10.85-3.88,6.52,0,9.92,1.45,9.92,3.38,0,1.05-.84,2.11-3.64,2.41v.04c3.52.2,5.15,1.29,5.15,2.66,0,2.26-3.47,3.97-11.81,3.97-8.7,0-11.19-2.13-11.19-3.9Z"/><path class="cls-4" d="m85.78,9.81c0-1.71,2.68-2.76,7.81-2.96v-.02c-4.15-.24-6.3-1.21-6.3-2.77,0-2.13,3.67-3.25,9.97-3.25s9.97,1.12,9.97,3.25c0,1.56-2.16,2.54-6.3,2.77v.02c5.13.2,7.81,1.25,7.81,2.96,0,2.32-4.17,3.53-11.48,3.53s-11.48-1.21-11.48-3.53Zm22.52,0c0-1.84-3.79-2.79-11.05-2.79s-11.05.96-11.05,2.79c0,2.1,4.03,3.2,11.05,3.2s11.05-1.1,11.05-3.2Zm-1.51-5.75c0-1.91-3.5-2.92-9.54-2.92-6.04,0-9.54,1.01-9.54,2.92,0,1.73,3.26,2.63,9.54,2.63s9.54-.9,9.54-2.63Z"/><path class="cls-2" d="m86.54,34.46v-8.68h-6.4v-.33h5.06c1.34,0,1.34-.07,1.34-3.55h.43v12.56h-.43Z"/><path class="cls-4" d="m91.3,28.08c0-3.82,4.27-6.21,11.45-6.21,7.26,0,11.55,2.39,11.55,6.21,0,3.9-4.29,6.32-11.55,6.32s-11.45-2.43-11.45-6.32Zm22.57,0c0-3.62-4.12-5.88-11.12-5.88s-11.02,2.26-11.02,5.88c0,3.69,4.1,5.99,11.02,5.99s11.12-2.3,11.12-5.99Z"/><line class="cls-3" x1="0" y1="28.68" x2="17.55" y2="28.68"/><line class="cls-3" x1="57.98" y1="12.6" x2="74.25" y2=".99"/><line class="cls-3" x1="57.98" y1="34.11" x2="74.25" y2="22.5"/><path class="cls-3" d="m147.14,2.92c-4.76-.76-8.75-1.56-12.52-2.54-3.77.98-7.77,1.78-12.52,2.54m.84,6.02h23.36m-1.13-3.51h-21.11m18.15-1.7h-15.2m7.6,5.21V3.51m-1.87,3.64h-5.59m15.06,0h-5.59"/><rect class="cls-3" x="123.06" y="20.44" width="23.11" height="9.92"/><line class="cls-3" x1="123.06" y1="25.35" x2="146.21" y2="25.35"/><path class="cls-1" d="m122.96,34.46h.37c0,.36.25.85,2.14.85s2.23-.36,2.23-.72c0-.21-.13-.36-.5-.43-.42-.07-1.26-.08-1.83-.1-.54,0-1.5-.04-1.89-.16-.37-.11-.55-.34-.55-.64,0-.6.8-1.06,2.5-1.06,2.02,0,2.43.55,2.43,1.14h-.36c0-.46-.39-.82-2.07-.82-1.44,0-2.12.3-2.12.7,0,.21.13.34.43.41.35.08,1.25.1,1.87.12.65.02,1.45.04,1.86.14.42.1.61.35.61.66,0,.49-.41,1.07-2.62,1.07s-2.51-.74-2.51-1.17Z"/><path class="cls-1" d="m131.42,34v-1.73h.38v1.73c0,.87.8,1.3,2.2,1.3s2.2-.44,2.2-1.3v-1.73h.36v1.73c0,1.08-.94,1.63-2.57,1.63s-2.57-.56-2.57-1.63Z"/><path class="cls-1" d="m140.03,32.27h.56l4.35,2.83h0v-2.83h.37v3.29h-.36l-4.55-2.97h0v2.97h-.38v-3.29Z"/><path class="cls-1" d="m123.4,10.75h4.14v.33h-3.75v1.27h3.26v.3h-3.26v1.4h-.38v-3.29Z"/><path class="cls-1" d="m132.99,10.75h2.98c1.42,0,1.92.34,1.92.94,0,.4-.26.73-.93.79h0c.8.06.92.48.92.88v.69h-.38v-.69c0-.39-.14-.71-1.11-.71h-3v1.39h-.38v-3.29Zm3.32,1.61c.83,0,1.21-.25,1.21-.63,0-.42-.4-.65-1.55-.65h-2.59v1.28h2.93Z"/><path class="cls-1" d="m145.21,10.75h.39v3.29h-.39v-3.29Z"/></g></svg>