<?xml version="1.0" encoding="UTF-8"?><svg id="_レイヤー_2" xmlns="http://www.w3.org/2000/svg" viewBox="0 0 336.98 95.98"><defs><style>.cls-1{fill:#1f1613;}</style></defs><g id="_編集モード"><polygon class="cls-1" points="140.89 21.21 142.23 21.21 142.23 1.49 146.46 1.49 146.46 .25 136.66 .25 136.66 1.49 140.89 1.49 140.89 21.21"/><path class="cls-1" d="m155.32,21.14l.02.08h1.47L152.09.25h-1.71l-4.69,20.84-.03.12h1.4l1.17-5.43h5.93l1.15,5.35Zm-1.38-6.46h-5.46l2.75-12.79,2.72,12.79Z"/><polygon class="cls-1" points="164.8 21.21 166 21.21 170.36 1.79 170.3 21.12 170.3 21.21 171.61 21.21 171.61 .25 169.53 .25 165.45 18.68 161.38 .33 161.36 .25 159.26 .25 159.26 21.21 160.5 21.21 160.44 1.93 164.78 21.14 164.8 21.21"/><path class="cls-1" d="m183.72,21.14l.02.08h1.47L180.49.25h-1.71l-4.69,20.84-.03.12h1.4l1.17-5.43h5.93l1.15,5.35Zm-1.38-6.46h-5.46l2.75-12.79,2.72,12.79Z"/><path class="cls-1" d="m198.57.25h-1.71l-4.69,20.84-.03.12h1.4l1.17-5.43h5.93l1.15,5.35.02.08h1.47L198.57.25Zm1.85,14.42h-5.46l2.75-12.79,2.72,12.79Z"/><path class="cls-1" d="m214.5,6.13c0-4.06-1.5-5.88-4.86-5.88h-3.89v20.96h1.3v-9.34h2.71c2.36,0,3.37,1.03,3.37,3.43v5.91h1.3v-6c0-2.21-.86-3.59-2.48-4,1.71-.5,2.54-2.17,2.54-5.09Zm-1.3.13c0,3.2-1.05,4.51-3.62,4.51h-2.52V1.49h2.58c2.5,0,3.56,1.42,3.56,4.76Z"/><polygon class="cls-1" points="221.66 21.21 221.66 1.49 225.89 1.49 225.89 .25 216.09 .25 216.09 1.49 220.32 1.49 220.32 21.21 221.66 21.21"/><path class="cls-1" d="m233.36.25v15.53c0,3.67,1.68,5.68,4.74,5.68s4.74-2.02,4.74-5.68V.25h-1.24v15.56c0,2.83-1.23,4.38-3.47,4.38s-3.47-1.56-3.47-4.38V.25h-1.3Z"/><polygon class="cls-1" points="255.03 19.05 248.03 .32 248.01 .25 246.04 .25 246.04 21.21 247.31 21.21 247.25 1.78 254.54 21.15 254.56 21.21 256.21 21.21 256.21 .25 254.94 .25 255.03 19.05"/><rect class="cls-1" x="259.64" y=".25" width="1.3" height="20.96"/><polygon class="cls-1" points="273.48 .25 269.26 19.57 265.02 .33 265 .25 263.53 .25 268.32 21.14 268.34 21.21 270.08 21.21 274.86 .25 273.48 .25"/><polygon class="cls-1" points="284.74 1.49 284.74 .25 277.28 .25 277.28 21.21 284.96 21.21 284.96 19.97 278.59 19.97 278.59 11.24 283.7 11.24 283.7 10.1 278.59 10.1 278.59 1.49 284.74 1.49"/><path class="cls-1" d="m294.61,15.31v5.91h1.3v-6c0-2.21-.86-3.59-2.48-4,1.71-.5,2.54-2.17,2.54-5.09,0-4.06-1.5-5.88-4.86-5.88h-3.89v20.96h1.3v-9.34h2.71c2.36,0,3.37,1.03,3.37,3.43Zm.06-9.06c0,3.2-1.05,4.51-3.62,4.51h-2.52V1.49h2.58c2.5,0,3.56,1.42,3.56,4.76Z"/><path class="cls-1" d="m302.86,11.41l.3.14c1.03.46,2.06.96,2.65,1.53.47.45,1.04,1.33,1.04,2.96,0,2.8-1.13,4.22-3.37,4.22-2.5,0-3.34-1.61-3.34-6.37v-.1h-1.24v.1c0,4.68.77,7.58,4.58,7.58,3.02,0,4.68-1.95,4.68-5.5,0-1.59-.48-2.89-1.39-3.76-.66-.66-1.73-1.18-2.68-1.63l-.19-.09c-.19-.09-.37-.17-.56-.25-.84-.38-1.63-.73-2.19-1.33-.66-.7-.98-1.79-.98-3.34,0-2.76,1.18-4.35,3.24-4.35,2.31,0,3.06,1.67,3.06,6.87v.1h1.27v-.1c0-6.04-1.1-8.08-4.36-8.08-2.87,0-4.52,2.05-4.52,5.62,0,2.3.7,3.52,1.29,4.14.73.73,1.73,1.2,2.7,1.65Z"/><rect class="cls-1" x="311.24" y=".25" width="1.3" height="20.96"/><polygon class="cls-1" points="320.53 21.21 320.53 1.49 324.75 1.49 324.75 .25 314.96 .25 314.96 1.49 319.19 1.49 319.19 21.21 320.53 21.21"/><polygon class="cls-1" points="332.33 21.21 332.33 13.31 336.93 .38 336.98 .25 335.56 .25 331.75 11.37 327.94 .32 327.91 .25 326.41 .25 331.02 13.31 331.02 21.21 332.33 21.21"/><path class="cls-1" d="m9.1,47.31c0-7.5-1.59-10.42-5.65-10.42H0v20.96h3.79c3.87,0,5.31-2.86,5.31-10.54Zm-1.3,0c0,6.78-1.08,9.3-3.97,9.3H1.3v-18.48h2.17c3.15,0,4.32,2.49,4.32,9.18Z"/><polygon class="cls-1" points="19.76 56.62 13.39 56.62 13.39 47.89 18.5 47.89 18.5 46.74 13.39 46.74 13.39 38.14 19.54 38.14 19.54 36.9 12.09 36.9 12.09 57.86 19.76 57.86 19.76 56.62"/><path class="cls-1" d="m25.47,36.9h-3.44v20.96h1.3v-6.91h2.27c3.45,0,4.99-2.14,4.99-6.95s-1.53-7.11-5.12-7.11Zm3.84,7.17c0,4-1.12,5.71-3.75,5.71h-2.23v-11.63h2.17c2.71,0,3.81,1.72,3.81,5.93Z"/><path class="cls-1" d="m33.5,52.43h5.93l1.15,5.35.02.08h1.47l-4.71-20.96h-1.71l-4.69,20.84-.03.12h1.4l1.17-5.43Zm.23-1.11l2.75-12.79,2.72,12.79h-5.46Z"/><path class="cls-1" d="m51.91,51.95v5.91h1.3v-6c0-2.21-.86-3.59-2.48-4,1.71-.5,2.54-2.17,2.54-5.09,0-4.06-1.5-5.88-4.86-5.88h-3.89v20.96h1.3v-9.34h2.71c2.36,0,3.37,1.03,3.37,3.44Zm.06-9.06c0,3.2-1.05,4.51-3.62,4.51h-2.52v-9.27h2.58c2.5,0,3.56,1.42,3.56,4.76Z"/><polygon class="cls-1" points="60.44 57.86 60.44 38.14 64.67 38.14 64.67 36.9 54.88 36.9 54.88 38.14 59.11 38.14 59.11 57.86 60.44 57.86"/><polygon class="cls-1" points="77.95 57.76 77.95 57.86 79.25 57.86 79.25 36.9 77.18 36.9 73.09 55.33 69.02 36.97 69.01 36.9 66.9 36.9 66.9 57.86 68.14 57.86 68.08 38.57 72.43 57.78 72.44 57.86 73.65 57.86 78.01 38.43 77.95 57.76"/><polygon class="cls-1" points="83.83 47.89 88.94 47.89 88.94 46.74 83.83 46.74 83.83 38.14 89.98 38.14 89.98 36.9 82.52 36.9 82.52 57.86 90.2 57.86 90.2 56.62 83.83 56.62 83.83 47.89"/><polygon class="cls-1" points="101.45 55.69 94.45 36.96 94.43 36.9 92.46 36.9 92.46 57.86 93.74 57.86 93.67 38.42 100.96 57.79 100.98 57.86 102.63 57.86 102.63 36.9 101.36 36.9 101.45 55.69"/><polygon class="cls-1" points="104.86 38.14 109.09 38.14 109.09 57.86 110.43 57.86 110.43 38.14 114.66 38.14 114.66 36.9 104.86 36.9 104.86 38.14"/><path class="cls-1" d="m126.96,36.64c-3.5,0-5.05,3.28-5.05,10.64s1.56,10.83,5.05,10.83,5.05-3.34,5.05-10.83-1.56-10.64-5.05-10.64Zm3.72,10.64c0,6.63-1.15,9.59-3.72,9.59s-3.75-2.96-3.75-9.59,1.16-9.4,3.75-9.4,3.72,2.9,3.72,9.4Z"/><polygon class="cls-1" points="134.97 57.86 136.27 57.86 136.27 48.46 141.51 48.46 141.51 47.31 136.27 47.31 136.27 38.14 142.33 38.14 142.33 36.9 134.97 36.9 134.97 57.86"/><rect class="cls-1" x="149.99" y="36.9" width="1.3" height="20.96"/><polygon class="cls-1" points="163.25 57.79 163.27 57.86 164.93 57.86 164.93 36.9 163.65 36.9 163.75 55.69 156.75 36.96 156.72 36.9 154.76 36.9 154.76 57.86 156.03 57.86 155.97 38.42 163.25 57.79"/><polygon class="cls-1" points="168.2 57.86 169.5 57.86 169.5 48.46 174.74 48.46 174.74 47.31 169.5 47.31 169.5 38.14 175.56 38.14 175.56 36.9 168.2 36.9 168.2 57.86"/><path class="cls-1" d="m182.09,36.64c-3.5,0-5.05,3.28-5.05,10.64s1.56,10.83,5.05,10.83,5.05-3.34,5.05-10.83-1.56-10.64-5.05-10.64Zm3.72,10.64c0,6.63-1.15,9.59-3.72,9.59s-3.75-2.96-3.75-9.59,1.16-9.4,3.75-9.4,3.72,2.9,3.72,9.4Z"/><path class="cls-1" d="m197.48,51.95v5.91h1.3v-6c0-2.21-.86-3.59-2.48-4,1.71-.5,2.54-2.17,2.54-5.09,0-4.06-1.5-5.88-4.86-5.88h-3.89v20.96h1.3v-9.34h2.71c2.36,0,3.37,1.03,3.37,3.44Zm.06-9.06c0,3.2-1.05,4.51-3.62,4.51h-2.52v-9.27h2.58c2.5,0,3.56,1.42,3.56,4.76Z"/><polygon class="cls-1" points="208.28 55.33 204.21 36.97 204.2 36.9 202.09 36.9 202.09 57.86 203.33 57.86 203.27 38.57 207.62 57.78 207.63 57.86 208.84 57.86 213.2 38.43 213.14 57.76 213.14 57.86 214.44 57.86 214.44 36.9 212.37 36.9 208.28 55.33"/><path class="cls-1" d="m221.61,36.9l-4.69,20.84-.03.12h1.41l1.17-5.43h5.93l1.15,5.35.02.08h1.47l-4.71-20.96h-1.71Zm3.55,14.42h-5.46l2.75-12.79,2.72,12.79Z"/><polygon class="cls-1" points="232.81 57.86 232.81 38.14 237.04 38.14 237.04 36.9 227.24 36.9 227.24 38.14 231.47 38.14 231.47 57.86 232.81 57.86"/><rect class="cls-1" x="239.43" y="36.9" width="1.3" height="20.96"/><path class="cls-1" d="m248.96,36.64c-3.5,0-5.05,3.28-5.05,10.64s1.56,10.83,5.05,10.83,5.05-3.34,5.05-10.83-1.56-10.64-5.05-10.64Zm3.72,10.64c0,6.63-1.15,9.59-3.72,9.59s-3.75-2.96-3.75-9.59,1.16-9.4,3.75-9.4,3.72,2.9,3.72,9.4Z"/><polygon class="cls-1" points="265.96 55.69 258.96 36.96 258.94 36.9 256.97 36.9 256.97 57.86 258.24 57.86 258.18 38.42 265.46 57.79 265.49 57.86 267.14 57.86 267.14 36.9 265.87 36.9 265.96 55.69"/><path class="cls-1" d="m279.16,36.9h-3.44v20.96h3.79c3.87,0,5.31-2.86,5.31-10.54s-1.58-10.42-5.65-10.42Zm4.35,10.42c0,6.78-1.08,9.3-3.97,9.3h-2.52v-18.48h2.17c3.15,0,4.32,2.49,4.32,9.18Z"/><polygon class="cls-1" points="289.11 47.89 294.22 47.89 294.22 46.74 289.11 46.74 289.11 38.14 295.26 38.14 295.26 36.9 287.8 36.9 287.8 57.86 295.48 57.86 295.48 56.62 289.11 56.62 289.11 47.89"/><path class="cls-1" d="m302.62,47.22l-.19-.09c-.19-.09-.37-.17-.56-.25-.84-.38-1.63-.73-2.19-1.33-.66-.7-.98-1.79-.98-3.34,0-2.76,1.18-4.35,3.25-4.35,2.31,0,3.06,1.67,3.06,6.87v.1h1.27v-.1c0-6.04-1.1-8.08-4.36-8.08-2.87,0-4.52,2.05-4.52,5.62,0,2.3.7,3.52,1.29,4.14.73.73,1.73,1.2,2.7,1.65l.3.14c1.03.46,2.06.96,2.65,1.53.47.45,1.04,1.33,1.04,2.96,0,2.8-1.13,4.22-3.37,4.22-2.5,0-3.34-1.61-3.34-6.37v-.1h-1.24v.1c0,4.68.77,7.58,4.58,7.58,3.02,0,4.68-1.95,4.68-5.5,0-1.59-.48-2.89-1.39-3.76-.66-.66-1.73-1.18-2.68-1.63Z"/><rect class="cls-1" x="309.77" y="36.9" width="1.3" height="20.96"/><path class="cls-1" d="m318.76,49.24h3.69v1.48c0,4.14-1.05,6.15-3.21,6.15-2.52,0-3.69-2.94-3.69-9.24,0-6.74,1.15-9.75,3.72-9.75,2.12,0,3.15,1.83,3.15,5.58,0,1.06-.03,2.02-.06,2.39v.11s1.23,0,1.23,0v-.09c.04-.44.07-1.44.07-2.44,0-4.63-1.4-6.79-4.39-6.79-3.47,0-5.02,3.39-5.02,10.99,0,7.15,1.55,10.48,4.87,10.48,1.78,0,2.94-.92,3.51-2.82-.04,1.38-.07,2.33-.09,2.43l.09.04v.1h1.11v-9.73h-4.96v1.11Z"/><polygon class="cls-1" points="335.8 55.69 328.8 36.96 328.77 36.9 326.81 36.9 326.81 57.86 328.08 57.86 328.02 38.42 335.3 57.79 335.32 57.86 336.98 57.86 336.98 36.9 335.7 36.9 335.8 55.69"/><rect class="cls-1" x="75.99" y="74.76" width="1.3" height="20.96"/><polygon class="cls-1" points="89.75 93.56 82.75 74.83 82.72 74.76 80.76 74.76 80.76 95.73 82.03 95.73 81.97 76.29 89.25 95.66 89.27 95.73 90.93 95.73 90.93 74.76 89.65 74.76 89.75 93.56"/><polygon class="cls-1" points="93.16 76.01 97.39 76.01 97.39 95.73 98.72 95.73 98.72 76.01 102.95 76.01 102.95 74.76 93.16 74.76 93.16 76.01"/><polygon class="cls-1" points="106.49 85.76 111.6 85.76 111.6 84.61 106.49 84.61 106.49 76.01 112.64 76.01 112.64 74.76 105.18 74.76 105.18 95.73 112.86 95.73 112.86 94.49 106.49 94.49 106.49 85.76"/><path class="cls-1" d="m123.87,80.64c0-4.06-1.5-5.88-4.86-5.88h-3.89v20.96h1.3v-9.34h2.71c2.36,0,3.37,1.03,3.37,3.44v5.91h1.3v-6c0-2.21-.86-3.59-2.48-4,1.71-.5,2.54-2.17,2.54-5.09Zm-1.3.13c0,3.2-1.05,4.51-3.62,4.51h-2.52v-9.27h2.58c2.5,0,3.56,1.42,3.56,4.76Z"/><path class="cls-1" d="m131.01,74.76l-4.69,20.84-.03.12h1.4l1.17-5.43h5.93l1.15,5.35.02.08h1.47l-4.71-20.96h-1.71Zm3.55,14.42h-5.46l2.75-12.79,2.72,12.79Z"/><path class="cls-1" d="m148.45,87.7h-1.24v.11c.04.56.04,1.14.04,1.38,0,3.73-1.04,5.55-3.18,5.55-2.66,0-3.75-2.75-3.75-9.49s1.09-9.49,3.75-9.49c2.16,0,3.12,1.82,3.12,5.9,0,.65,0,1.45-.03,2.14v.1s1.24,0,1.24,0v-.09c.04-.63.04-1.57.04-2.18,0-4.85-1.4-7.1-4.39-7.1-3.52,0-5.02,3.21-5.02,10.73s1.46,10.73,5.05,10.73c2.98,0,4.42-2.21,4.42-6.76,0-.36,0-.95-.03-1.43v-.09Z"/><polygon class="cls-1" points="149.55 76.01 153.78 76.01 153.78 95.73 155.11 95.73 155.11 76.01 159.34 76.01 159.34 74.76 149.55 74.76 149.55 76.01"/><rect class="cls-1" x="161.73" y="74.76" width="1.3" height="20.96"/><path class="cls-1" d="m171.27,74.51c-3.5,0-5.05,3.28-5.05,10.64s1.56,10.83,5.05,10.83,5.06-3.34,5.06-10.83-1.56-10.64-5.06-10.64Zm3.72,10.64c0,6.63-1.15,9.59-3.72,9.59s-3.75-2.96-3.75-9.59,1.16-9.4,3.75-9.4,3.72,2.9,3.72,9.4Z"/><polygon class="cls-1" points="188.27 93.56 181.27 74.83 181.24 74.76 179.28 74.76 179.28 95.73 180.55 95.73 180.49 76.29 187.77 95.66 187.8 95.73 189.45 95.73 189.45 74.76 188.17 74.76 188.27 93.56"/><path class="cls-1" d="m201.47,74.76h-3.44v20.96h3.79c3.87,0,5.31-2.86,5.31-10.54s-1.59-10.42-5.65-10.42Zm4.35,10.42c0,6.78-1.08,9.3-3.97,9.3h-2.52v-18.48h2.17c3.15,0,4.32,2.49,4.32,9.18Z"/><polygon class="cls-1" points="211.41 85.76 216.53 85.76 216.53 84.61 211.41 84.61 211.41 76.01 217.57 76.01 217.57 74.76 210.11 74.76 210.11 95.73 217.79 95.73 217.79 94.49 211.41 94.49 211.41 85.76"/><path class="cls-1" d="m224.92,85.09l-.19-.09c-.19-.09-.37-.17-.56-.25-.84-.38-1.63-.73-2.19-1.33-.66-.7-.98-1.79-.98-3.34,0-2.76,1.18-4.35,3.24-4.35,2.31,0,3.06,1.67,3.06,6.87v.1h1.27v-.1c0-6.04-1.1-8.08-4.36-8.08-2.87,0-4.52,2.05-4.52,5.62,0,2.3.7,3.52,1.29,4.14.73.73,1.73,1.2,2.7,1.65l.3.14c1.03.46,2.06.96,2.65,1.53.48.45,1.04,1.33,1.04,2.96,0,2.8-1.13,4.22-3.37,4.22-2.5,0-3.34-1.61-3.34-6.37v-.1h-1.24v.1c0,4.68.77,7.58,4.58,7.58,3.02,0,4.68-1.95,4.68-5.5,0-1.59-.48-2.89-1.39-3.76-.66-.66-1.73-1.18-2.68-1.63Z"/><rect class="cls-1" x="232.07" y="74.76" width="1.3" height="20.96"/><path class="cls-1" d="m241.06,87.11h3.69v1.48c0,4.14-1.05,6.15-3.21,6.15-2.52,0-3.69-2.94-3.69-9.24,0-6.74,1.15-9.75,3.72-9.75,2.12,0,3.15,1.83,3.15,5.58,0,1.06-.03,2.02-.06,2.39v.11s1.23,0,1.23,0v-.09c.04-.44.07-1.44.07-2.44,0-4.63-1.4-6.79-4.39-6.79-3.47,0-5.02,3.39-5.02,10.99,0,7.15,1.55,10.48,4.87,10.48,1.78,0,2.94-.92,3.51-2.81-.04,1.34-.07,2.33-.09,2.42l.09.04v.1h1.11v-9.73h-4.96v1.11Z"/><polygon class="cls-1" points="258.1 93.56 251.1 74.83 251.08 74.76 249.11 74.76 249.11 95.73 250.39 95.73 250.32 76.29 257.61 95.66 257.63 95.73 259.28 95.73 259.28 74.76 258.01 74.76 258.1 93.56"/><path class="cls-1" d="m277.01,87.7h-1.24v.11c.04.56.04,1.14.04,1.38,0,3.73-1.04,5.55-3.18,5.55-2.66,0-3.75-2.75-3.75-9.49s1.09-9.49,3.75-9.49c2.16,0,3.12,1.82,3.12,5.9,0,.65,0,1.45-.03,2.14v.1s1.24,0,1.24,0v-.09c.04-.63.04-1.57.04-2.18,0-4.85-1.4-7.1-4.39-7.1-3.52,0-5.02,3.21-5.02,10.73s1.46,10.73,5.05,10.73c2.98,0,4.42-2.21,4.42-6.76,0-.36,0-.95-.03-1.43v-.09Z"/><path class="cls-1" d="m284.81,74.51c-3.5,0-5.05,3.28-5.05,10.64s1.56,10.83,5.05,10.83,5.05-3.34,5.05-10.83-1.56-10.64-5.05-10.64Zm3.72,10.64c0,6.63-1.15,9.59-3.72,9.59s-3.75-2.96-3.75-9.59,1.16-9.4,3.75-9.4,3.72,2.9,3.72,9.4Z"/><path class="cls-1" d="m300.99,90.33c0,2.83-1.23,4.38-3.47,4.38s-3.47-1.56-3.47-4.38v-15.56h-1.3v15.53c0,3.67,1.68,5.69,4.74,5.69s4.74-2.02,4.74-5.69v-15.53h-1.24v15.56Z"/><path class="cls-1" d="m314.19,80.64c0-4.06-1.5-5.88-4.86-5.88h-3.89v20.96h1.3v-9.34h2.71c2.36,0,3.37,1.03,3.37,3.44v5.91h1.3v-6c0-2.21-.86-3.59-2.48-4,1.71-.5,2.54-2.17,2.54-5.09Zm-1.3.13c0,3.2-1.05,4.51-3.62,4.51h-2.52v-9.27h2.58c2.5,0,3.56,1.42,3.56,4.76Z"/><path class="cls-1" d="m322.31,85.09l-.19-.09c-.19-.09-.37-.17-.56-.25-.84-.38-1.63-.73-2.19-1.33-.66-.7-.98-1.79-.98-3.34,0-2.76,1.18-4.35,3.25-4.35,2.31,0,3.06,1.67,3.06,6.87v.1h1.27v-.1c0-6.04-1.1-8.08-4.36-8.08-2.87,0-4.52,2.05-4.52,5.62,0,2.3.7,3.52,1.29,4.14.73.73,1.73,1.2,2.7,1.65l.3.14c1.03.46,2.06.96,2.65,1.53.47.45,1.04,1.33,1.04,2.96,0,2.8-1.13,4.22-3.37,4.22-2.5,0-3.34-1.61-3.34-6.37v-.1h-1.24v.1c0,4.68.77,7.58,4.58,7.58,3.02,0,4.68-1.95,4.68-5.5,0-1.59-.48-2.89-1.39-3.76-.66-.66-1.73-1.18-2.68-1.63Z"/><polygon class="cls-1" points="330.6 85.76 335.72 85.76 335.72 84.61 330.6 84.61 330.6 76.01 336.76 76.01 336.76 74.76 329.3 74.76 329.3 95.73 336.98 95.73 336.98 94.49 330.6 94.49 330.6 85.76"/></g></svg>