<?xml version="1.0" encoding="UTF-8"?><svg id="_レイヤー_1" xmlns="http://www.w3.org/2000/svg" viewBox="0 0 618.92 344.19"><defs><style>.cls-1{fill:none;}.cls-2{fill:#221f20;}</style></defs><path class="cls-1" d="m423.26,195.66c0-4.1,0-8.2.01-12.3h-2.71c0,4.99.01,9.99.02,14.99l2.68-2.68Z"/><path class="cls-1" d="m46.29,0c.23,66.19.37,134.18.43,202.68l2.66,2.66c.06-69.4.21-138.3.43-205.34h-3.52Z"/><path class="cls-1" d="m196.65,0c.06,16.93.11,33.98.16,51.13h3.21c.05-17.15.1-34.2.16-51.13h-3.52Z"/><path class="cls-1" d="m103.18,0c.29,84.5.44,171.94.47,259.6l2.59,2.59c.02-88.53.18-176.87.47-262.19h-3.52Z"/><path class="cls-1" d="m192.57,0c.06,16.93.11,33.98.16,51.13h3.22c.05-17.15.1-34.2.16-51.13h-3.54Z"/><path class="cls-1" d="m200.7,0c.06,16.93.11,33.98.16,51.13h3.22c.05-17.15.1-34.2.16-51.13h-3.54Z"/><path class="cls-1" d="m216.97,0c.06,16.93.11,33.98.16,51.13h3.21c.05-17.15.1-34.2.16-51.13h-3.52Z"/><path class="cls-1" d="m95.05,0c.28,81.88.43,166.53.46,251.47l2.61,2.61c.03-85.82.18-171.36.46-254.08h-3.54Z"/><path class="cls-1" d="m427.32,191.59c0-2.75,0-5.49,0-8.24h-2.7c0,3.64,0,7.27.01,10.92l2.68-2.68Z"/><path class="cls-1" d="m431.39,187.53c0-1.39,0-2.79,0-4.18h-2.7c0,2.29,0,4.57,0,6.86l2.68-2.68Z"/><path class="cls-1" d="m406.98,211.93c0-9.54.02-19.06.03-28.58h-2.7c.01,10.39.02,20.8.03,31.22l2.64-2.64Z"/><path class="cls-1" d="m419.18,199.73c0-5.46.01-10.92.02-16.38h-2.7c0,6.34.01,12.69.02,19.04l2.66-2.66Z"/><path class="cls-1" d="m74.73,0c.26,75.35.41,153.04.45,231.14l2.63,2.63c.04-78.99.2-157.58.46-233.77h-3.54Z"/><path class="cls-1" d="m188.52,0c.06,16.93.11,33.98.16,51.13h3.21c.05-17.15.1-34.2.16-51.13h-3.52Z"/><path class="cls-1" d="m131.09,0h-3.54c.31,92.33.47,188.18.47,283.98l2.6,2.6c0-96.68.15-193.42.47-286.58Z"/><path class="cls-1" d="m188.99,283.2h2.58c0-33.33.02-66.66.06-99.84h-2.7c.04,33.19.06,66.51.06,99.84Z"/><path class="cls-1" d="m314.96,283.2h2.58c0-33.33.02-66.66.06-99.84h-2.7c.04,33.19.06,66.51.06,99.84Z"/><path class="cls-1" d="m159.53,0h-3.52c.35,101.47.5,207.19.46,312.43l2.6,2.6c-.04-106.1.11-212.73.46-315.03Z"/><path class="cls-1" d="m135.15,0h-3.52c.32,93.64.48,190.89.47,288.06l2.59,2.59c-.01-98.03.15-196.18.47-290.64Z"/><path class="cls-1" d="m415.12,203.79c0-6.82.01-13.63.02-20.44h-2.71c0,7.7.02,15.4.02,23.11l2.67-2.67Z"/><path class="cls-1" d="m411.05,207.87c0-8.18.02-16.35.02-24.52h-2.7c.01,9.05.02,18.1.03,27.16l2.65-2.65Z"/><path class="cls-1" d="m70.67,0c.25,74.04.4,150.35.45,227.08l2.62,2.62c.05-77.62.2-154.82.45-229.7h-3.52Z"/><path class="cls-1" d="m50.35,0c.23,67.5.38,136.87.44,206.75l2.65,2.65c.06-70.77.21-141.04.44-209.39h-3.52Z"/><path class="cls-1" d="m111.31,0c.3,87.11.45,177.35.47,267.74l2.59,2.59c.01-91.25.17-182.39.47-270.32h-3.52Z"/><path class="cls-1" d="m119.44,0c.31,89.72.46,182.77.47,275.87l2.59,2.59c0-93.97.16-187.9.47-278.45h-3.52Z"/><path class="cls-1" d="m86.92,0c.27,79.27.42,161.13.46,243.34l2.62,2.62c.03-83.09.19-165.84.46-245.95h-3.54Z"/><path class="cls-1" d="m151.41,0h-3.54c.34,98.86.49,201.75.47,304.3l2.61,2.61c-.03-103.42.13-207.22.46-306.91Z"/><path class="cls-1" d="m78.8,0c.26,76.66.41,155.74.46,235.22l2.61,2.61c.04-80.36.19-160.33.46-237.83h-3.52Z"/><path class="cls-1" d="m54.41,0c.23,68.81.38,139.56.44,210.81l2.66,2.66c.06-72.14.21-143.8.44-213.46h-3.54Z"/><path class="cls-1" d="m143.28,0h-3.54c.33,96.24.48,196.31.47,296.17l2.6,2.6c-.02-100.73.14-201.7.47-298.78Z"/><path class="cls-1" d="m147.34,0h-3.52c.33,97.55.49,199.03.47,300.25l2.59,2.59c-.03-102.07.13-204.45.47-302.83Z"/><path class="cls-1" d="m58.48,0c.24,70.12.39,142.26.44,214.88l2.63,2.63c.05-73.51.2-146.55.45-217.52h-3.52Z"/><path class="cls-1" d="m82.86,0c.27,77.96.42,158.43.46,239.28l2.6,2.6c.04-81.72.19-163.08.46-241.88h-3.52Z"/><path class="cls-1" d="m115.37,0c.3,88.41.46,180.05.47,271.8l2.6,2.6c0-92.61.16-185.15.47-274.4h-3.54Z"/><path class="cls-1" d="m62.54,0c.24,71.42.39,144.95.45,218.94l2.63,2.63c.05-74.88.2-149.3.45-221.57h-3.52Z"/><path class="cls-1" d="m127.02,0h-3.52c.31,91.03.47,185.47.47,279.93l2.58,2.58c0-95.32.16-190.66.47-282.51Z"/><path class="cls-1" d="m66.59,0c.25,72.73.4,147.64.45,223l2.64,2.64c.05-76.25.2-152.07.45-225.64h-3.54Z"/><path class="cls-1" d="m204.78,0c.06,16.93.11,33.98.16,51.13h3.21c.05-17.15.1-34.2.16-51.13h-3.52Z"/><path class="cls-1" d="m435.46,183.45s0-.07,0-.1h-2.71c0,.94,0,1.87,0,2.81l2.71-2.71Z"/><path class="cls-1" d="m99.12,0c.28,83.19.44,169.24.46,255.55l2.59,2.59c.02-87.18.18-174.11.47-258.14h-3.52Z"/><path class="cls-1" d="m107.23,0c.29,85.8.45,174.64.47,263.66l2.6,2.6c.02-89.9.17-179.63.47-266.27h-3.54Z"/><path class="cls-1" d="m212.89,0c.06,16.93.11,33.98.16,51.13h3.22c.05-17.15.1-34.2.16-51.13h-3.54Z"/><path class="cls-1" d="m90.99,0c.27,80.58.43,163.83.46,247.41l2.6,2.6c.03-84.45.19-168.6.46-250.01h-3.52Z"/><path class="cls-1" d="m208.83,0c.06,16.93.11,33.98.16,51.13h3.21c.05-17.15.1-34.2.16-51.13h-3.52Z"/><path class="cls-1" d="m155.47,0h-3.52c.34,100.16.5,204.47.46,308.37l2.59,2.59c-.04-104.76.12-209.97.46-310.97Z"/><path class="cls-1" d="m139.21,0h-3.52c.32,94.94.48,193.6.47,292.11l2.59,2.59c-.02-99.38.14-198.93.47-294.7Z"/><path class="cls-1" d="m221.02,0c.06,16.93.11,33.98.16,51.13h3.23c.05-17.15.1-34.2.16-51.13h-3.54Z"/><path class="cls-1" d="m266.19,283.2h2.6c0-33.33.02-66.66.06-99.84h-2.71c.04,33.19.06,66.51.06,99.84Z"/><path class="cls-1" d="m17.84,0c.19,57.01.33,115.35.4,174.2l2.72,2.72c.07-59.78.21-119.04.4-176.92h-3.52Z"/><path class="cls-1" d="m278.4,283.2h2.58c0-33.33.02-66.66.06-99.84h-2.7c.04,33.19.06,66.51.06,99.84Z"/><path class="cls-1" d="m354.13,264.79c0-27.19.02-54.36.05-81.43h-2.7c.03,27.94.05,55.97.05,84.02l2.59-2.59Z"/><path class="cls-1" d="m183.92,0h-3.54c.37,109.3.52,223.54.45,336.8l2.64,2.64c-.08-114.12.07-229.29.45-339.43Z"/><path class="cls-1" d="m13.77,0c.19,55.69.32,112.65.4,170.12l2.74,2.74c.07-58.4.21-116.29.4-172.86h-3.54Z"/><path class="cls-1" d="m274.32,283.2h2.6c0-33.33.02-66.66.06-99.84h-2.71c.04,33.19.06,66.51.06,99.84Z"/><path class="cls-1" d="m262.13,283.2h2.59c0-33.33.02-66.66.06-99.84h-2.7c.04,33.19.06,66.51.06,99.84Z"/><path class="cls-1" d="m187.98,0h-3.52c.38,110.61.53,226.28.45,340.87l2.63,2.63c-.08-115.45.07-232.04.45-343.49Z"/><path class="cls-1" d="m350.07,268.85c0-28.54.02-57.07.05-85.49h-2.71c.03,29.29.05,58.68.06,88.1l2.6-2.6Z"/><path class="cls-1" d="m270.26,283.2h2.58c0-33.33.02-66.66.06-99.84h-2.7c.04,33.19.06,66.51.06,99.84Z"/><path class="cls-1" d="m25.97,0c.2,59.63.34,120.73.41,182.34l2.7,2.7c.07-62.53.21-124.54.41-185.04h-3.52Z"/><path class="cls-1" d="m598.35,20.56c.02-6.87.04-13.73.07-20.56h-3.52c.03,7.95.05,15.94.08,23.94l3.38-3.38Z"/><path class="cls-1" d="m175.79,0h-3.52c.36,106.69.52,218.09.46,328.68l2.61,2.61c-.06-111.46.09-223.77.45-331.3Z"/><path class="cls-1" d="m594.28,24.64c.03-8.24.05-16.45.08-24.64h-3.54c.03,9.3.06,18.64.09,28l3.37-3.37Z"/><path class="cls-1" d="m358.19,260.73c0-25.83.02-51.65.05-77.38h-2.7c.03,26.59.05,53.27.05,79.97l2.59-2.59Z"/><path class="cls-1" d="m586.13,32.79c.03-10.98.07-21.91.1-32.79h-3.52c.04,11.98.08,24.01.11,36.09l3.3-3.3Z"/><path class="cls-1" d="m179.85,0h-3.52c.37,108,.52,220.81.45,332.74l2.62,2.62c-.07-112.79.08-226.52.45-335.36Z"/><path class="cls-1" d="m21.9,0c.2,58.32.33,118.03.41,178.26l2.72,2.72c.07-61.15.21-121.79.41-180.99h-3.54Z"/><path class="cls-1" d="m590.2,28.72c.03-9.61.06-19.18.09-28.72h-3.52c.04,10.64.07,21.32.1,32.05l3.33-3.33Z"/><path class="cls-1" d="m9.71,0c.18,54.38.32,109.97.39,166.06l2.74,2.74c.07-57.02.21-113.54.4-168.8h-3.52Z"/><path class="cls-1" d="m0,0v155.96l.67.67C.74,103.73.87,51.32,1.04,0H0Z"/><path class="cls-1" d="m323.09,283.2h2.58c0-33.33.02-66.66.06-99.84h-2.7c.04,33.19.06,66.51.06,99.84Z"/><path class="cls-1" d="m302.77,283.2h2.59c0-33.33.02-66.66.06-99.84h-2.7c.04,33.19.06,66.51.06,99.84Z"/><path class="cls-1" d="m282.45,283.2h2.58c0-33.33.02-66.66.06-99.84h-2.7c.04,33.19.06,66.51.06,99.84Z"/><path class="cls-1" d="m310.9,283.2h2.58c0-33.33.02-66.66.06-99.84h-2.7c.04,33.19.06,66.51.06,99.84Z"/><path class="cls-1" d="m319.02,283.2h2.6c0-33.33.02-66.66.06-99.84h-2.71c.04,33.19.06,66.51.06,99.84Z"/><path class="cls-1" d="m306.83,283.2h2.6c0-33.33.02-66.66.06-99.84h-2.71c.04,33.19.06,66.51.06,99.84Z"/><path class="cls-1" d="m1.58,0c.18,51.74.3,104.59.38,157.92l2.77,2.77c.08-54.27.2-108.05.38-160.69H1.58Z"/><path class="cls-1" d="m327.15,283.2h2.6c0-33.33.02-66.66.06-99.84h-2.71c.04,33.19.06,66.51.06,99.84Z"/><path class="cls-1" d="m5.65,0c.18,53.06.31,107.28.39,162l2.75,2.75c.08-55.65.21-110.8.39-164.74h-3.52Z"/><path class="cls-1" d="m331.22,283.2h2.58c0-33.33.02-66.66.06-99.84h-2.7c.04,33.19.06,66.51.06,99.84Z"/><path class="cls-1" d="m346,272.92c0-29.9.02-59.79.06-89.57h-2.7c.03,30.63.05,61.39.06,92.15l2.59-2.59Z"/><path class="cls-1" d="m335.28,283.2h.44l2.14-2.14c0-32.61.02-65.22.06-97.7h-2.7c.04,33.19.06,66.51.06,99.84Z"/><path class="cls-1" d="m286.51,283.2h2.6c0-33.33.02-66.66.06-99.84h-2.71c.04,33.19.06,66.51.06,99.84Z"/><path class="cls-1" d="m294.64,283.2h2.6c0-33.33.02-66.66.06-99.84h-2.71c.04,33.19.06,66.51.06,99.84Z"/><path class="cls-1" d="m258.08,283.2h2.58c0-33.33.02-66.66.06-99.84h-2.7c.04,33.19.06,66.51.06,99.84Z"/><path class="cls-1" d="m298.72,283.2h2.58c0-33.33.02-66.66.06-99.84h-2.7c.04,33.19.06,66.51.06,99.84Z"/><path class="cls-1" d="m341.94,276.98c0-31.26.02-62.5.06-93.63h-2.71c.04,31.99.06,64.1.06,96.23l2.6-2.6Z"/><path class="cls-1" d="m290.58,283.2h2.58c0-33.33.02-66.66.06-99.84h-2.7c.04,33.19.06,66.51.06,99.84Z"/><path class="cls-1" d="m237.76,283.2h2.58c0-33.33.02-66.66.06-99.84h-2.7c.04,33.19.06,66.51.06,99.84Z"/><path class="cls-1" d="m38.16,0c.22,63.57.36,128.8.42,194.55l2.67,2.67c.07-66.65.21-132.79.43-197.22h-3.52Z"/><path class="cls-1" d="m386.65,232.27c0-16.33.02-32.64.04-48.91h-2.7c.02,17.14.03,34.32.04,51.52l2.61-2.61Z"/><path class="cls-1" d="m167.66,0h-3.52c.35,104.08.51,212.63.46,320.56l2.6,2.6c-.05-108.78.1-218.25.46-323.16Z"/><path class="cls-1" d="m213.36,283.2h2.6c0-33.33.02-66.66.06-99.84h-2.71c.04,33.19.06,66.51.06,99.84Z"/><path class="cls-1" d="m562.39,0c.06,16.93.11,33.98.16,51.13h3.21c.05-17.15.1-34.2.16-51.13h-3.52Z"/><path class="cls-1" d="m382.59,236.33c0-17.69.02-35.35.04-52.97h-2.71c.02,18.5.04,37.04.05,55.6l2.62-2.62Z"/><path class="cls-1" d="m614.67,4.25c0-1.42,0-2.83.01-4.25h-3.54c0,2.58.02,5.16.03,7.75l3.5-3.5Z"/><path class="cls-1" d="m217.44,283.2h2.58c0-33.33.02-66.66.06-99.84h-2.7c.04,33.19.06,66.51.06,99.84Z"/><path class="cls-1" d="m618.74.18c0-.06,0-.12,0-.18h-3.52c0,1.23,0,2.46.01,3.69l3.51-3.51Z"/><path class="cls-1" d="m362.26,256.66c0-24.47.03-48.93.05-73.3h-2.71c.03,25.24.05,50.56.05,75.91l2.61-2.61Z"/><path class="cls-1" d="m558.32,0c.06,16.93.11,33.98.16,51.13h3.22c.05-17.15.1-34.2.16-51.13h-3.54Z"/><path class="cls-1" d="m398.85,220.07c0-12.25.02-24.49.03-36.72h-2.7c.01,13.1.03,26.21.04,39.34l2.63-2.63Z"/><path class="cls-1" d="m193.04,283.2h2.6c0-33.33.02-66.66.06-99.84h-2.71c.04,33.19.06,66.51.06,99.84Z"/><path class="cls-1" d="m394.79,224.13c0-13.61.02-27.21.04-40.78h-2.71c.02,14.45.03,28.92.04,43.41l2.64-2.64Z"/><path class="cls-1" d="m197.12,283.2h2.58c0-33.33.02-66.66.06-99.84h-2.7c.04,33.19.06,66.51.06,99.84Z"/><path class="cls-1" d="m390.71,228.21c0-14.97.02-29.93.04-44.85h-2.7c.02,15.8.03,31.62.04,47.47l2.62-2.62Z"/><path class="cls-1" d="m201.17,283.2h2.6c0-33.33.02-66.66.06-99.84h-2.71c.04,33.19.06,66.51.06,99.84Z"/><path class="cls-1" d="m205.25,283.2h2.58c0-33.33.02-66.66.06-99.84h-2.7c.04,33.19.06,66.51.06,99.84Z"/><path class="cls-1" d="m163.6,0h-3.54c.35,102.77.51,209.9.46,316.49l2.62,2.62c-.05-107.45.11-215.49.46-319.1Z"/><path class="cls-1" d="m209.3,283.2h2.59c0-33.33.02-66.66.06-99.84h-2.7c.04,33.19.06,66.51.06,99.84Z"/><path class="cls-1" d="m370.38,248.54c0-21.76.02-43.5.05-65.18h-2.7c.03,22.54.04,45.15.05,67.78l2.6-2.6Z"/><path class="cls-1" d="m366.32,252.6c0-23.12.03-46.21.05-69.24h-2.7c.03,23.89.04,47.85.05,71.84l2.59-2.59Z"/><path class="cls-1" d="m245.87,283.2h2.6c0-33.33.02-66.66.06-99.84h-2.71c.04,33.19.06,66.51.06,99.84Z"/><path class="cls-1" d="m42.22,0c.22,64.88.36,131.49.43,198.61l2.68,2.68c.06-68.03.21-135.55.43-201.28h-3.54Z"/><path class="cls-1" d="m241.81,283.2h2.58c0-33.33.02-66.66.06-99.84h-2.7c.04,33.19.06,66.51.06,99.84Z"/><path class="cls-1" d="m602.42,16.5c.02-5.51.04-11.01.05-16.5h-3.52c.02,6.62.04,13.25.07,19.9l3.4-3.4Z"/><path class="cls-1" d="m254,283.2h2.6c0-33.33.02-66.66.06-99.84h-2.71c.04,33.19.06,66.51.06,99.84Z"/><path class="cls-1" d="m378.52,240.4c0-19.05.02-38.07.05-57.05h-2.7c.02,19.84.04,39.74.05,59.65l2.6-2.6Z"/><path class="cls-1" d="m30.03,0c.21,60.94.35,123.42.42,186.41l2.69,2.69c.07-63.9.21-127.28.42-189.09h-3.52Z"/><path class="cls-1" d="m249.94,283.2h2.58c0-33.33.02-66.66.06-99.84h-2.7c.04,33.19.06,66.51.06,99.84Z"/><path class="cls-1" d="m374.46,244.46c0-20.4.02-40.78.05-61.11h-2.71c.02,21.2.04,42.45.05,63.72l2.62-2.62Z"/><path class="cls-1" d="m225.57,283.2h2.58c0-33.33.02-66.66.06-99.84h-2.7c.04,33.19.06,66.51.06,99.84Z"/><path class="cls-1" d="m610.58,8.34c0-2.78.02-5.56.03-8.34h-3.52c.01,3.92.03,7.85.04,11.79l3.45-3.45Z"/><path class="cls-1" d="m221.49,283.2h2.6c0-33.33.02-66.66.06-99.84h-2.71c.04,33.19.06,66.51.06,99.84Z"/><path class="cls-1" d="m229.62,283.2h2.58c0-33.33.02-66.66.06-99.84h-2.7c.04,33.19.06,66.51.06,99.84Z"/><path class="cls-1" d="m171.73,0h-3.54c.36,105.38.51,215.36.46,324.61l2.62,2.62c-.06-110.12.1-221.01.46-327.24Z"/><path class="cls-1" d="m34.09,0c.21,62.25.35,126.1.42,190.47l2.69,2.69c.07-65.28.21-130.04.42-193.16h-3.54Z"/><path class="cls-1" d="m233.68,283.2h2.6c0-33.33.02-66.66.06-99.84h-2.71c.04,33.19.06,66.51.06,99.84Z"/><path class="cls-1" d="m606.51,12.41c.01-4.14.03-8.28.04-12.41h-3.54c.02,5.28.04,10.55.05,15.85l3.45-3.45Z"/><path class="cls-1" d="m402.92,215.99c0-10.89.02-21.77.03-32.64h-2.71c.01,11.75.02,23.51.03,35.29l2.65-2.65Z"/><path class="cls-1" d="m448.6,0c.06,16.93.11,33.98.16,51.13h3.21c.05-17.15.1-34.2.16-51.13h-3.52Z"/><path class="cls-1" d="m412.02,0c.06,16.93.11,33.98.16,51.13h3.23c.05-17.15.1-34.2.16-51.13h-3.54Z"/><path class="cls-1" d="m403.9,0c.06,16.93.11,33.98.16,51.13h3.21c.05-17.15.1-34.2.16-51.13h-3.52Z"/><path class="cls-1" d="m391.7,0c.06,16.93.11,33.98.16,51.13h3.22c.05-17.15.1-34.2.16-51.13h-3.54Z"/><path class="cls-1" d="m416.09,0c.06,16.93.11,33.98.16,51.13h3.21c.05-17.15.1-34.2.16-51.13h-3.52Z"/><path class="cls-1" d="m399.83,0c.06,16.93.11,33.98.16,51.13h3.22c.05-17.15.1-34.2.16-51.13h-3.54Z"/><path class="cls-1" d="m395.77,0c.06,16.93.11,33.98.16,51.13h3.21c.05-17.15.1-34.2.16-51.13h-3.52Z"/><path class="cls-1" d="m407.96,0c.06,16.93.11,33.98.16,51.13h3.21c.05-17.15.1-34.2.16-51.13h-3.52Z"/><path class="cls-1" d="m420.15,0c.06,16.93.11,33.98.16,51.13h3.23c.05-17.15.1-34.2.16-51.13h-3.54Z"/><path class="cls-1" d="m436.41,0c.06,16.93.11,33.98.16,51.13h3.21c.05-17.15.1-34.2.16-51.13h-3.52Z"/><path class="cls-1" d="m444.53,0c.06,16.93.11,33.98.16,51.13h3.22c.05-17.15.1-34.2.16-51.13h-3.54Z"/><path class="cls-1" d="m440.47,0c.06,16.93.11,33.98.16,51.13h3.21c.05-17.15.1-34.2.16-51.13h-3.52Z"/><path class="cls-1" d="m432.34,0c.06,16.93.11,33.98.16,51.13h3.22c.05-17.15.1-34.2.16-51.13h-3.54Z"/><path class="cls-1" d="m424.22,0c.06,16.93.11,33.98.16,51.13h3.21c.05-17.15.1-34.2.16-51.13h-3.52Z"/><path class="cls-1" d="m428.28,0c.06,16.93.11,33.98.16,51.13h3.21c.05-17.15.1-34.2.16-51.13h-3.52Z"/><path class="cls-1" d="m387.64,0c.06,16.93.11,33.98.16,51.13h3.21c.05-17.15.1-34.2.16-51.13h-3.52Z"/><path class="cls-1" d="m342.94,0c.06,16.93.11,33.98.16,51.13h3.21c.05-17.15.1-34.2.16-51.13h-3.52Z"/><path class="cls-1" d="m338.87,0c.06,16.93.11,33.98.16,51.13h3.22c.05-17.15.1-34.2.16-51.13h-3.54Z"/><path class="cls-1" d="m347,0c.06,16.93.11,33.98.16,51.13h3.23c.05-17.15.1-34.2.16-51.13h-3.54Z"/><path class="cls-1" d="m383.58,0c.06,16.93.11,33.98.16,51.13h3.21c.05-17.15.1-34.2.16-51.13h-3.52Z"/><path class="cls-1" d="m334.81,0c.06,16.93.11,33.98.16,51.13h3.21c.05-17.15.1-34.2.16-51.13h-3.52Z"/><path class="cls-1" d="m351.08,0c.06,16.93.11,33.98.16,51.13h3.21c.05-17.15.1-34.2.16-51.13h-3.52Z"/><path class="cls-1" d="m330.75,0c.06,16.93.11,33.98.16,51.13h3.21c.05-17.15.1-34.2.16-51.13h-3.52Z"/><path class="cls-1" d="m326.68,0c.06,16.93.11,33.98.16,51.13h3.22c.05-17.15.1-34.2.16-51.13h-3.54Z"/><path class="cls-1" d="m375.45,0c.06,16.93.11,33.98.16,51.13h3.21c.05-17.15.1-34.2.16-51.13h-3.52Z"/><path class="cls-1" d="m379.51,0c.06,16.93.11,33.98.16,51.13h3.22c.05-17.15.1-34.2.16-51.13h-3.54Z"/><path class="cls-1" d="m355.13,0c.06,16.93.11,33.98.16,51.13h3.21c.05-17.15.1-34.2.16-51.13h-3.52Z"/><path class="cls-1" d="m371.38,0c.06,16.93.11,33.98.16,51.13h3.23c.05-17.15.1-34.2.16-51.13h-3.54Z"/><path class="cls-1" d="m367.32,0c.06,16.93.11,33.98.16,51.13h3.21c.05-17.15.1-34.2.16-51.13h-3.52Z"/><path class="cls-1" d="m359.19,0c.06,16.93.11,33.98.16,51.13h3.22c.05-17.15.1-34.2.16-51.13h-3.54Z"/><path class="cls-1" d="m322.62,0c.06,16.93.11,33.98.16,51.13h3.21c.05-17.15.1-34.2.16-51.13h-3.52Z"/><path class="cls-1" d="m363.26,0c.06,16.93.11,33.98.16,51.13h3.21c.05-17.15.1-34.2.16-51.13h-3.52Z"/><path class="cls-1" d="m533.94,0c.06,16.93.11,33.98.16,51.13h3.21c.05-17.15.1-34.2.16-51.13h-3.52Z"/><path class="cls-1" d="m513.62,0c.06,16.93.11,33.98.16,51.13h3.21c.05-17.15.1-34.2.16-51.13h-3.52Z"/><path class="cls-1" d="m529.88,0c.06,16.93.11,33.98.16,51.13h3.21c.05-17.15.1-34.2.16-51.13h-3.52Z"/><path class="cls-1" d="m542.07,0c.06,16.93.11,33.98.16,51.13h3.21c.05-17.15.1-34.2.16-51.13h-3.52Z"/><path class="cls-1" d="m517.68,0c.06,16.93.11,33.98.16,51.13h3.22c.05-17.15.1-34.2.16-51.13h-3.54Z"/><path class="cls-1" d="m521.75,0c.06,16.93.11,33.98.16,51.13h3.21c.05-17.15.1-34.2.16-51.13h-3.52Z"/><path class="cls-1" d="m525.81,0c.06,16.93.11,33.98.16,51.13h3.22c.05-17.15.1-34.2.16-51.13h-3.54Z"/><path class="cls-1" d="m538,0c.06,16.93.11,33.98.16,51.13h3.22c.05-17.15.1-34.2.16-51.13h-3.54Z"/><path class="cls-1" d="m554.26,0c.06,16.93.11,33.98.16,51.13h3.21c.05-17.15.1-34.2.16-51.13h-3.52Z"/><path class="cls-1" d="m573.9,45.02c.04-15.09.09-30.1.14-45.02h-3.54c.05,15.99.1,32.08.15,48.26l3.25-3.25Z"/><path class="cls-1" d="m569.97,0h-3.52c.06,16.93.11,33.98.16,51.13h1.18l2.03-2.03c.05-16.46.1-32.84.15-49.1Z"/><path class="cls-1" d="m550.19,0c.06,16.93.11,33.98.16,51.13h3.22c.05-17.15.1-34.2.16-51.13h-3.54Z"/><path class="cls-1" d="m546.13,0c.06,16.93.11,33.98.16,51.13h3.21c.05-17.15.1-34.2.16-51.13h-3.52Z"/><path class="cls-1" d="m577.97,40.95c.04-13.72.08-27.37.13-40.95h-3.52c.05,14.65.1,29.39.14,44.2l3.26-3.26Z"/><path class="cls-1" d="m582.06,36.86c.04-12.35.08-24.63.12-36.86h-3.54c.05,13.32.09,26.7.13,40.16l3.3-3.3Z"/><path class="cls-1" d="m468.92,0c.06,16.93.11,33.98.16,51.13h3.21c.05-17.15.1-34.2.16-51.13h-3.52Z"/><path class="cls-1" d="m472.98,0c.06,16.93.11,33.98.16,51.13h3.21c.05-17.15.1-34.2.16-51.13h-3.52Z"/><path class="cls-1" d="m452.66,0c.06,16.93.11,33.98.16,51.13h3.22c.05-17.15.1-34.2.16-51.13h-3.54Z"/><path class="cls-1" d="m477.04,0c.06,16.93.11,33.98.16,51.13h3.22c.05-17.15.1-34.2.16-51.13h-3.54Z"/><path class="cls-1" d="m460.79,0c.06,16.93.11,33.98.16,51.13h3.21c.05-17.15.1-34.2.16-51.13h-3.52Z"/><path class="cls-1" d="m456.73,0c.06,16.93.11,33.98.16,51.13h3.21c.05-17.15.1-34.2.16-51.13h-3.52Z"/><path class="cls-1" d="m481.11,0c.06,16.93.11,33.98.16,51.13h3.21c.05-17.15.1-34.2.16-51.13h-3.52Z"/><path class="cls-1" d="m464.85,0c.06,16.93.11,33.98.16,51.13h3.22c.05-17.15.1-34.2.16-51.13h-3.54Z"/><path class="cls-1" d="m509.56,0c.06,16.93.11,33.98.16,51.13h3.21c.05-17.15.1-34.2.16-51.13h-3.52Z"/><path class="cls-1" d="m501.43,0c.06,16.93.11,33.98.16,51.13h3.21c.05-17.15.1-34.2.16-51.13h-3.52Z"/><path class="cls-1" d="m505.49,0c.06,16.93.11,33.98.16,51.13h3.22c.05-17.15.1-34.2.16-51.13h-3.54Z"/><path class="cls-1" d="m485.17,0c.06,16.93.11,33.98.16,51.13h3.22c.05-17.15.1-34.2.16-51.13h-3.54Z"/><path class="cls-1" d="m497.36,0c.06,16.93.11,33.98.16,51.13h3.23c.05-17.15.1-34.2.16-51.13h-3.54Z"/><path class="cls-1" d="m489.24,0c.06,16.93.11,33.98.16,51.13h3.21c.05-17.15.1-34.2.16-51.13h-3.52Z"/><path class="cls-1" d="m493.3,0c.06,16.93.11,33.98.16,51.13h3.21c.05-17.15.1-34.2.16-51.13h-3.52Z"/><path class="cls-1" d="m269.8,0c.06,16.93.11,33.98.16,51.13h3.21c.05-17.15.1-34.2.16-51.13h-3.52Z"/><path class="cls-1" d="m281.98,0c.06,16.93.11,33.98.16,51.13h3.21c.05-17.15.1-34.2.16-51.13h-3.52Z"/><path class="cls-1" d="m277.93,0c.06,16.93.11,33.98.16,51.13h3.21c.05-17.15.1-34.2.16-51.13h-3.52Z"/><path class="cls-1" d="m225.1,0c.06,16.93.11,33.98.16,51.13h3.21c.05-17.15.1-34.2.16-51.13h-3.52Z"/><path class="cls-1" d="m273.85,0c.06,16.93.11,33.98.16,51.13h3.22c.05-17.15.1-34.2.16-51.13h-3.54Z"/><path class="cls-1" d="m261.66,0c.06,16.93.11,33.98.16,51.13h3.21c.05-17.15.1-34.2.16-51.13h-3.52Z"/><path class="cls-1" d="m265.72,0c.06,16.93.11,33.98.16,51.13h3.22c.05-17.15.1-34.2.16-51.13h-3.54Z"/><path class="cls-1" d="m298.25,0c.06,16.93.11,33.98.16,51.13h3.21c.05-17.15.1-34.2.16-51.13h-3.52Z"/><path class="cls-1" d="m294.17,0c.06,16.93.11,33.98.16,51.13h3.23c.05-17.15.1-34.2.16-51.13h-3.54Z"/><path class="cls-1" d="m257.61,0c.06,16.93.11,33.98.16,51.13h3.21c.05-17.15.1-34.2.16-51.13h-3.52Z"/><path class="cls-1" d="m302.3,0c.06,16.93.11,33.98.16,51.13h3.21c.05-17.15.1-34.2.16-51.13h-3.52Z"/><path class="cls-1" d="m310.44,0c.06,16.93.11,33.98.16,51.13h3.21c.05-17.15.1-34.2.16-51.13h-3.52Z"/><path class="cls-1" d="m286.04,0c.06,16.93.11,33.98.16,51.13h3.22c.05-17.15.1-34.2.16-51.13h-3.54Z"/><path class="cls-1" d="m290.12,0c.06,16.93.11,33.98.16,51.13h3.21c.05-17.15.1-34.2.16-51.13h-3.52Z"/><path class="cls-1" d="m229.16,0c.06,16.93.11,33.98.16,51.13h3.21c.05-17.15.1-34.2.16-51.13h-3.52Z"/><path class="cls-1" d="m318.55,0c.06,16.93.11,33.98.16,51.13h3.22c.05-17.15.1-34.2.16-51.13h-3.54Z"/><path class="cls-1" d="m237.29,0c.06,16.93.11,33.98.16,51.13h3.21c.05-17.15.1-34.2.16-51.13h-3.52Z"/><path class="cls-1" d="m253.53,0c.06,16.93.11,33.98.16,51.13h3.23c.05-17.15.1-34.2.16-51.13h-3.54Z"/><path class="cls-1" d="m233.21,0c.06,16.93.11,33.98.16,51.13h3.22c.05-17.15.1-34.2.16-51.13h-3.54Z"/><path class="cls-1" d="m306.36,0c.06,16.93.11,33.98.16,51.13h3.22c.05-17.15.1-34.2.16-51.13h-3.54Z"/><path class="cls-1" d="m241.34,0c.06,16.93.11,33.98.16,51.13h3.21c.05-17.15.1-34.2.16-51.13h-3.52Z"/><path class="cls-1" d="m314.49,0c.06,16.93.11,33.98.16,51.13h3.21c.05-17.15.1-34.2.16-51.13h-3.52Z"/><path class="cls-1" d="m245.4,0c.06,16.93.11,33.98.16,51.13h3.22c.05-17.15.1-34.2.16-51.13h-3.54Z"/><path class="cls-1" d="m249.48,0c.06,16.93.11,33.98.16,51.13h3.21c.05-17.15.1-34.2.16-51.13h-3.52Z"/><path class="cls-2" d="m1.04,0c-.17,51.32-.3,103.73-.38,156.63l1.29,1.29c-.08-53.33-.2-106.18-.38-157.92h-.54Z"/><path class="cls-2" d="m5.12,0c-.18,52.64-.31,106.42-.38,160.69l1.3,1.3c-.08-54.71-.2-108.94-.39-162h-.54Z"/><path class="cls-2" d="m9.17,0c-.18,53.95-.31,109.1-.39,164.74l1.32,1.32c-.08-56.09-.21-111.68-.39-166.06h-.54Z"/><path class="cls-2" d="m13.23,0c-.19,55.26-.32,111.77-.4,168.8l1.33,1.33c-.07-57.47-.21-114.44-.4-170.12h-.54Z"/><path class="cls-2" d="m17.3,0c-.19,56.57-.33,114.46-.4,172.86l1.34,1.34c-.07-58.85-.21-117.2-.4-174.2h-.54Z"/><path class="cls-2" d="m21.36,0c-.2,57.88-.33,117.14-.4,176.92l1.35,1.35c-.07-60.23-.21-119.95-.41-178.26h-.54Z"/><path class="cls-2" d="m25.44,0c-.2,59.19-.34,119.83-.41,180.99l1.36,1.36c-.07-61.61-.21-122.71-.41-182.34h-.54Z"/><path class="cls-2" d="m29.49,0c-.21,60.5-.34,122.51-.41,185.04l1.37,1.37c-.07-62.99-.21-125.46-.42-186.41h-.54Z"/><path class="cls-2" d="m33.55,0c-.21,61.81-.35,125.19-.42,189.09l1.38,1.38c-.07-64.37-.21-128.21-.42-190.47h-.54Z"/><path class="cls-2" d="m37.62,0c-.21,63.12-.36,127.88-.42,193.16l1.38,1.38c-.07-65.75-.21-130.98-.42-194.55h-.54Z"/><path class="cls-2" d="m41.68,0c-.22,64.43-.36,130.56-.43,197.22l1.39,1.39c-.06-67.12-.21-133.73-.43-198.61h-.54Z"/><path class="cls-2" d="m45.76,0c-.22,65.74-.37,133.26-.43,201.28l1.4,1.4c-.06-68.5-.21-136.49-.43-202.68h-.54Z"/><path class="cls-2" d="m49.81,0c-.23,67.04-.37,135.94-.43,205.34l1.41,1.41c-.06-69.87-.21-139.25-.44-206.75h-.54Z"/><path class="cls-2" d="m53.87,0c-.23,68.35-.38,138.62-.44,209.39l1.41,1.41c-.06-71.25-.21-142-.44-210.81h-.54Z"/><path class="cls-2" d="m57.94,0c-.24,69.66-.39,141.32-.44,213.46l1.42,1.42c-.06-72.62-.2-144.77-.44-214.88h-.54Z"/><path class="cls-2" d="m62,0c-.24,70.96-.39,144.01-.45,217.52l1.43,1.43c-.05-73.99-.2-147.52-.45-218.94h-.54Z"/><path class="cls-2" d="m66.06,0c-.25,72.27-.4,146.69-.45,221.57l1.43,1.43c-.05-75.36-.2-150.27-.45-223h-.54Z"/><path class="cls-2" d="m70.13,0c-.25,73.58-.4,149.39-.45,225.64l1.44,1.44c-.05-76.74-.2-153.04-.45-227.08h-.54Z"/><path class="cls-2" d="m74.19,0c-.25,74.88-.41,152.08-.45,229.7l1.44,1.44c-.05-78.1-.2-155.79-.45-231.14h-.54Z"/><path class="cls-2" d="m78.27,0c-.26,76.19-.41,154.78-.46,233.77l1.45,1.45c-.04-79.48-.2-158.56-.46-235.22h-.54Z"/><path class="cls-2" d="m82.32,0c-.26,77.5-.42,157.47-.46,237.83l1.45,1.45c-.04-80.84-.19-161.31-.46-239.28h-.54Z"/><path class="cls-2" d="m86.38,0c-.27,78.8-.42,160.16-.46,241.88l1.45,1.45c-.04-82.21-.19-164.07-.46-243.34h-.54Z"/><path class="cls-2" d="m90.45,0c-.27,80.11-.43,162.86-.46,245.95l1.46,1.46c-.03-83.58-.19-166.83-.46-247.41h-.54Z"/><path class="cls-2" d="m94.51,0c-.28,81.41-.43,165.56-.46,250.01l1.46,1.46c-.03-84.94-.18-169.59-.46-251.47h-.54Z"/><path class="cls-2" d="m98.58,0c-.28,82.72-.44,168.26-.46,254.08l1.46,1.46c-.03-86.31-.18-172.35-.46-255.55h-.54Z"/><path class="cls-2" d="m102.64,0c-.29,84.02-.44,170.96-.47,258.14l1.47,1.47c-.02-87.67-.18-175.11-.47-259.6h-.54Z"/><path class="cls-2" d="m106.7,0c-.29,85.33-.45,173.66-.47,262.19l1.47,1.47c-.02-89.02-.17-177.86-.47-263.66h-.54Z"/><path class="cls-2" d="m110.77,0c-.29,86.63-.45,176.37-.47,266.27l1.47,1.47c-.01-90.39-.17-180.63-.47-267.74h-.54Z"/><path class="cls-2" d="m114.83,0c-.3,87.94-.46,179.07-.47,270.32l1.47,1.47c-.01-91.74-.17-183.38-.47-271.8h-.54Z"/><path class="cls-2" d="m118.91,0c-.3,89.25-.46,181.78-.47,274.4l1.47,1.47c0-93.1-.16-186.15-.47-275.87h-.54Z"/><path class="cls-2" d="m122.96,0c-.31,90.55-.47,184.49-.47,278.45l1.47,1.47c0-94.46-.16-188.9-.47-279.93h-.54Z"/><path class="cls-2" d="m127.56,0h-.54c-.31,91.85-.47,187.19-.47,282.51l1.47,1.47c0-95.81-.15-191.66-.47-283.98Z"/><path class="cls-2" d="m131.63,0h-.54c-.32,93.16-.47,189.91-.47,286.58l1.47,1.47c0-97.16-.15-194.42-.47-288.06Z"/><path class="cls-2" d="m135.69,0h-.54c-.32,94.47-.48,192.62-.47,290.64l1.47,1.47c.01-98.51-.14-197.17-.47-292.11Z"/><path class="cls-2" d="m139.74,0h-.54c-.33,95.77-.48,195.33-.47,294.7l1.47,1.47c.02-99.86-.14-199.93-.47-296.17Z"/><path class="cls-2" d="m143.82,0h-.54c-.33,97.08-.49,198.05-.47,298.78l1.47,1.47c.02-101.21-.13-202.69-.47-300.25Z"/><path class="cls-2" d="m147.87,0h-.54c-.33,98.38-.49,200.76-.47,302.83l1.47,1.47c.03-102.55-.13-205.45-.47-304.3Z"/><path class="cls-2" d="m151.95,0h-.54c-.34,99.69-.5,203.49-.46,306.91l1.46,1.46c.03-103.9-.12-208.21-.46-308.37Z"/><path class="cls-2" d="m156.01,0h-.54c-.34,101-.5,206.21-.46,310.97l1.46,1.46c.04-105.24-.12-210.96-.46-312.43Z"/><path class="cls-2" d="m160.06,0h-.54c-.35,102.3-.5,208.92-.46,315.03l1.46,1.46c.04-106.58-.11-213.71-.46-316.49Z"/><path class="cls-2" d="m164.14,0h-.54c-.35,103.61-.51,211.66-.46,319.1l1.46,1.46c.05-107.92-.11-216.48-.46-320.56Z"/><path class="cls-2" d="m168.2,0h-.54c-.36,104.91-.51,214.38-.46,323.16l1.45,1.45c.05-109.26-.1-219.23-.46-324.61Z"/><path class="cls-2" d="m172.27,0h-.54c-.36,106.22-.52,217.11-.46,327.24l1.45,1.45c.06-110.6-.09-221.99-.46-328.68Z"/><path class="cls-2" d="m176.33,0h-.54c-.37,107.53-.52,219.84-.45,331.3l1.44,1.44c.07-111.93-.09-224.74-.45-332.74Z"/><path class="cls-2" d="m180.38,0h-.54c-.37,108.84-.52,222.57-.45,335.36l1.44,1.44c.07-113.26-.08-227.49-.45-336.8Z"/><path class="cls-2" d="m184.46,0h-.54c-.37,110.15-.53,225.31-.45,339.43l1.43,1.43c.08-114.59-.07-230.25-.45-340.87Z"/><path class="cls-2" d="m187.98,0c-.38,111.45-.53,228.04-.45,343.49l.7.7v-60.99h.75c0-33.33-.02-66.66-.06-99.84h-.7V51.13h.44c-.05-17.15-.1-34.2-.16-51.13h-.54Z"/><path class="cls-2" d="m192.04,0c-.06,16.93-.11,33.98-.16,51.13h.85c-.05-17.15-.1-34.2-.16-51.13h-.54Z"/><path class="cls-2" d="m191.57,283.2h1.47c0-33.33-.02-66.66-.06-99.84h-1.36c-.04,33.19-.06,66.51-.06,99.84Z"/><path class="cls-2" d="m195.64,283.2h1.47c0-33.33-.02-66.66-.06-99.84h-1.36c-.04,33.19-.06,66.51-.06,99.84Z"/><path class="cls-2" d="m196.11,0c-.06,16.93-.11,33.98-.16,51.13h.85c-.05-17.15-.1-34.2-.16-51.13h-.54Z"/><path class="cls-2" d="m199.7,283.2h1.47c0-33.33-.02-66.66-.06-99.84h-1.36c-.04,33.19-.06,66.51-.06,99.84Z"/><path class="cls-2" d="m200.17,0c-.06,16.93-.11,33.98-.16,51.13h.85c-.05-17.15-.1-34.2-.16-51.13h-.54Z"/><path class="cls-2" d="m203.77,283.2h1.47c0-33.33-.02-66.66-.06-99.84h-1.36c-.04,33.19-.06,66.51-.06,99.84Z"/><path class="cls-2" d="m204.24,0c-.06,16.93-.11,33.98-.16,51.13h.85c-.05-17.15-.1-34.2-.16-51.13h-.54Z"/><path class="cls-2" d="m208.3,0c-.06,16.93-.11,33.98-.16,51.13h.85c-.05-17.15-.1-34.2-.16-51.13h-.54Z"/><path class="cls-2" d="m207.83,283.2h1.47c0-33.33-.02-66.66-.06-99.84h-1.36c-.04,33.19-.06,66.51-.06,99.84Z"/><path class="cls-2" d="m212.36,0c-.06,16.93-.11,33.98-.16,51.13h.85c-.05-17.15-.1-34.2-.16-51.13h-.54Z"/><path class="cls-2" d="m211.89,283.2h1.47c0-33.33-.02-66.66-.06-99.84h-1.36c-.04,33.19-.06,66.51-.06,99.84Z"/><path class="cls-2" d="m216.43,0c-.06,16.93-.11,33.98-.16,51.13h.85c-.05-17.15-.1-34.2-.16-51.13h-.54Z"/><path class="cls-2" d="m215.96,283.2h1.47c0-33.33-.02-66.66-.06-99.84h-1.36c-.04,33.19-.06,66.51-.06,99.84Z"/><path class="cls-2" d="m220.49,0c-.06,16.93-.11,33.98-.16,51.13h.85c-.05-17.15-.1-34.2-.16-51.13h-.54Z"/><path class="cls-2" d="m220.02,283.2h1.47c0-33.33-.02-66.66-.06-99.84h-1.36c-.04,33.19-.06,66.51-.06,99.84Z"/><path class="cls-2" d="m224.56,0c-.06,16.93-.11,33.98-.16,51.13h.85c-.05-17.15-.1-34.2-.16-51.13h-.54Z"/><path class="cls-2" d="m224.09,283.2h1.47c0-33.33-.02-66.66-.06-99.84h-1.36c-.04,33.19-.06,66.51-.06,99.84Z"/><path class="cls-2" d="m228.62,0c-.06,16.93-.11,33.98-.16,51.13h.85c-.05-17.15-.1-34.2-.16-51.13h-.54Z"/><path class="cls-2" d="m228.15,283.2h1.47c0-33.33-.02-66.66-.06-99.84h-1.36c-.04,33.19-.06,66.51-.06,99.84Z"/><path class="cls-2" d="m232.21,283.2h1.47c0-33.33-.02-66.66-.06-99.84h-1.36c-.04,33.19-.06,66.51-.06,99.84Z"/><path class="cls-2" d="m232.68,0c-.06,16.93-.11,33.98-.16,51.13h.85c-.05-17.15-.1-34.2-.16-51.13h-.54Z"/><path class="cls-2" d="m236.75,0c-.06,16.93-.11,33.98-.16,51.13h.85c-.05-17.15-.1-34.2-.16-51.13h-.54Z"/><path class="cls-2" d="m236.28,283.2h1.47c0-33.33-.02-66.66-.06-99.84h-1.36c-.04,33.19-.06,66.51-.06,99.84Z"/><path class="cls-2" d="m240.34,283.2h1.47c0-33.33-.02-66.66-.06-99.84h-1.36c-.04,33.19-.06,66.51-.06,99.84Z"/><path class="cls-2" d="m240.81,0c-.06,16.93-.11,33.98-.16,51.13h.85c-.05-17.15-.1-34.2-.16-51.13h-.54Z"/><path class="cls-2" d="m244.87,0c-.06,16.93-.11,33.98-.16,51.13h.85c-.05-17.15-.1-34.2-.16-51.13h-.54Z"/><path class="cls-2" d="m244.4,283.2h1.47c0-33.33-.02-66.66-.06-99.84h-1.36c-.04,33.19-.06,66.51-.06,99.84Z"/><path class="cls-2" d="m248.94,0c-.06,16.93-.11,33.98-.16,51.13h.85c-.05-17.15-.1-34.2-.16-51.13h-.54Z"/><path class="cls-2" d="m248.47,283.2h1.47c0-33.33-.02-66.66-.06-99.84h-1.36c-.04,33.19-.06,66.51-.06,99.84Z"/><path class="cls-2" d="m253,0c-.06,16.93-.11,33.98-.16,51.13h.85c-.05-17.15-.1-34.2-.16-51.13h-.54Z"/><path class="cls-2" d="m252.53,283.2h1.47c0-33.33-.02-66.66-.06-99.84h-1.36c-.04,33.19-.06,66.51-.06,99.84Z"/><path class="cls-2" d="m257.07,0c-.06,16.93-.11,33.98-.16,51.13h.85c-.05-17.15-.1-34.2-.16-51.13h-.54Z"/><path class="cls-2" d="m256.6,283.2h1.47c0-33.33-.02-66.66-.06-99.84h-1.36c-.04,33.19-.06,66.51-.06,99.84Z"/><path class="cls-2" d="m260.66,283.2h1.47c0-33.33-.02-66.66-.06-99.84h-1.36c-.04,33.19-.06,66.51-.06,99.84Z"/><path class="cls-2" d="m261.13,0c-.06,16.93-.11,33.98-.16,51.13h.85c-.05-17.15-.1-34.2-.16-51.13h-.54Z"/><path class="cls-2" d="m265.19,0c-.06,16.93-.11,33.98-.16,51.13h.85c-.05-17.15-.1-34.2-.16-51.13h-.54Z"/><path class="cls-2" d="m264.72,283.2h1.47c0-33.33-.02-66.66-.06-99.84h-1.36c-.04,33.19-.06,66.51-.06,99.84Z"/><path class="cls-2" d="m268.79,283.2h1.47c0-33.33-.02-66.66-.06-99.84h-1.36c-.04,33.19-.06,66.51-.06,99.84Z"/><path class="cls-2" d="m269.26,0c-.06,16.93-.11,33.98-.16,51.13h.85c-.05-17.15-.1-34.2-.16-51.13h-.54Z"/><path class="cls-2" d="m272.85,283.2h1.47c0-33.33-.02-66.66-.06-99.84h-1.36c-.04,33.19-.06,66.51-.06,99.84Z"/><path class="cls-2" d="m273.32,0c-.06,16.93-.11,33.98-.16,51.13h.85c-.05-17.15-.1-34.2-.16-51.13h-.54Z"/><path class="cls-2" d="m277.39,0c-.06,16.93-.11,33.98-.16,51.13h.85c-.05-17.15-.1-34.2-.16-51.13h-.54Z"/><path class="cls-2" d="m276.92,283.2h1.47c0-33.33-.02-66.66-.06-99.84h-1.36c-.04,33.19-.06,66.51-.06,99.84Z"/><path class="cls-2" d="m281.45,0c-.06,16.93-.11,33.98-.16,51.13h.85c-.05-17.15-.1-34.2-.16-51.13h-.54Z"/><path class="cls-2" d="m280.98,283.2h1.47c0-33.33-.02-66.66-.06-99.84h-1.36c-.04,33.19-.06,66.51-.06,99.84Z"/><path class="cls-2" d="m285.51,0c-.06,16.93-.11,33.98-.16,51.13h.85c-.05-17.15-.1-34.2-.16-51.13h-.54Z"/><path class="cls-2" d="m285.04,283.2h1.47c0-33.33-.02-66.66-.06-99.84h-1.36c-.04,33.19-.06,66.51-.06,99.84Z"/><path class="cls-2" d="m289.11,283.2h1.47c0-33.33-.02-66.66-.06-99.84h-1.36c-.04,33.19-.06,66.51-.06,99.84Z"/><path class="cls-2" d="m289.58,0c-.06,16.93-.11,33.98-.16,51.13h.85c-.05-17.15-.1-34.2-.16-51.13h-.54Z"/><path class="cls-2" d="m293.17,283.2h1.47c0-33.33-.02-66.66-.06-99.84h-1.36c-.04,33.19-.06,66.51-.06,99.84Z"/><path class="cls-2" d="m293.64,0c-.06,16.93-.11,33.98-.16,51.13h.85c-.05-17.15-.1-34.2-.16-51.13h-.54Z"/><path class="cls-2" d="m297.71,0c-.06,16.93-.11,33.98-.16,51.13h.85c-.05-17.15-.1-34.2-.16-51.13h-.54Z"/><path class="cls-2" d="m297.24,283.2h1.47c0-33.33-.02-66.66-.06-99.84h-1.36c-.04,33.19-.06,66.51-.06,99.84Z"/><path class="cls-2" d="m301.77,0c-.06,16.93-.11,33.98-.16,51.13h.85c-.05-17.15-.1-34.2-.16-51.13h-.54Z"/><path class="cls-2" d="m301.3,283.2h1.47c0-33.33-.02-66.66-.06-99.84h-1.36c-.04,33.19-.06,66.51-.06,99.84Z"/><path class="cls-2" d="m305.36,283.2h1.47c0-33.33-.02-66.66-.06-99.84h-1.36c-.04,33.19-.06,66.51-.06,99.84Z"/><path class="cls-2" d="m305.83,0c-.06,16.93-.11,33.98-.16,51.13h.85c-.05-17.15-.1-34.2-.16-51.13h-.54Z"/><path class="cls-2" d="m309.9,0c-.06,16.93-.11,33.98-.16,51.13h.85c-.05-17.15-.1-34.2-.16-51.13h-.54Z"/><path class="cls-2" d="m309.43,283.2h1.47c0-33.33-.02-66.66-.06-99.84h-1.36c-.04,33.19-.06,66.51-.06,99.84Z"/><path class="cls-2" d="m313.96,0c-.06,16.93-.11,33.98-.16,51.13h.85c-.05-17.15-.1-34.2-.16-51.13h-.54Z"/><path class="cls-2" d="m313.49,283.2h1.47c0-33.33-.02-66.66-.06-99.84h-1.36c-.04,33.19-.06,66.51-.06,99.84Z"/><path class="cls-2" d="m318.02,0c-.06,16.93-.11,33.98-.16,51.13h.85c-.05-17.15-.1-34.2-.16-51.13h-.54Z"/><path class="cls-2" d="m317.55,283.2h1.47c0-33.33-.02-66.66-.06-99.84h-1.36c-.04,33.19-.06,66.51-.06,99.84Z"/><path class="cls-2" d="m321.62,283.2h1.47c0-33.33-.02-66.66-.06-99.84h-1.36c-.04,33.19-.06,66.51-.06,99.84Z"/><path class="cls-2" d="m322.09,0c-.06,16.93-.11,33.98-.16,51.13h.85c-.05-17.15-.1-34.2-.16-51.13h-.54Z"/><path class="cls-2" d="m325.68,283.2h1.47c0-33.33-.02-66.66-.06-99.84h-1.36c-.04,33.19-.06,66.51-.06,99.84Z"/><path class="cls-2" d="m326.15,0c-.06,16.93-.11,33.98-.16,51.13h.85c-.05-17.15-.1-34.2-.16-51.13h-.54Z"/><path class="cls-2" d="m330.22,0c-.06,16.93-.11,33.98-.16,51.13h.85c-.05-17.15-.1-34.2-.16-51.13h-.54Z"/><path class="cls-2" d="m329.75,283.2h1.47c0-33.33-.02-66.66-.06-99.84h-1.36c-.04,33.19-.06,66.51-.06,99.84Z"/><path class="cls-2" d="m334.28,0c-.06,16.93-.11,33.98-.16,51.13h.85c-.05-17.15-.1-34.2-.16-51.13h-.54Z"/><path class="cls-2" d="m333.81,283.2h1.47c0-33.33-.02-66.66-.06-99.84h-1.36c-.04,33.19-.06,66.51-.06,99.84Z"/><path class="cls-2" d="m338.34,0c-.06,16.93-.11,33.98-.16,51.13h.85c-.05-17.15-.1-34.2-.16-51.13h-.54Z"/><path class="cls-2" d="m337.87,281.05l1.47-1.47c0-32.12-.02-64.24-.06-96.23h-1.36c-.04,32.48-.06,65.09-.06,97.7Z"/><path class="cls-2" d="m343.41,275.51c0-30.76-.02-61.52-.06-92.15h-1.36c-.04,31.12-.05,62.37-.06,93.63l1.47-1.47Z"/><path class="cls-2" d="m342.41,0c-.06,16.93-.11,33.98-.16,51.13h.85c-.05-17.15-.1-34.2-.16-51.13h-.54Z"/><path class="cls-2" d="m347.47,271.45c0-29.41-.02-58.81-.06-88.1h-1.36c-.03,29.78-.05,59.67-.06,89.57l1.47-1.47Z"/><path class="cls-2" d="m346.47,0c-.06,16.93-.11,33.98-.16,51.13h.85c-.05-17.15-.1-34.2-.16-51.13h-.54Z"/><path class="cls-2" d="m351.54,267.38c0-28.05-.02-56.09-.05-84.02h-1.36c-.03,28.42-.05,56.95-.05,85.49l1.47-1.47Z"/><path class="cls-2" d="m350.54,0c-.06,16.93-.11,33.98-.16,51.13h.85c-.05-17.15-.1-34.2-.16-51.13h-.54Z"/><path class="cls-2" d="m355.6,263.32c0-26.7-.02-53.38-.05-79.97h-1.36c-.03,27.08-.05,54.25-.05,81.43l1.47-1.47Z"/><path class="cls-2" d="m354.6,0c-.06,16.93-.11,33.98-.16,51.13h.85c-.05-17.15-.1-34.2-.16-51.13h-.54Z"/><path class="cls-2" d="m359.66,259.26c0-25.34-.02-50.67-.05-75.91h-1.36c-.03,25.73-.05,51.54-.05,77.38l1.47-1.47Z"/><path class="cls-2" d="m358.66,0c-.06,16.93-.11,33.98-.16,51.13h.85c-.05-17.15-.1-34.2-.16-51.13h-.54Z"/><path class="cls-2" d="m363.73,255.19c0-23.99-.02-47.95-.05-71.84h-1.36c-.03,24.38-.05,48.83-.05,73.3l1.47-1.47Z"/><path class="cls-2" d="m362.73,0c-.06,16.93-.11,33.98-.16,51.13h.85c-.05-17.15-.1-34.2-.16-51.13h-.54Z"/><path class="cls-2" d="m367.78,251.13c0-22.63-.02-45.24-.05-67.78h-1.36c-.03,23.03-.04,46.12-.05,69.24l1.46-1.46Z"/><path class="cls-2" d="m366.79,0c-.06,16.93-.11,33.98-.16,51.13h.85c-.05-17.15-.1-34.2-.16-51.13h-.54Z"/><path class="cls-2" d="m370.84,0c-.06,16.93-.11,33.98-.16,51.13h.85c-.05-17.15-.1-34.2-.16-51.13h-.54Z"/><path class="cls-2" d="m371.84,247.08c0-21.28-.02-42.53-.05-63.72h-1.36c-.02,21.68-.04,43.42-.05,65.18l1.46-1.46Z"/><path class="cls-2" d="m375.91,243.01c0-19.92-.02-39.81-.05-59.65h-1.36c-.02,20.33-.04,40.71-.05,61.11l1.46-1.46Z"/><path class="cls-2" d="m374.92,0c-.06,16.93-.11,33.98-.16,51.13h.85c-.05-17.15-.1-34.2-.16-51.13h-.54Z"/><path class="cls-2" d="m378.98,0c-.06,16.93-.11,33.98-.16,51.13h.85c-.05-17.15-.1-34.2-.16-51.13h-.54Z"/><path class="cls-2" d="m379.97,238.95c0-18.56-.02-37.1-.05-55.6h-1.36c-.02,18.98-.04,38-.05,57.05l1.45-1.45Z"/><path class="cls-2" d="m383.05,0c-.06,16.93-.11,33.98-.16,51.13h.85c-.05-17.15-.1-34.2-.16-51.13h-.54Z"/><path class="cls-2" d="m384.04,234.88c0-17.2-.02-34.38-.04-51.52h-1.36c-.02,17.63-.04,35.29-.04,52.97l1.45-1.45Z"/><path class="cls-2" d="m388.1,230.82c0-15.85-.02-31.67-.04-47.47h-1.36c-.02,16.28-.03,32.58-.04,48.91l1.44-1.44Z"/><path class="cls-2" d="m387.11,0c-.06,16.93-.11,33.98-.16,51.13h.85c-.05-17.15-.1-34.2-.16-51.13h-.54Z"/><path class="cls-2" d="m392.15,226.77c0-14.49-.02-28.97-.04-43.41h-1.36c-.02,14.93-.03,29.88-.04,44.85l1.44-1.44Z"/><path class="cls-2" d="m391.16,0c-.06,16.93-.11,33.98-.16,51.13h.85c-.05-17.15-.1-34.2-.16-51.13h-.54Z"/><path class="cls-2" d="m396.22,222.7c0-13.13-.02-26.25-.04-39.34h-1.36c-.02,13.57-.03,27.17-.04,40.78l1.43-1.43Z"/><path class="cls-2" d="m395.24,0c-.06,16.93-.11,33.98-.16,51.13h.85c-.05-17.15-.1-34.2-.16-51.13h-.54Z"/><path class="cls-2" d="m399.3,0c-.06,16.93-.11,33.98-.16,51.13h.85c-.05-17.15-.1-34.2-.16-51.13h-.54Z"/><path class="cls-2" d="m400.28,218.64c0-11.78-.02-23.54-.03-35.29h-1.36c-.01,12.22-.03,24.46-.03,36.72l1.43-1.43Z"/><path class="cls-2" d="m403.37,0c-.06,16.93-.11,33.98-.16,51.13h.85c-.05-17.15-.1-34.2-.16-51.13h-.54Z"/><path class="cls-2" d="m404.35,214.57c0-10.42-.02-20.82-.03-31.22h-1.36c-.01,10.87-.02,21.75-.03,32.64l1.42-1.42Z"/><path class="cls-2" d="m407.43,0c-.06,16.93-.11,33.98-.16,51.13h.85c-.05-17.15-.1-34.2-.16-51.13h-.54Z"/><path class="cls-2" d="m408.4,210.52c0-9.06-.02-18.12-.03-27.16h-1.36c-.01,9.52-.02,19.04-.03,28.58l1.42-1.42Z"/><path class="cls-2" d="m412.45,206.46c0-7.71-.01-15.41-.02-23.11h-1.36c0,8.17-.02,16.34-.02,24.52l1.41-1.41Z"/><path class="cls-2" d="m411.48,0c-.06,16.93-.11,33.98-.16,51.13h.85c-.05-17.15-.1-34.2-.16-51.13h-.54Z"/><path class="cls-2" d="m416.53,202.39c0-6.35-.01-12.7-.02-19.04h-1.36c0,6.81-.01,13.62-.02,20.44l1.4-1.4Z"/><path class="cls-2" d="m415.56,0c-.06,16.93-.11,33.98-.16,51.13h.85c-.05-17.15-.1-34.2-.16-51.13h-.54Z"/><path class="cls-2" d="m419.61,0c-.06,16.93-.11,33.98-.16,51.13h.85c-.05-17.15-.1-34.2-.16-51.13h-.54Z"/><path class="cls-2" d="m420.58,198.34c0-5-.01-9.99-.02-14.99h-1.36c0,5.46-.01,10.92-.02,16.38l1.39-1.39Z"/><path class="cls-2" d="m424.65,194.27c0-3.64,0-7.28-.01-10.92h-1.36c0,4.1,0,8.2-.01,12.3l1.39-1.39Z"/><path class="cls-2" d="m423.69,0c-.06,16.93-.11,33.98-.16,51.13h.85c-.05-17.15-.1-34.2-.16-51.13h-.54Z"/><path class="cls-2" d="m427.75,0c-.06,16.93-.11,33.98-.16,51.13h.85c-.05-17.15-.1-34.2-.16-51.13h-.54Z"/><path class="cls-2" d="m428.7,190.22c0-2.29,0-4.57,0-6.86h-1.36c0,2.75,0,5.49,0,8.24l1.38-1.38Z"/><path class="cls-2" d="m431.8,0c-.06,16.93-.11,33.98-.16,51.13h.85c-.05-17.15-.1-34.2-.16-51.13h-.54Z"/><path class="cls-2" d="m432.75,186.16c0-.94,0-1.87,0-2.81h-1.36c0,1.39,0,2.78,0,4.18l1.37-1.37Z"/><path class="cls-2" d="m435.56,183.35h-.1s0,.07,0,.1l.1-.1Z"/><path class="cls-2" d="m435.88,0c-.06,16.93-.11,33.98-.16,51.13h.85c-.05-17.15-.1-34.2-.16-51.13h-.54Z"/><path class="cls-2" d="m439.93,0c-.06,16.93-.11,33.98-.16,51.13h.85c-.05-17.15-.1-34.2-.16-51.13h-.54Z"/><path class="cls-2" d="m443.99,0c-.06,16.93-.11,33.98-.16,51.13h.85c-.05-17.15-.1-34.2-.16-51.13h-.54Z"/><path class="cls-2" d="m448.07,0c-.06,16.93-.11,33.98-.16,51.13h.85c-.05-17.15-.1-34.2-.16-51.13h-.54Z"/><path class="cls-2" d="m452.12,0c-.06,16.93-.11,33.98-.16,51.13h.85c-.05-17.15-.1-34.2-.16-51.13h-.54Z"/><path class="cls-2" d="m456.2,0c-.06,16.93-.11,33.98-.16,51.13h.85c-.05-17.15-.1-34.2-.16-51.13h-.54Z"/><path class="cls-2" d="m460.26,0c-.06,16.93-.11,33.98-.16,51.13h.85c-.05-17.15-.1-34.2-.16-51.13h-.54Z"/><path class="cls-2" d="m464.31,0c-.06,16.93-.11,33.98-.16,51.13h.85c-.05-17.15-.1-34.2-.16-51.13h-.54Z"/><path class="cls-2" d="m468.39,0c-.06,16.93-.11,33.98-.16,51.13h.85c-.05-17.15-.1-34.2-.16-51.13h-.54Z"/><path class="cls-2" d="m472.44,0c-.06,16.93-.11,33.98-.16,51.13h.85c-.05-17.15-.1-34.2-.16-51.13h-.54Z"/><path class="cls-2" d="m476.5,0c-.06,16.93-.11,33.98-.16,51.13h.85c-.05-17.15-.1-34.2-.16-51.13h-.54Z"/><path class="cls-2" d="m480.58,0c-.06,16.93-.11,33.98-.16,51.13h.85c-.05-17.15-.1-34.2-.16-51.13h-.54Z"/><path class="cls-2" d="m484.63,0c-.06,16.93-.11,33.98-.16,51.13h.85c-.05-17.15-.1-34.2-.16-51.13h-.54Z"/><path class="cls-2" d="m488.71,0c-.06,16.93-.11,33.98-.16,51.13h.85c-.05-17.15-.1-34.2-.16-51.13h-.54Z"/><path class="cls-2" d="m492.76,0c-.06,16.93-.11,33.98-.16,51.13h.85c-.05-17.15-.1-34.2-.16-51.13h-.54Z"/><path class="cls-2" d="m496.82,0c-.06,16.93-.11,33.98-.16,51.13h.85c-.05-17.15-.1-34.2-.16-51.13h-.54Z"/><path class="cls-2" d="m500.9,0c-.06,16.93-.11,33.98-.16,51.13h.85c-.05-17.15-.1-34.2-.16-51.13h-.54Z"/><path class="cls-2" d="m504.95,0c-.06,16.93-.11,33.98-.16,51.13h.85c-.05-17.15-.1-34.2-.16-51.13h-.54Z"/><path class="cls-2" d="m509.03,0c-.06,16.93-.11,33.98-.16,51.13h.85c-.05-17.15-.1-34.2-.16-51.13h-.54Z"/><path class="cls-2" d="m513.08,0c-.06,16.93-.11,33.98-.16,51.13h.85c-.05-17.15-.1-34.2-.16-51.13h-.54Z"/><path class="cls-2" d="m517.14,0c-.06,16.93-.11,33.98-.16,51.13h.85c-.05-17.15-.1-34.2-.16-51.13h-.54Z"/><path class="cls-2" d="m521.21,0c-.06,16.93-.11,33.98-.16,51.13h.85c-.05-17.15-.1-34.2-.16-51.13h-.54Z"/><path class="cls-2" d="m525.27,0c-.06,16.93-.11,33.98-.16,51.13h.85c-.05-17.15-.1-34.2-.16-51.13h-.54Z"/><path class="cls-2" d="m529.35,0c-.06,16.93-.11,33.98-.16,51.13h.85c-.05-17.15-.1-34.2-.16-51.13h-.54Z"/><path class="cls-2" d="m533.4,0c-.06,16.93-.11,33.98-.16,51.13h.85c-.05-17.15-.1-34.2-.16-51.13h-.54Z"/><path class="cls-2" d="m537.46,0c-.06,16.93-.11,33.98-.16,51.13h.85c-.05-17.15-.1-34.2-.16-51.13h-.54Z"/><path class="cls-2" d="m541.53,0c-.06,16.93-.11,33.98-.16,51.13h.85c-.05-17.15-.1-34.2-.16-51.13h-.54Z"/><path class="cls-2" d="m545.59,0c-.06,16.93-.11,33.98-.16,51.13h.85c-.05-17.15-.1-34.2-.16-51.13h-.54Z"/><path class="cls-2" d="m549.65,0c-.06,16.93-.11,33.98-.16,51.13h.85c-.05-17.15-.1-34.2-.16-51.13h-.54Z"/><path class="cls-2" d="m553.72,0c-.06,16.93-.11,33.98-.16,51.13h.85c-.05-17.15-.1-34.2-.16-51.13h-.54Z"/><path class="cls-2" d="m557.78,0c-.06,16.93-.11,33.98-.16,51.13h.85c-.05-17.15-.1-34.2-.16-51.13h-.54Z"/><path class="cls-2" d="m561.85,0c-.06,16.93-.11,33.98-.16,51.13h.85c-.05-17.15-.1-34.2-.16-51.13h-.54Z"/><path class="cls-2" d="m565.91,0c-.06,16.93-.11,33.98-.16,51.13h.85c-.05-17.15-.1-34.2-.16-51.13h-.54Z"/><path class="cls-2" d="m570.65,48.26c-.04-16.18-.09-32.28-.15-48.26h-.54c-.06,16.26-.11,32.64-.15,49.1l.84-.84Z"/><path class="cls-2" d="m574.72,44.2c-.04-14.81-.09-29.55-.14-44.2h-.54c-.05,14.92-.1,29.93-.14,45.02l.81-.81Z"/><path class="cls-2" d="m578.76,40.16c-.04-13.45-.08-26.84-.13-40.16h-.54c-.05,13.58-.09,27.23-.13,40.95l.79-.79Z"/><path class="cls-2" d="m582.83,36.09c-.04-12.09-.07-24.12-.11-36.09h-.54c-.04,12.23-.08,24.51-.12,36.86l.77-.77Z"/><path class="cls-2" d="m586.87,32.05c-.03-10.73-.07-21.41-.1-32.05h-.54c-.04,10.88-.07,21.81-.1,32.79l.74-.74Z"/><path class="cls-2" d="m590.92,28c-.03-9.37-.06-18.7-.09-28h-.54c-.03,9.54-.06,19.11-.09,28.72l.72-.72Z"/><path class="cls-2" d="m594.98,23.94c-.02-8.01-.05-15.99-.08-23.94h-.54c-.03,8.18-.05,16.4-.08,24.64l.69-.69Z"/><path class="cls-2" d="m599.02,19.9c-.02-6.65-.04-13.28-.07-19.9h-.54c-.02,6.84-.05,13.69-.07,20.56l.67-.67Z"/><path class="cls-2" d="m603.07,15.85c-.02-5.3-.03-10.58-.05-15.85h-.54c-.02,5.49-.04,10.98-.05,16.5l.64-.64Z"/><path class="cls-2" d="m607.13,11.79c-.01-3.94-.03-7.87-.04-11.79h-.54c-.01,4.13-.03,8.26-.04,12.41l.62-.62Z"/><path class="cls-2" d="m611.17,7.75c0-2.58-.02-5.17-.03-7.75h-.54c0,2.77-.02,5.55-.03,8.34l.59-.59Z"/><path class="cls-2" d="m615.23,3.69c0-1.23,0-2.46-.01-3.69h-.54c0,1.41,0,2.83-.01,4.25l.56-.56Z"/><path class="cls-2" d="m618.92,0h-.18c0,.06,0,.12,0,.18l.18-.18Z"/></svg>