<?xml version="1.0" encoding="UTF-8"?><svg id="_レイヤー_1" xmlns="http://www.w3.org/2000/svg" viewBox="0 0 474.64 631.74"><defs><style>.cls-1{fill:none;}.cls-2{fill:#221f20;}</style></defs><path class="cls-1" d="m182.02,0h-.77l-3.84,3.84c.59,148.51.77,307.91.52,462.72l3.55-3.55c-.24-155.03-.06-314.55.54-463Z"/><path class="cls-1" d="m186.81,0h-4.61c.6,148.06.79,307.12.54,461.74l3.52-3.52c-.23-153.52-.05-311.29.55-458.22Z"/><path class="cls-1" d="m196.41,0h-4.61c.59,144.99.78,300.53.56,452.12l3.49-3.49c-.21-150.5-.02-304.76.56-448.63Z"/><path class="cls-1" d="m191.62,0h-4.63c.59,146.53.78,303.82.55,456.94l3.52-3.52c-.22-152.01-.03-308.02.56-453.42Z"/><path class="cls-1" d="m177.19,4.05l-4.56,4.56c.58,148.69.75,308.09.49,462.74l3.55-3.55c-.25-155.13-.08-314.91.52-463.75Z"/><path class="cls-1" d="m42.39,138.85l-3.74,3.74c.34,153.51.26,313.14-.26,463.49l4.22-4.22c-.5-150.35-.58-309.79-.23-463Z"/><path class="cls-1" d="m167.55,13.69l-4.49,4.49c.57,149.04.72,308.45.44,462.8l3.58-3.58c-.27-154.79-.11-314.53.46-463.7Z"/><path class="cls-1" d="m235.19,58.72c.21,64.14.34,129.9.4,196.11,1.09-2.52,2.23-4.94,3.41-7.28.06-65.8.2-131.11.41-194.79-1.4,1.95-2.8,3.94-4.22,5.96Z"/><path class="cls-1" d="m201.2,0h-4.61c.58,143.47.77,297.25.56,447.32l3.48-3.48c-.2-148.98,0-301.5.57-443.84Z"/><path class="cls-1" d="m172.38,8.86l-4.54,4.54c.58,148.87.74,308.27.47,462.77l3.58-3.58c-.26-154.96-.09-314.72.49-463.73Z"/><path class="cls-1" d="m230.42,65.62c.21,65.99.34,133.64.39,201.68,1.07-3.14,2.19-6.18,3.37-9.1.06-67.05.19-133.65.4-198.61-1.38,1.97-2.76,3.99-4.16,6.03Z"/><path class="cls-1" d="m205.66,104.17c-.57.94-1.14,1.87-1.71,2.81V0h-2.57c.57,141.94.77,293.97.57,442.52l3.48-3.48c-.14-111.64-.07-225.19.23-334.88Z"/><path class="cls-1" d="m220.86,79.98c.22,74.17.34,150.32.36,226.64.99-5.94,2.11-11.63,3.35-17.06.03-72.74.16-145.18.38-215.8-1.36,2.04-2.72,4.11-4.09,6.22Z"/><path class="cls-1" d="m162.74,18.5l-4.45,4.45c.56,149.22.7,308.63.41,462.82l3.6-3.6c-.28-154.61-.13-314.35.44-463.67Z"/><path class="cls-1" d="m216.09,87.4c.25,85.84.36,174.23.34,262.39.76-11.91,1.87-23.09,3.32-33.56.01-79.14.13-158.18.36-235.1-1.33,2.06-2.68,4.15-4.03,6.27Z"/><path class="cls-1" d="m225.65,72.7c.21,68.99.34,139.74.38,210.81,1.04-4.1,2.16-8.05,3.35-11.85.05-69.18.18-137.99.39-205.08-1.36,2.01-2.73,4.04-4.11,6.12Z"/><path class="cls-1" d="m27.97,153.27l-3.67,3.67c.31,154.02.2,313.69-.34,463.57l4.32-4.32c-.53-149.82-.63-309.26-.31-462.92Z"/><path class="cls-1" d="m37.59,143.65l-3.73,3.73c.33,153.68.24,313.33-.28,463.52l4.27-4.27c-.51-150.17-.6-309.61-.26-462.98Z"/><path class="cls-1" d="m215.31,88.64c-1.32,2.09-2.66,4.22-4,6.37.31,110.53.4,225.13.26,337.91l3.46-3.46c-.13-113.83-.04-229.46.28-340.82Z"/><path class="cls-1" d="m210.48,96.34c-1.31,2.1-2.62,4.23-3.94,6.39.3,109.7.38,223.28.23,334.98l3.45-3.45c-.14-112.76-.05-227.37.25-337.92Z"/><path class="cls-1" d="m32.77,148.47l-3.69,3.69c.32,153.85.22,313.51-.31,463.55l4.29-4.29c-.52-149.99-.61-309.44-.29-462.95Z"/><path class="cls-1" d="m104.96,76.28l-4.08,4.08c.45,151.29.49,310.78.09,463.14l3.87-3.87c-.39-152.57-.34-312.13.11-463.35Z"/><path class="cls-1" d="m71.27,109.98l-3.89,3.89c.39,152.49.36,312.05-.09,463.33l4.06-4.06c-.45-151.37-.47-310.87-.07-463.17Z"/><path class="cls-1" d="m109.76,71.48l-4.09,4.09c.46,151.12.5,310.6.12,463.12l3.83-3.83c-.38-152.74-.33-312.31.14-463.38Z"/><path class="cls-1" d="m114.59,66.66l-4.14,4.14c.47,150.95.52,310.42.15,463.09l3.82-3.82c-.37-152.9-.31-312.5.17-463.41Z"/><path class="cls-1" d="m119.39,61.85l-4.15,4.15c.48,150.78.54,310.25.17,463.06l3.78-3.78c-.36-153.07-.29-312.68.2-463.43Z"/><path class="cls-1" d="m80.89,100.35l-3.94,3.94c.41,152.14.4,311.69-.04,463.28l4-4c-.43-151.72-.43-311.23-.02-463.22Z"/><path class="cls-1" d="m95.33,85.92l-4,4c.43,151.63.45,311.14.04,463.2l3.9-3.9c-.4-152.22-.38-311.78.06-463.3Z"/><path class="cls-1" d="m90.52,90.72l-3.99,3.99c.42,151.81.43,311.32.01,463.22l3.95-3.95c-.41-152.06-.4-311.59.03-463.27Z"/><path class="cls-1" d="m85.7,95.54l-3.95,3.95c.42,151.98.42,311.5-.01,463.25l3.96-3.96c-.42-151.89-.41-311.41,0-463.25Z"/><path class="cls-1" d="m76.07,105.17l-3.9,3.9c.4,152.31.38,311.87-.07,463.3l4.01-4.01c-.44-151.54-.45-311.05-.05-463.19Z"/><path class="cls-1" d="m157.93,23.31l-4.43,4.43c.55,149.4.68,308.81.39,462.85l3.63-3.63c-.29-154.44-.15-314.16.41-463.65Z"/><path class="cls-1" d="m66.45,114.8l-3.85,3.85c.38,152.66.35,312.23-.12,463.36l4.07-4.07c-.46-151.2-.49-310.69-.1-463.14Z"/><path class="cls-1" d="m100.13,81.11l-4.03,4.03c.44,151.46.47,310.97.07,463.17l3.88-3.88c-.4-152.39-.36-311.95.09-463.33Z"/><path class="cls-1" d="m148.3,32.95l-4.36,4.36c.53,149.74.65,309.17.33,462.9l3.67-3.67c-.31-154.1-.18-313.78.36-463.59Z"/><path class="cls-1" d="m143.47,37.77l-4.31,4.31c.52,149.91.63,309.36.31,462.93l3.68-3.68c-.32-153.93-.2-313.6.33-463.57Z"/><path class="cls-1" d="m153.11,28.13l-4.38,4.38c.54,149.57.66,308.99.36,462.88l3.64-3.64c-.3-154.27-.17-313.97.38-463.62Z"/><path class="cls-1" d="m47.21,134.03l-3.77,3.77c.35,153.34.27,312.96-.23,463.47l4.21-4.21c-.49-150.52-.56-309.97-.21-463.03Z"/><path class="cls-1" d="m138.66,42.58l-4.29,4.29c.51,150.09.61,309.53.28,462.96l3.71-3.71c-.32-153.75-.22-313.42.3-463.54Z"/><path class="cls-1" d="m56.84,124.4l-3.82,3.82c.36,152.99.31,312.6-.17,463.41l4.14-4.14c-.48-150.86-.52-310.33-.15-463.08Z"/><path class="cls-1" d="m133.84,47.41l-4.25,4.25c.5,150.27.59,309.71.25,462.98l3.72-3.72c-.33-153.59-.24-313.23.28-463.51Z"/><path class="cls-1" d="m129.03,52.21l-4.21,4.21c.49,150.44.57,309.89.23,463.01l3.74-3.74c-.34-153.42-.25-313.04.25-463.49Z"/><path class="cls-1" d="m52.02,129.22l-3.78,3.78c.36,153.17.29,312.78-.2,463.44l4.16-4.16c-.49-150.68-.54-310.16-.18-463.06Z"/><path class="cls-1" d="m124.22,57.02l-4.2,4.2c.49,150.61.56,310.07.2,463.04l3.78-3.78c-.35-153.25-.27-312.86.22-463.46Z"/><path class="cls-1" d="m378.96,0c.22,53.25.38,107.93.48,163.3,1.22-.12,2.43-.24,3.66-.35.11-55.26.27-109.82.48-162.95h-4.63Z"/><path class="cls-1" d="m402.95,0c.21,52.78.37,106.97.48,161.84,1.21-.03,2.44-.06,3.66-.07.11-54.85.27-109.01.48-161.77h-4.63Z"/><path class="cls-1" d="m398.16,0c.21,52.83.37,107.07.48,162,1.21-.05,2.43-.08,3.65-.11.11-54.89.27-109.09.48-161.88h-4.61Z"/><path class="cls-1" d="m388.56,0c.21,52.99.38,107.4.48,162.5,1.21-.08,2.44-.14,3.66-.21.11-55.03.27-109.36.48-162.29h-4.63Z"/><path class="cls-1" d="m393.37,0c.21,52.9.38,107.22.48,162.22,1.22-.06,2.42-.14,3.65-.19.11-54.94.27-109.19.48-162.03h-4.61Z"/><path class="cls-1" d="m412.56,0c.21,52.74.37,106.88.48,161.71.04,0,.08,0,.12,0,1.11,0,2.31.01,3.54.03.11-54.84.27-108.99.48-161.73h-4.63Z"/><path class="cls-1" d="m407.76,0c.21,52.75.37,106.91.48,161.76,1.21-.02,2.42-.03,3.65-.04.11-54.84.27-108.98.48-161.72h-4.61Z"/><path class="cls-1" d="m417.36,0c.21,52.75.37,106.9.48,161.75,1.17.02,2.38.04,3.65.07.11-54.87.27-109.05.48-161.82h-4.61Z"/><path class="cls-1" d="m383.77,0c.22,53.11.38,107.64.48,162.87,1.21-.1,2.42-.19,3.64-.28.11-55.13.27-109.57.48-162.59h-4.61Z"/><path class="cls-1" d="m369.36,0c.22,53.6.38,108.65.49,164.4,1.21-.16,2.43-.32,3.65-.46.11-55.59.27-110.49.49-163.94h-4.63Z"/><path class="cls-1" d="m359.77,0c.22,54.06.38,109.58.49,165.82,1.2-.2,2.42-.38,3.63-.57.11-56.04.27-111.38.49-165.25h-4.61Z"/><path class="cls-1" d="m23.17,158.07l-3.67,3.67c.3,154.19.19,313.88-.36,463.6l4.38-4.38c-.54-149.65-.65-309.08-.34-462.9Z"/><path class="cls-1" d="m374.17,0c.22,53.41.38,108.25.49,163.79,1.2-.14,2.43-.25,3.64-.37.11-55.42.27-110.13.49-163.42h-4.61Z"/><path class="cls-1" d="m364.57,0c.22,53.82.38,109.09.49,165.08,1.21-.18,2.41-.36,3.64-.53.11-55.8.27-110.9.49-164.54h-4.61Z"/><path class="cls-1" d="m459.89,163.97c.11-55.6.27-110.51.49-163.97h-4.63c.22,53.36.38,108.16.49,163.65,1.21.1,2.42.21,3.66.32Z"/><path class="cls-1" d="m450.29,163.18c.11-55.34.27-109.97.48-163.18h-4.63c.22,53.13.38,107.68.48,162.92,1.2.08,2.42.17,3.66.26Z"/><path class="cls-1" d="m455.08,163.56c.11-55.46.27-110.23.49-163.56h-4.61c.22,53.24.38,107.9.49,163.27,1.2.09,2.41.19,3.64.29Z"/><path class="cls-1" d="m445.49,162.85c.11-55.22.27-109.75.48-162.85h-4.61c.21,53.03.38,107.48.48,162.63,1.2.07,2.41.14,3.64.22Z"/><path class="cls-1" d="m441.18,0h-4.61c.21,52.95.38,107.32.48,162.39.54.02,1.06.05,1.6.07.67.03,1.36.07,2.04.11.11-55.13.27-109.56.48-162.57Z"/><path class="cls-1" d="m464.68,164.42c.11-55.76.27-110.81.49-164.42h-4.61c.22,53.5.38,108.44.49,164.08,1.2.11,2.41.22,3.64.34Z"/><path class="cls-1" d="m431.76,0c.21,52.89.37,107.19.48,162.18,1.19.05,2.41.1,3.66.16.11-55.05.27-109.4.48-162.33h-4.63Z"/><path class="cls-1" d="m426.96,0c.21,52.83.37,107.07.48,162,1.18.04,2.4.09,3.65.13.11-54.98.27-109.26.48-162.13h-4.61Z"/><path class="cls-1" d="m469.47,164.91c.11-55.92.27-111.14.49-164.91h-4.61c.22,53.64.38,108.74.49,164.54,1.2.12,2.41.24,3.63.37Z"/><path class="cls-1" d="m422.16,0c.21,52.78.37,106.97.48,161.85,1.18.03,2.4.07,3.66.11.11-54.92.27-109.14.48-161.96h-4.63Z"/><path class="cls-1" d="m474.28,165.42c.09-44.59.21-88.72.36-132.03V0h-4.5c.22,53.8.38,109.06.49,165.03,1.21.13,2.42.26,3.65.39Z"/><path class="cls-1" d="m302.17,0c.24,59.89.42,121.59.52,184.06,1.19-.6,2.37-1.2,3.58-1.78.11-61.86.28-122.96.52-182.28h-4.63Z"/><path class="cls-1" d="m278.2,6.08c.25,62.82.42,127.57.52,193.09,1.16-.9,2.34-1.78,3.54-2.65.1-66.14.28-131.48.54-194.83-1.52,1.4-3.05,2.86-4.6,4.39Z"/><path class="cls-1" d="m273.42,10.92c.24,62.55.41,126.96.51,192.12,1.15-.98,2.32-1.94,3.51-2.88.1-65.79.27-130.8.52-193.87-1.5,1.48-3.02,3.02-4.54,4.62Z"/><path class="cls-1" d="m284.64,0c-.55.49-1.1,1-1.66,1.51.25,63.11.43,128.2.54,194.09,1.16-.82,2.34-1.63,3.53-2.42.1-65.59.28-130.37.54-193.18h-2.95Z"/><path class="cls-1" d="m268.64,16.07c.24,62.3.4,126.42.5,191.24,1.15-1.07,2.32-2.13,3.51-3.16.1-65.44.27-130.13.51-192.94-1.49,1.57-3,3.19-4.52,4.87Z"/><path class="cls-1" d="m292.58,0c.25,61.58.43,125.07.53,189.35,1.17-.7,2.35-1.39,3.55-2.06.11-63.57.28-126.36.53-187.28h-4.61Z"/><path class="cls-1" d="m287.77,0c.25,62.54.43,127.05.54,192.35,1.17-.76,2.36-1.51,3.56-2.25.11-64.54.28-128.28.53-190.1h-4.63Z"/><path class="cls-1" d="m244.75,45.45c.21,62.45.36,126.52.43,191.11,1.12-1.81,2.26-3.58,3.44-5.33.07-64.76.22-128.97.44-191.5-1.43,1.86-2.86,3.77-4.31,5.71Z"/><path class="cls-1" d="m249.54,39.11c.22,62.11.37,125.86.44,190.19,1.12-1.59,2.27-3.15,3.44-4.69.08-64.65.23-128.7.46-191.05-1.44,1.81-2.88,3.66-4.34,5.55Z"/><path class="cls-1" d="m297.38,0c.25,60.7.42,123.26.53,186.6,1.18-.65,2.36-1.29,3.56-1.91.11-62.68.28-124.59.52-184.69h-4.61Z"/><path class="cls-1" d="m263.86,21.46c.23,62.09.39,125.97.48,190.51,1.14-1.17,2.3-2.33,3.48-3.46.09-65.11.26-129.53.5-192.1-1.48,1.63-2.96,3.31-4.46,5.05Z"/><path class="cls-1" d="m259.09,27.11c.23,61.97.39,125.66.47,189.99,1.13-1.28,2.29-2.54,3.47-3.78.09-64.86.25-129.05.48-191.44-1.46,1.7-2.94,3.44-4.42,5.24Z"/><path class="cls-1" d="m254.31,33c.22,61.97.37,125.62.45,189.87,1.13-1.43,2.29-2.84,3.47-4.22.08-64.7.24-128.76.47-191.08-1.45,1.76-2.92,3.57-4.4,5.42Z"/><path class="cls-1" d="m239.98,51.98c.21,63.06.35,127.73.41,192.9,1.1-2.05,2.24-4.05,3.41-6.03.07-65.13.21-129.73.43-192.69-1.41,1.9-2.82,3.84-4.25,5.82Z"/><path class="cls-1" d="m335.76,0c.23,55.77.39,113.09.5,171.15,1.2-.34,2.41-.67,3.63-.99.11-57.72.27-114.72.5-170.16h-4.63Z"/><path class="cls-1" d="m330.97,0c.23,56.22.4,114.02.5,172.56,1.2-.37,2.39-.74,3.61-1.09.11-58.17.27-115.61.5-171.47h-4.61Z"/><path class="cls-1" d="m340.57,0c.22,55.35.39,112.24.5,169.85,1.19-.3,2.41-.58,3.62-.87.11-57.32.27-113.91.5-168.98h-4.61Z"/><path class="cls-1" d="m345.36,0c.22,54.98.39,111.48.5,168.7,1.2-.28,2.42-.54,3.64-.81.11-56.95.27-113.17.49-167.89h-4.63Z"/><path class="cls-1" d="m350.17,0c.22,54.64.39,110.79.49,167.65,1.21-.25,2.4-.51,3.63-.75.11-56.61.27-112.5.49-166.9h-4.61Z"/><path class="cls-1" d="m321.37,0c.23,57.24.4,116.12.51,175.75,1.19-.43,2.4-.84,3.61-1.25.11-59.2.28-117.66.51-174.49h-4.63Z"/><path class="cls-1" d="m306.98,0c.24,59.14.41,120.05.52,181.72,1.19-.55,2.37-1.11,3.58-1.65.11-61.11.28-121.46.52-180.07h-4.61Z"/><path class="cls-1" d="m326.18,0c.23,56.7.4,115.02.51,174.09,1.19-.4,2.39-.78,3.6-1.16.11-58.67.28-116.59.5-172.92h-4.61Z"/><path class="cls-1" d="m311.77,0c.24,58.46.41,118.63.52,179.56,1.19-.51,2.39-1.02,3.6-1.51.11-60.42.28-120.08.51-178.05h-4.63Z"/><path class="cls-1" d="m316.58,0c.23,57.82.41,117.32.51,177.57,1.18-.47,2.39-.92,3.59-1.36.11-59.79.28-118.82.51-176.2h-4.61Z"/><path class="cls-1" d="m354.96,0c.22,54.33.38,110.16.49,166.69,1.21-.23,2.42-.45,3.65-.66.11-56.31.27-111.91.49-166.03h-4.63Z"/><path class="cls-1" d="m61.64,119.6l-3.83,3.83c.37,152.83.33,312.41-.15,463.38l4.1-4.1c-.47-151.03-.5-310.51-.13-463.11Z"/><path class="cls-1" d="m18.35,162.89l-3.64,3.64c.29,154.36.17,314.07-.39,463.63l4.39-4.39c-.55-149.48-.67-308.9-.37-462.87Z"/><path class="cls-1" d="m8.73,172.51l-3.6,3.6c.27,149.18.14,303.02-.39,447.64l4.38,4.38c-.55-147.05-.67-303.82-.39-455.61Z"/><path class="cls-1" d="m3.93,177.31l-3.6,3.6c.25,141.57.14,287.2-.33,425.04v13.05l4.31,4.31c-.53-144.1-.65-297.36-.39-446Z"/><path class="cls-1" d="m13.55,167.69l-3.63,3.63c.28,152.31.15,309.66-.39,457.19l3.22,3.22,1.2-1.2c-.56-149.3-.69-308.72-.39-462.84Z"/><path class="cls-2" d="m.33,180.91l-.33.33v424.71c.47-137.84.58-283.48.33-425.04Z"/><path class="cls-2" d="m5.13,176.11l-1.2,1.2c-.26,148.65-.14,301.9.39,446l.43.43c.53-144.61.65-298.46.39-447.64Z"/><path class="cls-2" d="m9.91,171.33l-1.18,1.18c-.28,151.8-.15,308.57.39,455.61l.4.4c.55-147.54.68-304.89.39-457.19Z"/><path class="cls-2" d="m14.71,166.53l-1.17,1.17c-.29,154.12-.17,313.54.39,462.84l.38-.38c.56-149.56.69-309.27.39-463.63Z"/><path class="cls-2" d="m19.5,161.75l-1.15,1.15c-.3,153.97-.18,313.39.37,462.87l.42-.42c.55-149.72.67-309.41.36-463.6Z"/><path class="cls-2" d="m24.3,156.95l-1.13,1.13c-.31,153.82-.2,313.24.34,462.9l.45-.45c.54-149.88.65-309.55.34-463.57Z"/><path class="cls-2" d="m29.08,152.16l-1.11,1.11c-.32,153.66-.22,313.1.31,462.92l.49-.49c.53-150.03.63-309.7.31-463.55Z"/><path class="cls-2" d="m33.86,147.38l-1.09,1.09c-.33,153.51-.24,312.96.29,462.95l.52-.52c.52-150.19.61-309.84.28-463.52Z"/><path class="cls-2" d="m38.66,142.58l-1.07,1.07c-.34,153.36-.25,312.81.26,462.98l.55-.55c.51-150.35.59-309.98.26-463.49Z"/><path class="cls-2" d="m43.44,137.8l-1.05,1.05c-.34,153.21-.27,312.66.23,463l.58-.58c.5-150.51.57-310.13.23-463.47Z"/><path class="cls-2" d="m48.24,133l-1.02,1.02c-.35,153.06-.29,312.52.21,463.03l.62-.62c.49-150.66.56-310.27.2-463.44Z"/><path class="cls-2" d="m53.02,128.22l-1,1c-.36,152.9-.31,312.38.18,463.06l.65-.65c.48-150.81.54-310.42.17-463.41Z"/><path class="cls-2" d="m57.82,123.43l-.98.98c-.37,152.75-.32,312.23.15,463.08l.68-.68c.48-150.98.52-310.56.15-463.38Z"/><path class="cls-2" d="m62.6,118.65l-.95.95c-.38,152.6-.34,312.08.13,463.11l.71-.71c.47-151.13.5-310.7.12-463.36Z"/><path class="cls-2" d="m67.38,113.86l-.93.93c-.39,152.45-.36,311.93.1,463.14l.74-.74c.46-151.29.48-310.84.09-463.33Z"/><path class="cls-2" d="m72.17,109.07l-.91.91c-.4,152.29-.38,311.79.07,463.17l.77-.77c.45-151.44.47-310.99.07-463.3Z"/><path class="cls-2" d="m76.95,104.29l-.88.88c-.41,152.14-.39,311.65.05,463.19l.8-.8c.44-151.59.45-311.13.04-463.28Z"/><path class="cls-2" d="m81.75,99.49l-.85.85c-.41,151.99-.41,311.5.02,463.22l.82-.82c.43-151.75.43-311.27.01-463.25Z"/><path class="cls-2" d="m86.53,94.71l-.83.83c-.42,151.84-.43,311.36,0,463.25l.85-.85c.42-151.9.41-311.42-.01-463.22Z"/><path class="cls-2" d="m91.32,89.92l-.8.8c-.43,151.68-.45,311.22-.03,463.27l.88-.88c.41-152.05.39-311.56-.04-463.2Z"/><path class="cls-2" d="m96.1,85.14l-.77.77c-.44,151.52-.47,311.08-.06,463.3l.9-.9c.4-152.2.38-311.71-.07-463.17Z"/><path class="cls-2" d="m100.88,80.36l-.75.75c-.45,151.37-.48,310.93-.09,463.33l.93-.93c.39-152.36.36-311.85-.09-463.14Z"/><path class="cls-2" d="m105.67,75.57l-.72.72c-.46,151.22-.5,310.78-.11,463.35l.95-.95c.38-152.51.34-311.99-.12-463.12Z"/><path class="cls-2" d="m110.45,70.79l-.69.69c-.47,151.06-.52,310.64-.14,463.38l.97-.97c.38-152.67.32-312.14-.15-463.09Z"/><path class="cls-2" d="m115.24,66l-.66.66c-.48,150.91-.54,310.5-.17,463.41l1-1c.37-152.81.3-312.29-.17-463.06Z"/><path class="cls-2" d="m120.02,61.22l-.63.63c-.49,150.75-.56,310.36-.2,463.43l1.02-1.02c.36-152.97.29-312.43-.2-463.04Z"/><path class="cls-2" d="m124.81,56.43l-.59.59c-.49,150.6-.57,310.21-.22,463.46l1.04-1.04c.35-153.12.27-312.57-.23-463.01Z"/><path class="cls-2" d="m129.59,51.65l-.56.56c-.5,150.44-.59,310.07-.25,463.49l1.06-1.06c.34-153.28.25-312.72-.25-462.98Z"/><path class="cls-2" d="m134.37,46.87l-.53.53c-.51,150.28-.61,309.93-.28,463.51l1.09-1.09c.33-153.43.23-312.87-.28-462.96Z"/><path class="cls-2" d="m139.16,42.08l-.5.5c-.52,150.12-.63,309.79-.3,463.54l1.11-1.11c.32-153.57.21-313.02-.31-462.93Z"/><path class="cls-2" d="m143.93,37.31l-.46.46c-.53,149.97-.64,309.64-.33,463.57l1.13-1.13c.31-153.73.2-313.16-.33-462.9Z"/><path class="cls-2" d="m148.73,32.52l-.43.43c-.54,149.81-.66,309.49-.36,463.59l1.15-1.15c.3-153.89.18-313.31-.36-462.88Z"/><path class="cls-2" d="m153.5,27.74l-.39.39c-.55,149.65-.68,309.35-.38,463.62l1.16-1.16c.3-154.04.16-313.45-.39-462.85Z"/><path class="cls-2" d="m158.29,22.95l-.36.36c-.56,149.49-.7,309.21-.41,463.65l1.18-1.18c.29-154.19.14-313.61-.41-462.82Z"/><path class="cls-2" d="m163.07,18.18l-.32.32c-.57,149.33-.72,309.06-.44,463.67l1.2-1.2c.28-154.34.13-313.76-.44-462.8Z"/><path class="cls-2" d="m167.84,13.4l-.29.29c-.58,149.17-.74,308.91-.46,463.7l1.22-1.22c.27-154.5.11-313.9-.47-462.77Z"/><path class="cls-2" d="m172.63,8.61l-.25.25c-.59,149.01-.75,308.77-.49,463.73l1.23-1.23c.26-154.65.09-314.05-.49-462.74Z"/><path class="cls-2" d="m177.4,3.84l-.21.21c-.59,148.85-.77,308.62-.52,463.75l1.25-1.25c.25-154.81.07-314.2-.52-462.72Z"/><path class="cls-2" d="m182.2,0h-.18c-.6,148.46-.79,307.98-.54,463l1.27-1.27c.24-154.62.06-313.68-.54-461.74Z"/><path class="cls-2" d="m186.99,0h-.18c-.6,146.93-.78,304.7-.55,458.22l1.28-1.28c.23-153.11.04-310.41-.55-456.94Z"/><path class="cls-2" d="m191.8,0h-.18c-.59,145.4-.78,301.41-.56,453.42l1.29-1.29c.22-151.6.03-307.13-.56-452.12Z"/><path class="cls-2" d="m196.59,0h-.18c-.58,143.88-.77,298.13-.56,448.63l1.31-1.31c.21-150.08.02-303.86-.56-447.32Z"/><path class="cls-2" d="m201.38,0h-.18c-.58,142.35-.77,294.87-.57,443.84l1.32-1.32c.2-148.55,0-300.59-.57-442.52Z"/><path class="cls-2" d="m206.54,102.73c-.29.48-.58.96-.87,1.44-.29,109.69-.37,223.23-.23,334.88l1.33-1.33c.14-111.7.06-225.28-.23-334.98Z"/><path class="cls-2" d="m211.31,95.01c-.28.44-.55.89-.83,1.33-.31,110.55-.39,225.15-.25,337.92l1.35-1.35c.14-112.78.05-227.38-.26-337.91Z"/><path class="cls-2" d="m216.09,87.4c-.26.41-.52.82-.79,1.24-.32,111.35-.42,226.98-.28,340.82l.17-.17v-38.13c0-14.64.42-28.42,1.24-41.36.02-88.16-.09-176.55-.34-262.39Z"/><path class="cls-2" d="m220.12,81.13c-.23,76.92-.35,155.96-.36,235.1.46-3.27.94-6.48,1.47-9.61-.02-76.32-.14-152.46-.36-226.64-.25.38-.5.77-.74,1.15Z"/><path class="cls-2" d="m224.95,73.76c-.22,70.61-.34,143.06-.38,215.8.47-2.05.95-4.07,1.45-6.04-.04-71.07-.16-141.81-.38-210.81-.23.35-.47.7-.7,1.06Z"/><path class="cls-2" d="m229.77,66.58c-.21,67.09-.34,135.9-.39,205.08.46-1.48.94-2.93,1.43-4.37-.05-68.04-.18-135.69-.39-201.68-.22.32-.44.64-.66.96Z"/><path class="cls-2" d="m234.58,59.59c-.21,64.95-.34,131.56-.4,198.61.46-1.14.93-2.26,1.41-3.37-.06-66.21-.19-131.97-.4-196.11-.2.29-.41.58-.61.87Z"/><path class="cls-2" d="m239.41,52.76c-.21,63.68-.35,128.99-.41,194.79.31-.62.62-1.25.94-1.86.15-.28.3-.54.45-.82-.06-65.16-.2-129.83-.41-192.9-.19.26-.38.52-.57.78Z"/><path class="cls-2" d="m244.23,46.15c-.22,62.96-.36,127.56-.43,192.69.45-.77.91-1.53,1.38-2.28-.07-64.6-.21-128.67-.43-191.11-.17.23-.35.47-.52.7Z"/><path class="cls-2" d="m249.06,39.73c-.22,62.53-.37,126.74-.44,191.5.45-.66.9-1.3,1.36-1.94-.08-64.32-.22-128.08-.44-190.19-.16.21-.32.42-.48.63Z"/><path class="cls-2" d="m253.87,33.55c-.22,62.35-.38,126.4-.46,191.05.44-.58.89-1.15,1.34-1.73-.08-64.26-.23-127.9-.45-189.87-.14.18-.29.37-.43.55Z"/><path class="cls-2" d="m258.7,27.58c-.23,62.32-.39,126.38-.47,191.08.45-.52.88-1.05,1.33-1.57-.08-64.33-.24-128.02-.47-189.99-.13.16-.26.32-.39.48Z"/><path class="cls-2" d="m263.51,21.87c-.23,62.4-.4,126.59-.48,191.44.43-.45.88-.9,1.31-1.35-.09-64.54-.25-128.41-.48-190.51-.12.13-.23.27-.35.41Z"/><path class="cls-2" d="m268.33,16.41c-.24,62.57-.4,126.98-.5,192.1.43-.41.87-.8,1.3-1.2-.09-64.82-.26-128.94-.5-191.24-.1.11-.21.23-.31.34Z"/><path class="cls-2" d="m273.16,11.21c-.24,62.81-.42,127.5-.51,192.94.43-.37.86-.73,1.29-1.1-.1-65.16-.27-129.58-.51-192.12-.09.09-.18.19-.27.28Z"/><path class="cls-2" d="m277.97,6.3c-.25,63.07-.43,128.08-.52,193.87.42-.34.85-.67,1.28-1-.1-65.52-.27-130.27-.52-193.09-.08.08-.15.15-.23.22Z"/><path class="cls-2" d="m282.8,1.69c-.26,63.35-.43,128.69-.54,194.83.42-.31.84-.61,1.27-.91-.1-65.89-.28-130.98-.54-194.09-.06.06-.13.12-.19.18Z"/><path class="cls-2" d="m287.59,0c-.25,62.81-.43,127.59-.54,193.18.42-.28.83-.56,1.26-.83-.1-65.3-.28-129.81-.54-192.35h-.18Z"/><path class="cls-2" d="m292.4,0c-.25,61.82-.43,125.57-.53,190.1.41-.25.83-.51,1.25-.76-.11-64.28-.28-127.76-.53-189.35h-.18Z"/><path class="cls-2" d="m297.2,0c-.25,60.92-.42,123.71-.53,187.28.41-.23.82-.46,1.24-.69-.11-63.34-.28-125.89-.53-186.6h-.18Z"/><path class="cls-2" d="m301.99,0c-.24,60.09-.42,122-.52,184.69.41-.21.82-.42,1.23-.62-.11-62.47-.28-124.17-.52-184.06h-.18Z"/><path class="cls-2" d="m306.8,0c-.24,59.32-.41,120.42-.52,182.28.4-.19.81-.37,1.22-.56-.11-61.67-.28-122.58-.52-181.72h-.18Z"/><path class="cls-2" d="m311.59,0c-.24,58.62-.41,118.96-.52,180.07.4-.18.81-.34,1.21-.51-.11-60.93-.28-121.11-.52-179.56h-.18Z"/><path class="cls-2" d="m316.4,0c-.23,57.97-.41,117.63-.51,178.05.4-.16.8-.32,1.21-.48-.11-60.25-.28-119.75-.51-177.57h-.18Z"/><path class="cls-2" d="m321.19,0c-.23,57.38-.4,116.42-.51,176.2.4-.15.79-.31,1.2-.46-.11-59.63-.28-118.51-.51-175.75h-.18Z"/><path class="cls-2" d="m326,0c-.23,56.83-.4,115.29-.51,174.49.4-.14.79-.27,1.19-.41-.11-59.06-.28-117.38-.51-174.09h-.18Z"/><path class="cls-2" d="m330.79,0c-.23,56.33-.4,114.26-.5,172.92.39-.12.79-.24,1.19-.36-.11-58.54-.28-116.34-.5-172.56h-.18Z"/><path class="cls-2" d="m335.58,0c-.23,55.87-.39,113.3-.5,171.47.39-.11.79-.21,1.18-.32-.11-58.06-.27-115.39-.5-171.15h-.18Z"/><path class="cls-2" d="m340.39,0c-.22,55.45-.39,112.44-.5,170.16.39-.1.78-.21,1.18-.31-.11-57.62-.27-114.5-.5-169.85h-.18Z"/><path class="cls-2" d="m345.18,0c-.22,55.07-.39,111.66-.5,168.98.39-.09.78-.19,1.17-.28-.11-57.22-.27-113.72-.5-168.7h-.18Z"/><path class="cls-2" d="m349.99,0c-.22,54.72-.39,110.95-.49,167.89.39-.08.78-.16,1.17-.24-.11-56.86-.27-113.01-.49-167.65h-.18Z"/><path class="cls-2" d="m354.78,0c-.22,54.4-.38,110.29-.49,166.9.38-.07.78-.14,1.16-.21-.11-56.53-.27-112.35-.49-166.69h-.18Z"/><path class="cls-2" d="m359.59,0c-.22,54.12-.38,109.72-.49,166.03.39-.07.77-.14,1.16-.21-.11-56.24-.27-111.77-.49-165.82h-.18Z"/><path class="cls-2" d="m364.39,0c-.22,53.87-.38,109.21-.49,165.25.39-.06.77-.12,1.16-.18-.11-55.98-.27-111.26-.49-165.08h-.18Z"/><path class="cls-2" d="m369.18,0c-.22,53.65-.38,108.74-.49,164.54.38-.05.77-.1,1.16-.15-.11-55.75-.27-110.8-.49-164.4h-.18Z"/><path class="cls-2" d="m373.99,0c-.22,53.45-.38,108.34-.49,163.94.39-.05.76-.1,1.15-.15-.11-55.54-.27-110.39-.49-163.79h-.18Z"/><path class="cls-2" d="m378.78,0c-.22,53.28-.38,108-.49,163.42.38-.04.77-.08,1.15-.12-.11-55.38-.27-110.05-.48-163.3h-.18Z"/><path class="cls-2" d="m383.59,0c-.22,53.14-.38,107.7-.48,162.95.38-.03.77-.06,1.15-.09-.11-55.23-.27-109.76-.48-162.87h-.18Z"/><path class="cls-2" d="m388.38,0c-.21,53.02-.38,107.45-.48,162.59.38-.03.76-.06,1.15-.09-.11-55.1-.27-109.51-.48-162.5h-.18Z"/><path class="cls-2" d="m393.19,0c-.21,52.92-.38,107.26-.48,162.29.38-.02.76-.04,1.15-.06-.11-55.01-.27-109.32-.48-162.22h-.18Z"/><path class="cls-2" d="m397.98,0c-.21,52.84-.37,107.09-.48,162.03.38-.02.77-.02,1.15-.04-.11-54.93-.27-109.17-.48-162h-.18Z"/><path class="cls-2" d="m402.77,0c-.21,52.79-.37,106.99-.48,161.88.38-.01.76-.03,1.15-.04-.11-54.88-.27-109.06-.48-161.84h-.18Z"/><path class="cls-2" d="m407.58,0c-.21,52.76-.37,106.92-.48,161.77.38,0,.76,0,1.14-.01-.11-54.85-.27-109.01-.48-161.76h-.18Z"/><path class="cls-2" d="m412.38,0c-.21,52.74-.37,106.89-.48,161.72.38,0,.76-.01,1.14-.01-.11-54.83-.27-108.97-.48-161.71h-.18Z"/><path class="cls-2" d="m417.18,0c-.21,52.74-.37,106.89-.48,161.73.38,0,.76,0,1.14.02-.11-54.84-.27-109-.48-161.75h-.18Z"/><path class="cls-2" d="m421.98,0c-.21,52.77-.37,106.95-.48,161.82.37,0,.76.02,1.14.03-.11-54.88-.27-109.07-.48-161.85h-.18Z"/><path class="cls-2" d="m426.78,0c-.21,52.82-.37,107.04-.48,161.96.38.01.75.02,1.15.04-.11-54.93-.27-109.17-.48-162h-.18Z"/><path class="cls-2" d="m431.58,0c-.21,52.87-.38,107.15-.48,162.13.37.01.77.03,1.15.05-.11-54.99-.27-109.29-.48-162.18h-.18Z"/><path class="cls-2" d="m436.38,0c-.21,52.94-.38,107.29-.48,162.33.38.02.76.03,1.15.05-.11-55.06-.27-109.43-.48-162.39h-.18Z"/><path class="cls-2" d="m441.84,162.63c-.11-55.15-.27-109.6-.48-162.63h-.18c-.21,53.01-.38,107.44-.48,162.57.38.02.76.04,1.15.06Z"/><path class="cls-2" d="m446.63,162.92c-.11-55.25-.27-109.8-.48-162.92h-.18c-.22,53.1-.38,107.63-.48,162.85.39.02.76.05,1.15.07Z"/><path class="cls-2" d="m451.44,163.27c-.11-55.36-.27-110.03-.49-163.27h-.18c-.22,53.21-.38,107.85-.48,163.18.38.03.76.06,1.15.08Z"/><path class="cls-2" d="m456.24,163.65c-.11-55.49-.27-110.29-.49-163.65h-.18c-.22,53.33-.38,108.09-.49,163.56.38.03.77.06,1.15.1Z"/><path class="cls-2" d="m461.05,164.08c-.11-55.64-.27-110.58-.49-164.08h-.18c-.22,53.46-.38,108.37-.49,163.97.38.03.77.07,1.15.11Z"/><path class="cls-2" d="m465.84,164.54c-.11-55.8-.27-110.89-.49-164.54h-.18c-.22,53.61-.38,108.66-.49,164.42.38.04.77.08,1.16.12Z"/><path class="cls-2" d="m470.63,165.03c-.11-55.97-.27-111.23-.49-165.03h-.18c-.22,53.76-.38,108.98-.49,164.91.38.04.77.08,1.16.12Z"/><path class="cls-2" d="m474.64,165.46V33.39c-.16,43.31-.28,87.44-.36,132.03.12.01.24.03.36.04Z"/></svg>