<?xml version="1.0" encoding="UTF-8"?><svg id="_レイヤー_2" xmlns="http://www.w3.org/2000/svg" viewBox="0 0 339.42 103.54"><defs><style>.cls-1{fill:#1f1613;}</style></defs><g id="_編集モード"><polygon class="cls-1" points="29.03 102.08 1.43 102.08 1.43 92.62 23.74 92.62 23.74 91.45 1.43 91.45 1.43 82.13 28.62 82.13 28.62 80.87 0 80.87 0 103.34 29.03 103.34 29.03 102.08"/><polygon class="cls-1" points="35.35 80.87 32.89 80.87 50.58 92 32.41 103.34 34.94 103.34 51.78 92.79 68.68 103.34 71.14 103.34 53.01 92 70.67 80.87 68.21 80.87 51.84 91.22 35.35 80.87"/><polygon class="cls-1" points="77.18 80.87 75.75 80.87 75.75 103.34 77.18 103.34 77.18 92.17 108.61 92.17 108.61 103.34 110.04 103.34 110.04 80.87 108.61 80.87 108.61 90.94 77.18 90.94 77.18 80.87"/><rect class="cls-1" x="117.62" y="80.87" width="1.44" height="22.48"/><path class="cls-1" d="m126.06,80.87v22.48h21.35c8.64,0,11.58-2.8,11.58-6.46,0-2.25-1.88-4.78-7.07-5.26v-.03c4-.68,5.36-2.9,5.36-4.95,0-2.77-2.19-5.77-11.82-5.77h-19.4Zm31.49,15.99c0,2.94-2.63,5.23-10.32,5.23h-19.74v-9.8h20.87c6.8,0,9.19,2.32,9.19,4.58Zm-1.64-10.11c0,2.12-1.91,4.37-7.82,4.37h-20.6v-8.98h17.97c8.37,0,10.45,2.39,10.45,4.61Z"/><rect class="cls-1" x="163.81" y="80.87" width="1.44" height="22.48"/><polygon class="cls-1" points="170.18 82.13 186.07 82.13 186.07 103.34 187.5 103.34 187.5 82.13 203.39 82.13 203.39 80.87 170.18 80.87 170.18 82.13"/><rect class="cls-1" x="209" y="80.59" width="1.44" height="22.48"/><path class="cls-1" d="m235.51,103.54c13.46,0,19.81-4.89,19.81-11.82s-6.7-11.61-19.81-11.61-19.81,4.88-19.81,11.61c0,7.17,6.63,11.82,19.81,11.82Zm0-22.14c12.26,0,18.34,4.37,18.34,10.31s-5.7,10.52-18.34,10.52-18.38-4.17-18.38-10.52c0-5.94,6.11-10.31,18.38-10.31Z"/><polygon class="cls-1" points="294.96 101.25 294.92 101.25 262.71 80.59 260.63 80.59 260.63 103.06 262.03 103.06 262.03 81.85 262.06 81.85 295.13 103.06 296.36 103.06 296.36 80.59 294.96 80.59 294.96 101.25"/><path class="cls-1" d="m7.34,66.49h.18c1.81,0,3.68-.18,5.14-1.47,1.34-1.19,2.12-2.84,2.38-5.08l.06-1.51-.04-27.63h-6.8v1.39h5.41v24.8c0,2.29-.1,4.85-1.35,6.37-1.19,1.45-2.72,1.74-4.8,1.74h-.09c-1.76,0-3.09-.5-3.95-1.48-.87-.99-1.31-2.51-1.31-4.52V7.75c0-2.01.52-3.59,1.54-4.7,1.02-1.1,2.39-1.67,4.09-1.67h.18c1.69,0,3.07.56,4.09,1.67,1.02,1.11,1.54,2.7,1.54,4.7v14.26h1.39V7.66c0-2.5-.69-4.42-2.04-5.72-1.35-1.29-3.03-1.94-4.98-1.94h-.18c-1.95,0-3.62.65-4.98,1.94C1.47,3.24.78,5.16.78,7.66v51.53c0,2.44.59,4.28,1.76,5.48,1.17,1.2,2.79,1.81,4.8,1.81Z"/><path class="cls-1" d="m24.91,32.2h5.72c4.22,0,6.27,2.14,6.27,6.55v26.83h1.39v-26.92c0-2.12-.46-3.83-1.38-5.09-.7-.96-1.61-1.67-2.72-2.12.99-.45,1.81-1.12,2.45-2,.91-1.26,1.38-2.97,1.38-5.09v-15.59c0-2.62-.69-4.6-2.04-5.9-1.36-1.29-3.25-1.95-5.62-1.95h-6.84v64.66h1.39v-33.38Zm11.73-23.34v15.4c0,4.41-2.05,6.55-6.27,6.55h-5.45V2.31h5.45c4.22,0,6.27,2.14,6.27,6.55Z"/><path class="cls-1" d="m47.86,49.89h10.29l1.89,15.68h1.39L53.6,1.12l-.02-.21h-1.15l-7.82,64.39-.03.26h1.39l1.89-15.68Zm5.14-43.25l4.99,41.86h-9.98l4.99-41.86Z"/><path class="cls-1" d="m80.99,63.63c1.36-1.29,2.04-3.28,2.04-5.9V8.76c0-2.62-.69-4.61-2.04-5.9-1.35-1.29-3.24-1.95-5.62-1.95h-7.11v64.66h7.11c2.38,0,4.27-.65,5.62-1.94Zm.66-54.77v48.78c0,2.19-.53,3.84-1.58,4.92-1.05,1.08-2.63,1.62-4.69,1.62h-5.72V2.31h5.72c2.06,0,3.64.55,4.69,1.62,1.05,1.08,1.58,2.74,1.58,4.92Z"/><path class="cls-1" d="m98.85,66.49h.18c2.07,0,3.82-.67,5.21-1.99,1.39-1.33,2.09-3.3,2.09-5.85V.92h-1.39v57.63c0,2.13-.55,3.77-1.63,4.88-1.08,1.11-2.52,1.67-4.28,1.67h-.18c-1.76,0-3.2-.56-4.28-1.67-1.08-1.11-1.63-2.75-1.63-4.88V.92h-1.39v57.73c0,2.56.7,4.53,2.09,5.85,1.38,1.32,3.13,1.99,5.21,1.99Z"/><path class="cls-1" d="m115.89,49.89h10.29l1.89,15.68h1.39L121.64,1.12l-.02-.21h-1.15l-7.82,64.39-.03.26h1.39l1.89-15.68Zm5.14-43.25l4.99,41.86h-9.98l4.99-41.86Z"/><polygon class="cls-1" points="138.77 65.57 140.16 65.57 140.16 2.31 148.78 2.31 148.78 .92 130.15 .92 130.15 2.31 138.77 2.31 138.77 65.57"/><rect class="cls-1" x="154.45" y=".92" width="1.39" height="64.66"/><path class="cls-1" d="m171.65,66.49h.18c2.07,0,3.82-.67,5.2-1.99,1.39-1.32,2.09-3.29,2.09-5.85V7.85c0-2.62-.7-4.61-2.09-5.9-1.38-1.29-3.13-1.94-5.2-1.94h-.18c-2.07,0-3.82.65-5.2,1.94-1.39,1.29-2.09,3.28-2.09,5.9v50.8c0,2.56.7,4.53,2.09,5.85,1.38,1.32,3.13,1.99,5.21,1.99Zm-5.91-7.94V7.94c0-2.13.55-3.77,1.63-4.88,1.08-1.11,2.52-1.67,4.28-1.67h.18c1.76,0,3.2.56,4.28,1.67,1.08,1.11,1.63,2.75,1.63,4.88v50.61c0,2.13-.55,3.77-1.63,4.88h0c-1.08,1.11-2.52,1.67-4.28,1.67h-.18c-1.76,0-3.2-.56-4.28-1.67-1.08-1.11-1.63-2.75-1.63-4.88Z"/><polygon class="cls-1" points="189.03 8.85 188.96 5.88 189.39 8.54 201.13 65.39 201.17 65.57 202.7 65.57 202.7 .92 201.31 .92 201.31 57.64 201.39 60.62 200.95 57.95 189.21 1.1 189.17 .92 187.65 .92 187.65 65.57 189.03 65.57 189.03 8.85"/><polygon class="cls-1" points="228.65 66.03 229.99 66.03 237.08 6.49 237.12 5.92 237.16 6.5 244.22 65.82 244.25 66.03 245.59 66.03 251.38 1.17 251.41 .92 250.02 .92 244.95 58.26 244.84 59.92 244.69 58.25 237.81 1.12 237.79 .92 236.45 .92 229.55 58.26 229.4 59.92 229.28 58.26 224.24 1.13 224.22 .92 222.83 .92 228.63 65.82 228.65 66.03"/><path class="cls-1" d="m264.72,66.49h.18c2.07,0,3.82-.67,5.21-1.99,1.39-1.32,2.09-3.29,2.09-5.85V7.85c0-2.62-.7-4.61-2.09-5.9-1.38-1.29-3.13-1.94-5.2-1.94h-.18c-2.07,0-3.82.65-5.2,1.94-1.39,1.29-2.09,3.28-2.09,5.9v50.8c0,2.56.7,4.53,2.09,5.85,1.38,1.32,3.13,1.99,5.21,1.99Zm-5.91-7.94V7.94c0-2.13.55-3.77,1.63-4.88,1.08-1.11,2.52-1.67,4.28-1.67h.18c1.76,0,3.2.56,4.28,1.67,1.08,1.11,1.63,2.75,1.63,4.88v50.61c0,2.13-.55,3.77-1.63,4.88h0c-1.08,1.11-2.52,1.67-4.28,1.67h-.18c-1.76,0-3.2-.56-4.28-1.67-1.08-1.11-1.63-2.75-1.63-4.88Z"/><path class="cls-1" d="m282.1,32.2h5.73c4.22,0,6.27,2.14,6.27,6.55v26.83h1.39v-26.92c0-2.12-.46-3.83-1.38-5.09-.7-.96-1.61-1.67-2.72-2.12.99-.45,1.81-1.12,2.45-2,.91-1.26,1.38-2.97,1.38-5.09v-15.59c0-2.62-.69-4.61-2.04-5.9-1.36-1.29-3.25-1.95-5.62-1.95h-6.84v64.66h1.39v-33.38Zm11.73-23.34v15.4c0,4.41-2.05,6.55-6.27,6.55h-5.45V2.31h5.45c4.22,0,6.27,2.14,6.27,6.55Z"/><polygon class="cls-1" points="305.3 38.99 308.93 29.52 318.96 65.4 319 65.57 320.41 65.57 309.74 27.52 319.89 .92 318.47 .92 305.3 35.47 305.3 .92 303.91 .92 303.91 65.57 305.3 65.57 305.3 38.99"/><path class="cls-1" d="m331.84,66.49h.18c2.07,0,3.82-.67,5.21-1.99,1.39-1.33,2.09-3.29,2.09-5.85v-9.35c0-2.7-.26-5.11-.79-7.17s-1.22-3.88-2.09-5.42c-.85-1.51-2.05-3.4-3.58-5.6l-.46-.74c-1.46-2.19-2.6-4.03-3.38-5.48-.78-1.45-1.46-3.17-2-5.13-.54-1.95-.82-4.26-.82-6.86v-5.14c0-2.01.52-3.59,1.54-4.7,1.02-1.1,2.39-1.67,4.09-1.67h.18c1.69,0,3.07.56,4.09,1.67,1.02,1.11,1.54,2.69,1.54,4.7v14.26h1.39V7.66c0-2.5-.69-4.42-2.04-5.72-1.35-1.29-3.03-1.94-4.97-1.94h-.18c-1.95,0-3.62.65-4.97,1.94-1.36,1.29-2.04,3.21-2.04,5.72v5.04c0,2.76.28,5.2.83,7.26.56,2.06,1.27,3.9,2.13,5.46.85,1.56,2.09,3.55,3.71,5.97.16.17.3.36.43.61,2.06,3.09,3.59,5.84,4.56,8.17.96,2.32,1.45,5.33,1.45,8.94v9.44c0,2.13-.55,3.77-1.63,4.88-1.08,1.11-2.52,1.67-4.28,1.67h-.18c-1.76,0-3.2-.56-4.28-1.67-1.08-1.11-1.63-2.75-1.63-4.88v-18.21h-1.39v18.3c0,2.56.7,4.53,2.09,5.85,1.38,1.32,3.13,1.99,5.21,1.99Z"/><path class="cls-1" d="m309.95,87.45c-.17.62-.39,1.16-.66,1.61-.27.46-.67,1.03-1.2,1.72l-.09.09-.09.16c-.57.75-1.01,1.4-1.34,1.93-.33.53-.59,1.16-.8,1.87-.21.71-.31,1.52-.31,2.44v5.61h5.98v-1h-1.13s-3.72,0-3.72,0v-4.67c0-1.17.17-2.13.5-2.88.34-.75.86-1.6,1.57-2.54.04-.06.09-.13.16-.22.57-.75,1.02-1.4,1.37-1.96.35-.55.62-1.19.82-1.91.2-.72.3-1.56.3-2.52v-1.47c0-1.02-.27-1.79-.8-2.3-.53-.51-1.21-.77-2.03-.77h-.09c-.84,0-1.53.26-2.06.77-.54.51-.8,1.28-.8,2.3v4.29h1.13v-4.39c0-.63.16-1.11.47-1.46s.74-.52,1.29-.52h.03c.52,0,.95.17,1.27.52.33.34.49.83.49,1.46v1.63c0,.86-.08,1.59-.25,2.21Z"/><path class="cls-1" d="m329.63,87.41c-.17.62-.39,1.16-.66,1.61-.27.46-.67,1.03-1.2,1.72l-.09.09-.09.16c-.57.75-1.01,1.4-1.34,1.93-.33.53-.59,1.16-.8,1.87-.21.71-.31,1.52-.31,2.44v5.61h5.98v-1h-1.13s-3.72,0-3.72,0v-4.67c0-1.17.17-2.13.5-2.88.34-.75.86-1.6,1.57-2.54.04-.06.09-.13.16-.22.57-.75,1.02-1.4,1.37-1.96.35-.55.62-1.19.82-1.91.2-.72.3-1.56.3-2.52v-1.47c0-1.02-.27-1.79-.8-2.3-.53-.51-1.21-.77-2.03-.77h-.09c-.84,0-1.53.26-2.06.77-.54.51-.8,1.28-.8,2.3v4.29h1.13v-4.39c0-.63.16-1.11.47-1.46.31-.34.74-.52,1.29-.52h.03c.52,0,.95.17,1.27.52.33.34.49.83.49,1.46v1.63c0,.86-.08,1.59-.25,2.21Z"/><path class="cls-1" d="m317.94,103.19c.86,0,1.56-.26,2.11-.78.55-.52.82-1.3.82-2.35v-16.29c0-1.04-.27-1.83-.82-2.35-.55-.52-1.25-.78-2.11-.78h-.12c-.86,0-1.56.26-2.11.78-.55.52-.82,1.31-.82,2.35v16.29c0,1.05.27,1.83.82,2.35.55.52,1.25.78,2.11.78h.12Zm-1.92-3.04v-16.48c0-.65.17-1.15.52-1.5.35-.35.78-.53,1.31-.53h.06c.55,0,.99.18,1.32.53.34.35.5.86.5,1.5v16.48c0,.65-.17,1.15-.5,1.5-.34.35-.78.53-1.32.53h-.06c-.53,0-.96-.18-1.31-.53-.35-.35-.52-.86-.52-1.5Z"/><path class="cls-1" d="m338.34,93.95v-13h-.91l-4.82,13.25v.75h4.6v7.93h1.13v-7.93h1.07v-1h-1.07Zm-1.02-10.58l-.11,1.75v8.84h-3.49l3.14-8.84.46-1.75Z"/></g></svg>