<?xml version="1.0" encoding="UTF-8"?><svg id="_レイヤー_2" xmlns="http://www.w3.org/2000/svg" viewBox="0 0 289.22 283.91"><defs><style>.cls-1{fill:none;}.cls-2{fill:#231815;}</style></defs><path class="cls-1" d="m234.29,225.47c-.09-45.84-.18-94.74-.27-144.07l-1.62-1.62-.09,147.68,1.98-1.98Z"/><path class="cls-1" d="m229.75,230.02c-.09-48.56-.2-100.68-.29-153.19l-1.61-1.61-.09,156.8,1.99-1.99Z"/><path class="cls-1" d="m275.19,184.47c-.04-20.29-.08-41-.12-61.92l-1.7-1.7-.04,65.49,1.86-1.86Z"/><path class="cls-1" d="m4.69,148.48v17.92s1.8,1.81,1.8,1.81c-.01-7.13-.03-14.29-.04-21.5l-1.76,1.76Z"/><path class="cls-1" d="m6.95,146.22v22.44s1.82,1.84,1.82,1.84c-.02-8.62-.03-17.31-.05-26.05l-1.77,1.77Z"/><path class="cls-1" d="m.19,152.99v8.92s1.78,1.78,1.78,1.78c0-4.14-.02-8.29-.02-12.45l-1.75,1.75Z"/><path class="cls-1" d="m277.47,182.19c-.04-18.82-.07-37.99-.11-57.34l-1.73-1.73-.04,60.96,1.88-1.88Z"/><path class="cls-1" d="m236.57,223.19c-.09-44.47-.19-91.76-.27-139.5l-1.63-1.63-.08,143.12,1.98-1.98Z"/><path class="cls-1" d="m279.74,179.91c-.03-17.34-.07-34.98-.1-52.78l-1.73-1.73-.03,56.38,1.86-1.86Z"/><path class="cls-1" d="m2.43,150.75v13.4s1.79,1.8,1.79,1.8c-.01-5.63-.02-11.28-.03-16.96l-1.76,1.76Z"/><path class="cls-1" d="m282.01,173.21c-.03-14.43-.06-29.05-.09-43.79l-1.73-1.73-.03,51.26c.65-1.89,1.26-3.8,1.85-5.73Z"/><path class="cls-1" d="m232.02,227.75c-.09-47.2-.19-97.71-.28-148.63l-1.61-1.61-.09,152.23,1.98-1.98Z"/><path class="cls-1" d="m245.65,214.08c-.07-38.93-.16-79.87-.23-121.26l-1.64-1.64-.07,124.84,1.94-1.94Z"/><path class="cls-1" d="m100.25,214.52l-.03,47.42,2.08,2.08c-.03-15.89-.06-32.27-.1-49.03-.66-.15-1.31-.31-1.96-.48Z"/><path class="cls-1" d="m257.02,202.69c-.06-31.86-.13-64.95-.19-98.42l-1.67-1.67-.06,102.02,1.92-1.92Z"/><path class="cls-1" d="m259.28,200.42c-.06-30.44-.12-61.97-.18-93.88l-1.66-1.66-.06,97.45,1.9-1.9Z"/><path class="cls-1" d="m261.56,198.14c-.06-29.01-.11-58.98-.17-89.3l-1.7-1.7-.05,92.93,1.92-1.92Z"/><path class="cls-1" d="m247.92,211.81c-.07-37.53-.15-76.89-.22-116.69l-1.65-1.65-.07,120.29,1.94-1.94Z"/><path class="cls-1" d="m254.75,204.96c-.07-33.29-.14-67.93-.2-102.98l-1.67-1.67-.06,106.59,1.93-1.93Z"/><path class="cls-1" d="m272.93,186.74c-.04-21.75-.09-43.99-.13-66.46l-1.71-1.71-.04,70.06,1.88-1.88Z"/><path class="cls-1" d="m250.2,209.52c-.07-36.12-.14-73.9-.21-112.11l-1.66-1.66-.07,115.72,1.94-1.94Z"/><path class="cls-1" d="m252.47,207.25c-.07-34.7-.14-70.92-.21-107.56l-1.65-1.65-.07,111.15,1.93-1.93Z"/><path class="cls-1" d="m238.84,220.91c-.09-43.09-.18-88.79-.26-134.94l-1.62-1.62-.08,138.53,1.96-1.96Z"/><path class="cls-1" d="m270.66,189.01c-.05-23.21-.1-46.98-.14-71.02l-1.71-1.71-.04,74.63,1.89-1.89Z"/><path class="cls-1" d="m268.38,191.3c-.05-24.67-.1-50-.15-75.6l-1.69-1.69-.05,79.19,1.89-1.89Z"/><path class="cls-1" d="m266.11,193.57c-.05-26.12-.1-52.98-.15-80.16l-1.7-1.7-.05,83.76,1.9-1.9Z"/><path class="cls-1" d="m243.39,216.35c-.08-40.32-.16-82.83-.24-125.8l-1.64-1.64-.08,129.4,1.96-1.96Z"/><path class="cls-1" d="m263.83,195.86c-.05-27.57-.11-55.99-.16-84.74l-1.69-1.69-.05,88.34,1.9-1.9Z"/><path class="cls-1" d="m241.11,218.63c-.08-41.71-.17-85.82-.25-130.38l-1.63-1.63-.08,133.98,1.96-1.96Z"/><path class="cls-1" d="m9.23,143.93l-.02,27.01,1.84,1.84c-.02-10.12-.04-20.32-.06-30.61l-1.76,1.76Z"/><path class="cls-1" d="m41.13,111.96l-.05,90.85,1.92,1.92c-.06-30.59-.12-62.31-.18-94.45l-1.68,1.68Z"/><path class="cls-1" d="m84.77,208.27c-.15-.09-.3-.19-.45-.28l-.02,38.04,2.04,2.04c-.03-12.73-.05-25.73-.08-38.96-.5-.27-1-.55-1.49-.84Z"/><path class="cls-1" d="m88.88,210.45l-.02,40.13,2.04,2.04c-.03-13.47-.05-27.25-.08-41.29-.66-.28-1.3-.58-1.94-.88Z"/><path class="cls-1" d="m86.6,209.3l-.02,39.01,2.04,2.04c-.03-13.08-.05-26.44-.08-40.06-.66-.32-1.3-.65-1.94-.99Z"/><path class="cls-1" d="m109.37,216.27l-.03,54.79,2.1,2.1c-.03-18.25-.07-37.2-.11-56.66-.66-.07-1.31-.15-1.96-.24Z"/><path class="cls-1" d="m60.64,184.63c-6.07-9.84-10.35-20.97-12.85-33.38-2.5-12.35-3.75-25.07-3.75-38.1,0-1.39.01-2.77.04-4.15l-.68.68-.05,95.39,1.92,1.92c-.05-23.4-.09-47.48-.14-71.91h0s0,0,0,0c.16,1.41.34,2.83.53,4.24l-.04,68.02,1.93,1.93c-.04-19.31-.08-39.1-.11-59.17.08.38.14.76.22,1.14.08.42.18.82.27,1.23l-.03,57.14,1.94,1.94c-.03-16.92-.07-34.21-.1-51.74.15.53.31,1.05.47,1.57l-.03,50.52,1.95,1.95c-.03-15.38-.06-31.06-.09-46.97.15.41.3.83.45,1.24l-.03,46.06,1.94,1.94c-.03-14.24-.06-28.74-.09-43.45h.01c.14.33.29.65.43.97l-.03,42.81,1.95,1.95c-.03-13.4-.05-27.03-.08-40.86h.01c.13.28.28.54.42.81l-.03,40.38,1.96,1.96c-.02-12.76-.05-25.74-.07-38.9h0c.13.23.27.47.41.7l-.02,38.51,1.96,1.96c-.02-12.27-.05-24.75-.07-37.4h0s0,0,0,0c.13.2.27.4.4.61l-.02,37.09,1.97,1.97c-.02-11.91-.05-24.02-.07-36.3.13.18.26.35.39.53l-.02,36.06,1.99,1.99c-.02-11.67-.05-23.53-.07-35.56h0c.13.16.26.31.39.46l-.02,35.4,1.97,1.97c-.02-11.53-.05-23.25-.07-35.14.13.14.25.28.38.42l-.02,35.01,2,2c-.02-11.49-.05-23.18-.07-35.03h.01c.12.12.24.25.37.38l-.02,34.94,1.99,1.99c-.02-11.52-.05-23.23-.07-35.11h0c.13.11.25.22.37.33l-.02,35.06,2,2c-.02-11.6-.04-23.4-.07-35.38.12.1.24.19.36.29l-.02,35.37,2.01,2.01c-.02-11.73-.05-23.67-.07-35.81,0,0,0,0-.01,0h.01c.12.1.23.2.35.29l-.02,35.79,2.02,2.02c-.02-11.93-.05-24.08-.07-36.44-7.58-5.38-13.86-12.09-18.78-20.16Z"/><path class="cls-1" d="m111.65,216.54l-.03,56.8,2.1,2.1c-.04-18.87-.07-38.52-.11-58.72-.65-.05-1.31-.11-1.95-.18Z"/><path class="cls-1" d="m113.92,216.75l-.04,58.86,2.11,2.11c-.04-19.52-.07-39.88-.12-60.84-.66-.04-1.31-.08-1.96-.13Z"/><path class="cls-1" d="m79.77,205.03l-.02,36.44,2.03,2.03c-.02-12.15-.05-24.55-.07-37.15-.66-.43-1.3-.88-1.94-1.33Z"/><path class="cls-1" d="m82.05,206.57l-.02,37.18,2.03,2.03c-.02-12.42-.05-25.11-.08-38-.65-.39-1.29-.8-1.93-1.2Z"/><path class="cls-1" d="m95.72,213.19l-.03,44.23,2.04,2.04c-.03-14.84-.06-30.08-.09-45.66-.65-.19-1.29-.4-1.93-.61Z"/><path class="cls-1" d="m102.53,215.07l-.03,49.16,2.08,2.08c-.03-16.45-.06-33.43-.1-50.83-.66-.13-1.31-.27-1.95-.41Z"/><path class="cls-1" d="m225.2,234.58c-.1-51.26-.21-106.62-.31-162.33l-1.59-1.59-.1,165.93,2-2Z"/><path class="cls-1" d="m97.98,213.9l-.03,45.78,2.07,2.07c-.03-15.35-.06-31.15-.09-47.3-.66-.17-1.31-.35-1.95-.54Z"/><path class="cls-1" d="m93.44,212.38l-.02,42.76,2.05,2.05c-.03-14.35-.06-29.08-.09-44.11-.66-.22-1.3-.46-1.94-.7Z"/><path class="cls-1" d="m107.08,215.93l-.03,52.84,2.11,2.11c-.03-17.63-.07-35.9-.11-54.65-.66-.09-1.32-.19-1.97-.3Z"/><path class="cls-1" d="m91.16,211.47l-.02,41.39,2.05,2.05c-.03-13.89-.05-28.13-.08-42.65-.66-.25-1.3-.51-1.94-.79Z"/><path class="cls-1" d="m104.8,215.53l-.03,50.96,2.09,2.09c-.03-17.03-.06-34.64-.1-52.7-.66-.11-1.31-.23-1.96-.35Z"/><path class="cls-1" d="m29.74,123.37l-.04,68.05,1.88,1.88c-.05-23.38-.09-47.37-.14-71.64l-1.7,1.7Z"/><path class="cls-1" d="m18.34,134.8l-.03,45.24,1.86,1.86c-.03-16.06-.06-32.37-.09-48.84l-1.74,1.74Z"/><path class="cls-1" d="m288.77,140.62c0-1.45,0-2.9,0-4.34l-1.75-1.75v17.89c.7-3.86,1.28-7.79,1.76-11.79Z"/><path class="cls-1" d="m20.62,132.51l-.03,49.8,1.87,1.87c-.03-17.54-.07-35.39-.1-53.42l-1.74,1.74Z"/><path class="cls-1" d="m227.48,232.3c-.1-49.91-.21-103.65-.3-157.75l-1.61-1.61-.09,161.37,2-2Z"/><path class="cls-1" d="m22.89,130.24l-.03,54.35,1.88,1.88c-.04-19.01-.07-38.39-.11-57.97l-1.74,1.74Z"/><path class="cls-1" d="m286.53,154.97c-.01-6.95-.03-13.95-.04-20.97l-1.75-1.75-.02,31.04c.66-2.73,1.26-5.51,1.81-8.31Z"/><path class="cls-1" d="m13.78,139.37l-.02,36.11,1.84,1.84c-.03-13.1-.05-26.34-.07-39.71l-1.75,1.75Z"/><path class="cls-1" d="m38.84,114.25l-.05,86.26,1.93,1.93c-.06-29.16-.12-59.33-.18-89.89l-1.7,1.7Z"/><path class="cls-1" d="m16.06,137.09l-.02,40.67,1.86,1.86c-.03-14.58-.06-29.37-.09-44.29l-1.75,1.75Z"/><path class="cls-1" d="m11.5,141.66l-.02,31.55,1.86,1.86c-.02-11.62-.05-23.35-.07-35.18l-1.77,1.77Z"/><path class="cls-1" d="m34.28,118.82l-.04,77.14,1.91,1.91c-.05-26.28-.11-53.35-.16-80.76l-1.71,1.71Z"/><path class="cls-1" d="m25.18,127.94l-.04,58.92,1.88,1.88c-.04-20.47-.08-41.38-.12-62.53l-1.72,1.72Z"/><path class="cls-1" d="m36.57,116.53l-.05,81.72,1.9,1.9c-.05-27.72-.11-56.33-.16-85.32l-1.69,1.69Z"/><path class="cls-1" d="m116.2,216.9l-.04,60.99,2.12,2.12c-.04-20.18-.08-41.27-.12-63.01-.66-.03-1.31-.05-1.96-.09Z"/><path class="cls-1" d="m32,121.11l-.04,72.58,1.91,1.91c-.05-24.84-.1-50.36-.15-76.21l-1.72,1.72Z"/><path class="cls-1" d="m27.46,125.66l-.04,63.49,1.89,1.89c-.04-21.93-.09-44.39-.13-67.1l-1.72,1.72Z"/><path class="cls-1" d="m118.48,217.01l-.04,63.16,2.12,2.12c-.04-20.85-.08-42.68-.13-65.22-.66-.01-1.3-.03-1.95-.05Z"/><path class="cls-1" d="m284.27,165.12c-.03-11.05-.05-22.19-.07-33.41l-1.74-1.74-.02,41.8c.65-2.19,1.26-4.4,1.83-6.64Z"/><path class="cls-1" d="m222.93,236.86c-.11-52.59-.22-109.59-.32-166.9l-1.57-1.57-.1,170.46,1.99-1.99Z"/><path class="cls-1" d="m220.34,67.69l-1.6-1.6-.1,175.07-.26.26c-.1-55.23-.23-115.52-.33-176.02l-2.28-2.29s0,0,0,0l.69.69-.1,179.64-.25.25c-.11-56.54-.23-118.48-.34-180.58h-.01s0-.01,0-.01l-1.56-1.57-.11,184.18-.25.25c-.11-57.85-.24-121.44-.35-185.14l-2.28-2.29h0s.71.71.71.71l-.11,188.74-.24.24c-.12-59.15-.25-124.39-.36-189.69h0s-1.56-1.57-1.56-1.57l-.11,193.3-.24.24c-.12-60.43-.26-127.36-.37-194.26L152.82,0l-10.58,10.61c.2.05.39.1.59.14v-.6l.82-.82v1.62c.49.12.98.24,1.46.37v-3.45h-.01l.82-.82v4.5c.49.14.99.28,1.47.43v-6.39h-.01l.82-.83v7.48c.49.16.98.31,1.46.48,0-3.14,0-6.28,0-9.4h-.01l.83-.83v10.53c.5.18.99.36,1.48.55,0-4.18-.02-8.36-.02-12.53l.83-.84v13.7c.49.2.99.41,1.47.62,0-4.34-.02-8.69-.02-13.01h0s0,0,0,0l.83.83v12.55c.49.23.98.45,1.46.69,0-3.95-.02-7.88-.02-11.81h.01l.82.83v11.39c.5.26.99.52,1.48.79,0-3.58-.02-7.16-.02-10.73h0s.82.82.82.82v10.36c.24.14.49.27.73.41.25.15.49.32.74.47,0-3.26,0-6.52,0-9.78h-.01s.01-.01.01-.01h0s.81.82.81.82v9.48c.49.31.99.62,1.47.93,0-2.99,0-5.97,0-8.95l.81.82v8.64c.51.34.99.71,1.49,1.07,0-2.75,0-5.5,0-8.24h-.01s.01-.01.01-.01h0s.8.81.8.81v8.01c.5.36,1,.72,1.49,1.1,0-2.55,0-5.09,0-7.63l.8.81v7.46c.5.4,1,.8,1.49,1.21,0-2.4,0-4.79,0-7.19h0s.8.79.8.79v7.04c.51.44.99.91,1.49,1.36,0-2.31,0-4.62,0-6.92l.79.8v6.83c.51.48,1.01.95,1.5,1.44,0-2.27,0-4.53,0-6.8,0,0,.79.79.79.79v6.81c.5.51,1.02,1.01,1.5,1.54,0-2.28,0-4.57,0-6.85h0s.78.78.78.78v6.96c.51.58,1.02,1.16,1.51,1.75,0-2.41,0-4.81,0-7.22l.78.78v7.38c.52.65,1.01,1.32,1.51,1.98,0-2.62,0-5.24,0-7.86h0s.77.77.77.77v8.08c.53.73,1.02,1.5,1.52,2.26,0-2.93,0-5.88,0-8.81h-.01s.01-.01.01-.01h0s.76.77.76.77v9.17c.04.07.1.14.14.21.48.77.94,1.57,1.4,2.36-.01-3.42-.02-6.83-.02-10.24l.76.77v10.72c.56.99,1.08,2.01,1.6,3.03-.02-.04-.04-.08-.06-.12-.01-4.04-.02-8.07-.02-12.1h.01s.75.77.75.77v12.76c-.04-.09-.09-.17-.13-.25,3.83,7.74,6.69,16.3,8.56,25.69,2.5,12.62,3.75,25.43,3.75,38.46s-1.25,25.74-3.75,38.1c-2.52,12.41-6.81,23.54-12.85,33.38-1.5,2.44-3.13,4.77-4.88,6.97.03-.04.07-.08.1-.12l-.05,84.34c-.06.01-.11.03-.17.05-.05-26.64-.1-54.82-.16-83.92h0c-.61.75-1.24,1.48-1.88,2.21l-.05,82.32c-.06.02-.11.03-.17.05-.05-26.02-.1-53.52-.16-81.93-.61.68-1.25,1.33-1.89,1.99l-.05,80.53c-.06.02-.11.03-.17.05-.05-25.48-.11-52.4-.16-80.18-.62.63-1.26,1.25-1.91,1.85l-.05,78.88c-.06.01-.11.03-.17.04-.04-24.99-.1-51.35-.15-78.58-.63.57-1.24,1.16-1.89,1.71l-.05,77.4c-.06.01-.12.03-.17.04-.05-24.55-.1-50.42-.15-77.15-.63.53-1.28,1.03-1.93,1.54l-.04,76.1s-.11.03-.16.04c-.05-24.14-.1-49.58-.15-75.86-.63.48-1.28.95-1.93,1.41l-.04,74.92s-.11.02-.16.03c-.05-23.79-.1-48.84-.15-74.71-.64.45-1.27.92-1.93,1.35l-.04,73.8s-.11.02-.16.03c-.04-23.45-.09-48.13-.14-73.62-.63.41-1.28.79-1.93,1.18l-.04,72.84s-.11.02-.16.03c-.04-23.15-.09-47.51-.14-72.66-.37.22-.72.46-1.09.67-.28.16-.56.31-.85.46l-.04,71.93s-.11.03-.16.03c-.04-22.88-.09-46.93-.14-71.77-.64.35-1.28.68-1.94,1.01l-.04,71.12c-.05.01-.11.03-.16.03-.04-22.63-.09-46.42-.14-70.98-.63.31-1.27.6-1.92.89l-.04,70.43s-.11.02-.16.02c-.05-22.41-.09-45.97-.14-70.29-.64.28-1.29.54-1.94.8l-.04,69.79c-.06,0-.11.02-.16.02-.05-22.22-.09-45.57-.14-69.67-.64.25-1.29.48-1.94.71l-.04,69.25c-.06,0-.11.02-.16.02-.05-22.06-.09-45.23-.14-69.14-.64.22-1.29.43-1.94.63l-.04,68.77c-.06.01-.11.02-.16.02-.04-21.92-.08-44.93-.13-68.69-.64.2-1.29.38-1.95.56l-.04,68.35c-.06.01-.11.02-.16.02-.04-21.79-.08-44.66-.13-68.28-.65.17-1.3.33-1.96.49l-.04,68.01s-.1.01-.15.01c-.04-21.68-.08-44.44-.13-67.94-.64.15-1.3.29-1.95.42l-.04,67.71s-.1.01-.15.01c-.04-21.6-.08-44.25-.13-67.65-.65.13-1.3.25-1.96.36l-.04,67.46h-.15c-.04-21.52-.08-44.09-.13-67.41-.64.11-1.3.21-1.95.3l-.04,67.24h-.15c-.04-21.45-.08-43.96-.13-67.19-.65.09-1.3.17-1.96.25l-.04,67.07h-.15c-.04-21.4-.08-43.85-.13-67.03-.64.07-1.29.14-1.95.2l-.04,66.93h-.15c-.04-21.35-.08-43.77-.13-66.9-.65.06-1.3.11-1.96.16l-.04,66.82h-.15c-.04-21.32-.08-43.7-.13-66.8-.65.04-1.3.09-1.96.12l-.04,66.74h-.15c-.04-21.31-.08-43.66-.13-66.73-.65.03-1.29.06-1.95.07l-.04,66.7h-.15c-.04-21.3-.08-43.63-.13-66.69-.65.01-1.3.02-1.96.02l-.04,66.69h-.15c-.04-21.29-.08-43.62-.13-66.68-.11,0-.22,0-.32,0-.55,0-1.09-.01-1.64-.02l-.04,65.37,1.48,1.48h.2c23.14,0,44.29-3.3,63.47-9.89l34.81-34.9c-.11-53.91-.23-112.54-.33-171.44Zm-28.91-13.42c-.24-.57-.47-1.15-.72-1.71,0-4.85-.02-9.69-.02-14.54h-.01s.01-.01.01-.01h0s.74.76.74.76v15.5Zm2.27,5.89c-.23-.66-.47-1.32-.71-1.97-.01-5.97-.03-11.94-.03-17.91l.74.75v19.13Zm2.28,7.46c-.23-.85-.46-1.7-.7-2.54-.02-7.5-.03-15.01-.04-22.51h.01l.73.75v24.3Zm2.28,10.3c-.2-1.05-.38-2.1-.59-3.15-.03-.14-.06-.27-.09-.4-.02-9.84-.03-19.68-.05-29.52h.01s.74.75.74.75l-.02,32.32Zm2.26,16.36c-.19-1.93-.4-3.86-.64-5.78-.02-13.77-.05-27.57-.07-41.37h0s.74.73.74.73l-.03,46.42Zm-18.33,180.83s-.11.03-.17.05c-.05-27.34-.11-56.3-.17-86.21h0s0,0,0,0c.12-.17.26-.34.39-.52l-.05,86.68Zm2.29-.76c-.06.02-.12.04-.18.06-.05-28.14-.11-57.98-.17-88.81h0c.13-.21.27-.41.4-.62l-.05,89.37Zm2.27-1.3l-.18.18c-.06-28.94-.12-59.65-.18-91.37,0,0,0,0,0,0h0s0,0,0,0c.13-.24.28-.47.41-.71l-.05,91.9Zm2.27-2.28l-.18.18c-.05-29.56-.12-60.94-.18-93.33h-.01c.14-.27.28-.54.42-.82l-.05,93.97Zm2.29-2.28l-.19.19c-.06-30.36-.13-62.61-.19-95.87.16-.35.29-.71.44-1.06l-.06,96.74Zm2.28-2.27l-.2.2c-.07-31.44-.13-64.86-.2-99.31h.01c.15-.42.3-.83.45-1.25l-.06,100.36Zm2.27-2.28l-.2.2c-.06-32.86-.13-67.86-.2-103.9h-.01c.17-.58.31-1.17.47-1.75l-.06,105.45Zm2.29-2.29l-.21.21c-.07-35.02-.15-72.43-.22-110.9h.01c.17-.87.33-1.74.49-2.6l-.07,113.29Zm2.27-2.27l-.21.21c-.08-38.59-.16-80.02-.24-122.55h0c.2-1.59.37-3.18.53-4.78l-.07,127.12Zm2.27-2.28l-.22.22c-.12-64.23-.27-136.21-.39-207.91l.73.73-.12,206.96Zm2.28-2.28l-.22.22c-.12-62.97-.26-133.25-.38-203.34h-.01s.01-.01.01-.01h0s.72.73.72.73l-.12,202.4Zm2.29-2.28l-.23.23c-.13-61.7-.27-130.3-.38-198.79h0l.72.72-.12,197.84Z"/><path class="cls-2" d="m6.45,146.72c.01,7.21.03,14.37.04,21.5l.45.45v-22.44s-.49.5-.49.5Z"/><path class="cls-2" d="m4.19,148.98c.01,5.68.02,11.33.03,16.96l.46.46v-17.92s-.49.5-.49.5Z"/><path class="cls-2" d="m1.94,151.24c0,4.16.02,8.31.02,12.45l.46.46v-13.4s-.48.49-.48.49Z"/><path class="cls-2" d="m8.72,144.44c.02,8.74.03,17.43.05,26.05l.44.44.02-27.01-.51.51Z"/><path class="cls-2" d="m10.99,142.17c.02,10.28.04,20.49.06,30.61l.43.43.02-31.55-.51.51Z"/><path class="cls-2" d="m13.27,139.88c.02,11.83.04,23.56.07,35.18l.42.42.02-36.11-.51.51Z"/><path class="cls-2" d="m15.53,137.62c.02,13.37.05,26.62.07,39.71l.43.43.02-40.67-.53.53Z"/><path class="cls-2" d="m17.81,135.33c.03,14.92.06,29.71.09,44.29l.42.42.03-45.24-.53.53Z"/><path class="cls-2" d="m20.08,133.06c.03,16.47.06,32.78.09,48.84l.42.42.03-49.8-.54.54Z"/><path class="cls-2" d="m22.36,130.77c.03,18.03.07,35.88.1,53.42l.4.4.03-54.35-.53.53Z"/><path class="cls-2" d="m24.63,128.49c.04,19.58.07,38.96.11,57.97l.4.4.04-58.92-.55.55Z"/><path class="cls-2" d="m26.9,126.22c.04,21.15.08,42.06.12,62.53l.4.4.04-63.49-.56.56Z"/><path class="cls-2" d="m29.18,123.93c.04,22.71.09,45.17.13,67.1l.39.39.04-68.05-.56.56Z"/><path class="cls-2" d="m31.44,121.67c.04,24.27.09,48.25.14,71.64l.38.38.04-72.58-.56.56Z"/><path class="cls-2" d="m33.72,119.38c.05,25.84.1,51.37.15,76.21l.37.37.04-77.14-.56.56Z"/><path class="cls-2" d="m35.99,117.11c.05,27.41.1,54.48.16,80.76l.37.37.05-81.72-.58.58Z"/><path class="cls-2" d="m38.26,114.83c.06,28.98.11,57.6.16,85.32l.36.36.05-86.26-.58.58Z"/><path class="cls-2" d="m40.54,112.55c.06,30.56.12,60.74.18,89.89l.36.36.05-90.85-.59.59Z"/><path class="cls-2" d="m42.81,110.27c.06,32.14.12,63.86.18,94.45l.35.35.05-95.39-.59.59Z"/><path class="cls-2" d="m45.13,135.08c.05,24.44.09,48.51.14,71.91l.35.35.04-68.02c-.19-1.41-.37-2.83-.53-4.24Z"/><path class="cls-2" d="m47.65,151.24c-.08-.38-.14-.76-.22-1.14.04,20.07.08,39.85.11,59.17l.34.34.03-57.14c-.09-.41-.19-.81-.27-1.23Z"/><path class="cls-2" d="m49.73,159.81c.03,17.54.07,34.82.1,51.74l.34.34.03-50.52c-.16-.52-.32-1.04-.47-1.57Z"/><path class="cls-2" d="m52.03,166.88c.03,15.91.06,31.58.09,46.97l.33.33.03-46.06c-.15-.41-.3-.83-.45-1.24Z"/><path class="cls-2" d="m54.32,172.67h-.01c.03,14.71.06,29.21.09,43.45l.33.33.03-42.81c-.14-.32-.29-.64-.43-.97Z"/><path class="cls-2" d="m56.61,177.55h-.01c.03,13.82.05,27.45.08,40.85l.33.33.03-40.38c-.14-.27-.29-.53-.42-.8Z"/><path class="cls-2" d="m58.89,181.79h0c.02,13.16.05,26.14.07,38.9l.31.31.02-38.51c-.14-.23-.28-.47-.41-.7Z"/><path class="cls-2" d="m61.17,185.57c.02,12.65.05,25.13.07,37.4l.31.31.02-37.09c-.13-.21-.27-.41-.4-.61Z"/><path class="cls-2" d="m63.45,188.95c.02,12.28.05,24.39.07,36.3l.3.3.02-36.06c-.13-.18-.26-.35-.39-.53Z"/><path class="cls-2" d="m65.74,191.97h0c.02,12.03.05,23.89.07,35.56l.3.3.02-35.4c-.13-.15-.26-.3-.39-.46Z"/><path class="cls-2" d="m68.01,194.66c.03,11.89.05,23.61.07,35.14l.29.29.02-35.01c-.13-.14-.25-.28-.38-.42Z"/><path class="cls-2" d="m70.31,197.05h-.01c.02,11.87.04,23.55.07,35.04l.29.29.02-34.94c-.13-.13-.25-.26-.37-.39Z"/><path class="cls-2" d="m72.58,199.25h0c.02,11.9.05,23.61.07,35.12l.28.28.02-35.06c-.12-.11-.24-.22-.37-.34Z"/><path class="cls-2" d="m74.86,201.27c.02,11.98.04,23.78.07,35.38l.27.27.02-35.37c-.12-.1-.24-.19-.36-.29Z"/><polygon class="cls-2" points="77.13 203.12 77.14 203.13 77.14 203.12 77.13 203.12"/><path class="cls-2" d="m77.14,203.13c.02,12.13.05,24.08.07,35.81l.26.26.02-35.79c-.12-.09-.23-.19-.35-.28Z"/><path class="cls-2" d="m79.42,204.78c.02,12.35.05,24.51.07,36.44l.26.26.02-36.44c-.12-.08-.23-.17-.35-.25Z"/><path class="cls-2" d="m81.71,206.36c.02,12.6.05,25,.07,37.15l.25.25.02-37.18c-.11-.07-.23-.14-.34-.21Z"/><path class="cls-2" d="m83.98,207.78c.03,12.9.05,25.58.08,38l.24.24.02-38.04c-.12-.07-.22-.14-.34-.21Z"/><path class="cls-2" d="m86.26,209.1c.03,13.23.05,26.23.08,38.96l.24.24.02-39.01c-.11-.06-.23-.13-.34-.19Z"/><path class="cls-2" d="m88.54,210.29c.03,13.62.06,26.98.08,40.06l.24.24.02-40.13c-.11-.05-.23-.11-.34-.16Z"/><path class="cls-2" d="m90.82,211.33c.03,14.05.05,27.83.08,41.29l.24.24.02-41.39c-.11-.05-.23-.09-.34-.14Z"/><path class="cls-2" d="m93.1,212.26c.03,14.52.06,28.76.08,42.65l.23.23.02-42.76c-.11-.04-.23-.08-.34-.13Z"/><path class="cls-2" d="m95.38,213.08c.03,15.03.06,29.76.09,44.11l.23.23.03-44.23c-.11-.04-.23-.07-.34-.11Z"/><path class="cls-2" d="m97.65,213.8c.03,15.58.06,30.82.09,45.66l.21.21.03-45.78c-.11-.03-.22-.06-.33-.1Z"/><path class="cls-2" d="m99.93,214.44c.03,16.16.06,31.95.09,47.3l.2.2.03-47.42c-.11-.03-.21-.05-.32-.08Z"/><path class="cls-2" d="m102.21,215c.04,16.76.07,33.14.1,49.03l.2.2.03-49.16c-.11-.02-.21-.05-.32-.07Z"/><path class="cls-2" d="m104.48,215.48c.04,17.39.07,34.38.1,50.83l.19.19.03-50.96c-.11-.02-.21-.04-.32-.06Z"/><path class="cls-2" d="m106.76,215.88c.04,18.06.07,35.68.1,52.7l.19.19.03-52.84c-.11-.02-.21-.03-.32-.05Z"/><path class="cls-2" d="m109.05,216.23c.04,18.75.07,37.02.11,54.65l.18.18.03-54.79c-.11-.01-.21-.02-.32-.04Z"/><path class="cls-2" d="m111.33,216.51c.04,19.46.08,38.41.11,56.66l.18.18.03-56.8c-.11-.01-.21-.02-.32-.04Z"/><path class="cls-2" d="m113.6,216.72c.04,20.2.08,39.84.11,58.72l.17.17.04-58.86c-.11,0-.21-.02-.32-.03Z"/><path class="cls-2" d="m115.88,216.88c.05,20.96.08,41.32.12,60.84l.16.16.04-60.99c-.11,0-.21-.01-.32-.02Z"/><path class="cls-2" d="m118.16,216.99c.05,21.74.09,42.83.12,63.01l.16.16.04-63.16c-.11,0-.21,0-.32-.01Z"/><path class="cls-2" d="m120.43,217.06c.05,22.54.09,44.37.13,65.22l.15.15.04-65.37c-.11,0-.21,0-.32,0Z"/><path class="cls-2" d="m122.99,283.76l.04-66.69c-.11,0-.21,0-.32,0,.05,23.06.09,45.4.13,66.68h.15Z"/><path class="cls-2" d="m125.27,283.74l.04-66.7c-.11,0-.21,0-.32,0,.05,23.06.09,45.39.13,66.69h.15Z"/><path class="cls-2" d="m127.54,283.7l.04-66.74c-.11,0-.21,0-.32.01.05,23.07.09,45.43.13,66.73h.15Z"/><path class="cls-2" d="m129.82,283.64l.04-66.82c-.11,0-.21.01-.32.02.05,23.1.09,45.47.13,66.8h.15Z"/><path class="cls-2" d="m132.1,283.56l.04-66.93c-.11.01-.21.02-.32.03.05,23.13.09,45.54.13,66.9h.15Z"/><path class="cls-2" d="m134.37,283.46l.04-67.07c-.11.01-.21.03-.32.04.05,23.18.09,45.64.13,67.03h.15Z"/><path class="cls-2" d="m136.65,283.33l.04-67.24c-.11.02-.21.03-.32.05.05,23.23.09,45.75.13,67.19h.15Z"/><path class="cls-2" d="m138.92,283.19l.04-67.46c-.11.02-.21.04-.32.06.05,23.31.09,45.89.13,67.41h.15Z"/><path class="cls-2" d="m141.2,283l.04-67.71c-.11.02-.21.05-.32.07.05,23.39.09,46.05.13,67.65.05,0,.1,0,.15-.01Z"/><path class="cls-2" d="m143.47,282.8l.04-68.01c-.11.03-.21.05-.32.08.05,23.49.09,46.26.13,67.94.05,0,.1,0,.15-.01Z"/><path class="cls-2" d="m142.82,10.15v.6c.28.06.55.13.82.2v-1.62l-.82.82Z"/><path class="cls-2" d="m145.09,7.88h.01v3.45c.27.07.54.15.81.23v-4.5l-.82.82Z"/><path class="cls-2" d="m145.76,282.56l.04-68.35c-.11.03-.22.06-.33.09.05,23.61.09,46.49.13,68.28.05,0,.1-.01.16-.02Z"/><path class="cls-2" d="m148.04,282.32l.04-68.77c-.11.03-.22.07-.33.11.05,23.75.09,46.77.13,68.69.05,0,.1-.01.16-.02Z"/><path class="cls-2" d="m147.37,5.6h.01v6.39c.27.08.54.18.81.26v-7.48l-.82.83Z"/><path class="cls-2" d="m149.63,3.33h.01c0,3.13,0,6.27,0,9.4.27.1.54.2.81.3V2.5l-.83.83Z"/><path class="cls-2" d="m150.32,282.04l.04-69.25c-.11.04-.23.08-.34.12.05,23.92.09,47.08.14,69.14.05,0,.1-.01.16-.02Z"/><path class="cls-2" d="m152.6,281.73l.04-69.79c-.11.05-.23.09-.34.14.05,24.11.09,47.45.14,69.67.05,0,.1-.02.16-.02Z"/><path class="cls-2" d="m151.92,1.06c0,4.17,0,8.34.02,12.53.27.11.54.22.81.34V.22l-.83.84Z"/><path class="cls-2" d="m154.88,281.41l.04-70.43c-.11.05-.23.1-.34.15.05,24.32.09,47.88.14,70.29.05,0,.11-.01.16-.02Z"/><path class="cls-2" d="m154.2,1.53c0,4.32,0,8.67.02,13.01.27.12.54.25.81.37V2.36l-.83-.83Z"/><path class="cls-2" d="m157.14,281.04l.04-71.12c-.11.06-.23.11-.34.17.05,24.56.1,48.35.14,70.98.05,0,.11-.02.16-.03Z"/><path class="cls-2" d="m156.48,3.8h-.01c0,3.93,0,7.86.02,11.81.27.14.54.28.81.42V4.63l-.82-.83Z"/><path class="cls-2" d="m158.76,6.07h0c0,3.58,0,7.16.02,10.74.27.15.53.3.8.45V6.9l-.82-.83Z"/><path class="cls-2" d="m159.42,280.66l.04-71.93c-.11.06-.23.12-.34.19.05,24.84.1,48.89.14,71.77.05,0,.11-.02.16-.03Z"/><path class="cls-2" d="m161.7,280.23l.04-72.84c-.11.07-.23.14-.34.21.05,25.15.1,49.51.14,72.66.05-.01.11-.02.16-.03Z"/><path class="cls-2" d="m161.04,8.37c0,3.26,0,6.52,0,9.78.27.17.53.34.8.51v-9.48l-.81-.81Z"/><polygon class="cls-2" points="161.03 8.36 161.04 8.37 161.04 8.36 161.03 8.36"/><path class="cls-2" d="m163.97,279.8l.04-73.8c-.11.07-.23.14-.34.21.05,25.49.1,50.18.14,73.62.05-.01.11-.02.16-.03Z"/><path class="cls-2" d="m163.31,10.64c0,2.98,0,5.96,0,8.95.26.17.54.34.8.51v-8.64l-.81-.82Z"/><polygon class="cls-2" points="165.59 12.92 165.6 12.93 165.6 12.92 165.59 12.92"/><path class="cls-2" d="m165.6,12.93c0,2.74,0,5.49,0,8.24.26.19.53.38.79.57v-8.01l-.8-.8Z"/><path class="cls-2" d="m166.25,279.33l.04-74.92c-.12.08-.23.16-.35.24.05,25.87.1,50.92.15,74.71.05-.01.11-.02.16-.03Z"/><path class="cls-2" d="m167.88,15.2c0,2.55,0,5.09,0,7.63.27.21.52.43.79.64v-7.46l-.8-.81Z"/><path class="cls-2" d="m168.53,278.81l.04-76.1c-.12.09-.23.19-.35.28.05,26.28.1,51.72.15,75.86.05-.01.11-.03.16-.04Z"/><path class="cls-2" d="m170.16,17.48h0c0,2.41,0,4.8,0,7.2.26.22.53.42.79.64v-7.04l-.8-.8Z"/><path class="cls-2" d="m170.82,278.28l.05-77.4c-.12.1-.25.19-.37.3.05,26.73.1,52.6.15,77.15.05-.01.11-.03.17-.04Z"/><path class="cls-2" d="m173.08,277.71l.05-78.88c-.12.11-.25.22-.37.34.05,27.23.11,53.59.15,78.58.06-.01.11-.03.17-.04Z"/><path class="cls-2" d="m172.44,19.76c0,2.3,0,4.61,0,6.92.26.24.52.47.78.71v-6.83l-.79-.8Z"/><path class="cls-2" d="m174.72,22.04c0,2.27,0,4.53,0,6.8.26.26.52.54.78.8v-6.81s-.79-.79-.79-.79Z"/><path class="cls-2" d="m175.37,277.11l.05-80.53c-.13.13-.25.26-.38.39.05,27.79.11,54.71.16,80.18.06-.02.11-.03.17-.05Z"/><path class="cls-2" d="m177,24.32h0c0,2.29,0,4.58,0,6.86.27.29.51.6.77.89v-6.96l-.78-.79Z"/><path class="cls-2" d="m177.64,276.47l.05-82.32c-.13.15-.25.3-.38.45.06,28.41.11,55.91.16,81.93.06-.02.11-.03.17-.05Z"/><path class="cls-2" d="m179.28,26.6c0,2.41,0,4.81,0,7.22.26.31.52.62.77.93v-7.38l-.78-.78Z"/><path class="cls-2" d="m179.74,275.86c.06-.02.11-.04.17-.05l.05-84.34s-.07.08-.1.12c-.09.12-.19.23-.29.35h0c.06,29.1.11,57.28.16,83.92Z"/><path class="cls-2" d="m181.56,28.87h0c0,2.63,0,5.25,0,7.87.25.34.52.66.76,1v-8.08l-.77-.78Z"/><path class="cls-2" d="m182.02,275.16c.06-.02.12-.03.17-.05l.05-86.68c-.13.18-.27.35-.39.52.06,29.91.12,58.87.17,86.21Z"/><path class="cls-2" d="m184.13,185.6c.06,30.83.12,60.67.17,88.81.06-.02.12-.04.18-.06l.05-89.37c-.13.21-.27.41-.4.61h0Z"/><polygon class="cls-2" points="183.83 31.17 183.84 31.18 183.84 31.17 183.83 31.17"/><path class="cls-2" d="m183.84,31.18c0,2.93,0,5.88,0,8.81.25.37.51.74.75,1.12v-9.17l-.76-.76Z"/><path class="cls-2" d="m186.57,273.23l.18-.18.05-91.9c-.13.24-.28.47-.41.71.06,31.72.12,62.43.18,91.37Z"/><polygon class="cls-2" points="186.39 181.86 186.39 181.86 186.39 181.85 186.39 181.86"/><path class="cls-2" d="m186.12,33.44c0,3.41.01,6.82.02,10.24.24.42.5.82.74,1.25v-10.72l-.76-.77Z"/><path class="cls-2" d="m188.66,177.62c.06,32.39.13,63.77.18,93.33l.18-.18.05-93.97c-.14.28-.28.55-.42.83h.01Z"/><path class="cls-2" d="m189.16,36.5l-.75-.76h-.01c0,4.02,0,8.05.02,12.09.02.04.04.08.06.12.18.35.37.7.55,1.05.04.09.09.17.13.25v-12.76Z"/><path class="cls-2" d="m191.12,268.68l.19-.19.06-96.74c-.15.35-.28.71-.44,1.06.06,33.26.13,65.51.19,95.87Z"/><path class="cls-2" d="m190.71,52.56c.25.56.48,1.14.72,1.71v-15.5l-.74-.75c0,4.85.02,9.69.02,14.54Z"/><polygon class="cls-2" points="190.68 38.01 190.69 38.02 190.69 38.01 190.68 38.01"/><path class="cls-2" d="m192.99,58.19c.24.65.48,1.31.71,1.97v-19.13l-.74-.75c0,5.97.02,11.94.03,17.91Z"/><path class="cls-2" d="m193.19,167.11c.07,34.45.13,67.87.2,99.31l.2-.2.06-100.36c-.15.42-.3.83-.45,1.25h-.01Z"/><path class="cls-2" d="m195.24,42.57c.01,7.5.02,15.01.04,22.51.24.84.47,1.69.7,2.54v-24.3l-.73-.75h-.01Z"/><path class="cls-2" d="m195.46,160.24c.07,36.04.14,71.04.2,103.9l.2-.2.06-105.45c-.16.58-.3,1.17-.47,1.75h.01Z"/><path class="cls-2" d="m197.72,150.96c.07,38.47.15,75.88.22,110.9l.21-.21.07-113.29c-.16.86-.32,1.73-.49,2.59h-.01Z"/><path class="cls-2" d="m197.53,44.85c.02,9.84.03,19.68.05,29.52.03.13.06.26.09.4.21,1.05.39,2.1.59,3.15l.02-32.32-.74-.74h-.01Z"/><path class="cls-2" d="m199.97,137.04c.08,42.53.16,83.96.24,122.55l.21-.21.07-127.12c-.16,1.6-.33,3.19-.53,4.78h0Z"/><path class="cls-2" d="m199.81,47.13c.02,13.8.05,27.6.07,41.37.24,1.92.45,3.85.64,5.78l.03-46.42-.74-.74h0Z"/><path class="cls-2" d="m202.47,257.32l.22-.22.12-206.96-.73-.73c.12,71.7.27,143.68.39,207.91Z"/><path class="cls-2" d="m204.75,255.04l.22-.22.12-202.4-.72-.72c.12,70.09.26,140.37.38,203.34Z"/><polygon class="cls-2" points="204.36 51.69 204.37 51.7 204.37 51.69 204.36 51.69"/><path class="cls-2" d="m206.65,53.98c.11,68.49.25,137.09.38,198.79l.23-.23.12-197.84-.72-.72h0Z"/><path class="cls-2" d="m209.54,250.27l.11-193.3-.72-.72c.11,66.9.25,133.83.37,194.26l.24-.24Z"/><path class="cls-2" d="m211.81,247.99l.11-188.74-.71-.71c.11,65.3.24,130.54.36,189.69l.24-.24Z"/><path class="cls-2" d="m214.09,245.71l.11-184.18-.71-.71c.11,63.7.24,127.29.35,185.14l.25-.25Z"/><path class="cls-2" d="m216.36,243.44l.1-179.64-.69-.69c.11,62.1.23,124.04.34,180.58l.25-.25Z"/><polygon class="cls-2" points="215.77 63.11 215.77 63.11 215.77 63.1 215.76 63.1 215.77 63.11"/><path class="cls-2" d="m218.64,241.15l.1-175.07-.69-.69c.1,60.5.23,120.78.33,176.02l.26-.26Z"/><path class="cls-2" d="m220.94,238.85l.1-170.46-.7-.7c.1,58.89.22,117.53.33,171.44l.27-.27Z"/><path class="cls-2" d="m223.2,236.59l.1-165.93-.69-.69c.1,57.3.21,114.31.32,166.9l.27-.27Z"/><path class="cls-2" d="m225.48,234.3l.09-161.37-.68-.68c.1,55.71.21,111.08.31,162.33l.28-.28Z"/><path class="cls-2" d="m227.76,232.02l.09-156.8-.67-.67c.09,54.11.2,107.84.3,157.75l.28-.28Z"/><path class="cls-2" d="m230.04,229.73l.09-152.23-.67-.67c.09,52.52.2,104.63.29,153.19l.29-.29Z"/><path class="cls-2" d="m232.31,227.46l.09-147.68-.66-.66c.09,50.92.19,101.43.28,148.63l.29-.29Z"/><path class="cls-2" d="m234.59,225.17l.08-143.12-.65-.65c.09,49.33.18,98.23.27,144.07l.3-.3Z"/><path class="cls-2" d="m236.88,222.88l.08-138.53-.66-.66c.08,47.73.18,95.03.27,139.5l.31-.31Z"/><path class="cls-2" d="m239.15,220.6l.08-133.98-.65-.65c.08,46.15.17,91.85.26,134.94l.31-.31Z"/><path class="cls-2" d="m241.43,218.31l.08-129.4-.65-.65c.08,44.56.17,88.66.25,130.38l.32-.32Z"/><path class="cls-2" d="m243.71,216.03l.07-124.84-.63-.63c.08,42.97.16,85.48.24,125.8l.32-.32Z"/><path class="cls-2" d="m245.98,213.75l.07-120.29-.63-.63c.07,41.39.16,82.33.23,121.26l.33-.33Z"/><path class="cls-2" d="m248.26,211.47l.07-115.72-.63-.63c.07,39.8.15,79.17.22,116.69l.34-.34Z"/><path class="cls-2" d="m250.54,209.18l.07-111.15-.62-.62c.07,38.21.14,75.99.21,112.11l.34-.34Z"/><path class="cls-2" d="m252.82,206.9l.06-106.59-.62-.62c.07,36.64.14,72.86.21,107.56l.35-.35Z"/><path class="cls-2" d="m255.1,204.61l.06-102.02-.61-.61c.06,35.05.13,69.69.2,102.98l.35-.35Z"/><path class="cls-2" d="m257.38,202.33l.06-97.45-.61-.61c.06,33.47.13,66.56.19,98.42l.36-.36Z"/><path class="cls-2" d="m259.64,200.06l.05-92.93-.59-.59c.06,31.91.12,63.44.18,93.88l.36-.36Z"/><path class="cls-2" d="m261.93,197.76l.05-88.34-.59-.59c.06,30.32.11,60.29.17,89.3l.37-.37Z"/><path class="cls-2" d="m264.21,195.48l.05-83.76-.59-.59c.05,28.75.11,57.17.16,84.74l.38-.38Z"/><path class="cls-2" d="m266.49,193.19l.05-79.19-.58-.58c.05,27.17.1,54.04.15,80.16l.38-.38Z"/><path class="cls-2" d="m268.77,190.91l.04-74.63-.58-.58c.05,25.61.1,50.94.15,75.6l.39-.39Z"/><path class="cls-2" d="m271.05,188.62l.04-70.06-.57-.57c.04,24.04.09,47.82.14,71.02l.39-.39Z"/><path class="cls-2" d="m273.33,186.34l.04-65.49-.57-.57c.04,22.47.09,44.71.13,66.46l.4-.4Z"/><path class="cls-2" d="m275.59,184.07l.04-60.96-.56-.56c.04,20.92.08,41.63.12,61.92l.4-.4Z"/><path class="cls-2" d="m277.88,181.78l.03-56.38-.55-.55c.04,19.35.07,38.52.11,57.34l.41-.41Z"/><path class="cls-2" d="m279.89,179.76c.1-.27.18-.55.27-.82l.03-51.26-.55-.55c.03,17.8.07,35.44.1,52.78l.15-.15Z"/><path class="cls-2" d="m282.44,171.76l.02-41.8-.54-.54c.03,14.74.06,29.36.09,43.79.15-.48.29-.97.43-1.45Z"/><path class="cls-2" d="m284.72,163.28l.02-31.04-.54-.54c.02,11.22.04,22.36.07,33.41.15-.61.3-1.22.45-1.84Z"/><path class="cls-2" d="m287.01,152.4v-17.89l-.52-.52c0,7.02.03,14.01.04,20.97.17-.85.33-1.7.48-2.56Z"/><path class="cls-2" d="m289.22,136.73l-.45-.45c0,1.45,0,2.9,0,4.34.15-1.29.31-2.58.45-3.89Z"/><polygon class="cls-2" points="0 153.19 0 161.72 .19 161.91 .19 152.99 0 153.19"/></svg>