<?xml version="1.0" encoding="UTF-8"?><svg id="_レイヤー_2" xmlns="http://www.w3.org/2000/svg" viewBox="0 0 711.04 116.08"><defs><style>.cls-1,.cls-2,.cls-3{fill:#231815;}.cls-4{fill:none;stroke-width:3.2px;}.cls-4,.cls-2,.cls-3{stroke:#221714;stroke-miterlimit:10;}.cls-2{stroke-width:.42px;}.cls-3{stroke-width:.43px;}</style></defs><g id="Layer_1"><g><path class="cls-4" d="m183.4,27.67l.05,13.76m0,0c.01,3.72-.87,4.08-8.82,4.11m0,0c-3.69.01-9.42-.05-17.09-.19m-24.75-.2c11.35-3.1,21.69-7.6,28.24-12.22m70.77,12.56c-8.82-4.49-19.47-8.86-30.69-12.47m-54.64-19.87c8.08-.03,72.24-.28,72.24-.28.01,3.36.04,10.93.05,14.29-.7-.01-71.89.27-71.89.27,0,0-.47,0-1.18.02-.01-3.38-.04-10.92-.05-14.28h.83Zm36.96-7.54l-.02-5.61m-53.11,5.81l103.72-.41"/><path class="cls-4" d="m.28,44.97c24.69-4.36,40.71-8.81,51.06-13.59m53.54,13.18c-24.73-4.16-40.77-8.49-51.16-13.19m-37.94.04c10.1-.06,75.87-.32,75.96-.32-.01-3.8-.04-13-.06-16.76,0,0-65.48.26-76.79.3.01,3.82.04,13.02.06,16.79.21,0,.49,0,.84,0Zm-1.33-8.65l76.07-.3m-37.94,23.89l-.17-44.69M.13,6.93l104.6-.41"/><g><path class="cls-1" d="m261.57,21.18h31.49c1.01,0,2.5-.05,3.66-.19v3.56c-1.01-.05-2.5-.1-3.66-.1h-13.29c-.14,5.2-.92,9.73-2.84,13.34-1.78,3.18-5.39,6.6-9.44,8.67l-3.18-2.36c3.76-1.59,7.22-4.38,9.15-7.46,2.12-3.42,2.65-7.56,2.74-12.18h-14.64c-1.44,0-2.79,0-4.09.1v-3.56c1.3.14,2.6.19,4.09.19Zm5.88-11.99h16.81c1.35,0,3.03-.1,4.38-.29v3.61c-1.4-.1-3.03-.14-4.38-.14h-16.76c-1.59,0-3.08.05-4.29.14v-3.61c1.35.14,2.7.29,4.24.29Zm27.59,2.31l-2.41,1.06c-.92-1.93-2.6-4.86-3.9-6.65l2.36-1.01c1.2,1.69,2.94,4.62,3.95,6.6Zm5.3-1.93l-2.36,1.06c-1.06-2.12-2.65-4.82-4-6.6l2.31-1.01c1.25,1.73,3.13,4.72,4.05,6.55Z"/><path class="cls-1" d="m334.78,46.85l-2.89-2.75c8.62-3.37,13.05-7.46,13.05-21.29v-2.02h-14.11v8.04c0,1.69.14,3.8.19,4.19h-3.85c.05-.38.24-2.46.24-4.19v-8.04h-5.39c-2.02,0-4.29.14-4.77.14v-3.71c.39.05,2.79.29,4.77.29h5.39v-6.41c0-.96-.1-2.31-.19-3.37h3.8c-.05.39-.19,1.73-.19,3.32v6.45h14.11v-6.21c0-1.88-.14-3.47-.24-3.85h3.9c-.05.43-.24,1.97-.24,3.85v6.21h5.63c2.07,0,3.71-.14,4.24-.24v3.66c-.43-.05-2.17-.14-4.24-.14h-5.63v1.69c0,13-2.75,19.5-13.58,24.37Zm21.14-32.84l-2.22.77c-.72-2.07-1.88-5.01-2.79-6.79l2.12-.67c.87,1.69,2.21,4.72,2.89,6.69Zm4.82-1.49l-2.22.72c-.77-2.12-1.88-4.91-2.89-6.69l2.17-.67c.91,1.73,2.21,4.67,2.94,6.65Z"/><path class="cls-1" d="m400.04,17.71c5.06-3.18,9.73-7.22,13.1-11.27l2.89,2.65c-3.71,3.85-8.09,7.46-13.05,10.79v20.47c0,1.73.1,4.04.29,4.91h-4.24c.14-.87.29-3.18.29-4.91v-18.2c-5.1,2.89-11.8,5.83-18.59,7.95l-1.73-3.32c8.28-2.26,15.7-5.73,21.04-9.05Z"/><path class="cls-1" d="m457.74,33.99c7.32-4.62,13.1-11.7,15.84-17.58l2.07,3.66c-3.23,5.88-8.72,12.42-15.89,17-4.82,3.03-10.88,6.07-19.17,7.61l-2.22-3.52c8.52-1.3,14.83-4.29,19.36-7.17Zm-3.37-15.22l-2.65,2.7c-2.41-2.46-8.38-7.61-11.99-10.02l2.46-2.6c3.42,2.26,9.58,7.27,12.18,9.92Z"/><path class="cls-1" d="m506.53,22.96c-4.96,1.01-9.34,1.88-11.27,2.31l-.67-3.61c2.17-.29,6.79-1.11,11.94-2.07v-8.52c0-1.4-.05-2.84-.29-4.24h4.04c-.19,1.4-.29,2.89-.29,4.24v7.85c8.38-1.64,17.19-3.42,19.17-3.9.96-.19,1.83-.48,2.36-.77l2.55,1.93c-.34.48-.82,1.25-1.16,1.83-2.21,3.95-5.88,9.92-9.82,13.96l-2.99-1.78c3.66-3.37,7.27-8.81,8.72-11.75-.72.14-10.02,2.02-18.83,3.8v14.64c0,3.37,1.3,4.43,7.13,4.43s10.21-.48,14.98-1.4l-.14,3.71c-4.33.63-9.01,1.01-15.17,1.01-8.57,0-10.26-2.31-10.26-6.89v-14.78Z"/><path class="cls-1" d="m576.7,33.99c7.32-4.62,13.1-11.7,15.84-17.58l2.07,3.66c-3.23,5.88-8.72,12.42-15.89,17-4.82,3.03-10.88,6.07-19.17,7.61l-2.22-3.52c8.52-1.3,14.83-4.29,19.36-7.17Zm-3.37-15.22l-2.65,2.7c-2.41-2.46-8.38-7.61-11.99-10.02l2.46-2.6c3.42,2.26,9.58,7.27,12.18,9.92Z"/><path class="cls-1" d="m632.24,9.72c-.34.63-.72,1.3-1.16,2.02h13.63c1.25,0,2.22-.14,2.94-.43l2.89,1.73c-.38.63-.82,1.73-1.06,2.41-1.25,4.58-3.95,10.31-7.61,15.22,2.07,1.49,3.95,2.94,5.54,4.24l-2.55,2.94c-1.44-1.3-3.27-2.79-5.3-4.33-4.24,4.82-10.26,9.29-18.54,12.38l-3.03-2.7c8.09-2.46,14.4-7.03,18.78-11.8-3.52-2.55-7.27-5.1-10.45-7.08l2.31-2.36c3.27,1.88,6.93,4.29,10.4,6.69,3.23-4.33,5.78-9.68,6.79-13.82h-16.76c-2.99,4.29-7.27,9.01-12.76,12.81l-2.84-2.21c8.24-5.15,13.24-12.52,15.46-16.95.43-.77,1.16-2.41,1.44-3.56l3.9,1.25c-.77,1.2-1.54,2.7-2.02,3.56Z"/><path class="cls-1" d="m679.39,23.54h26.49c2.46,0,4.09-.14,5.1-.24v4.19c-.96-.05-2.89-.19-5.06-.19h-26.54c-2.65,0-5.06.1-6.5.19v-4.19c1.4.14,3.76.24,6.5.24Z"/></g><g><path class="cls-1" d="m24.11,80.87c-.05,1.78-.14,3.47-.29,5.11h11.94c1.3,0,2.17-.1,2.94-.24l2.46,1.25c-.14.82-.24,1.69-.24,2.31-.19,4.53-.77,18.64-2.94,23.21-.96,1.97-2.46,2.79-5.01,2.79-2.36,0-5.15-.14-7.66-.34l-.43-3.56c2.65.34,5.2.53,7.22.53,1.35,0,2.31-.39,2.84-1.54,1.93-3.8,2.5-16.04,2.5-21.19h-13.97c-1.73,14.06-6.84,21.29-14.74,26.73l-3.13-2.55c1.44-.77,3.32-2.07,4.67-3.32,4.82-4.29,8.52-10.4,9.82-20.85h-8.38c-1.93,0-3.76,0-5.39.19v-3.66c1.59.14,3.52.24,5.35.24h8.76c.1-1.59.19-3.23.19-5.01,0-1.11-.1-2.79-.29-3.9h4c-.1,1.06-.19,2.65-.24,3.8Zm17.05,2.36l-2.36,1.11c-.96-1.97-2.6-4.86-3.9-6.69l2.31-1.01c1.2,1.73,2.94,4.62,3.95,6.6Zm5.35-1.93l-2.41,1.06c-1.06-2.07-2.6-4.82-4-6.6l2.31-1.01c1.3,1.78,3.18,4.77,4.09,6.55Z"/><path class="cls-1" d="m70.83,110.54v-27.79c0-1.16-.19-3.32-.38-4.19h4.24c-.14,1.06-.34,2.89-.34,4.19v27.74c9.49-2.36,20.71-8.72,26.68-16.52l1.93,2.99c-6.21,7.75-16.08,13.72-28.22,17.14-.48.14-1.2.39-1.88.77l-2.46-2.07c.29-.72.43-1.35.43-2.26Z"/><path class="cls-1" d="m131.18,81.64v16.04c0,1.25.1,2.79.19,3.61h-3.95c.1-.72.24-2.21.24-3.61v-16.04c0-.87-.1-2.55-.19-3.42h3.9c-.1.87-.19,2.36-.19,3.42Zm22.39.29v7.46c0,11.8-1.49,15.51-4.96,19.65-3.08,3.8-7.9,5.83-11.41,7.03l-2.79-2.94c4.33-1.11,8.52-3.03,11.51-6.5,3.42-4.05,4-7.99,4-17.38v-7.32c0-1.59-.1-2.94-.24-4.04h4.05c-.1,1.11-.14,2.46-.14,4.04Z"/><path class="cls-1" d="m216.38,83.28c-1.88,3.18-6.45,9.44-12.04,13.29l-2.89-2.26c4.53-2.6,9.2-7.99,10.84-11.12h-27.88c-1.73,0-3.56.14-5.39.29v-3.95c1.69.24,3.66.43,5.39.43h27.98c.87,0,2.41-.14,3.08-.29l2.12,2.02c-.34.43-.87,1.11-1.2,1.59Zm-31.4,32.6l-3.18-2.6c1.25-.43,2.94-1.2,4.19-2.07,7.71-4.62,8.76-11.8,8.76-19.84,0-1.11-.05-2.12-.19-3.32h3.85c0,13.24-1.3,21.86-13.44,27.83Z"/><path class="cls-1" d="m240.9,109.05l-2.99-2.07c3.23-2.89,7.37-8.72,9.25-12.57l2.99,1.45c-2.02,4.09-6.5,10.21-9.25,13.19Zm19.46-29.13v5.15h13c1.06,0,2.6-.05,3.76-.24v3.61c-1.2-.1-2.6-.1-3.71-.1h-13.05v23.5c0,2.46-1.16,3.66-4,3.66-1.93,0-4.77-.1-6.65-.34l-.34-3.42c2.12.38,4.33.58,5.63.58s1.88-.58,1.88-1.88v-22.1h-13.58c-1.49,0-2.75.05-4,.14v-3.66c1.3.14,2.46.24,3.95.24h13.63v-5.15c0-.96-.14-2.6-.34-3.27h4.04c-.1.67-.24,2.26-.24,3.27Zm18.16,27.11l-3.18,1.78c-1.83-3.71-5.49-9.78-8.09-12.81l2.94-1.54c2.6,3.08,6.4,9.1,8.33,12.57Z"/><path class="cls-1" d="m306.02,93.88h26.49c2.46,0,4.09-.14,5.1-.24v4.19c-.96-.05-2.89-.19-5.06-.19h-26.53c-2.65,0-5.06.1-6.5.19v-4.19c1.4.14,3.76.24,6.5.24Z"/><path class="cls-1" d="m365.26,101.2c1.44-4.48,1.44-14.16,1.44-19.46,0-1.3-.1-2.36-.29-3.32h3.95c-.05.63-.24,1.97-.24,3.32,0,5.25-.14,15.6-1.49,20.42-1.4,5.1-4.53,9.78-8.52,13.1l-3.23-2.17c4-2.89,6.93-7.13,8.38-11.89Zm13.92,9.49v-28.99c0-1.78-.19-3.03-.24-3.47h3.95c-.05.43-.19,1.73-.19,3.47v28.27c4.53-2.07,10.69-6.55,14.45-12.14l2.02,2.89c-4.19,5.73-10.83,10.59-16.42,13.39-.77.39-1.25.77-1.59,1.06l-2.26-1.93c.14-.72.29-1.64.29-2.55Z"/></g><g><path class="cls-3" d="m422.1,81.35h47.75c9.28,0,12.51,3.84,12.51,8.53,0,3.29-1.85,6.19-5.54,7.08v.05c4.84.7,7.33,3.94,7.33,7.48,0,5.73-3.58,9.67-12.06,9.67h-49.99v-32.81Zm49.89,14.56c5.04,0,7.43-2.6,7.43-5.64,0-3.19-2.29-6.03-9.82-6.03h-44.26v11.67h46.65Zm-.7,15.35c7.08,0,9.77-2.89,9.77-7.03,0-3.04-2.89-5.68-8.67-5.68h-47.05v12.71h45.95Z"/><path class="cls-3" d="m599.63,81.17h47.75c9.28,0,12.51,3.84,12.51,8.53,0,3.29-1.85,6.19-5.54,7.08v.05c4.84.7,7.33,3.94,7.33,7.48,0,5.73-3.58,9.67-12.06,9.67h-49.99v-32.81Zm49.89,14.56c5.04,0,7.43-2.6,7.43-5.64,0-3.19-2.29-6.03-9.82-6.03h-44.26v11.67h46.65Zm-.7,15.35c7.08,0,9.77-2.89,9.77-7.03,0-3.04-2.89-5.68-8.67-5.68h-47.05v12.71h45.95Z"/><path class="cls-3" d="m509.49,111.27h0v-18.65h-9.82v-2.49l6.73-.1c3.34-.05,3.64-.64,3.74-9.02h2.64v30.3s0,2.89,0,2.89l-3.3-.04v-2.89Z"/><path class="cls-3" d="m578.69,111.91v2.74c-.5.1-.95.1-1.1.1-3.84,0-8.03-1.44-12.22-3.94-3.79,2.49-8.42,3.94-13.62,3.94-11.17,0-15-5.98-15-10.52s2.79-9.27,12.22-10.02c-1.15-2.1-1.7-3.99-1.7-5.69,0-3.84,3.14-7.78,9.97-7.78,6.23,0,9.62,3.49,9.62,7.48s-2.39,8.13-12.81,8.38l-.05.05c2.85,3.74,6.88,7.73,11.42,10.72,3.34-2.74,5.98-6.68,7.68-11.72h3.09c-1.54,5.29-4.39,9.87-8.23,13.21,3.44,1.95,6.78,3.1,9.88,3.1.15,0,.4,0,.85-.05Zm-26.93.05c4.09,0,7.83-.95,11.07-2.8-4.94-3.39-9.38-7.88-12.32-12.36h-.15c-8.08.39-10.52,3.94-10.52,7.42s2.84,7.73,11.91,7.73Zm-1.39-23.09c0,1.39.6,3.19,1.95,5.33,8.32-.35,11.62-1.85,11.62-5.98,0-2.35-2.29-4.69-6.68-4.69-4.79,0-6.88,2.54-6.88,5.33Z"/><path class="cls-2" d="m692.78,101.58c12.31-3.88,13.91-6.39,13.91-10.73,0-3.59-3.14-7.77-11.67-7.77s-12.86,4.08-12.86,9.4c0,1.57.25,3,.45,3.69h-3.14c-.2-.69-.4-2.11-.4-3.94,0-6.4,5.04-12,15.96-12s14.91,5.9,14.91,10.53c0,5.9-2.99,9.2-15.6,13.18-10.87,3.4-11.91,4.14-11.97,6.3h28.47v2.85h-32.16c0-5.95,1.45-7.52,14.12-11.51Z"/></g></g></g></svg>