<?xml version="1.0" encoding="UTF-8"?><svg id="Layer_1" xmlns="http://www.w3.org/2000/svg" viewBox="0 0 456.04 485.76"><path d="m123.61,87.98c5.61-2.93,7.8-8.88,11.71-13.85,1.86,1.61,3.47,2.99,5.07,4.38l-.07-.04c-.42,1.25-.84,2.51-1.55,4.64,2.69-.91,4.77-1.62,6.84-2.32l-.11-.11c-1.31,1.04-2.47,2.47-3.96,3.04-3.41,1.31-5.27,3.88-6.76,6.95-4.85,9.98-9.75,19.94-14.6,29.91-5.06,10.4-10.07,20.83-15.13,31.23-1.74,4.62-.41,1.05-3.16,8.76-4.14,6.44-6.22,14.09-9.42,21.17-3.17,7-5.78,14.26-8.15,21.78,13.54-11.92,27.9-22.43,42.96-32.03,15.01-9.56,29.91-19.29,47.03-24.98-2.09,1.15-4.17,2.3-6.86,3.77,3.25,1.79,4.95-.54,6.95-1.17,2.22-.69,4.42-1.46,6.89-1.52-5.38,2.23-10.76,4.44-16.13,6.68-.97.41-1.95.85-2.84,1.41-7.77,4.88-15.6,9.66-23.25,14.72-17.71,11.72-35.58,23.26-50.42,38.72-2.82,2.94-5.21,6.3-7.79,9.47-.2.24-.29.69-.52.77-3.73,3.39-4.19,5.19-5.13,8.4-2.36,8.05-4.61,16.14-6.77,24.25-.65,2.46-2.2,5.18.79,7.32,1.39,5.59-.23,10.33-3.84,14.57-5.27-2.91-5.45-3.65-4.89-9.52,1.31-13.68,5.07-26.75,9.42-39.7,7.89-23.48,17.72-46.17,27.78-68.77.7-1.57,1.22-3.09,1.59-4.93,2.53-5.77,2.3-4.63,3.33-7.1,8.31-17,16.62-34,25.46-52.09-3.68,1.72-6.53,2.74-9.06,4.29-15.25,9.38-30.57,18.67-45.54,28.48-4.1,2.69-8.35,4.99-12.6,7.33-1.6.88-3.46,1.31-5.33,1.99-1.09-1.81-1.96-3.26-3.06-5.09,1.65-1.04,3.16-2.07,4.74-2.98,9.87-5.69,19.72-11.42,29.65-17,2.73-1.53,5.73-2.59,8.6-3.85-4.16,2.61-8.36,5.13-12.43,7.85-3.92,2.63-8.51,4.42-11.23,8.68,7.27-2.69,13.52-7.1,20.03-11.04,6.49-3.93,13.15-7.57,19.57-11.61,6.28-3.95,13.45-6.6,18.45-12.6-2.08.58-4.17,1.16-6.25,1.75h-.01Z"/><path d="m218.23,182.55c-4.27-.35-7.52.31-10.71,1.91-10.52,5.29-20.03,11.99-29.06,19.54-13.25,11.07-23.06,24.72-31.32,39.67-1.58,2.86-3.24,5.67-4.87,8.51-3.84-1.69-5.05-4.14-3.91-7.5,2.14-6.29,3.94-12.77,6.78-18.74,5.44-11.45,11.5-22.61,17.34-33.87.73-1.4,1.69-2.69,2.61-3.98,3.25-4.53,4.66-4.59,9.04-.27-8.69,7.76-12.45,18.54-18.23,28.9,1.13-.34,1.47-.33,1.64-.51,5.43-5.53,10.66-11.28,16.32-16.56,3.69-3.44,7.86-6.42,12.08-9.21,4.75-3.15,9.75-5.93,14.7-8.77,4.59-2.64,9.4-4.37,14.88-4.28,2.43.04,5.11-.66,7.27-1.79,3.11-1.64,5.32-.91,7.79,1.47-.54,1-.88,2.08-1.56,2.84-7.9,8.76-14.57,18.39-19.85,28.92-1.97,3.93-3.38,8.18-4.75,12.38-.44,1.34-.41,3.28.28,4.42,1.04,1.75,2.98.68,4.29.03,3.38-1.67,7.08-3.09,9.85-5.53,11.79-10.38,23.17-21.22,32.43-34.02,1.65-2.28,2.94-4.83,4.38-7.22-1.63-2.52-3.69-2.09-5.69-1.68-4.22.88-7.2,3.89-10.51,6.29-2.54,1.84-4.98,3.83-7.59,5.86-1.25-.94-2.22-1.67-3.1-2.33.08-.55,0-.99.18-1.15,4.49-3.96,8.73-8.29,13.58-11.75,7.62-5.43,12.79-1.76,17.73,3.76,1.63,1.82.69,3.99-.45,5.75-2.68,4.12-5.07,8.54-8.36,12.12-9.23,10.02-18.7,19.82-28.43,29.35-2.73,2.67-6.5,4.53-10.11,5.96-4.42,1.75-8.38-.03-11.6-3.39-2.96-3.08-3.2-6.59-2.01-10.57,3.22-10.8,8.92-20.27,15.37-29.36,1.14-1.61,2.23-3.26,3.57-5.23v.03Z"/><path d="m341.09,219.6c-2.25-1.07-2.4-2.44-1.33-4.34,4.63-8.27,9.45-16.48,13.64-24.93,3.63-7.34,6.59-14.96,9.65-22.51.75-1.85.93-3.94,1.07-5.94.21-3.01-.7-4.07-3.96-4.09-2.32,0-4.76.39-6.93,1.12-8.81,2.98-16.23,8.03-23.07,13.66-6.38,5.25-12.28,10.97-18.33,16.53-1.17,1.07-2.1,2.42-4.07,1.74-1.57-.55-3.32-3.57-2.71-5,1.39-3.25,3.07-6.4,4.54-9.64,1.85-4.09,3.62-8.21,5.36-12.33.24-.57.11-1.27.2-2.57-1.88.48-3.43.7-4.8,1.26-7.14,2.94-12.38,7.9-16.99,13.42-9.29,11.11-16.68,23.21-22.93,35.9-.41.82-.92,1.6-1.38,2.39-4.39-1.88-5.06-2.91-3.33-6.52,3.59-7.52,7.42-14.96,11.16-22.43,2.51-5.02,5.1-10.01,7.47-15.08.73-1.57,1.05-3.35,1.23-5.07.32-2.96-.7-3.96-3.94-3.98-1.61,0-3.23.32-4.94.51-.78-.99-1.54-1.95-2.29-2.91,5.68-4.72,13.71-.55,17.22,9.18.88-.51,1.75-.88,2.43-1.45,3.94-3.3,7.91-6.57,12.89-8.62,2.64-1.08,5.24-1.81,8.15-.57,5.25,2.24,6.91,6.04,4.74,11.38-.6,1.47-1.3,2.91-2.29,5.11,4.1-1.85,6.92-3.89,9.49-6.21,6.97-6.29,15.28-10.71,24.32-14.07,8.51-3.16,18.72,2.46,17.74,11.66-.41,3.84-1.11,7.8-2.66,11.36-3.11,7.11-6.74,14.05-10.45,20.93-3.05,5.66-6.45,11.18-9.85,16.69-1.27,2.05-2.35,4.37-5.02,5.41h-.03Z"/><path d="m175.19,299.44c-.69-3.29-3.35-3.38-5.81-3.15-6.13.6-12.3,1.15-18.35,2.29-13.14,2.48-25.42,7.46-37.48,13.07-.04.02-.07.04-.11.05-12.74,6.31-25.16,13.26-37.42,20.46-7.28,4.28-14.54,8.58-21.62,13.16-.04.03-.07.05-.11.08-12.06,8.37-23.18,17.92-34.38,27.38-3.75,3.16-7.52,6.32-11.47,9.22-3.87,2.85-4.32,2.63-6.89-1.45-.42-.66-.87-1.29-1.55-2.29,1.61-1.09,3.21-2,4.61-3.15,6.98-5.72,13.89-11.52,20.86-17.25,3.21-2.64,6.39-5.32,9.79-7.67.02-.02.04-.03.06-.05,4.32-3.51,9-6.58,13.67-9.63.03-.02.06-.04.09-.06,2.46-2.46,5.98-3.91,8.95-5.92,1.1-.74,2.25-1.4,3.42-2.04,2.33-1.27,4.7-2.48,6.75-4.21,2.52-1.55,5.05-3.08,7.6-4.59,1.95-1.16,3.91-2.3,5.88-3.43.98-.56,1.96-1.12,2.95-1.67,3.2-1.8,6.42-3.55,9.66-5.27,6.66-3.54,13.41-6.94,20.18-10.27,3.62-1.77,6.42-2.88,8.99-3.77,2.19-.76,4.21-1.36,6.42-2.07.02,0,.04-.02.06-.02,1.61-.53,8.04-3,8.93-3.39,2.11-.92,4.32-2.09,6.68-1.92,7.09-1.05,14.18-2.18,21.32-2.83,4.28-.38,8.09,1.29,10.44,5.26,1.53,2.57,1.34,3.03-2.12,5.13Z"/><path d="m136.33,294.87c-.37.15-.74.29-1.09.43.39-.22.76-.39,1.09-.43Z"/><path d="m137.45,380.54c6.24-5.47,12.76-9.32,21.1-8.75,6.22.43,12.09,7.21,12.01,13.42-.18,14.69-6.93,26.39-16.53,36.76-3.33,3.59-7.02,6.85-10.64,10.17-1.15,1.05-2.52,1.92-3.92,2.64-7.74,3.97-11.87,2.87-17.56-5.25-1.07-1.53-1.08-4.36-.58-6.34,1.12-4.42,2.45-8.89,4.44-12.97,3.74-7.65,7.98-15.07,12.08-22.54,1.36-2.48,2.44-4.83-.41-7.13h0Zm-9.08,50.78c3.48-1.73,6.37-2.68,8.66-4.4,9.08-6.83,16.51-15.25,22.04-25.15,3.38-6.05,6.16-12.46,5.87-19.73-.07-1.83-.53-3.03-2.19-3.75-3.57-1.53-12.23.54-15.3,3.76,1.88,1.58,3.76,3.15,6.08,5.11-1.46.6-2.43,1.39-3.07,1.18-2.48-.8-3.59.78-4.52,2.42-4.75,8.39-9.54,16.77-14.03,25.3-1.6,3.04-2.51,6.48-3.47,9.81-.39,1.35-.06,2.91-.06,5.45h0Z"/><path d="m92.75,333.82c1.87,1.23,3.83,2.52,5.77,3.82.1.07.09.28.12.39-8.55,7.71-10.46,18.8-14.26,28.77-6.78,17.76-12.07,36.04-16.85,54.45-4.19,16.11-8.26,32.25-9.91,48.88-.54,5.43-.13,10.49,5.08,14.91-1.62.34-2.68.93-3.37.64-4.35-1.79-7.32-4.63-7.91-9.73-1.17-10.13.86-19.93,2.9-29.68,2.63-12.54,5.44-25.07,8.79-37.43,3.23-11.91,7.03-23.68,11.02-35.36,3.68-10.79,7.85-21.43,12.02-32.05,1.23-3.13,2.25-6.79,6.6-7.61h0Z"/><path d="m68.2,328.28c-2.05,1.73-4.42,2.94-6.75,4.21,2.24-1.41,4.49-2.82,6.75-4.21Z"/><path d="m393.33,2.22c-21.79-1.14-42.71,4.38-64.27,8.86.49-.55.66-.88.94-1.02.41-.21.89-.3,1.35-.42,16.44-4.18,33.1-7.26,49.93-9.34,3.29-.41,6.65-.31,9.98-.22,2.85.07,6.26,3.32,6.21,6.01-.02.99-1.12,1.97-2.23,3.13-.53-3.22-2.67-3.76-4.92-3.66-5.83.27-11.7.41-17.46,1.2-8.45,1.17-16.83,2.88-25.25,4.32-1.21.21-2.47.17-3.74-.04,16.25-4.24,32.79-6.71,49.48-8.83h-.02Z"/><path d="m240.74,401.15c-4.46-3.29-5.27-5.18-3.65-8.48,1-2.04,2.27-2.43,4.09-1.06,1.61,1.21,3.07,2.6,4.78,4.08-1.45,1.76-2.7,3.33-4.02,4.85-.28.32-.82.42-1.21.61h.01Z"/><path d="m452.34,106.42c4.16,2.85,4.88,7.54,1.8,11.7-1.97-2.65-2.21-4.2-1.8-11.7Z"/><path d="m239.07,350.54c1.78,1.4,3.68,2.67,5.28,4.25.92.9,1.13,2.32-.14,3.33-1.38,1.1-2.85.84-3.62-.59-1.06-1.97-1.72-4.15-2.55-6.25.34-.25.68-.49,1.03-.74Z"/><path d="m145.61,80.78c4.85-2.47,9.68-5,14.58-7.38,1.93-.94,4.02-1.54,6.29-1.88-.82.51-1.61,1.1-2.48,1.52-4.22,2.05-8.43,4.15-12.73,6.03-1.81.79-3.83,1.1-5.76,1.62l.1.1h0Z"/><path d="m140.38,78.51c4.86-2.23,9.71-4.47,14.58-6.68,3.11-1.41,6.25-2.78,9.68-3.48-6.6,3.13-13.17,6.32-19.82,9.33-1.34.61-2.97.56-4.49.79-.02-.02.05.03.05.03h0Z"/><path d="m434.11,171.24c4.39-.21,6.45,1.72,5.78,4.67-.15.66-.76,1.55-1.32,1.69-.58.14-1.68-.31-1.98-.83-.9-1.58-1.52-3.33-2.48-5.53h0Z"/><path d="m273.11,27.46c-4.74,1.63-9.47,3.27-14.21,4.9-.1-.32-.21-.63-.31-.95,4.42-2.62,9.46-3.32,14.19-4.97.11.34.22.68.33,1.02Z"/><path d="m295.76,19.6c-4.28,2.76-9.31,3.25-14.01,4.74,4.46-2.31,9.07-4.19,14.11-4.68l-.11-.06h.01Z"/><path d="m310.39,16.75c.66-.76,1.19-1.94,2.01-2.21,2.8-.93,5.71-1.54,8.79-1.6-3.6,1.27-7.2,2.54-10.8,3.8h0Z"/><path d="m295.86,19.65c2.68-.95,5.3-2.17,8.06-2.77,2.07-.45,4.31-.12,6.47-.14h0c-3.64.81-7.28,1.65-10.93,2.41-1.2.25-2.45.32-3.69.46-.02,0,.09.05.09.05h0Z"/><path d="m179.34,65.82c-2.15,1.04-4.31,2.07-6.46,3.11-.13-.29-.25-.58-.38-.87l6.74-2.89c.03.21.07.43.1.64h0Z"/><path d="m122.99,87.99c-2.06,3.2-5.48,4.36-8.69,5.85,1.92-3.4,5.88-3.77,8.69-5.85Z"/><path d="m306.46,20.03c1.7-.39,3.4-.77,5.1-1.16.06.22.13.45.19.67-1.68.48-3.37.95-5.05,1.43l-.25-.94h0Z"/><path d="m248.04,34.73c-1.75,1.09-3.51,2.18-5.26,3.27-.16-.31-.31-.63-.47-.94,1.94-.76,3.88-1.52,5.82-2.28l-.09-.05h0Z"/><path d="m197.54,54.52c2.35-1.12,4.69-2.24,7.04-3.36l-.1-.1c-2.35,1.12-4.69,2.24-7.04,3.36l.1.1Z"/><path d="m296.85,23.77c-1.26.29-2.51.58-3.77.87-.06-.23-.11-.47-.17-.7,1.25-.31,2.5-.63,3.75-.94.06.26.12.51.18.77h.01Z"/><path d="m223.16,44.7c-1.21.51-2.43,1.03-3.64,1.54-.1-.23-.19-.46-.29-.7,1.21-.55,2.43-1.09,3.64-1.64.1.27.19.53.29.8Z"/><path d="m324.07,16.31c-1.27.2-2.55.4-3.82.6-.02-.1-.04-.19-.06-.29,1.2-.33,2.4-.65,3.6-.98.09.22.19.44.28.66h0Z"/><path d="m168.96,65.85c1.24-.62,2.47-1.24,3.71-1.86.13.13.25.26.38.4-.34.28-.66.6-1.04.82-.4.24-.86.38-1.3.56-.5.21-1,.41-1.5.62-.08-.18-.16-.36-.23-.53h-.02Z"/><path d="m186.11,63.33c-.75.37-1.54.77-2.32,1.16-.12-.19-.23-.38-.35-.57.79-.38,1.58-.77,2.38-1.13.09-.04.3.02.37.1.05.07-.04.24-.07.44h0Z"/><path d="m336.86,12.43c.62-.26,1.24-.52,1.86-.79.1.2.2.41.31.61-.61.32-1.22.63-1.82.95-.11-.26-.23-.51-.34-.77h0Z"/><path d="m248.13,34.78c1.46-.45,2.92-.9,4.38-1.35.05.27.1.53.15.8-1.53.17-3.05.35-4.6.51-.02,0,.07.04.07.04Z"/><path d="m258.6,35.45c.63-.29,1.26-.57,1.89-.86.09.22.17.44.26.65-.65.23-1.31.46-1.96.69l-.19-.49h0Z"/><path d="m264.11,32.76c.84-.07,1.67-.15,2.51-.22.04.24.08.48.12.72-.87.22-1.74.44-2.61.65l-.02-1.15h0Z"/><path d="m109.66,95.62c-1.62,1.31-3.25,2.63-4.87,3.94,1.62-1.31,3.25-2.63,4.87-3.94Z"/><path d="m208.95,52.82l-2.62,2.61c-.21-.27-.42-.54-.63-.81l3.33-1.77-.07-.03h0Z"/><path d="m279.34,28.07c-.64,1.58-1.77,2.27-3.77,2.1,1.47-.81,2.64-1.46,3.81-2.11h-.04Z"/><path d="m222.82,47.88c.8-.18,1.59-.36,2.39-.54.04.19.08.38.13.58-.82.18-1.64.36-2.45.53-.02-.19-.04-.38-.06-.57h-.01Z"/><path d="m252.67,37c.64-.19,1.29-.38,1.93-.58.09.16.17.33.26.49-.6.33-1.19.65-1.79.98-.13-.3-.27-.59-.4-.89Z"/><path d="m279.38,28.06c1.46-.34,2.91-.68,4.37-1.02.04.21.07.42.11.63-1.5.14-2.99.27-4.5.41-.01,0,.03,0,.03,0v-.02Z"/><path d="m204.58,51.17c1.07-.5,2.14-1.01,3.21-1.51.07.28.15.55.22.83-1.17.2-2.34.4-3.52.59,0,0,.09.09.09.09Z"/><path d="m209.03,52.85c1.33-.25,2.65-.5,3.98-.75.02.23.05.45.07.68-1.36.02-2.72.04-4.1.05-.02,0,.05.02.05.02Z"/><path d="m197.44,54.43c-1.07.53-2.14,1.06-3.21,1.59-.09-.27-.18-.54-.27-.81,1.19-.23,2.38-.47,3.58-.7l-.09-.09h0Z"/></svg>