<?xml version="1.0" encoding="UTF-8"?><svg id="_レイヤー_2" xmlns="http://www.w3.org/2000/svg" viewBox="0 0 57.9 57.89"><defs><style>.cls-1,.cls-2,.cls-3,.cls-4{fill:none;}.cls-2{stroke-linejoin:bevel;}.cls-2,.cls-3{stroke-width:.44px;}.cls-2,.cls-3,.cls-4{stroke:#d70051;}.cls-5{fill:#d70051;}.cls-3,.cls-4{stroke-miterlimit:10;}.cls-4{stroke-width:.72px;}</style></defs><g id="Layer_1"><path class="cls-1" d="m13.29,45.23h0v-9.32h-1.49v-.57h.85c.67,0,.69-.15.69-4.18h.51v14.07h0v.62h-.55v-.62Z"/><path class="cls-1" d="m15,38.55c0-6.51.33-7.3,1.32-7.3s1.34.79,1.34,7.3-.29,7.43-1.34,7.43-1.32-.88-1.32-7.43Zm2.1,0c0-6.02-.2-6.68-.79-6.68s-.79.66-.79,6.68.18,6.82.79,6.82.79-.73.79-6.82Z"/><line class="cls-3" x1="4.1" y1="50.7" x2="16.99" y2="50.7"/><path class="cls-1" d="m4.25,42.25c0-.29,0-.81.02-1.43h.53c-.02.62-.02,1.12-.02,1.36,0,2.68.24,3.01.79,3.01.65,0,.79-.9.79-3.72,0-2.02-.2-2.77-.92-2.77h-.49v-.53h.45c.71,0,.83-1.08.83-3.25,0-2.64-.18-3.23-.65-3.23-.51,0-.71.44-.71,3.19,0,.4,0,.92.02,1.54h-.53c-.02-.66-.02-1.21-.02-1.61,0-3.19.37-3.74,1.24-3.74s1.2.75,1.2,3.78c0,2.02-.12,3.19-.75,3.47v.04c.71.26.88,1.3.88,3.14,0,3.21-.28,4.29-1.34,4.29-.92,0-1.32-.46-1.32-3.56Z"/><path class="cls-1" d="m13.09,45.04h0v-9.32h-1.49v-.57h.85c.67,0,.69-.15.69-4.18h.51v14.07h0v.62h-.54v-.62Z"/><path class="cls-1" d="m14.8,38.38c0-6.51.33-7.3,1.32-7.3s1.34.79,1.34,7.3-.29,7.43-1.34,7.43-1.32-.88-1.32-7.43Zm2.1,0c0-6.02-.2-6.68-.79-6.68s-.79.66-.79,6.68.18,6.82.79,6.82.79-.73.79-6.82Z"/><path class="cls-5" d="m4.24,14.91c0-.29,0-.81.02-1.43h.53c-.02.62-.02,1.12-.02,1.36,0,2.68.24,3.01.79,3.01.65,0,.79-.9.79-3.72,0-2.02-.2-2.77-.92-2.77h-.49v-.53h.45c.71,0,.83-1.08.83-3.25,0-2.64-.18-3.23-.65-3.23-.51,0-.71.44-.71,3.19,0,.4,0,.92.02,1.54h-.53c-.02-.66-.02-1.21-.02-1.61,0-3.19.37-3.74,1.24-3.74s1.2.75,1.2,3.78c0,2.02-.12,3.19-.75,3.47v.04c.71.26.88,1.3.88,3.14,0,3.21-.27,4.29-1.34,4.29-.92,0-1.32-.46-1.32-3.56Z"/><path class="cls-5" d="m13.21,14.38c0-2.33.22-3.3.79-3.56v-.02c-.49-.29-.67-1.14-.67-3.36,0-2.99.31-3.72,1.24-3.72s1.26.73,1.26,3.72c0,2.22-.2,3.08-.67,3.36v.02c.57.26.79,1.23.79,3.56,0,3.43-.41,4.07-1.38,4.07s-1.36-.64-1.36-4.07Zm2.18,0c0-2.49-.2-3.28-.83-3.28s-.81.79-.81,3.28c0,2.99.26,3.47.81,3.47s.83-.48.83-3.47Zm-.1-6.9c0-2.59-.2-3.17-.73-3.17s-.71.57-.71,3.17.2,3.08.71,3.08.73-.62.73-3.08Z"/><path class="cls-3" d="m17.65,21.15c-2.72-.56-5.01-1.14-7.17-1.86-2.16.72-4.45,1.31-7.17,1.86m.48,4.42h13.38m-.64-2.58H4.43m10.4-1.24H6.13m4.35,3.82v-3.98m-1.07,2.67h-3.2m8.63,0h-3.2"/><rect class="cls-3" x="4.34" y="47.93" width="12.83" height="5.63"/><line class="cls-3" x1="11.94" y1="3.95" x2="7.99" y2="18.27"/><line class="cls-3" x1="11.68" y1="31.46" x2="7.73" y2="45.78"/><line class="cls-3" x1="10.44" y1="27.21" x2="10.44" y2="30.22"/><path class="cls-3" d="m52.04,30.36c-2.79.85-8.25,1.54-13.41,1.76m7.94-.68v2.39"/><path class="cls-3" d="m49.65,27.08v.35m0,0c0,1.82-2.19,2.35-7.65,2.61m-.08-3.82v1.98m11.07-1.12h-14.95"/><path class="cls-3" d="m38.09,22.84h14.59s0-.06,0-.06v-2.41m-2.38.87h-10.96m7.32,1.65c0,1.28-1.75,1.82-5.71,2.17"/><path class="cls-3" d="m52.06,34.26c-1.15,1.57-5.77,2.37-12.73,2.63m5.02-2.2c-1.72-.28-3.48-.53-5.38-.78"/><line class="cls-3" x1="50.2" y1="20.32" x2="50.2" y2="22.89"/><line class="cls-3" x1="51.85" y1="24.79" x2="51.85" y2="26.99"/><line class="cls-3" x1="49.65" y1="24.78" x2="49.65" y2="26.98"/><path class="cls-2" d="m37.88,39.17s13.25-.59,15.09-.67c-.54.59-2.29,1.14-4.44,1.46m4.27.97c-1.97.07-4.41.12-6.33.13m.05,0c-3.26.01-3.98-.07-3.98-.88m0,0v-2.25"/><path class="cls-3" d="m50.49,48.76c-2.47-.26-4.71-.51-7.56-.74m-.02-1.53c-.38.75-1.97,1.38-4.54,1.88m4.1-1.41s8.42-.03,10.12-.04c0,1.81-4.36,2.98-13.17,3.31"/><path class="cls-2" d="m21.62,21.27c4.57-.27,6.86-.88,6.84-2.2m-7.42-.91l14.85-.02c-.86.59-2.5,1.59-5.1,2.03"/><path class="cls-3" d="m20.65,7.06c4.71-.71,6.41-1.45,6.39-3.55m-6.29.85s12.04-.01,14.15-.01c.02,2.28-.55,2.63-2.67,2.63m.57,0c-1.3,0-2.71-.01-3.9-.04"/><path class="cls-3" d="m22.19,12.95l.03,2.32m12.83-2.93l.02,1.56m0-.02c.02,1.42-2.93,2.04-10.62,2.3"/><path class="cls-3" d="m35.06,9.8c-1.86,1.17-6.47,1.85-12.52,1.86,0-.86-.04-3.24-.04-3.24"/><path class="cls-3" d="m46.17,16.44v2.16m0,0c0,.58-.13.64-1.27.64m0,0c-.53,0-1.36,0-2.47-.03m-3.57-.05c1.64-.51,3.13-1.25,4.07-2.01m10.21,2.08c-1.27-.74-2.81-1.46-4.43-2.06m-7.87-.91s.04,0,.04,0c0,0,10.27-.04,10.37-.04,0-.53,0-1.71,0-2.24,0,0-10.44.04-10.54.04v2.24c.06,0,.11,0,.14,0Zm5.32-3.28v-.88m-7.67.91l14.97-.06"/><path class="cls-3" d="m38.62,10.8c3.56-.75,5.87-1.52,7.37-2.34m7.73,2.28c-3.57-.72-5.89-1.47-7.39-2.28m5.36-2.94c-1.07,0-9.45.04-10.97.04,0,.66,0,2.24.01,2.89.91,0,10.98-.04,11.08-.04,0-.65,0-2.24,0-2.89h-.11Zm-11.03,1.45l10.98-.04m-5.47,4.12l-.03-7.71m-7.54.9l15.1-.06"/><line class="cls-3" x1="36.64" y1="3.11" x2="36.64" y2="5.87"/><line class="cls-3" x1="34.04" y1="3.11" x2="34.04" y2="4.34"/><line class="cls-3" x1="45.77" y1="50.82" x2="45.77" y2="54.5"/><path class="cls-3" d="m52.39,42.65c-1.2,1.64-6.03,2.48-13.31,2.75m5.25-2.3c-1.8-.29-3.64-.56-5.62-.81"/><path class="cls-3" d="m35.33,26.29c-.98-.48-2.1-1-3.09-1.4m-7.9.04c-.87.44-1.96.93-3.08,1.38m14.4-2.89l-14.78.06m7.81-1.11s.03,3.01.03,3.01v1.16h-3.39"/><line class="cls-3" x1="27.9" y1="28.1" x2="27.9" y2="35.59"/><path class="cls-3" d="m24.5,37.28c0,1.69-.7,2.78-3.34,3.14m7.5-3.33l.15,3.3c3.19,0,5.97-1.44,6.34-2.6m-10.66-.04v-.74"/><path class="cls-5" d="m21.49,42.57h.76c1.11,0,1.19.85,1.19,2.87,0,1.71-.11,2.33-.6,2.56v.02c.59.22.71.93.71,2.73,0,2.84-.26,3.2-1.16,3.2h-.9v-11.38Zm.71,5.26c.66,0,.82-.43.82-2.33,0-1.78-.03-2.45-.77-2.45h-.31v4.79h.26Zm.19,5.65c.59,0,.71-.24.71-2.77,0-1.78-.06-2.45-.82-2.45h-.34v5.22h.45Z"/><path class="cls-5" d="m25.31,54.03v-7.9h-1.17v-.45h.66c.53,0,.54-.12.54-3.28h.4v11.63h-.43Z"/><path class="cls-5" d="m30.05,53.94h-.46c-.03-.05-.09-.19-.14-.31-.05-.09-.11-.29-.19-.5-.19.62-.46.92-.82.92-.7,0-1.08-.62-1.08-3.61,0-1.18.11-2.09.57-2.78-.25-1.35-.36-2.16-.36-2.96,0-1.73.22-2.23.82-2.23s.8.41.8,2.23c0,1.49-.22,2.26-.8,3.09l-.02.03c.2,1.28.46,2.49.79,3.67.11-1.49.11-3.3.11-3.96h.4c-.02.74-.05,3.15-.28,4.82.17.54.31.9.43,1.18.11.22.19.35.22.41Zm-1-1.43c-.46-1.61-.74-2.9-.99-4.18-.19.55-.26,1.31-.26,2.11,0,2.63.25,3.15.68,3.15.26,0,.46-.38.57-1.07Zm-1.04-7.8c0,.61.09,1.56.26,2.58.37-.66.51-1.28.51-2.58,0-1.5-.09-1.8-.37-1.8-.29,0-.4.38-.4,1.8Z"/><path class="cls-5" d="m31.14,42.57h.76c1.11,0,1.19.85,1.19,2.87,0,1.71-.11,2.33-.6,2.56v.02c.59.22.71.93.71,2.73,0,2.84-.26,3.2-1.16,3.2h-.9v-11.38Zm.71,5.26c.66,0,.82-.43.82-2.33,0-1.78-.03-2.45-.77-2.45h-.31v4.79h.26Zm.19,5.65c.59,0,.71-.24.71-2.77,0-1.78-.06-2.45-.82-2.45h-.34v5.22h.45Z"/><path class="cls-5" d="m34.76,49.9c.7-1.59.93-2.37.93-4.13,0-2.2-.11-2.84-.57-2.84-.49,0-.65.47-.65,3.34,0,.67.02,1.33.03,1.62h-.4c-.02-.29-.05-.95-.05-1.62,0-3.23.25-3.8,1.07-3.8s1,.74,1,3.27c0,1.88-.26,2.75-.96,4.36-.63,1.44-.68,1.73-.68,3.37h1.64v.48h-2.07c0-2.07.08-2.52.71-4.05Z"/><path class="cls-5" d="m4.22,42.35c0-.29,0-.81.02-1.43h.53c-.02.62-.02,1.12-.02,1.36,0,2.68.24,3.01.79,3.01.65,0,.79-.9.79-3.72,0-2.02-.2-2.77-.92-2.77h-.49v-.53h.45c.71,0,.83-1.08.83-3.25,0-2.64-.18-3.23-.65-3.23-.51,0-.71.44-.71,3.19,0,.4,0,.92.02,1.54h-.53c-.02-.66-.02-1.21-.02-1.61,0-3.19.37-3.74,1.24-3.74s1.2.75,1.2,3.78c0,2.02-.12,3.19-.75,3.47v.04c.71.26.88,1.3.88,3.14,0,3.21-.27,4.29-1.34,4.29-.92,0-1.32-.46-1.32-3.56Z"/><path class="cls-5" d="m13.29,45.19h0v-9.32h-1.49v-.57h.85c.67,0,.69-.15.69-4.18h.51v14.07h0v.62h-.55v-.62Z"/><path class="cls-5" d="m15,38.51c0-6.51.33-7.3,1.32-7.3s1.34.79,1.34,7.3-.29,7.43-1.34,7.43-1.32-.88-1.32-7.43Zm2.1,0c0-6.02-.2-6.68-.79-6.68s-.79.66-.79,6.68.18,6.82.79,6.82.79-.73.79-6.82Z"/><rect class="cls-4" x=".36" y=".36" width="57.18" height="57.17"/></g></svg>