<?xml version="1.0" encoding="UTF-8"?><svg id="_レイヤー_2" xmlns="http://www.w3.org/2000/svg" viewBox="0 0 104.51 57.75"><defs><style>.cls-1{stroke-width:.73px;}.cls-1,.cls-2,.cls-3{fill:none;}.cls-1,.cls-2,.cls-3,.cls-4{stroke:#d70051;}.cls-1,.cls-2,.cls-4{stroke-miterlimit:10;}.cls-2,.cls-3{stroke-width:.78px;}.cls-3{stroke-linejoin:bevel;}.cls-4{fill:#d70051;stroke-width:.12px;}</style></defs><g id="Layer_1"><path class="cls-4" d="m11.9,49.34c5.02-1.6,5.61-2.73,5.61-4.56,0-1.51-1.28-3.4-4.86-3.4s-5.34,1.83-5.34,4.01c0,.67.11,1.28.19,1.56h-.74c-.06-.27-.17-.84-.17-1.6,0-2.46,1.93-4.65,6.07-4.65s5.63,2.29,5.63,4.08c0,2.35-1.09,3.55-6.05,5.15-4.35,1.41-4.92,1.83-4.96,2.82h11.33v.69H6.45c0-1.96.55-2.52,5.46-4.1Z"/><path class="cls-4" d="m20.56,47.1c0-3.78,2.12-6.41,6.52-6.41s6.56,2.63,6.56,6.41-1.87,6.52-6.56,6.52-6.52-2.94-6.52-6.52Zm12.32,0c0-3.43-1.87-5.72-5.8-5.72s-5.76,2.29-5.76,5.72c0,3.24,1.64,5.84,5.76,5.84s5.8-2.59,5.8-5.84Z"/><path class="cls-4" d="m41.27,49.34c5.02-1.6,5.61-2.73,5.61-4.56,0-1.51-1.28-3.4-4.86-3.4s-5.34,1.83-5.34,4.01c0,.67.11,1.28.19,1.56h-.74c-.06-.27-.17-.84-.17-1.6,0-2.46,1.93-4.65,6.07-4.65s5.63,2.29,5.63,4.08c0,2.35-1.09,3.55-6.05,5.15-4.35,1.41-4.92,1.83-4.96,2.82h11.33v.69h-12.15c0-1.96.55-2.52,5.46-4.1Z"/><path class="cls-4" d="m59.54,50.25h-10.19v-.8l10.05-8.56h.88v8.68h3.07v.69h-3.07v3.19h-.74v-3.19Zm0-.69v-7.92h-.02l-9.27,7.88v.04h9.29Z"/><path class="cls-2" d="m9.16,31.17h21.25m-10.9,0c2.07,2.39,5.97,4.32,10.9,5.38m-20.85-.08c4.69-.3,6.59-.44,11.44-1.07m-7.08.75v-4.98m10.49,0v-5.22m-8.99,5.06v-5.06m-4.63,2.65h18.26m-5.86,5.41c2.07-.6,4.01-1.38,5.72-2.29m-21.94,4.51c1.63-2.23,2.45-4.71,2.45-8.07m0,0s0-3.22,0-4.74c0,0,19.48,0,19.48,0,0,.73,0,1.8,0,2.53H9.71"/><path class="cls-2" d="m18.15,6.11v-2.02m-11.13,2.31h22.26m.38,8.17H6.64m11.52-1.85v6.65m-11-6.54c3.17-1.55,5.32-3.67,6.14-6.06m3.97,5.22c-1.54-1.18-3.33-2.19-5.25-2.95m7.04,3.05c2.33-1.45,3.92-3.23,4.61-5.22m5.5,6.06c-2-1.52-4.3-2.81-6.78-3.79"/><path class="cls-2" d="m83.56,23.64v-1.56m-15.12,13.23c1.58-1.55,2.9-4.6,2.9-6.98m25.74-4.68h-25.74c0,1.34,0,4.68,0,4.68m18.82.6v-5.28m-17.36,3.73h24.76m0-1.84h-13.19m-6.9,3.76v-5.65m7.55,1.89h-12.23m12.23,3.76v5.28m0,0c0,.77-.24.89-2.25.89m0,0c-1,0-2.68-.03-4.5-.07m19.3-2.15h-26.06m24.61-1.93h-23.17m1.13-1.78c8.71-.07,15.67-.29,20.91-.59"/><path class="cls-3" d="m72.84,13.64c6.35-.77,13.2-2.4,16.14-3.71m-3.05,1.1s11.12,0,12.87,0c-4.38,3.21-13.13,5.47-26.32,6.45m17.58-2.68c-1.97-.62-4.38-1.32-6.64-1.92m-15.07-4.76c5.74-.73,11.91-2.27,14.53-3.5m-2.69,1.03s9.94,0,11.61,0c-3.95,3.06-11.88,5.24-23.8,6.18m15.97-2.61c-1.79-.59-3.95-1.26-5.92-1.85"/><path class="cls-2" d="m67.9,46.35h30.14m-27.37-2.47h24.6m-26.33-2.39h28.06m-18.19,0c-.87-.68-1.84-1.34-2.77-1.91m11.09,1.91c1.04-.64,2.04-1.32,2.77-1.91m-21.13,13.85c8.66-.83,14.2-3.09,14.2-5.09m0,0v-6.84m14.2,11.94c-8.66-.83-14.2-3.09-14.2-5.09m-14.9.56h29.79"/><path class="cls-2" d="m58.71,18.5v-6.8s-12.85,0-12.85,0v6.79m-3.48-8.48h20.24m-.65-4.1h-19.26m17.95,2.05h-16.65m8.49,2.05v-5.6m-6.64,11.4h12.74m-12.74-2.05h12.74m-21.11,4.86V4.09m-4.24,12.5c.85-2.71,1.44-5.68,1.63-8.49m5.88,5.31c-.2-1.86-.52-3.88-.98-5.84"/><path class="cls-2" d="m35.31,28.76s23.53,0,27.52,0c0-.29,0-.49,0-.49v-7m-4.89,3.12h-18.87m11.65,4.54c0,4.21-3.15,5.98-10.28,7.13"/><line class="cls-2" x1="57.95" y1="21.27" x2="57.95" y2="28.88"/><rect class="cls-1" x=".36" y=".36" width="103.78" height="57.02"/></g></svg>