<?xml version="1.0" encoding="UTF-8"?><svg id="_レイヤー_2" xmlns="http://www.w3.org/2000/svg" viewBox="0 0 151.48 27.29"><defs><style>.cls-1{fill:#231815;}</style></defs><g id="Layer_1"><path class="cls-1" d="m1.7.66H0v-.66h4.12v.66h-1.7v7.89h-.71V.66Z"/><path class="cls-1" d="m5.2,6.84c0-1.07.59-1.72,1.66-1.72h1.3v-.98c0-1.03-.34-1.51-1.09-1.51-.69,0-1.09.42-1.09,1.3,0,.22.03.43.04.55h-.64c-.01-.09-.04-.33-.04-.57,0-1.22.62-1.86,1.75-1.86s1.74.74,1.74,2.05v4.45h-.68c.01-.29.04-.82.05-1.35h-.01c-.17.91-.65,1.43-1.51,1.43-.96,0-1.5-.71-1.5-1.79Zm2.96-1.04v-.17h-1.26c-.7,0-1.08.43-1.08,1.17s.34,1.25.97,1.25c.86,0,1.37-.74,1.37-2.25Z"/><path class="cls-1" d="m11.01,2.13h.68l-.05,1.39h.03c.16-.91.64-1.47,1.44-1.47s1.3.46,1.39,1.23h.01c.13-.79.68-1.23,1.44-1.23.94,0,1.4.69,1.4,1.9v4.6h-.68v-4.52c0-.84-.27-1.35-.94-1.35-.74,0-1.22.69-1.22,1.96v3.91h-.68v-4.55c0-.82-.29-1.33-.94-1.33-.74,0-1.22.78-1.22,2.09v3.78h-.68V2.13Z"/><path class="cls-1" d="m19.44,6.84c0-1.07.58-1.72,1.66-1.72h1.3v-.98c0-1.03-.34-1.51-1.09-1.51-.69,0-1.09.42-1.09,1.3,0,.22.03.43.04.55h-.64c-.01-.09-.04-.33-.04-.57,0-1.22.62-1.86,1.76-1.86s1.74.74,1.74,2.05v4.45h-.68c.01-.29.04-.82.05-1.35h-.01c-.17.91-.65,1.43-1.51,1.43-.96,0-1.49-.71-1.49-1.79Zm2.96-1.04v-.17h-1.26c-.7,0-1.08.43-1.08,1.17s.34,1.25.98,1.25c.86,0,1.36-.74,1.36-2.25Z"/><path class="cls-1" d="m31.75,6.41h-2.35l-.44,2.15h-.75l1.92-8.55h.96l1.92,8.55h-.82l-.44-2.15Zm-.1-.56l-1.05-5.16h-.03l-1.05,5.16h2.13Z"/><path class="cls-1" d="m34.98,2.13h.68l-.05,1.61h.01c.18-.97.61-1.69,1.5-1.69.94,0,1.33.75,1.33,1.96,0,.53-.04,1.09-.07,1.38h-.61c.03-.27.07-.75.07-1.27,0-1-.29-1.44-.88-1.44-.81,0-1.29,1.03-1.29,2.56v3.32h-.68V2.13Z"/><path class="cls-1" d="m40.75,6.58v-3.83h-.79v-.61h.61c.17,0,.25-.09.26-.4l.03-1.05h.57v1.46h1.75v.61h-1.75v3.82c0,.87.25,1.43,1.03,1.43.35,0,.59-.05.66-.08v.58c-.13.04-.42.09-.78.09-1.18,0-1.59-.79-1.59-2.02Z"/><path class="cls-1" d="m48.29,6.21V0h.71v6.25c0,1.18.56,1.74,1.4,1.74s1.38-.56,1.38-1.74V0h.65v6.21c0,1.69-.83,2.44-2.07,2.44s-2.08-.75-2.08-2.44Z"/><path class="cls-1" d="m54.69,2.13h.68l-.05,1.48h.01c.21-.96.71-1.56,1.73-1.56,1.11,0,1.61.78,1.61,1.96v4.54h-.68v-4.46c0-.88-.34-1.42-1.16-1.42-.86,0-1.47.82-1.47,2.12v3.76h-.68V2.13Z"/><path class="cls-1" d="m60.89.31h.71v1.13h-.71V.31Zm.03,1.82h.68v6.42h-.68V2.13Z"/><path class="cls-1" d="m63.61,2.13h.78l1.35,5.68h.04l1.38-5.68h.69l-1.66,6.42h-.9l-1.68-6.42Z"/><path class="cls-1" d="m70.26,5.36v.04c0,1.78.43,2.67,1.27,2.67.69,0,1.05-.53,1.09-1.72h.62c-.03,1.53-.62,2.29-1.74,2.29-1.31,0-1.92-1.14-1.92-3.24,0-2.37.7-3.34,1.94-3.34,1.17,0,1.73.86,1.73,2.9v.4h-2.99Zm.01-.51h2.35v-.07c0-1.52-.35-2.16-1.09-2.16s-1.18.61-1.26,2.22Z"/><path class="cls-1" d="m75.37,2.13h.68l-.05,1.61h.01c.18-.97.61-1.69,1.5-1.69.94,0,1.33.75,1.33,1.96,0,.53-.04,1.09-.07,1.38h-.61c.03-.27.07-.75.07-1.27,0-1-.29-1.44-.88-1.44-.81,0-1.29,1.03-1.29,2.56v3.32h-.68V2.13Z"/><path class="cls-1" d="m80.74,6.41h.62c0,1.13.3,1.64,1.13,1.64.71,0,1.1-.4,1.1-1.16,0-.38-.09-.64-.29-.83-.18-.18-.51-.3-.99-.47-.58-.21-.96-.38-1.21-.65-.22-.25-.38-.62-.38-1.14,0-1.01.65-1.74,1.69-1.74,1.22,0,1.69.65,1.69,2.26h-.64c0-1.27-.29-1.68-1.05-1.68-.62,0-1.01.42-1.01,1.14,0,.39.1.62.26.79.18.18.55.35,1.08.53.54.18.87.34,1.12.58.29.29.4.7.4,1.14,0,1.1-.65,1.79-1.78,1.79-1.33,0-1.76-.84-1.76-2.22Z"/><path class="cls-1" d="m86.44.31h.71v1.13h-.71V.31Zm.03,1.82h.68v6.42h-.68V2.13Z"/><path class="cls-1" d="m89.72,6.58v-3.83h-.79v-.61h.61c.17,0,.25-.09.26-.4l.03-1.05h.57v1.46h1.75v.61h-1.75v3.82c0,.87.25,1.43,1.03,1.43.35,0,.59-.05.66-.08v.58c-.13.04-.42.09-.78.09-1.18,0-1.59-.79-1.59-2.02Z"/><path class="cls-1" d="m94.21,11v-.6c.1.04.31.09.51.09.51,0,.69-.39,1.04-1.94h-.25l-1.77-6.42h.78l1.43,5.63h.03l1.23-5.63h.68l-1.48,6.5c-.44,2-.74,2.48-1.59,2.48-.22,0-.48-.07-.61-.12Z"/><path class="cls-1" d="m94.65,16.08h1.56c1.75,0,2.43,1.2,2.43,4.25s-.64,4.3-2.3,4.3h-1.69v-8.55Zm1.72,7.89c1.13,0,1.56-1.01,1.56-3.64s-.46-3.59-1.7-3.59h-.86v7.23h1Z"/><path class="cls-1" d="m101.36,21.44v.04c0,1.78.43,2.67,1.27,2.67.69,0,1.05-.53,1.09-1.72h.62c-.03,1.53-.62,2.29-1.74,2.29-1.31,0-1.92-1.14-1.92-3.24,0-2.37.7-3.34,1.94-3.34,1.17,0,1.73.86,1.73,2.9v.4h-2.99Zm.01-.51h2.35v-.07c0-1.52-.35-2.16-1.09-2.16s-1.18.61-1.26,2.22Z"/><path class="cls-1" d="m106.53,18.22h.68l-.05,1.5h.01c.14-1.04.73-1.57,1.61-1.57,1.18,0,1.81,1.05,1.81,3.16,0,2.25-.62,3.42-1.82,3.42-.88,0-1.4-.52-1.6-1.48h-.01c.01.49.05,1.25.05,1.51v2.34h-.68v-8.87Zm3.38,3.11c0-1.72-.44-2.57-1.31-2.57-.81,0-1.39.72-1.39,2.56v.49c0,1.38.52,2.3,1.4,2.3s1.3-.96,1.3-2.78Z"/><path class="cls-1" d="m112.54,22.92c0-1.07.59-1.72,1.66-1.72h1.3v-.97c0-1.03-.34-1.51-1.09-1.51-.69,0-1.09.42-1.09,1.3,0,.22.03.43.04.55h-.64c-.01-.09-.04-.33-.04-.57,0-1.22.62-1.86,1.75-1.86s1.74.74,1.74,2.05v4.45h-.68c.01-.29.04-.82.05-1.35h-.01c-.17.91-.65,1.43-1.51,1.43-.96,0-1.5-.71-1.5-1.79Zm2.96-1.04v-.17h-1.26c-.7,0-1.08.43-1.08,1.17s.34,1.25.97,1.25c.86,0,1.37-.74,1.37-2.25Z"/><path class="cls-1" d="m118.35,18.22h.68l-.05,1.61h.01c.18-.97.61-1.69,1.49-1.69.94,0,1.33.75,1.33,1.96,0,.53-.04,1.09-.06,1.38h-.61c.03-.27.06-.75.06-1.27,0-1-.29-1.44-.88-1.44-.81,0-1.29,1.03-1.29,2.56v3.32h-.68v-6.42Z"/><path class="cls-1" d="m124.12,22.66v-3.84h-.79v-.61h.61c.17,0,.25-.09.26-.4l.03-1.05h.57v1.46h1.76v.61h-1.76v3.82c0,.87.25,1.43,1.03,1.43.35,0,.58-.05.66-.08v.58c-.13.04-.42.09-.78.09-1.18,0-1.59-.79-1.59-2.01Z"/><path class="cls-1" d="m128.43,18.22h.68l-.05,1.39h.03c.16-.91.64-1.47,1.44-1.47s1.3.46,1.39,1.23h.01c.13-.79.68-1.23,1.44-1.23.94,0,1.4.69,1.4,1.9v4.6h-.68v-4.52c0-.84-.27-1.35-.94-1.35-.74,0-1.22.69-1.22,1.96v3.91h-.68v-4.55c0-.82-.29-1.33-.94-1.33-.74,0-1.22.78-1.22,2.09v3.78h-.68v-6.42Z"/><path class="cls-1" d="m137.5,21.44v.04c0,1.78.43,2.67,1.27,2.67.69,0,1.05-.53,1.09-1.72h.62c-.03,1.53-.62,2.29-1.74,2.29-1.31,0-1.92-1.14-1.92-3.24,0-2.37.7-3.34,1.94-3.34,1.17,0,1.73.86,1.73,2.9v.4h-2.99Zm.01-.51h2.35v-.07c0-1.52-.35-2.16-1.09-2.16s-1.18.61-1.26,2.22Z"/><path class="cls-1" d="m142.61,18.22h.68l-.05,1.48h.01c.21-.96.71-1.56,1.73-1.56,1.11,0,1.61.78,1.61,1.96v4.54h-.68v-4.46c0-.88-.34-1.42-1.16-1.42-.86,0-1.47.82-1.47,2.12v3.76h-.68v-6.42Z"/><path class="cls-1" d="m149.04,22.66v-3.84h-.79v-.61h.61c.17,0,.25-.09.26-.4l.03-1.05h.57v1.46h1.75v.61h-1.75v3.82c0,.87.25,1.43,1.03,1.43.35,0,.59-.05.66-.08v.58c-.13.04-.42.09-.78.09-1.18,0-1.59-.79-1.59-2.01Z"/><path class="cls-1" d="m0,16.08h.7v8.55h-.7v-8.55Z"/><path class="cls-1" d="m3.04,18.22h.68l-.05,1.48h.01c.21-.96.71-1.56,1.73-1.56,1.11,0,1.61.78,1.61,1.96v4.54h-.68v-4.46c0-.88-.34-1.42-1.16-1.42-.86,0-1.47.82-1.47,2.12v3.76h-.68v-6.42Z"/><path class="cls-1" d="m9.48,22.66v-3.84h-.79v-.61h.61c.17,0,.25-.09.26-.4l.03-1.05h.57v1.46h1.75v.61h-1.75v3.82c0,.87.25,1.43,1.03,1.43.35,0,.59-.05.66-.08v.58c-.13.04-.42.09-.78.09-1.18,0-1.59-.79-1.59-2.01Z"/><path class="cls-1" d="m14.17,21.44v.04c0,1.78.43,2.67,1.27,2.67.69,0,1.05-.53,1.09-1.72h.62c-.03,1.53-.62,2.29-1.74,2.29-1.31,0-1.92-1.14-1.92-3.24,0-2.37.7-3.34,1.94-3.34,1.17,0,1.73.86,1.73,2.9v.4h-2.99Zm.01-.51h2.35v-.07c0-1.52-.35-2.16-1.09-2.16s-1.18.61-1.26,2.22Z"/><path class="cls-1" d="m19.28,18.22h.68l-.05,1.61h.01c.18-.97.61-1.69,1.5-1.69.94,0,1.33.75,1.33,1.96,0,.53-.04,1.09-.07,1.38h-.61c.03-.27.07-.75.07-1.27,0-1-.29-1.44-.88-1.44-.81,0-1.29,1.03-1.29,2.56v3.32h-.68v-6.42Z"/><path class="cls-1" d="m24.62,22.92c0-1.07.59-1.72,1.66-1.72h1.3v-.97c0-1.03-.34-1.51-1.09-1.51-.69,0-1.09.42-1.09,1.3,0,.22.03.43.04.55h-.64c-.01-.09-.04-.33-.04-.57,0-1.22.62-1.86,1.75-1.86s1.74.74,1.74,2.05v4.45h-.68c.01-.29.04-.82.05-1.35h-.01c-.17.91-.65,1.43-1.51,1.43-.96,0-1.5-.71-1.5-1.79Zm2.96-1.04v-.17h-1.26c-.7,0-1.08.43-1.08,1.17s.34,1.25.97,1.25c.86,0,1.37-.74,1.37-2.25Z"/><path class="cls-1" d="m30.32,21.43c0-2.25.6-3.29,1.92-3.29,1.17,0,1.7.82,1.7,2.63h-.64c0-1.39-.32-2.02-1.05-2.02-.87,0-1.26.85-1.26,2.68s.38,2.68,1.21,2.68c.78,0,1.12-.62,1.12-2h.62c0,1.77-.55,2.61-1.76,2.61-1.27,0-1.87-1.09-1.87-3.29Z"/><path class="cls-1" d="m36.26,22.66v-3.84h-.79v-.61h.61c.17,0,.25-.09.26-.4l.03-1.05h.57v1.46h1.76v.61h-1.76v3.82c0,.87.25,1.43,1.03,1.43.35,0,.58-.05.66-.08v.58c-.13.04-.42.09-.78.09-1.18,0-1.59-.79-1.59-2.01Z"/><path class="cls-1" d="m40.61,16.4h.71v1.13h-.71v-1.13Zm.03,1.82h.68v6.42h-.68v-6.42Z"/><path class="cls-1" d="m43.5,21.43c0-2.2.66-3.29,2-3.29s1.98,1.09,1.98,3.29-.66,3.29-1.98,3.29-2-1.09-2-3.29Zm3.3,0c0-1.82-.43-2.68-1.3-2.68s-1.33.86-1.33,2.68.44,2.68,1.33,2.68,1.3-.86,1.3-2.68Z"/><path class="cls-1" d="m49.59,18.22h.68l-.05,1.48h.01c.21-.96.71-1.56,1.73-1.56,1.11,0,1.61.78,1.61,1.96v4.54h-.68v-4.46c0-.88-.34-1.42-1.16-1.42-.86,0-1.47.82-1.47,2.12v3.76h-.68v-6.42Z"/><path class="cls-1" d="m59.01,16.08h1.56c1.76,0,2.43,1.2,2.43,4.25s-.64,4.3-2.3,4.3h-1.69v-8.55Zm1.72,7.89c1.13,0,1.56-1.01,1.56-3.64s-.46-3.59-1.7-3.59h-.86v7.23h1Z"/><path class="cls-1" d="m65.71,21.44v.04c0,1.78.43,2.67,1.27,2.67.69,0,1.05-.53,1.09-1.72h.62c-.03,1.53-.62,2.29-1.74,2.29-1.31,0-1.92-1.14-1.92-3.24,0-2.37.7-3.34,1.94-3.34,1.17,0,1.73.86,1.73,2.9v.4h-2.99Zm.01-.51h2.35v-.07c0-1.52-.35-2.16-1.09-2.16s-1.18.61-1.26,2.22Z"/><path class="cls-1" d="m70.71,22.49h.62c0,1.13.3,1.64,1.13,1.64.71,0,1.11-.4,1.11-1.16,0-.38-.09-.64-.29-.83-.18-.18-.51-.3-.99-.47-.59-.21-.96-.38-1.21-.65-.22-.25-.38-.62-.38-1.14,0-1.01.65-1.74,1.69-1.74,1.22,0,1.69.65,1.69,2.26h-.64c0-1.27-.29-1.68-1.05-1.68-.62,0-1.01.42-1.01,1.14,0,.39.1.62.26.79.18.18.54.35,1.08.53.55.18.87.34,1.12.58.29.29.4.7.4,1.14,0,1.1-.65,1.79-1.78,1.79-1.33,0-1.75-.84-1.75-2.22Z"/><path class="cls-1" d="m76.4,16.4h.71v1.13h-.71v-1.13Zm.03,1.82h.68v6.42h-.68v-6.42Z"/><path class="cls-1" d="m83.24,25.42c0,1.12-.68,1.87-1.98,1.87-1.43,0-2.04-.85-2.04-1.69,0-.68.33-1.22.86-1.29-.26-.21-.37-.52-.37-.88,0-.4.13-.7.31-.87v-.03c-.43-.38-.64-1.04-.64-2.01,0-1.6.57-2.38,1.7-2.38.4,0,.73.09.99.29h.01c-.13-.2-.23-.46-.23-.69,0-.47.31-.74.85-.74.21,0,.33.03.39.05v.57c-.05-.01-.16-.05-.31-.05-.3,0-.47.14-.47.46,0,.27.11.58.22.99.18.38.27.88.27,1.51,0,1.6-.58,2.38-1.71,2.38-.26,0-.48-.04-.69-.12-.04.05-.12.21-.12.51,0,.4.18.62.51.62h.78c1.12,0,1.66.62,1.66,1.51Zm-.68.08c0-.57-.31-.98-1.01-.98h-.71c-.62,0-.96.38-.96,1.05,0,.56.42,1.14,1.38,1.14.9,0,1.31-.47,1.31-1.22Zm-2.52-4.98c0,1.24.36,1.81,1.05,1.81s1.07-.57,1.07-1.81-.37-1.81-1.07-1.81-1.05.57-1.05,1.81Z"/><path class="cls-1" d="m85.24,18.22h.68l-.05,1.48h.01c.21-.96.71-1.56,1.73-1.56,1.11,0,1.61.78,1.61,1.96v4.54h-.68v-4.46c0-.88-.34-1.42-1.16-1.42s-1.47.82-1.47,2.12v3.76h-.68v-6.42Z"/></g></svg>