<?xml version="1.0" encoding="UTF-8"?><svg id="_レイヤー_2" xmlns="http://www.w3.org/2000/svg" viewBox="0 0 282.94 407.07"><defs><style>.cls-1{fill:none;}.cls-2{fill:#231815;}</style></defs><path class="cls-1" d="m42.34,91.37l-.05,84.63,1.92,1.92c-.06-28.63-.11-58.25-.17-88.26l-1.7,1.7Z"/><path class="cls-1" d="m62.84,70.87l-.07,125.62,1.97,1.97c-.08-41.27-.17-84.99-.25-129.25l-1.65,1.65Z"/><path class="cls-1" d="m60.57,73.14l-.07,121.08,1.96,1.96c-.08-39.89-.16-82.02-.24-124.69l-1.65,1.65Z"/><path class="cls-1" d="m33.22,100.49l-.04,66.41,1.9,1.9c-.04-22.86-.09-46.31-.14-70.04l-1.72,1.73Z"/><path class="cls-1" d="m144.85,2.43l-.04,73.39c.56.07,1.12.14,1.67.22-.04-24.54-.09-49.28-.13-73.89-.5.09-1,.19-1.5.28Z"/><path class="cls-1" d="m125.59,8.1l-1.24,1.24-.04,66.59c.55-.06,1.1-.13,1.67-.19-.04-22.5-.08-45.17-.12-67.75-.09.04-.18.07-.27.11Z"/><path class="cls-1" d="m67.4,66.3l-.08,134.74,1.98,1.98c-.09-44.01-.18-90.91-.26-138.35l-1.63,1.63Z"/><path class="cls-1" d="m46.89,86.82l-.05,93.74,1.93,1.93c-.06-31.48-.13-64.2-.19-97.36l-1.69,1.69Z"/><path class="cls-1" d="m65.12,68.59l-.08,130.18,1.98,1.98c-.08-42.65-.17-87.96-.26-133.81l-1.65,1.65Z"/><path class="cls-1" d="m126.64,7.69l-.04,67.98c.54-.05,1.11-.08,1.66-.12-.04-22.74-.08-45.64-.12-68.45-.5.19-1,.39-1.5.59Z"/><path class="cls-1" d="m142.58,2.9l-.04,72.68c.56.05,1.11.1,1.66.16-.04-24.3-.09-48.8-.12-73.16-.5.1-.99.21-1.49.32Z"/><path class="cls-1" d="m147.13,2l-.04,74.12c.57.09,1.11.21,1.67.32-.05-24.81-.09-49.81-.13-74.68-.5.08-1,.16-1.5.25Z"/><path class="cls-1" d="m135.74,4.6l-.04,70.67s.05,0,.08,0c.54,0,1.06.03,1.59.04-.04-23.62-.08-47.42-.12-71.11-.5.14-1.01.27-1.5.41Z"/><path class="cls-1" d="m56,77.7l-.07,111.96,1.96,1.96c-.07-37.11-.15-76.09-.22-115.58l-1.67,1.67Z"/><path class="cls-1" d="m128.91,6.83l-.04,68.69c.56-.04,1.1-.08,1.67-.11-.04-22.96-.08-46.09-.12-69.12-.51.18-1.01.36-1.51.54Z"/><path class="cls-1" d="m53.73,79.97l-.06,107.42,1.94,1.94c-.07-35.71-.14-73.12-.21-111.02l-1.67,1.67Z"/><path class="cls-1" d="m138.02,3.98l-.04,71.34c.55.01,1.12.01,1.67.04-.04-23.84-.08-47.86-.12-71.76-.5.12-1,.25-1.5.38Z"/><path class="cls-1" d="m12.72,121v25.43s1.83,1.85,1.83,1.85c-.02-9.61-.04-19.3-.06-29.05l-1.78,1.78Z"/><path class="cls-1" d="m140.3,3.41l-.04,71.99c.56.03,1.11.08,1.67.13-.04-24.07-.09-48.33-.12-72.46-.5.11-1,.23-1.5.35Z"/><path class="cls-1" d="m51.45,82.26l-.06,102.86,1.95,1.95c-.07-34.31-.14-70.16-.2-106.48l-1.68,1.68Z"/><path class="cls-1" d="m35.5,98.21l-.04,70.97,1.9,1.9c-.05-24.32-.1-49.3-.14-74.6l-1.72,1.72Z"/><path class="cls-1" d="m122.07,11.62l-.04,64.59c.55-.08,1.11-.15,1.67-.22-.04-21.89-.08-43.93-.11-65.89l-1.52,1.52Z"/><path class="cls-1" d="m131.19,6.02l-.04,69.34c.54-.02,1.11-.02,1.67-.04-.04-23.19-.08-46.54-.12-69.8-.51.16-1.01.33-1.51.5Z"/><path class="cls-1" d="m58.29,75.42l-.07,116.52,1.96,1.96c-.08-38.51-.16-79.07-.23-120.15l-1.66,1.66Z"/><path class="cls-1" d="m133.47,5.28l-.04,70.03c.55-.01,1.1-.03,1.66-.03-.04-23.4-.08-46.98-.12-70.45-.5.15-1,.29-1.5.45Z"/><path class="cls-1" d="m37.78,95.93l-.04,75.53,1.9,1.9c-.05-25.75-.1-52.28-.15-79.14l-1.7,1.7Z"/><path class="cls-1" d="m49.17,84.54l-.06,98.3,1.94,1.94c-.06-32.9-.13-67.18-.2-101.92l-1.69,1.69Z"/><path class="cls-1" d="m40.06,93.66l-.05,80.07,1.92,1.92c-.05-27.2-.11-55.26-.16-83.7l-1.71,1.71Z"/><path class="cls-1" d="m99.29,34.41l-.03,49.88c.55-.36,1.11-.72,1.69-1.06-.03-16.73-.06-33.56-.09-50.39l-1.57,1.57Z"/><path class="cls-1" d="m101.57,32.13l-.03,50.74c.55-.31,1.12-.6,1.68-.89-.03-17.07-.06-34.24-.09-51.42l-1.56,1.56Z"/><path class="cls-1" d="m3.6,130.12v7.2s1.82,1.82,1.82,1.82c0-3.6-.01-7.21-.02-10.83l-1.8,1.8Z"/><path class="cls-1" d="m85.62,48.08l-.03,51.13c.54-1,1.11-1.97,1.72-2.9-.03-16.51-.06-33.16-.09-49.83l-1.6,1.6Z"/><path class="cls-1" d="m97.02,36.68l-.03,49.22c.55-.42,1.1-.84,1.68-1.24-.03-16.44-.06-32.99-.09-49.55l-1.56,1.56Z"/><path class="cls-1" d="m17.27,116.44l-.02,34.53,1.86,1.86c-.02-12.58-.05-25.31-.07-38.15l-1.76,1.76Z"/><path class="cls-1" d="m0,133.72l.86.86c0-.57,0-1.15,0-1.73l-.86.86Z"/><path class="cls-1" d="m103.85,29.84l-.03,51.82c.55-.27,1.11-.53,1.67-.79-.03-17.46-.06-35.02-.09-52.58l-1.55,1.55Z"/><path class="cls-1" d="m1.33,132.39v2.66s1.81,1.81,1.81,1.81c0-2.09,0-4.17-.01-6.27l-1.79,1.79Z"/><path class="cls-1" d="m83.35,50.35l-.03,53.99c.53-1.43,1.1-2.78,1.72-4.05-.03-17.07-.06-34.28-.09-51.54l-1.6,1.6Z"/><path class="cls-1" d="m87.9,45.8l-.03,49.7c.55-.81,1.12-1.59,1.71-2.35-.03-16.23-.06-32.57-.09-48.95l-1.59,1.59Z"/><path class="cls-1" d="m5.89,127.83v11.77s1.82,1.83,1.82,1.83c0-5.11-.02-10.24-.03-15.39l-1.79,1.79Z"/><path class="cls-1" d="m90.18,43.52l-.03,48.94c.55-.66,1.11-1.31,1.69-1.93-.03-16.11-.06-32.34-.09-48.58l-1.58,1.58Z"/><path class="cls-1" d="m10.44,123.28v20.87s1.83,1.84,1.83,1.84c-.02-8.11-.03-16.27-.05-24.49l-1.78,1.78Z"/><path class="cls-1" d="m92.46,41.24l-.03,48.67c.55-.56,1.12-1.12,1.7-1.65-.03-16.13-.06-32.36-.09-48.61l-1.58,1.58Z"/><path class="cls-1" d="m15,118.72l-.02,29.99,1.84,1.84c-.02-11.09-.04-22.3-.06-33.59l-1.76,1.76Z"/><path class="cls-1" d="m94.74,38.96l-.03,48.8c.55-.48,1.11-.96,1.69-1.42-.03-16.24-.06-32.59-.09-48.96l-1.58,1.58Z"/><path class="cls-1" d="m8.17,125.55v16.33s1.82,1.82,1.82,1.82c-.01-6.61-.03-13.25-.04-19.93l-1.78,1.78Z"/><path class="cls-1" d="m117.52,16.17l-.04,60.86c.55-.12,1.11-.23,1.67-.34-.04-20.61-.07-41.35-.11-62.04l-1.53,1.53Z"/><path class="cls-1" d="m112.97,20.73l-.03,57.43c.55-.16,1.1-.33,1.66-.48-.04-19.42-.07-38.97-.1-58.48l-1.53,1.53Z"/><path class="cls-1" d="m74.24,59.47l-.09,148.4,1.99,1.99c-.09-48.07-.2-99.78-.29-152.01l-1.62,1.62Z"/><path class="cls-1" d="m26.39,107.33l-.03,52.75,1.88,1.88c-.04-18.49-.07-37.33-.11-56.37l-1.74,1.74Z"/><path class="cls-1" d="m71.95,61.75l-.08,143.84,2,2c-.09-46.73-.19-96.83-.28-147.47l-1.63,1.63Z"/><path class="cls-1" d="m115.24,18.45l-.03,59.08c.55-.14,1.11-.25,1.67-.37-.04-20.01-.07-40.15-.1-60.24l-1.53,1.53Z"/><path class="cls-1" d="m69.67,64.03l-.08,139.28,1.99,1.99c-.09-45.37-.19-93.87-.27-142.91l-1.64,1.64Z"/><path class="cls-1" d="m30.95,102.76l-.04,61.87,1.88,1.88c-.04-21.41-.08-43.31-.13-65.48l-1.72,1.72Z"/><path class="cls-1" d="m119.8,13.89l-.04,62.7c.55-.1,1.1-.19,1.66-.27-.04-21.23-.08-42.62-.11-63.93l-1.51,1.51Z"/><path class="cls-1" d="m28.67,105.05l-.03,57.31,1.89,1.89c-.04-19.95-.08-40.33-.12-60.93l-1.74,1.74Z"/><path class="cls-1" d="m81.07,52.63l-.03,59.5c.51-2.22,1.09-4.31,1.75-6.25-.03-18.15-.07-36.48-.1-54.86l-1.61,1.61Z"/><path class="cls-1" d="m21.83,111.88l-.03,43.65,1.87,1.87c-.03-15.55-.06-31.33-.09-47.27l-1.75,1.75Z"/><path class="cls-1" d="m19.55,114.16l-.02,39.09,1.86,1.86c-.03-14.07-.06-28.33-.08-42.71l-1.76,1.76Z"/><path class="cls-1" d="m106.12,27.57l-.03,53.04c.56-.24,1.1-.5,1.68-.73-.03-17.88-.06-35.88-.09-53.87l-1.55,1.55Z"/><path class="cls-1" d="m108.41,25.29l-.03,54.38c.55-.21,1.11-.41,1.68-.6-.03-18.37-.07-36.86-.1-55.32l-1.55,1.55Z"/><path class="cls-1" d="m110.69,23.01l-.03,55.84c.55-.18,1.11-.35,1.67-.52-.03-18.88-.07-37.89-.1-56.87l-1.54,1.54Z"/><path class="cls-1" d="m76.51,57.2l-.09,152.94,1.93,1.93v-39.35c-.07-37.86-.15-77.36-.22-117.15l-1.62,1.62Z"/><path class="cls-1" d="m78.79,54.91l-.04,73.57c.35-5.09.95-9.73,1.77-13.92-.04-20.23-.08-40.72-.11-61.27l-1.62,1.62Z"/><path class="cls-1" d="m24.12,109.6l-.03,48.21,1.87,1.87c-.03-17.02-.07-34.33-.1-51.81l-1.74,1.74Z"/><path class="cls-1" d="m214.67,7.01c-.5-.19-1-.38-1.51-.56l-.18,315.2c.01,8.67.03,17.04.04,25.08l2.22,2.22.02-27.3c-.14-86.05-.41-201.5-.59-314.64Z"/><path class="cls-1" d="m228.34,13.59c-.51-.3-1.01-.61-1.52-.9l-.18,308.97c.02,13.71.04,26.67.06,38.76l2.2,2.2.02-40.96c-.14-84.39-.4-197.04-.58-308.07Z"/><path class="cls-1" d="m223.77,11.03c-.5-.26-1.01-.49-1.51-.74l-.18,311.36c.02,12,.04,23.43.05,34.2l2.2,2.2.02-36.4c-.14-85.03-.4-198.77-.58-310.62Z"/><path class="cls-1" d="m226.05,12.27c-.5-.28-1.01-.56-1.52-.84l-.18,310.22c.02,12.85.04,25.04.06,36.48l2.2,2.2.02-38.68c-.14-84.72-.4-197.94-.58-309.39Z"/><path class="cls-1" d="m221.5,9.91c-.5-.24-1.01-.48-1.52-.71l-.18,312.45c.02,11.16.04,21.82.05,31.92l2.21,2.21.02-34.13c-.14-85.32-.4-199.53-.58-311.74Z"/><path class="cls-1" d="m235.17,18.39c-.51-.44-1.02-.88-1.53-1.3l-.18,304.57c.03,16.33.05,31.6.07,45.6l2.18,2.18.03-47.78c-.14-83.17-.39-193.8-.57-303.27Z"/><path class="cls-1" d="m219.22,8.87c-.5-.22-1-.45-1.51-.66l-.18,313.44c.02,10.32.03,20.22.05,29.64l2.21,2.21.02-31.85c-.14-85.58-.4-200.24-.58-312.78Z"/><path class="cls-1" d="m237.46,20.43c-.51-.47-1.02-.94-1.54-1.4l-.18,302.63c.03,17.22.05,33.27.07,47.88l2.18,2.18.03-50.06c-.14-82.65-.39-192.43-.56-301.22Z"/><path class="cls-1" d="m232.89,16.54c-.5-.35-1.01-.69-1.52-1.03l-.18,306.15c.03,15.45.05,29.95.07,43.32l2.18,2.18.03-45.5c-.14-83.64-.39-195.05-.57-305.12Z"/><path class="cls-1" d="m239.73,22.6c-.51-.5-1.02-1-1.53-1.49l-.18,300.54c.03,18.12.06,34.95.07,50.17l2.17,2.17.03-52.33c-.14-82.1-.38-190.97-.56-299.06Z"/><path class="cls-1" d="m230.62,15c-.5-.33-1.02-.63-1.53-.95l-.18,307.6c.02,14.58.05,28.31.06,41.04l2.19,2.19.03-43.23c-.14-84.03-.39-196.09-.57-306.66Z"/><path class="cls-1" d="m198.72,2.51c-.5-.1-1-.19-1.5-.28l-.19,319.43c0,3.08.01,6.11.02,9.12l2.26,2.26v-11.37c-.14-87.19-.41-204.57-.59-319.15Z"/><path class="cls-1" d="m216.94,7.89c-.49-.2-1-.39-1.5-.58l-.18,314.35c.02,9.49.03,18.63.04,27.36l2.21,2.21.02-29.57c-.14-85.83-.4-200.9-.59-313.76Z"/><path class="cls-1" d="m196.44,2.09c-.5-.09-1-.18-1.5-.26l-.19,319.83c0,2.3,0,4.57.01,6.83l2.26,2.26v-9.1c-.14-87.3-.41-204.86-.59-319.56Z"/><path class="cls-1" d="m203.27,3.52c-.5-.12-.99-.25-1.49-.36l-.19,318.49c0,4.65.02,9.21.02,13.68l2.24,2.24v-15.92c-.14-86.94-.4-203.88-.58-318.14Z"/><path class="cls-1" d="m201,2.99c-.5-.11-1-.21-1.5-.32l-.19,318.98c0,3.86.01,7.66.02,11.4l2.25,2.25v-13.65c-.14-87.07-.4-204.24-.58-318.66Z"/><path class="cls-1" d="m210.1,5.42c-.49-.16-1-.3-1.5-.45l-.18,316.69c.01,7.04.02,13.89.03,20.52l2.22,2.22v-22.74c-.13-86.46-.4-202.59-.58-316.24Z"/><path class="cls-1" d="m212.38,6.19c-.5-.17-1-.34-1.51-.51l-.18,315.98c.01,7.85.03,15.46.04,22.79l2.23,2.23v-25.03c-.13-86.26-.39-202.06-.57-315.46Z"/><path class="cls-1" d="m205.55,4.09c-.5-.13-1-.25-1.5-.38l-.19,317.94c0,5.44.02,10.76.03,15.95l2.24,2.24v-18.2c-.14-86.79-.4-203.49-.58-317.56Z"/><path class="cls-1" d="m207.83,4.74c-.5-.15-1-.3-1.5-.44l-.19,317.35c.01,6.24.02,12.32.03,18.24l2.24,2.24v-20.48c-.13-86.63-.4-203.05-.58-316.91Z"/><path class="cls-1" d="m274.62,39.28l-.05,86.2c.46-3.11,1.04-6.11,1.76-8.99-.05-26.05-.1-52.54-.14-79.05-.52.61-1.05,1.22-1.57,1.84Z"/><path class="cls-1" d="m272.34,42.15l-.16,279.5c.06,33.05.09,61.76.1,84.35l1.07,1.07V142.82c0-1.92.04-3.81.12-5.65.11-2.74.33-5.39.62-7.97-.06-29.23-.11-59.11-.16-89.04-.53.66-1.06,1.32-1.59,2Z"/><path class="cls-1" d="m269.37,46.14c-.54.75-1.06,1.53-1.59,2.3l-.16,273.22c.05,30.87.09,57.95.1,79.79l2.12,2.12.05-81.91c-.13-76.14-.35-175.3-.52-275.51Z"/><path class="cls-1" d="m264.83,52.93c-.55.87-1.08,1.76-1.62,2.65l-.16,266.07c.05,28.75.08,54.22.1,75.23l2.14,2.14.05-77.37c-.13-74.42-.34-170.83-.51-268.72Z"/><path class="cls-1" d="m267.11,49.42c-.54.81-1.07,1.65-1.61,2.48l-.16,269.76c.05,29.8.09,56.08.1,77.51l2.13,2.13.05-79.64c-.13-75.31-.34-173.15-.52-272.24Z"/><path class="cls-1" d="m271.65,43.06c-.54.71-1.07,1.43-1.59,2.15l-.16,276.45c.05,31.95.09,59.84.1,82.06l2.13,2.13.05-84.19c-.13-76.92-.35-177.34-.53-278.59Z"/><path class="cls-1" d="m279.17,34.08l-.04,73.49c.41-1.06.83-2.11,1.28-3.13.15-.32.31-.63.46-.94-.04-23.5-.09-47.29-.13-71.08-.53.55-1.05,1.1-1.57,1.66Z"/><path class="cls-1" d="m281.41,102.38c.49-.98,1-1.95,1.53-2.88V30.18c-.5.49-1,1.01-1.49,1.52l-.04,70.68Z"/><path class="cls-1" d="m276.89,36.61l-.05,77.94c.52-1.89,1.11-3.73,1.75-5.52-.05-24.49-.09-49.32-.13-74.17-.53.58-1.05,1.16-1.57,1.76Z"/><path class="cls-1" d="m194.16,1.69c-.49-.08-.99-.14-1.49-.21l-.19,320.18c0,1.53,0,3.05,0,4.56l2.26,2.26v-6.81c-.14-87.4-.41-205.13-.59-319.97Z"/><path class="cls-1" d="m255.71,43.47c-.52-.91-1.05-1.8-1.59-2.69l-.16,280.88c.04,24.71.07,47,.09,66.11l2.15,2.15.04-68.26c-.13-76.82-.35-177.07-.53-278.19Z"/><path class="cls-1" d="m248.86,33.04c-.51-.68-1.04-1.36-1.57-2.02l-.17,290.64c.04,21.82.07,41.75.08,59.27l2.16,2.16.04-61.44c-.13-79.46-.37-183.98-.54-288.61Z"/><path class="cls-1" d="m251.14,36.21c-.52-.75-1.04-1.49-1.57-2.21l-.17,287.65c.04,22.78.07,43.49.09,61.56l2.16,2.16.04-63.71c-.13-78.66-.36-181.88-.54-285.44Z"/><path class="cls-1" d="m246.57,30.11c-.51-.62-1.03-1.23-1.55-1.84l-.17,293.38c.04,20.88.06,40.03.08,57l2.15,2.15.03-59.15c-.13-80.2-.37-185.94-.55-291.54Z"/><path class="cls-1" d="m244.3,27.43c-.51-.58-1.03-1.15-1.55-1.72l-.17,295.95c.03,19.95.06,38.32.08,54.72l2.17,2.17.03-56.89c-.14-80.88-.37-187.73-.55-294.23Z"/><path class="cls-1" d="m253.42,39.65c-.51-.82-1.04-1.62-1.57-2.42l-.17,284.43c.04,23.74.07,45.24.09,63.84l2.14,2.14.04-65.98c-.13-77.79-.36-179.6-.53-282.01Z"/><path class="cls-1" d="m257.99,47.69c-.52-1.01-1.05-2.01-1.6-3l-.16,276.96c.04,25.7.08,48.78.09,68.39l2.15,2.15.04-70.54c-.13-75.75-.35-174.28-.52-273.97Z"/><path class="cls-1" d="m262.56,56.67c-.09.15-.18.3-.27.45-.43-1.08-.88-2.14-1.34-3.2l-.16,267.72c.05,27.73.08,52.4.1,72.96l2.13,2.13.04-75.08c-.12-73.47-.33-168.38-.5-264.98Z"/><path class="cls-1" d="m260.28,52.45c-.52-1.15-1.06-2.29-1.61-3.41l-.16,272.61c.04,26.71.08,50.58.1,70.67l2.14,2.14.04-72.82c-.13-74.54-.34-171.15-.51-269.2Z"/><path class="cls-1" d="m242.02,24.93c-.51-.54-1.03-1.07-1.55-1.6l-.17,298.33c.03,19.03.06,36.62.08,52.44l2.17,2.17.03-54.61c-.14-81.51-.38-189.41-.56-296.73Z"/><path class="cls-1" d="m44.62,89.09l-.05,89.19,1.92,1.92c-.06-30.06-.12-61.22-.18-92.8l-1.69,1.69Z"/><path class="cls-1" d="m156.24.75l-.05,77.67c.56.2,1.12.41,1.67.63-.05-26.04-.09-52.32-.13-78.44-.5.05-.99.09-1.49.14Z"/><path class="cls-1" d="m158.51.53l-.05,78.77c.56.23,1.13.46,1.68.72-.05-26.42-.09-53.09-.14-79.6-.5.04-1,.07-1.5.11Z"/><path class="cls-1" d="m183.56.47l-.07,115.46c.93,6.08,1.48,13.15,1.65,21.24.04,1.83.06,3.72.06,5.65v176.11l.44.44c-.15-87.45-.41-204.6-.59-318.79-.49-.04-1-.07-1.5-.11Z"/><path class="cls-1" d="m179.01.19l-.06,99.09c.04.08.08.16.12.24.58,1.27,1.11,2.66,1.6,4.15-.06-34.15-.13-68.92-.18-103.42-.49-.03-.99-.04-1.49-.06Z"/><path class="cls-1" d="m185.84.66l-.19,318.72,2.27,2.27c-.15-87.62-.42-205.72-.6-320.83-.5-.05-.99-.11-1.49-.16Z"/><path class="cls-1" d="m181.28.3l-.06,105.09c.67,2.25,1.26,4.72,1.75,7.41-.07-37.01-.14-74.86-.2-112.39-.5-.04-.99-.08-1.5-.11Z"/><path class="cls-1" d="m165.34.12l-.05,82.79c.58.39,1.13.81,1.69,1.23-.05-27.88-.1-56.07-.14-84.07-.5.01-1,.03-1.5.04Z"/><path class="cls-1" d="m160.79.36l-.05,79.96c.57.28,1.13.56,1.68.86-.05-26.85-.1-53.97-.14-80.92-.5.03-1,.06-1.5.1Z"/><path class="cls-1" d="m163.07.22l-.05,81.29c.57.33,1.12.68,1.67,1.03-.05-27.34-.1-54.95-.14-82.4-.5.02-.99.05-1.49.08Z"/><path class="cls-1" d="m153.96,1l-.04,76.65c.57.17,1.12.37,1.67.56-.05-25.7-.09-51.62-.13-77.39-.5.05-1,.12-1.5.17Z"/><path class="cls-1" d="m151.68,1.29l-.04,75.77c.56.14,1.12.28,1.67.43-.05-25.37-.09-50.96-.13-76.4-.5.06-1,.13-1.5.2Z"/><path class="cls-1" d="m174.45.04l-.05,91.54c.59.8,1.17,1.62,1.71,2.47-.06-31.11-.11-62.66-.16-93.99-.49-.01-1-.01-1.49-.02Z"/><path class="cls-1" d="m176.73.09l-.06,94.92c.61,1.01,1.18,2.06,1.72,3.15-.06-32.41-.12-65.33-.17-98.01-.5-.02-.99-.05-1.5-.06Z"/><path class="cls-1" d="m191.89,1.37c-.5-.07-.99-.14-1.5-.21l-.19,320.49c0,.76,0,1.52,0,2.28l2.27,2.27v-4.55c-.14-87.48-.41-205.35-.59-320.28Z"/><path class="cls-1" d="m149.41,1.62l-.04,74.93c.56.11,1.12.22,1.66.35-.05-25.07-.09-50.36-.13-75.5-.5.07-.99.14-1.49.22Z"/><path class="cls-1" d="m167.62.05l-.05,84.52c.58.46,1.14.95,1.69,1.44-.05-28.51-.1-57.34-.15-85.99-.5,0-1,.01-1.49.03Z"/><path class="cls-1" d="m171.39,0c-.5,0-.99.01-1.49.01l-.05,86.5c.59.54,1.15,1.12,1.7,1.7-.05-29.24-.11-58.83-.15-88.22,0,0,0,0,0,0Z"/><path class="cls-1" d="m189.61,1.05c-.49-.06-1-.1-1.5-.16l-.19,320.75,2.28,2.28v-2.27c-.15-87.56-.41-205.57-.59-320.6Z"/><path class="cls-1" d="m172.18.01l-.05,88.8c.59.65,1.15,1.33,1.69,2.03-.06-30.08-.11-60.55-.16-90.81-.5,0-.99-.02-1.48-.02Z"/><path class="cls-2" d="m.86,132.86c0,.58,0,1.15,0,1.73l.47.47v-2.66s-.47.47-.47.47Z"/><path class="cls-2" d="m3.13,130.59c0,2.09,0,4.18.01,6.27l.46.46v-7.2s-.47.48-.47.48Z"/><path class="cls-2" d="m5.4,128.32c0,3.62.01,7.23.02,10.83l.46.46v-11.77s-.48.48-.48.48Z"/><path class="cls-2" d="m7.68,126.04c0,5.15.02,10.28.03,15.39l.45.45v-16.33s-.48.49-.48.49Z"/><path class="cls-2" d="m9.94,123.77c.01,6.68.03,13.32.04,19.93l.44.44v-20.87s-.48.49-.48.49Z"/><path class="cls-2" d="m12.22,121.5c.02,8.21.03,16.38.05,24.49l.44.44v-25.43s-.49.5-.49.5Z"/><path class="cls-2" d="m14.49,119.22c.02,9.75.04,19.44.06,29.05l.43.43.02-29.99-.51.51Z"/><path class="cls-2" d="m16.76,116.96c.02,11.29.04,22.5.06,33.59l.43.43.02-34.53-.51.51Z"/><path class="cls-2" d="m19.04,114.68c.02,12.84.05,25.57.07,38.15l.42.42.02-39.09-.52.52Z"/><path class="cls-2" d="m21.31,112.4c.03,14.39.05,28.65.08,42.71l.41.41.03-43.65-.52.52Z"/><path class="cls-2" d="m23.59,110.13c.03,15.94.06,31.73.09,47.27l.41.41.03-48.21-.53.53Z"/><path class="cls-2" d="m25.85,107.86c.03,17.49.07,34.8.1,51.81l.4.4.03-52.75-.53.53Z"/><path class="cls-2" d="m28.13,105.58c.04,19.05.07,37.89.11,56.37l.4.4.03-57.31-.54.54Z"/><path class="cls-2" d="m30.4,103.31c.04,20.6.08,40.98.12,60.93l.39.39.04-61.87-.55.55Z"/><path class="cls-2" d="m32.67,101.04c.04,22.16.08,44.07.13,65.48l.39.39.04-66.41-.55.55Z"/><path class="cls-2" d="m34.95,98.77c.04,23.73.09,47.17.14,70.04l.38.38.04-70.97-.56.56Z"/><path class="cls-2" d="m37.22,96.49c.05,25.3.1,50.28.14,74.6l.37.37.04-75.53-.56.56Z"/><path class="cls-2" d="m39.49,94.22c.05,26.86.1,53.38.15,79.14l.37.37.05-80.07-.57.57Z"/><path class="cls-2" d="m41.76,91.95c.05,28.43.11,56.5.16,83.7l.36.36.05-84.63-.57.57Z"/><path class="cls-2" d="m44.04,89.67c.06,30.01.11,59.63.17,88.26l.36.36.05-89.19-.58.58Z"/><path class="cls-2" d="m46.31,87.4c.06,31.58.12,62.75.18,92.8l.35.35.05-93.74-.58.58Z"/><path class="cls-2" d="m48.58,85.13c.06,33.16.13,65.88.19,97.36l.35.35.06-98.3-.59.59Z"/><path class="cls-2" d="m50.86,82.85c.06,34.74.13,69.02.2,101.92l.34.34.06-102.86-.6.6Z"/><path class="cls-2" d="m53.13,80.58c.07,36.32.14,72.17.2,106.48l.33.33.06-107.42-.6.6Z"/><path class="cls-2" d="m55.4,78.31c.07,37.9.14,75.31.21,111.02l.33.33.07-111.96-.61.61Z"/><path class="cls-2" d="m57.67,76.03c.07,39.49.15,78.47.22,115.58l.32.32.07-116.52-.61.61Z"/><path class="cls-2" d="m59.95,73.76c.07,41.08.15,81.64.23,120.15l.32.32.07-121.08-.62.62Z"/><path class="cls-2" d="m62.22,71.49c.08,42.66.16,84.79.24,124.69l.31.31.07-125.62-.62.62Z"/><path class="cls-2" d="m64.49,69.21c.08,44.26.17,87.97.25,129.25l.3.3.08-130.18-.63.63Z"/><path class="cls-2" d="m66.77,66.94c.08,45.85.17,91.16.26,133.81l.3.3.08-134.74-.63.63Z"/><path class="cls-2" d="m69.03,64.67c.08,47.44.18,94.34.26,138.35l.29.29.08-139.28-.64.64Z"/><path class="cls-2" d="m71.31,62.39c.09,49.04.18,97.54.27,142.91l.29.29.08-143.84-.64.64Z"/><path class="cls-2" d="m73.59,60.12c.09,50.64.19,100.74.28,147.47l.28.28.09-148.4-.65.65Z"/><path class="cls-2" d="m75.85,57.85c.09,52.23.2,103.94.29,152.01l.28.28.09-152.94-.65.66Z"/><path class="cls-2" d="m78.13,55.57c.07,39.78.15,79.29.22,117.15v-32.05c0-1.19.01-2.36.03-3.51.05-3.03.17-5.92.37-8.68l.04-73.57-.66.66Z"/><path class="cls-2" d="m80.4,53.3c.04,20.55.07,41.04.11,61.27.16-.83.34-1.64.52-2.44l.03-59.5-.67.67Z"/><path class="cls-2" d="m82.68,51.02c.03,18.38.07,36.71.1,54.86.18-.52.35-1.03.54-1.54l.03-53.99-.67.67Z"/><path class="cls-2" d="m84.95,48.76c.03,17.25.06,34.47.09,51.54.12-.26.24-.52.37-.77.06-.11.12-.21.18-.31l.03-51.13-.68.68Z"/><path class="cls-2" d="m87.22,46.48c.03,16.67.06,33.32.09,49.83.18-.28.38-.54.56-.81l.03-49.7-.68.68Z"/><path class="cls-2" d="m89.5,44.2c.03,16.37.06,32.72.09,48.95.19-.24.38-.47.57-.7l.03-48.94-.69.69Z"/><path class="cls-2" d="m91.76,41.94c.03,16.24.06,32.47.09,48.58.19-.2.38-.4.58-.6l.03-48.67-.69.69Z"/><path class="cls-2" d="m94.04,39.66c.03,16.25.06,32.48.09,48.61.19-.17.39-.34.58-.51l.03-48.8-.7.7Z"/><path class="cls-2" d="m96.32,37.38c.03,16.36.06,32.71.09,48.96.19-.15.39-.29.59-.44l.03-49.22-.7.7Z"/><path class="cls-2" d="m98.58,35.12c.03,16.56.06,33.1.09,49.55.19-.13.4-.24.59-.37l.03-49.88-.71.71Z"/><path class="cls-2" d="m100.86,32.84c.03,16.83.06,33.66.09,50.39.2-.12.39-.24.59-.36l.03-50.74-.71.71Z"/><path class="cls-2" d="m103.13,30.56c.03,17.17.06,34.35.09,51.42.2-.1.39-.21.6-.32l.03-51.82-.72.72Z"/><path class="cls-2" d="m105.4,28.3c.03,17.56.06,35.12.09,52.58.2-.09.4-.18.6-.26l.03-53.04-.72.72Z"/><path class="cls-2" d="m107.68,26.02c.03,17.98.06,35.98.09,53.87.2-.08.4-.14.6-.22l.03-54.38-.73.73Z"/><path class="cls-2" d="m109.95,23.74c.03,18.47.06,36.95.1,55.32.2-.07.4-.15.6-.22l.03-55.84-.73.73Z"/><path class="cls-2" d="m112.23,21.47c.03,18.98.06,37.99.1,56.87.2-.06.4-.12.61-.17l.03-57.43-.74.74Z"/><path class="cls-2" d="m114.5,19.2c.03,19.51.07,39.06.1,58.48.2-.05.41-.1.61-.15l.03-59.08-.74.74Z"/><path class="cls-2" d="m116.77,16.92c.03,20.1.07,40.24.1,60.24.2-.04.4-.09.61-.14l.04-60.86-.75.75Z"/><path class="cls-2" d="m119.05,14.64c.03,20.69.07,41.44.11,62.04.2-.04.41-.07.61-.1l.04-62.7-.75.75Z"/><path class="cls-2" d="m121.31,12.38c.03,21.32.07,42.7.11,63.93.21-.03.4-.07.61-.1l.04-64.59-.76.76Z"/><path class="cls-2" d="m123.59,10.1c.04,21.97.07,44.01.11,65.89.2-.03.41-.05.61-.07l.04-66.59-.76.76Z"/><path class="cls-2" d="m125.87,7.99c.04,22.58.08,45.24.12,67.75.21-.02.4-.05.61-.07l.04-67.98c-.26.1-.51.2-.77.3Z"/><path class="cls-2" d="m128.14,7.1c.04,22.81.08,45.71.12,68.45.2-.01.41-.03.61-.04l.04-68.69c-.26.09-.52.18-.77.28Z"/><path class="cls-2" d="m130.41,6.28c.04,23.03.08,46.16.12,69.12.21-.01.4-.03.61-.04l.04-69.34c-.26.09-.52.17-.77.26Z"/><path class="cls-2" d="m132.69,5.53c.04,23.26.08,46.61.12,69.8.2,0,.41,0,.61-.01l.04-70.03c-.26.08-.52.16-.77.25Z"/><path class="cls-2" d="m134.96,4.83c.04,23.47.08,47.04.12,70.45.21,0,.4-.01.61-.01l.04-70.67c-.26.07-.52.16-.77.23Z"/><path class="cls-2" d="m137.24,4.19c.04,23.69.08,47.49.12,71.11.21,0,.41,0,.61.01l.04-71.34c-.26.07-.52.14-.78.21Z"/><path class="cls-2" d="m139.52,3.6c.04,23.9.08,47.92.12,71.76.21.01.41.03.61.04l.04-71.99c-.26.06-.52.12-.78.19Z"/><path class="cls-2" d="m141.8,3.06c.04,24.14.08,48.39.12,72.46.2.02.41.03.61.05l.04-72.68c-.26.06-.52.11-.78.17Z"/><path class="cls-2" d="m144.07,2.57c.04,24.37.08,48.86.12,73.16.21.02.41.05.61.08l.04-73.39c-.26.05-.52.1-.78.15Z"/><path class="cls-2" d="m146.35,2.14c.04,24.61.08,49.35.13,73.89.2.03.41.05.61.08l.04-74.12c-.26.05-.52.1-.78.14Z"/><path class="cls-2" d="m148.63,1.75c.04,24.87.08,49.88.13,74.68.2.04.41.08.61.12l.04-74.93c-.26.04-.52.09-.78.13Z"/><path class="cls-2" d="m150.9,1.4c.04,25.14.08,50.42.13,75.5.21.05.4.11.61.16l.04-75.77c-.26.04-.52.07-.78.11Z"/><path class="cls-2" d="m153.18,1.09c.04,25.44.08,51.03.13,76.4.2.06.41.1.61.16l.04-76.65c-.26.03-.52.06-.78.09Z"/><path class="cls-2" d="m155.46.83c.04,25.77.09,51.69.13,77.39.2.07.41.13.61.2l.05-77.67c-.26.03-.52.05-.78.08Z"/><path class="cls-2" d="m157.73.61c.04,26.12.09,52.4.13,78.44.2.08.4.17.6.25l.05-78.77c-.26.02-.52.05-.78.07Z"/><path class="cls-2" d="m160.01.42c.04,26.51.09,53.18.14,79.6.21.1.4.21.6.31l.05-79.96c-.26.02-.52.04-.78.06Z"/><path class="cls-2" d="m162.29.26c.04,26.95.09,54.06.14,80.92.2.11.4.22.6.34l.05-81.29c-.26.01-.52.02-.78.04Z"/><path class="cls-2" d="m164.56.15c.04,27.44.09,55.06.14,82.4.2.13.4.24.6.37l.05-82.79c-.26,0-.52.02-.78.03Z"/><path class="cls-2" d="m166.84.07c.04,28,.09,56.18.14,84.07.2.15.4.28.59.43l.05-84.52c-.26,0-.52.02-.79.02Z"/><path class="cls-2" d="m169.11.02c.04,28.64.1,57.48.15,85.99.19.17.4.33.59.51L169.9.01c-.26,0-.52,0-.79,0Z"/><path class="cls-2" d="m171.39,0c.05,29.39.1,58.98.15,88.22.19.2.39.39.58.6L172.18.01c-.26,0-.52-.01-.79-.01Z"/><path class="cls-2" d="m173.66.03c.05,30.26.1,60.73.16,90.81.19.25.39.49.58.74l.05-91.54c-.26,0-.52,0-.79-.01Z"/><path class="cls-2" d="m175.94.06c.05,31.33.1,62.88.16,93.99.2.31.38.64.57.96l.06-94.92c-.26,0-.52-.02-.79-.03Z"/><path class="cls-2" d="m178.23.16c.05,32.68.11,65.6.17,98.01.18.37.38.73.56,1.12l.06-99.09c-.26-.01-.52-.02-.78-.03Z"/><path class="cls-2" d="m180.5.25c.05,34.5.12,69.27.18,103.42.19.56.37,1.14.54,1.73l.06-105.09c-.26-.02-.52-.03-.78-.05Z"/><path class="cls-2" d="m182.78.41c.06,37.53.13,75.38.2,112.39.19,1.01.36,2.05.52,3.12l.07-115.46c-.26-.02-.52-.04-.78-.06Z"/><path class="cls-2" d="m185.06.58c.18,114.19.44,231.34.59,318.79h0s.19-318.71.19-318.71c-.26-.02-.52-.05-.78-.08Z"/><path class="cls-2" d="m187.33.81c.18,115.11.45,233.21.6,320.83h0l.19-320.75c-.26-.03-.52-.06-.78-.08Z"/><path class="cls-2" d="m190.2,323.92h0c0-.75,0-1.51,0-2.27v2.27Z"/><path class="cls-2" d="m190.39,1.16c-.26-.03-.52-.08-.78-.11.18,115.03.45,233.04.6,320.6l.19-320.49Z"/><path class="cls-2" d="m192.48,326.2h.01c0-1.5,0-3.02,0-4.55v4.55Z"/><path class="cls-2" d="m192.67,1.48c-.26-.04-.52-.07-.78-.11.18,114.93.45,232.8.6,320.28l.19-320.18Z"/><path class="cls-2" d="m194.94,1.83c-.26-.04-.52-.09-.78-.14.18,114.83.45,232.56.59,319.97l.19-319.83Z"/><path class="cls-2" d="m194.75,328.47l.02.02c0-2.26,0-4.53-.01-6.83v6.81Z"/><path class="cls-2" d="m197.22,2.22c-.26-.05-.52-.09-.78-.14.18,114.71.45,232.26.59,319.56l.19-319.43Z"/><path class="cls-2" d="m197.03,330.75l.02.02c0-3,0-6.04-.02-9.12v9.1Z"/><path class="cls-2" d="m199.31,333.03l.03.03c0-3.74-.01-7.54-.02-11.4v11.37Z"/><path class="cls-2" d="m199.5,2.67c-.26-.05-.52-.11-.78-.17.18,114.57.45,231.95.59,319.15l.19-318.98Z"/><path class="cls-2" d="m201.78,3.16c-.26-.06-.52-.11-.78-.17.18,114.42.45,231.59.59,318.66l.19-318.49Z"/><path class="cls-2" d="m201.58,335.31l.03.03c0-4.47-.01-9.03-.02-13.68v13.65Z"/><path class="cls-2" d="m204.05,3.71c-.26-.07-.52-.13-.78-.2.18,114.25.45,231.2.59,318.14l.19-317.94Z"/><path class="cls-2" d="m203.85,337.57l.04.04c0-5.2-.02-10.51-.03-15.95v15.92Z"/><path class="cls-2" d="m206.33,4.3c-.26-.07-.52-.14-.78-.21.18,114.07.45,230.77.59,317.56l.19-317.35Z"/><path class="cls-2" d="m206.13,339.85l.04.04c0-5.92-.02-12-.03-18.24v18.2Z"/><path class="cls-2" d="m208.41,342.13l.05.05c-.01-6.63-.02-13.48-.03-20.52v20.48Z"/><path class="cls-2" d="m208.61,4.97c-.26-.08-.52-.15-.77-.23.18,113.87.44,230.29.59,316.91l.18-316.69Z"/><path class="cls-2" d="m210.88,5.68c-.26-.09-.51-.18-.77-.26.18,113.65.44,229.78.59,316.24l.18-315.98Z"/><path class="cls-2" d="m210.68,344.4l.05.05c-.01-7.34-.02-14.94-.04-22.79v22.74Z"/><path class="cls-2" d="m212.96,346.68l.05.05c-.01-8.04-.03-16.41-.04-25.08v25.03Z"/><path class="cls-2" d="m213.16,6.45c-.25-.09-.52-.17-.77-.26.18,113.4.44,229.2.59,315.46l.18-315.2Z"/><path class="cls-2" d="m215.24,348.96l.06.06c-.01-8.74-.03-17.87-.04-27.36l-.02,27.3Z"/><path class="cls-2" d="m215.44,7.31c-.26-.1-.51-.2-.77-.3.18,113.14.44,228.59.59,314.64l.18-314.35Z"/><path class="cls-2" d="m217.71,8.21c-.26-.11-.51-.22-.77-.32.18,112.86.44,227.93.59,313.76l.18-313.44Z"/><path class="cls-2" d="m217.51,351.23l.06.06c-.01-9.42-.03-19.32-.05-29.64l-.02,29.57Z"/><path class="cls-2" d="m219.78,353.51l.07.07c-.01-10.1-.03-20.76-.05-31.92l-.02,31.85Z"/><path class="cls-2" d="m219.98,9.21c-.25-.11-.51-.22-.77-.33.18,112.55.44,227.2.58,312.78l.18-312.45Z"/><path class="cls-2" d="m222.26,10.29c-.25-.12-.51-.25-.76-.37.18,112.21.44,226.42.58,311.74l.18-311.36Z"/><path class="cls-2" d="m222.06,355.78l.07.07c-.02-10.77-.03-22.2-.05-34.2l-.02,34.13Z"/><path class="cls-2" d="m224.53,11.43c-.25-.13-.51-.27-.76-.4.18,111.85.44,225.59.58,310.62l.18-310.22Z"/><path class="cls-2" d="m224.33,358.05l.08.08c-.02-11.43-.03-23.63-.06-36.48l-.02,36.4Z"/><path class="cls-2" d="m226.81,12.68c-.25-.14-.51-.28-.76-.42.18,111.45.44,224.67.58,309.39l.18-308.97Z"/><path class="cls-2" d="m226.61,360.33l.08.08c-.02-12.09-.04-25.05-.06-38.76l-.02,38.68Z"/><path class="cls-2" d="m229.09,14.05c-.25-.15-.5-.31-.76-.46.18,111.03.43,223.68.58,308.07l.18-307.6Z"/><path class="cls-2" d="m228.89,362.61l.09.09c-.02-12.74-.04-26.47-.06-41.04l-.02,40.96Z"/><path class="cls-2" d="m231.37,15.51c-.25-.17-.5-.34-.75-.51.18,110.57.43,222.63.57,306.66l.18-306.15Z"/><path class="cls-2" d="m231.17,364.89l.09.09c-.02-13.37-.04-27.87-.07-43.32l-.03,43.23Z"/><path class="cls-2" d="m233.44,367.16l.1.1c-.02-14-.04-29.27-.07-45.6l-.03,45.5Z"/><path class="cls-2" d="m233.64,17.08c-.08-.06-.15-.13-.22-.19-.17-.12-.35-.24-.53-.36.18,110.07.43,221.48.57,305.12l.18-304.57Z"/><path class="cls-2" d="m235.92,19.03c-.25-.22-.5-.43-.74-.64.18,109.47.43,220.1.57,303.27l.18-302.63Z"/><path class="cls-2" d="m235.71,369.44l.1.1c-.02-14.61-.04-30.66-.07-47.88l-.03,47.78Z"/><path class="cls-2" d="m237.99,371.71l.1.1c-.02-15.22-.04-32.04-.07-50.17l-.03,50.06Z"/><path class="cls-2" d="m238.2,21.11c-.24-.23-.49-.45-.74-.68.18,108.8.43,218.57.56,301.22l.18-300.54Z"/><path class="cls-2" d="m240.47,23.32c-.24-.24-.49-.49-.74-.73.18,108.09.42,216.95.56,299.06l.17-298.33Z"/><path class="cls-2" d="m240.26,373.98l.11.11c-.02-15.81-.04-33.4-.08-52.44l-.03,52.33Z"/><path class="cls-2" d="m242.75,25.71c-.24-.26-.48-.52-.73-.78.18,107.32.42,215.22.56,296.73l.17-295.95Z"/><path class="cls-2" d="m242.54,376.26l.11.11c-.02-16.4-.05-34.76-.08-54.72l-.03,54.61Z"/><path class="cls-2" d="m245.02,28.27c-.24-.28-.48-.57-.72-.85.18,106.49.42,213.35.55,294.23l.17-293.38Z"/><path class="cls-2" d="m244.82,378.54l.12.12c-.02-16.97-.05-36.12-.08-57l-.03,56.89Z"/><path class="cls-2" d="m247.29,31.02c-.24-.3-.47-.61-.72-.91.18,105.6.41,211.34.55,291.54l.17-290.64Z"/><path class="cls-2" d="m247.09,380.81l.12.12c-.02-17.52-.05-37.45-.08-59.27l-.03,59.15Z"/><path class="cls-2" d="m249.57,34c-.24-.32-.47-.64-.71-.96.18,104.63.41,209.15.54,288.61l.17-287.65Z"/><path class="cls-2" d="m249.37,383.09l.12.12c-.02-18.07-.05-38.78-.09-61.56l-.04,61.44Z"/><path class="cls-2" d="m251.65,385.37l.13.13c-.02-18.6-.05-40.1-.09-63.84l-.04,63.71Z"/><path class="cls-2" d="m251.85,37.23c-.23-.34-.47-.68-.7-1.02.18,103.57.41,206.78.54,285.44l.17-284.43Z"/><path class="cls-2" d="m254.12,40.78c-.23-.38-.46-.76-.7-1.13.18,102.41.4,204.22.53,282.01l.16-280.88Z"/><path class="cls-2" d="m253.91,387.64l.13.13c-.02-19.11-.05-41.4-.09-66.11l-.04,65.98Z"/><path class="cls-2" d="m256.39,44.69c-.23-.41-.46-.82-.69-1.22.17,101.12.4,201.37.53,278.19l.16-276.96Z"/><path class="cls-2" d="m256.19,389.91l.13.13c-.02-19.61-.05-42.69-.09-68.39l-.04,68.26Z"/><path class="cls-2" d="m258.67,49.04c-.22-.45-.45-.9-.68-1.35.17,99.68.39,198.22.52,273.97l.16-272.61Z"/><path class="cls-2" d="m258.47,392.19l.14.14c-.02-20.1-.05-43.97-.1-70.67l-.04,70.54Z"/><path class="cls-2" d="m260.95,53.93c-.22-.5-.44-.99-.67-1.48.17,98.05.38,194.66.51,269.2l.16-267.72Z"/><path class="cls-2" d="m260.75,394.47l.14.14c-.02-20.56-.05-45.23-.1-72.96l-.04,72.82Z"/><path class="cls-2" d="m263.22,55.58c-.22.36-.44.72-.66,1.09.17,96.6.38,191.51.5,264.98l.16-266.07Z"/><path class="cls-2" d="m263.02,396.74l.14.14c-.02-21.01-.05-46.47-.1-75.23l-.04,75.08Z"/><path class="cls-2" d="m265.3,399.02l.15.15c-.01-21.43-.05-47.71-.1-77.51l-.05,77.37Z"/><path class="cls-2" d="m265.5,51.9c-.22.35-.45.68-.67,1.03.17,97.89.38,194.3.51,268.72l.16-269.76Z"/><path class="cls-2" d="m267.78,48.44c-.22.33-.45.65-.67.98.17,99.09.39,196.93.52,272.24l.16-273.22Z"/><path class="cls-2" d="m267.58,401.3l.15.15c-.01-21.84-.05-48.92-.1-79.79l-.05,79.64Z"/><path class="cls-2" d="m269.84,403.57l.15.15c-.01-22.22-.05-50.11-.1-82.06l-.05,81.91Z"/><path class="cls-2" d="m270.05,45.21c-.23.31-.46.62-.68.93.17,100.21.39,199.37.52,275.51l.16-276.45Z"/><path class="cls-2" d="m272.34,42.15c-.23.3-.46.6-.69.9.17,101.26.4,201.67.53,278.59l.16-279.5Z"/><path class="cls-2" d="m272.12,405.84l.15.15c-.01-22.58-.05-51.29-.1-84.35l-.05,84.19Z"/><path class="cls-2" d="m273.92,40.16c.05,29.93.11,59.8.16,89.04.14-1.26.3-2.5.48-3.72l.05-86.2c-.24.29-.46.59-.7.88Z"/><path class="cls-2" d="m276.19,37.44c.05,26.52.09,53,.14,79.05.16-.65.34-1.3.51-1.94l.05-77.94c-.24.27-.47.55-.7.82Z"/><path class="cls-2" d="m278.46,34.86c.04,24.85.09,49.69.13,74.17.18-.49.35-.98.53-1.46l.04-73.49c-.24.26-.47.51-.71.77Z"/><path class="cls-2" d="m280.74,32.42c.04,23.79.08,47.58.13,71.08.18-.38.36-.75.55-1.12l.04-70.68c-.24.24-.48.48-.71.72Z"/></svg>