<?xml version="1.0" encoding="UTF-8"?><svg id="_レイヤー_1" xmlns="http://www.w3.org/2000/svg" viewBox="0 0 218.29 294.48"><defs><style>.cls-1{fill:none;}.cls-2{fill:#221f20;}</style></defs><path class="cls-1" d="m15.18,0h-2.79c-.03,6.05-.05,12.06-.08,17.99.1,87.81.49,175.76.49,263.68l1.95-1.95c0-87.27.39-174.57.49-261.74-.02-5.93-.04-11.94-.06-17.99Z"/><path class="cls-1" d="m124.42,0h-2.79c-.03,6.05-.05,12.06-.08,17.99.03,28.63.1,57.27.17,85.92h2.59c.07-28.65.14-57.3.17-85.92-.02-5.93-.04-11.94-.06-17.99Z"/><path class="cls-1" d="m120.89,0h-2.77c-.03,6.05-.05,12.06-.08,17.99.03,28.63.1,57.27.17,85.92h2.57c.07-28.65.14-57.3.17-85.92-.02-5.93-.04-11.94-.06-17.99Z"/><path class="cls-1" d="m145.57,3.46l-2.78-2.78c-.02,5.82-.05,11.6-.08,17.32.03,28.63.1,57.27.17,85.92h2.57c.07-28.65.14-57.3.17-85.92-.01-4.8-.03-9.65-.04-14.53Z"/><path class="cls-1" d="m113.84,0h-2.79c-.03,6.05-.05,12.06-.08,17.99.03,28.63.1,57.27.17,85.92h2.59c.07-28.65.14-57.3.17-85.92-.02-5.93-.04-11.94-.06-17.99Z"/><path class="cls-1" d="m117.37,0h-2.79c-.03,6.05-.05,12.06-.08,17.99.03,28.63.1,57.27.17,85.92h2.58c.07-28.65.14-57.3.17-85.92-.02-5.93-.04-11.94-.06-17.99Z"/><path class="cls-1" d="m138.51,0h-2.79c-.03,6.05-.05,12.06-.08,17.99.03,28.63.1,57.27.17,85.92h2.58c.07-28.65.14-57.3.17-85.92-.02-5.93-.04-11.94-.06-17.99Z"/><path class="cls-1" d="m110.31,0h-2.77c-.03,6.05-.05,12.06-.08,17.99.03,28.63.1,57.27.17,85.92h2.57c.07-28.65.14-57.3.17-85.92-.02-5.93-.04-11.94-.06-17.99Z"/><path class="cls-1" d="m131.46,0h-2.78c-.03,6.05-.05,12.06-.08,17.99.03,28.63.1,57.27.17,85.92h2.58c.07-28.65.14-57.3.17-85.92-.02-5.93-.04-11.94-.06-17.99Z"/><path class="cls-1" d="m142.04,0h-2.79c-.03,6.05-.05,12.06-.08,17.99.03,28.63.1,57.27.17,85.92h2.58c.07-28.65.14-57.3.17-85.92-.02-5.93-.04-11.94-.06-17.99Z"/><path class="cls-1" d="m134.98,0h-2.77c-.03,6.05-.05,12.06-.08,17.99.03,28.63.1,57.27.17,85.92h2.57c.07-28.65.14-57.3.17-85.92-.02-5.93-.04-11.94-.06-17.99Z"/><path class="cls-1" d="m127.93,0h-2.77c-.03,6.05-.05,12.06-.08,17.99.03,28.63.1,57.27.17,85.92h2.57c.07-28.65.14-57.3.17-85.92-.02-5.93-.04-11.94-.06-17.99Z"/><path class="cls-1" d="m82.13,0h-2.79c-.03,6.05-.05,12.06-.08,17.99.03,28.63.1,57.27.17,85.92h2.59c.07-28.65.14-57.3.17-85.92-.02-5.93-.04-11.94-.06-17.99Z"/><path class="cls-1" d="m213.26,71.15c0,3.35.02,6.7.02,10.05l2.7-2.7c0-1.53,0-3.07.01-4.61l-2.74-2.74Z"/><path class="cls-1" d="m85.65,0h-2.77c-.03,6.05-.05,12.06-.08,17.99.03,28.63.1,57.27.17,85.92h2.57c.07-28.65.14-57.3.17-85.92-.02-5.93-.04-11.94-.06-17.99Z"/><path class="cls-1" d="m75.09,0h-2.79c-.03,6.05-.05,12.06-.08,17.99.03,28.63.1,57.27.17,85.92h2.58c.07-28.65.14-57.3.17-85.92-.02-5.93-.04-11.94-.06-17.99Z"/><path class="cls-1" d="m78.6,0h-2.77c-.03,6.05-.05,12.06-.08,17.99.03,28.63.1,57.27.17,85.92h2.57c.07-28.65.14-57.3.17-85.92-.02-5.93-.04-11.94-.06-17.99Z"/><path class="cls-1" d="m99.75,0h-2.79c-.03,6.05-.05,12.06-.08,17.99.03,28.63.1,57.27.17,85.92h2.59c.07-28.65.14-57.3.17-85.92-.02-5.93-.04-11.94-.06-17.99Z"/><path class="cls-1" d="m92.69,0h-2.77c-.03,6.05-.05,12.06-.08,17.99.03,28.63.1,57.27.17,85.92h2.57c.07-28.65.14-57.3.17-85.92-.02-5.93-.04-11.94-.06-17.99Z"/><path class="cls-1" d="m106.8,0h-2.79c-.03,6.05-.05,12.06-.08,17.99.03,28.63.1,57.27.17,85.92h2.59c.07-28.65.14-57.3.17-85.92-.02-5.93-.04-11.94-.06-17.99Z"/><path class="cls-1" d="m103.27,0h-2.77c-.03,6.05-.05,12.06-.08,17.99.03,28.63.1,57.27.17,85.92h2.57c.07-28.65.14-57.3.17-85.92-.02-5.93-.04-11.94-.06-17.99Z"/><path class="cls-1" d="m96.22,0h-2.79c-.03,6.05-.05,12.06-.08,17.99.03,28.63.1,57.27.17,85.92h2.58c.07-28.65.14-57.3.17-85.92-.02-5.93-.04-11.94-.06-17.99Z"/><path class="cls-1" d="m89.18,0h-2.79c-.03,6.05-.05,12.06-.08,17.99.03,28.63.1,57.27.17,85.92h2.59c.07-28.65.14-57.3.17-85.92-.02-5.93-.04-11.94-.06-17.99Z"/><path class="cls-1" d="m199.15,57.04c.02,12.74.05,25.47.08,38.22l2.63-2.63c.03-10.93.05-21.87.07-32.8l-2.79-2.79Z"/><path class="cls-1" d="m181.49,39.39c.03,21.5.08,43.01.13,64.53h2.58c.05-20.57.09-41.13.13-61.68l-2.85-2.85Z"/><path class="cls-1" d="m195.61,53.5c.03,15.09.06,30.18.1,45.27l2.62-2.62c.03-13.29.06-26.57.09-39.86l-2.8-2.8Z"/><path class="cls-1" d="m188.55,46.45c.03,19.15.07,38.31.12,57.47h1.89l.69-.69c.04-17.99.08-35.97.11-53.96l-2.82-2.82Z"/><path class="cls-1" d="m185.03,42.93c.03,20.32.08,40.65.13,60.99h2.57c.05-19.4.09-38.79.12-58.17l-2.82-2.82Z"/><path class="cls-1" d="m192.09,49.98c.03,17.43.07,34.86.11,52.3l2.58-2.58c.04-15.64.07-31.29.1-46.92l-2.79-2.79Z"/><path class="cls-1" d="m149.11,7l-2.83-2.83c-.02,4.64-.04,9.25-.06,13.82.03,28.63.1,57.27.17,85.92h2.59c.07-28.65.14-57.3.17-85.92-.01-3.64-.02-7.31-.03-10.99Z"/><path class="cls-1" d="m206.2,64.1c.02,8.04.03,16.09.05,24.13l2.67-2.67c.01-6.23.03-12.47.04-18.7l-2.76-2.76Z"/><path class="cls-1" d="m216.8,77.68l1.49-1.49-1.5-1.5c0,1,0,1.99,0,2.99Z"/><path class="cls-1" d="m202.68,60.58c.02,10.38.04,20.77.07,31.16l2.64-2.64c.02-8.59.04-17.18.06-25.76l-2.76-2.76Z"/><path class="cls-1" d="m209.74,67.63c.01,5.69.02,11.38.04,17.07l2.67-2.67c0-3.89.02-7.78.03-11.67l-2.73-2.73Z"/><path class="cls-1" d="m177.96,35.85c.03,22.68.08,45.37.14,68.06h2.59c.05-21.74.1-43.48.13-65.21l-2.86-2.86Z"/><path class="cls-1" d="m156.17,14.07l-2.88-2.88c-.01,2.28-.02,4.55-.03,6.81.03,28.63.1,57.27.17,85.92h2.59c.07-28.65.14-57.3.17-85.92,0-1.3,0-2.62-.01-3.93Z"/><path class="cls-1" d="m159.71,17.61l-2.91-2.91c0,1.1-.01,2.2-.02,3.29.03,28.63.1,57.27.17,85.92h2.59c.07-28.65.14-57.3.17-85.92,0-.13,0-.26,0-.38Z"/><path class="cls-1" d="m152.63,10.53l-2.84-2.84c-.02,3.45-.03,6.89-.05,10.3.03,28.63.1,57.27.17,85.92h2.57c.07-28.65.14-57.3.17-85.92,0-2.48-.01-4.97-.02-7.47Z"/><path class="cls-1" d="m160.32,18.22c.03,28.55.1,57.12.17,85.7h2.57c.07-27.61.13-55.21.16-82.8l-2.9-2.9Z"/><path class="cls-1" d="m163.84,21.74c.03,27.38.09,54.78.16,82.18h2.59c.07-26.43.12-52.86.16-79.27l-2.91-2.91Z"/><path class="cls-1" d="m174.44,32.33c.03,23.85.09,47.71.14,71.58h2.57c.06-22.92.11-45.83.14-68.73l-2.85-2.85Z"/><path class="cls-1" d="m170.9,28.8c.03,25.03.09,50.07.15,75.12h2.59c.06-24.09.11-48.17.15-72.24l-2.88-2.88Z"/><path class="cls-1" d="m167.38,25.28c.03,26.2.09,52.42.16,78.64h2.57c.06-25.26.12-50.52.15-75.76l-2.88-2.88Z"/><path class="cls-1" d="m71.56,0h-2.79c-.03,6.05-.05,12.06-.08,17.99.03,28.63.1,57.27.17,85.92h2.59c.07-28.65.14-57.3.17-85.92-.02-5.93-.04-11.94-.06-17.99Z"/><path class="cls-1" d="m32.8,0h-2.79c-.03,6.05-.05,12.06-.08,17.99.09,81.95.43,164.02.48,246.07l1.97-1.97c.05-81.4.39-162.81.48-244.11-.02-5.93-.04-11.94-.06-17.99Z"/><path class="cls-1" d="m57.47,0h-2.79c-.03,6.05-.05,12.06-.08,17.99.08,73.74.37,147.58.46,221.42l1.99-1.99c.09-73.17.38-146.35.46-219.43-.02-5.93-.04-11.94-.06-17.99Z"/><path class="cls-1" d="m36.32,0h-2.77c-.03,6.05-.05,12.06-.08,17.99.09,80.77.42,161.67.48,242.54l1.96-1.96c.06-80.23.39-160.47.48-240.59-.02-5.93-.04-11.94-.06-17.99Z"/><path class="cls-1" d="m11.65,0h-2.77c-.03,6.05-.05,12.06-.08,17.99.1,88.98.5,178.11.49,267.2l1.93-1.93c0-88.45.39-176.93.49-265.27-.02-5.93-.04-11.94-.06-17.99Z"/><path class="cls-1" d="m53.94,0h-2.79c-.03,6.05-.05,12.06-.08,17.99.08,74.92.38,149.94.47,224.95l1.99-1.99c.09-74.35.38-148.71.47-222.96-.02-5.93-.04-11.94-.06-17.99Z"/><path class="cls-1" d="m8.14,0h-2.79c-.03,6.05-.05,12.06-.08,17.99.1,90.16.52,180.46.49,270.73l1.94-1.94c-.02-89.62.39-179.28.49-268.78-.02-5.93-.04-11.94-.06-17.99Z"/><path class="cls-1" d="m22.23,0h-2.79c-.03,6.05-.05,12.06-.08,17.99.09,85.47.47,171.07.48,256.64l1.96-1.96c.02-84.92.39-169.87.48-254.69-.02-5.93-.04-11.94-.06-17.99Z"/><path class="cls-1" d="m43.36,0h-2.77c-.03,6.05-.05,12.06-.08,17.99.09,78.43.4,156.97.47,235.5l1.96-1.96c.07-77.88.39-155.77.47-233.54-.02-5.93-.04-11.94-.06-17.99Z"/><path class="cls-1" d="m64.51,0h-2.79c-.03,6.05-.05,12.06-.08,17.99.08,71.4.36,142.89.46,214.39l2.02-2.02c.1-70.82.37-141.64.45-212.37-.02-5.93-.04-11.94-.06-17.99Z"/><path class="cls-1" d="m46.89,0h-2.79c-.03,6.05-.05,12.06-.08,17.99.08,77.26.4,154.63.47,231.99l1.98-1.98c.08-76.7.39-153.41.47-230.01-.02-5.93-.04-11.94-.06-17.99Z"/><path class="cls-1" d="m25.74,0h-2.77c-.03,6.05-.05,12.06-.08,17.99.09,84.29.45,168.72.48,253.11l1.94-1.94c.03-83.75.39-167.53.48-251.17-.02-5.93-.04-11.94-.06-17.99Z"/><path class="cls-1" d="m29.27,0h-2.79c-.03,6.05-.05,12.06-.08,17.99.09,83.12.44,166.37.48,249.6l1.97-1.97c.04-82.57.39-165.17.48-247.64-.02-5.93-.04-11.94-.06-17.99Z"/><path class="cls-1" d="m39.85,0h-2.79c-.03,6.05-.05,12.06-.08,17.99.09,79.61.41,159.33.47,239.03l1.98-1.98c.07-79.05.39-158.11.47-237.06-.02-5.93-.04-11.94-.06-17.99Z"/><path class="cls-1" d="m18.7,0h-2.77c-.03,6.05-.05,12.06-.08,17.99.1,86.64.48,173.41.49,260.16l1.94-1.94c.01-86.1.39-172.23.48-258.22-.02-5.93-.04-11.94-.06-17.99Z"/><path class="cls-1" d="m50.41,0h-2.77c-.03,6.05-.05,12.06-.08,17.99.08,76.09.39,152.28.47,228.46l1.97-1.97c.08-75.53.38-151.06.47-226.49-.02-5.93-.04-11.94-.06-17.99Z"/><path class="cls-1" d="m60.98,0h-2.77c-.03,6.05-.05,12.06-.08,17.99.08,72.57.37,145.23.46,217.89l1.99-1.99c.1-72,.38-144,.46-215.91-.02-5.93-.04-11.94-.06-17.99Z"/><path class="cls-1" d="m4.61,0H1.82c-.03,6.05-.05,12.06-.08,17.99.1,91.33.53,182.82.49,274.26l1.94-1.94c-.03-90.79.39-181.63.49-272.32-.02-5.93-.04-11.94-.06-17.99Z"/><path class="cls-1" d="m68.03,0h-2.77c-.03,6.05-.05,12.06-.08,17.99.08,70.23.34,140.54.45,210.86l1.9-1.9v-123.04h.39c.07-28.65.14-57.3.17-85.92-.02-5.93-.04-11.94-.06-17.99Z"/><path class="cls-1" d="m1.13,17.99c-.02-5.93-.04-11.94-.06-17.99h-.36v103.92l-.72,190.57.65-.65c-.04-91.97.39-183.98.49-275.84Z"/><path class="cls-2" d="m1.74,17.99c.03-5.94.06-11.94.08-17.99h-.74c.02,6.05.04,12.06.06,17.99-.1,91.86-.53,183.88-.49,275.84l1.59-1.59c.04-91.44-.39-182.92-.49-274.26Z"/><path class="cls-2" d="m5.35,0h-.74c.02,6.05.04,12.06.06,17.99-.1,90.68-.52,181.52-.49,272.32l1.59-1.59c.02-90.26-.39-180.57-.49-270.73.03-5.94.06-11.94.08-17.99Z"/><path class="cls-2" d="m8.88,0h-.74c.02,6.05.04,12.06.06,17.99-.1,89.51-.51,179.17-.49,268.78l1.59-1.59c.01-89.09-.39-178.21-.49-267.2.03-5.94.06-11.94.08-17.99Z"/><path class="cls-2" d="m12.4,0h-.74c.02,6.05.04,12.06.06,17.99-.1,88.34-.49,176.82-.49,265.27l1.58-1.58c0-87.92-.39-175.87-.49-263.68.03-5.94.06-11.94.08-17.99Z"/><path class="cls-2" d="m15.93,0h-.74c.02,6.05.04,12.06.06,17.99-.1,87.16-.48,174.47-.49,261.74l1.58-1.58c0-86.74-.39-173.52-.49-260.16.03-5.94.06-11.94.08-17.99Z"/><path class="cls-2" d="m19.44,0h-.74c.02,6.05.04,12.06.06,17.99-.09,85.99-.47,172.12-.48,258.22l1.58-1.58c-.02-85.57-.39-171.17-.48-256.64.03-5.94.06-11.94.08-17.99Z"/><path class="cls-2" d="m22.97,0h-.74c.02,6.05.04,12.06.06,17.99-.09,84.81-.46,169.76-.48,254.69l1.57-1.57c-.03-84.4-.39-168.82-.48-253.11.03-5.94.06-11.94.08-17.99Z"/><path class="cls-2" d="m26.49,0h-.74c.02,6.05.04,12.06.06,17.99-.09,83.64-.45,167.42-.48,251.17l1.57-1.57c-.04-83.23-.39-166.48-.48-249.6.03-5.94.06-11.94.08-17.99Z"/><path class="cls-2" d="m30.02,0h-.74c.02,6.05.04,12.06.06,17.99-.09,82.47-.44,165.06-.48,247.64l1.56-1.56c-.05-82.05-.39-164.12-.48-246.07.03-5.94.06-11.94.08-17.99Z"/><path class="cls-2" d="m33.55,0h-.74c.02,6.05.04,12.06.06,17.99-.09,81.29-.43,162.71-.48,244.11l1.56-1.56c-.05-80.88-.39-161.77-.48-242.54.03-5.94.06-11.94.08-17.99Z"/><path class="cls-2" d="m37.06,0h-.74c.02,6.05.04,12.06.06,17.99-.09,80.12-.42,160.36-.48,240.59l1.56-1.56c-.06-79.71-.39-159.43-.47-239.03.03-5.94.06-11.94.08-17.99Z"/><path class="cls-2" d="m40.59,0h-.74c.02,6.05.04,12.06.06,17.99-.09,78.95-.41,158.01-.47,237.06l1.55-1.55c-.07-78.53-.39-157.07-.47-235.5.03-5.94.06-11.94.08-17.99Z"/><path class="cls-2" d="m44.11,0h-.74c.02,6.05.04,12.06.06,17.99-.09,77.78-.4,155.66-.47,233.54l1.55-1.55c-.07-77.36-.39-154.73-.47-231.99.03-5.94.06-11.94.08-17.99Z"/><path class="cls-2" d="m47.64,0h-.74c.02,6.05.04,12.06.06,17.99-.08,76.6-.39,153.31-.47,230.01l1.55-1.55c-.08-76.18-.39-152.38-.47-228.46.03-5.94.06-11.94.08-17.99Z"/><path class="cls-2" d="m51.15,0h-.74c.02,6.05.04,12.06.06,17.99-.08,75.43-.38,150.96-.47,226.49l1.54-1.54c-.09-75.01-.38-150.03-.47-224.95.03-5.94.06-11.94.08-17.99Z"/><path class="cls-2" d="m54.68,0h-.74c.02,6.05.04,12.06.06,17.99-.08,74.25-.38,148.61-.47,222.96l1.54-1.54c-.09-73.84-.38-147.68-.46-221.42.03-5.94.06-11.94.08-17.99Z"/><path class="cls-2" d="m58.21,0h-.74c.02,6.05.04,12.06.06,17.99-.08,73.08-.37,146.25-.46,219.43l1.53-1.53c-.1-72.66-.38-145.32-.46-217.89.03-5.94.06-11.94.08-17.99Z"/><path class="cls-2" d="m61.73,0h-.74c.02,6.05.04,12.06.06,17.99-.08,71.91-.36,143.91-.46,215.91l1.52-1.52c-.1-71.49-.38-142.99-.46-214.39.03-5.94.06-11.94.08-17.99Z"/><path class="cls-2" d="m65.26,0h-.74c.02,6.05.04,12.06.06,17.99-.08,70.73-.35,141.55-.45,212.37l1.51-1.51c-.1-70.32-.37-140.63-.45-210.86.03-5.94.06-11.94.08-17.99Z"/><path class="cls-2" d="m68.77,0h-.74c.02,6.05.04,12.06.06,17.99-.03,28.63-.1,57.27-.17,85.92h.95c-.07-28.65-.14-57.29-.17-85.92.03-5.94.06-11.94.08-17.99Z"/><path class="cls-2" d="m72.3,0h-.74c.02,6.05.04,12.06.06,17.99-.03,28.63-.1,57.27-.17,85.92h.95c-.07-28.65-.14-57.29-.17-85.92.03-5.94.06-11.94.08-17.99Z"/><path class="cls-2" d="m75.83,0h-.74c.02,6.05.04,12.06.06,17.99-.03,28.63-.1,57.27-.17,85.92h.95c-.07-28.65-.14-57.29-.17-85.92.03-5.94.06-11.94.08-17.99Z"/><path class="cls-2" d="m79.35,0h-.74c.02,6.05.04,12.06.06,17.99-.03,28.63-.1,57.27-.17,85.92h.95c-.07-28.65-.14-57.29-.17-85.92.03-5.94.06-11.94.08-17.99Z"/><path class="cls-2" d="m82.88,0h-.74c.02,6.05.04,12.06.06,17.99-.03,28.63-.1,57.27-.17,85.92h.95c-.07-28.65-.14-57.29-.17-85.92.03-5.94.06-11.94.08-17.99Z"/><path class="cls-2" d="m86.39,0h-.74c.02,6.05.04,12.06.06,17.99-.03,28.63-.1,57.27-.17,85.92h.95c-.07-28.65-.14-57.29-.17-85.92.03-5.94.06-11.94.08-17.99Z"/><path class="cls-2" d="m89.92,0h-.74c.02,6.05.04,12.06.06,17.99-.03,28.63-.1,57.27-.17,85.92h.95c-.07-28.65-.14-57.29-.17-85.92.03-5.94.06-11.94.08-17.99Z"/><path class="cls-2" d="m93.44,0h-.74c.02,6.05.04,12.06.06,17.99-.03,28.63-.1,57.27-.17,85.92h.95c-.07-28.65-.14-57.29-.17-85.92.03-5.94.06-11.94.08-17.99Z"/><path class="cls-2" d="m96.97,0h-.74c.02,6.05.04,12.06.06,17.99-.03,28.63-.1,57.27-.17,85.92h.95c-.07-28.65-.14-57.29-.17-85.92.03-5.94.06-11.94.08-17.99Z"/><path class="cls-2" d="m100.5,0h-.74c.02,6.05.04,12.06.06,17.99-.03,28.63-.1,57.27-.17,85.92h.95c-.07-28.65-.14-57.29-.17-85.92.03-5.94.06-11.94.08-17.99Z"/><path class="cls-2" d="m104.01,0h-.74c.02,6.05.04,12.06.06,17.99-.03,28.63-.1,57.27-.17,85.92h.95c-.07-28.65-.14-57.29-.17-85.92.03-5.94.06-11.94.08-17.99Z"/><path class="cls-2" d="m107.54,0h-.74c.02,6.05.04,12.06.06,17.99-.03,28.63-.1,57.27-.17,85.92h.95c-.07-28.65-.14-57.29-.17-85.92.03-5.94.06-11.94.08-17.99Z"/><path class="cls-2" d="m111.06,0h-.74c.02,6.05.04,12.06.06,17.99-.03,28.63-.1,57.27-.17,85.92h.95c-.07-28.65-.14-57.29-.17-85.92.03-5.94.06-11.94.08-17.99Z"/><path class="cls-2" d="m114.59,0h-.74c.02,6.05.04,12.06.06,17.99-.03,28.63-.1,57.27-.17,85.92h.95c-.07-28.65-.14-57.29-.17-85.92.03-5.94.06-11.94.08-17.99Z"/><path class="cls-2" d="m118.12,0h-.74c.02,6.05.04,12.06.06,17.99-.03,28.63-.1,57.27-.17,85.92h.95c-.07-28.65-.14-57.29-.17-85.92.03-5.94.06-11.94.08-17.99Z"/><path class="cls-2" d="m121.63,0h-.74c.02,6.05.04,12.06.06,17.99-.03,28.63-.1,57.27-.17,85.92h.95c-.07-28.65-.14-57.29-.17-85.92.03-5.94.06-11.94.08-17.99Z"/><path class="cls-2" d="m125.16,0h-.74c.02,6.05.04,12.06.06,17.99-.03,28.63-.1,57.27-.17,85.92h.95c-.07-28.65-.14-57.29-.17-85.92.03-5.94.06-11.94.08-17.99Z"/><path class="cls-2" d="m128.68,0h-.74c.02,6.05.04,12.06.06,17.99-.03,28.63-.1,57.27-.17,85.92h.95c-.07-28.65-.14-57.29-.17-85.92.03-5.94.06-11.94.08-17.99Z"/><path class="cls-2" d="m132.21,0h-.75c.02,6.05.04,12.06.06,17.99-.03,28.63-.1,57.27-.17,85.92h.95c-.07-28.65-.14-57.29-.17-85.92.03-5.94.06-11.94.08-17.99Z"/><path class="cls-2" d="m135.72,0h-.74c.02,6.05.04,12.06.06,17.99-.03,28.63-.1,57.27-.17,85.92h.95c-.07-28.65-.14-57.29-.17-85.92.03-5.94.06-11.94.08-17.99Z"/><path class="cls-2" d="m139.25,0h-.74c.02,6.05.04,12.06.06,17.99-.03,28.63-.1,57.27-.17,85.92h.95c-.07-28.65-.14-57.29-.17-85.92.03-5.94.06-11.94.08-17.99Z"/><path class="cls-2" d="m142.78.68l-.68-.68h-.07c.02,6.05.04,12.06.06,17.99-.03,28.63-.1,57.27-.17,85.92h.94c-.07-28.65-.14-57.29-.17-85.92.03-5.72.05-11.49.08-17.32Z"/><path class="cls-2" d="m146.28,4.17l-.72-.72c.02,4.88.03,9.73.04,14.53-.03,28.63-.1,57.27-.17,85.92h.95c-.07-28.65-.14-57.29-.17-85.92.02-4.57.04-9.18.06-13.82Z"/><path class="cls-2" d="m149.8,7.69l-.69-.69c.01,3.68.02,7.35.03,10.99-.03,28.63-.1,57.27-.17,85.92h.95c-.07-28.65-.14-57.29-.17-85.92.02-3.41.03-6.85.05-10.3Z"/><path class="cls-2" d="m153.29,11.19l-.66-.66c0,2.5.02,4.99.02,7.47-.03,28.63-.1,57.27-.17,85.92h.94c-.07-28.65-.14-57.29-.17-85.92.01-2.26.02-4.53.03-6.81Z"/><path class="cls-2" d="m156.81,14.7l-.63-.63c0,1.31,0,2.62.01,3.93-.03,28.63-.1,57.27-.17,85.92h.95c-.07-28.65-.14-57.29-.17-85.92,0-1.09.01-2.19.02-3.29Z"/><path class="cls-2" d="m159.71,17.61c0,.13,0,.26,0,.38-.03,28.63-.1,57.27-.17,85.92h.95c-.07-28.58-.14-57.15-.17-85.7l-.61-.61Z"/><path class="cls-2" d="m163.22,21.12c-.03,27.59-.09,55.19-.16,82.8h.95c-.07-27.4-.13-54.8-.16-82.18l-.62-.62Z"/><path class="cls-2" d="m166.75,24.65c-.03,26.41-.09,52.84-.16,79.27h.94c-.07-26.22-.12-52.44-.16-78.64l-.63-.63Z"/><path class="cls-2" d="m170.26,28.15c-.03,25.24-.09,50.5-.15,75.76h.95c-.06-25.05-.12-50.09-.15-75.12l-.64-.64Z"/><path class="cls-2" d="m173.78,31.68c-.03,24.07-.09,48.15-.15,72.24h.95c-.06-23.87-.11-47.73-.14-71.58l-.65-.65Z"/><path class="cls-2" d="m177.29,35.19c-.03,22.9-.08,45.81-.14,68.73h.94c-.06-22.69-.1-45.38-.14-68.06l-.67-.67Z"/><path class="cls-2" d="m180.82,38.71c-.03,21.73-.08,43.46-.13,65.21h.95c-.05-21.52-.1-43.02-.13-64.53l-.68-.68Z"/><path class="cls-2" d="m184.34,42.23c-.03,20.55-.08,41.11-.13,61.68h.95c-.05-20.34-.09-40.67-.13-60.99l-.69-.69Z"/><path class="cls-2" d="m187.85,45.74c-.03,19.39-.07,38.78-.12,58.17h.95c-.05-19.16-.09-38.32-.12-57.47l-.7-.7Z"/><path class="cls-2" d="m191.37,49.27c-.03,17.98-.07,35.97-.11,53.96l.94-.94c-.04-17.44-.08-34.87-.11-52.3l-.71-.71Z"/><path class="cls-2" d="m194.88,52.78c-.03,15.64-.06,31.28-.1,46.92l.92-.92c-.04-15.09-.07-30.19-.1-45.27l-.73-.73Z"/><path class="cls-2" d="m198.41,56.3c-.03,13.28-.05,26.57-.09,39.86l.91-.91c-.03-12.74-.06-25.48-.08-38.22l-.74-.74Z"/><path class="cls-2" d="m201.93,59.83c-.02,10.93-.04,21.86-.07,32.8l.89-.89c-.02-10.39-.05-20.77-.07-31.16l-.75-.75Z"/><path class="cls-2" d="m205.44,63.33c-.02,8.59-.04,17.17-.06,25.76l.87-.87c-.02-8.04-.04-16.09-.05-24.13l-.76-.76Z"/><path class="cls-2" d="m208.96,66.86c-.01,6.23-.03,12.47-.04,18.7l.85-.85c-.01-5.69-.03-11.38-.04-17.07l-.77-.77Z"/><path class="cls-2" d="m212.47,70.37c0,3.89-.02,7.78-.03,11.67l.84-.84c0-3.35-.02-6.7-.02-10.05l-.79-.79Z"/><path class="cls-2" d="m216,73.89c0,1.53,0,3.07-.01,4.61l.82-.82c0-1,0-1.99,0-2.99l-.8-.8Z"/></svg>