<?xml version="1.0" encoding="UTF-8"?><svg id="_レイヤー_2" xmlns="http://www.w3.org/2000/svg" viewBox="0 0 289.61 283.61"><defs><style>.cls-1{fill:none;}.cls-2{fill:#231815;}</style></defs><path class="cls-1" d="m82.26,206.41l-.04,73.48c.7.14,1.41.26,2.11.39-.04-23.15-.09-47.51-.14-72.67-.65-.39-1.29-.79-1.92-1.2Z"/><path class="cls-1" d="m86.8,209.12l-.04,71.59c.7.12,1.41.23,2.12.34-.04-22.62-.09-46.4-.14-70.95-.66-.32-1.3-.65-1.94-.98Z"/><path class="cls-1" d="m84.89,208.05c-.12-.07-.24-.15-.36-.23l-.04,72.48c.71.13,1.41.26,2.12.38-.04-22.87-.09-46.92-.14-71.76-.53-.29-1.06-.58-1.58-.88Z"/><path class="cls-1" d="m91.35,211.28l-.04,70.16c.7.1,1.41.2,2.12.29-.04-22.22-.09-45.56-.14-69.66-.66-.25-1.3-.51-1.95-.78Z"/><path class="cls-1" d="m187.09,34.06v10.72c.53.95,1.03,1.92,1.54,2.89,0-4.03-.01-8.07-.02-12.1l-1.52-1.52Z"/><path class="cls-1" d="m93.63,212.18l-.04,69.56c.71.09,1.41.19,2.12.27-.04-22.06-.09-45.22-.14-69.14-.66-.22-1.31-.45-1.95-.7Z"/><path class="cls-1" d="m95.91,212.99l-.04,69.05c.7.09,1.41.17,2.11.24-.04-21.91-.09-44.93-.13-68.69-.65-.19-1.3-.4-1.94-.61Z"/><path class="cls-1" d="m237.16,84.13l-.08,138.64,1.96-1.96c-.09-43.13-.18-88.87-.26-135.06l-1.62-1.62Z"/><path class="cls-1" d="m89.08,210.26l-.04,70.82c.7.11,1.4.22,2.11.33-.04-22.41-.09-45.96-.14-70.27-.65-.28-1.3-.57-1.93-.88Z"/><path class="cls-1" d="m68.59,194.93l-.05,81.71c.7.2,1.41.39,2.11.57-.05-25.52-.1-52.47-.16-80.3-.64-.65-1.29-1.31-1.91-1.98Z"/><path class="cls-1" d="m73.15,199.44l-.05,78.41c.7.18,1.4.34,2.1.51-.05-24.57-.1-50.48-.15-77.23-.65-.55-1.28-1.11-1.91-1.68Z"/><path class="cls-1" d="m70.87,197.3l-.05,79.96c.7.19,1.4.37,2.11.55-.05-25.02-.1-51.43-.15-78.7-.65-.59-1.29-1.19-1.91-1.81Z"/><path class="cls-1" d="m189.36,36.34v12.76c.53,1.09,1.05,2.19,1.55,3.31,0-4.85-.02-9.7-.02-14.55l-1.52-1.52Z"/><path class="cls-1" d="m66.32,192.28l-.05,83.7c.7.21,1.4.41,2.1.61-.05-26.07-.11-53.62-.16-82.08-.65-.72-1.27-1.48-1.89-2.23Z"/><path class="cls-1" d="m234.88,81.85l-.08,143.2,1.98-1.98c-.09-44.5-.18-91.83-.27-139.6l-1.63-1.63Z"/><path class="cls-1" d="m79.98,204.88l-.04,74.53c.71.15,1.41.3,2.12.44-.05-23.46-.09-48.16-.14-73.66-.65-.43-1.29-.87-1.93-1.31Z"/><path class="cls-1" d="m77.7,203.26l-.04,75.68c.7.16,1.41.3,2.12.45-.05-23.8-.1-48.86-.15-74.75-.64-.46-1.3-.9-1.93-1.37Z"/><path class="cls-1" d="m75.42,201.42l-.04,76.98c.7.17,1.41.34,2.12.5-.05-24.16-.1-49.63-.15-75.93-.65-.5-1.29-1.03-1.92-1.55Z"/><path class="cls-1" d="m125.51,216.81l-.04,66.77c.71,0,1.41-.02,2.12-.03-.04-21.33-.09-43.71-.13-66.81-.65.03-1.29.06-1.95.07Z"/><path class="cls-1" d="m203.02,49.99l-.12,206.96,2.06-2.06c-.12-62.97-.27-133.26-.38-203.35l-1.55-1.55Z"/><path class="cls-1" d="m122.56,216.85c-.54,0-1.07-.01-1.61-.02l-.04,66.76c.55,0,1.09.02,1.65.02.16,0,.32,0,.48,0-.04-21.31-.09-43.67-.13-66.76-.12,0-.23,0-.35,0Z"/><path class="cls-1" d="m116.4,216.68l-.04,66.84c.71.02,1.42.04,2.13.05-.04-21.33-.09-43.7-.13-66.8-.66-.02-1.31-.05-1.96-.09Z"/><path class="cls-1" d="m118.68,216.78l-.04,66.79c.7.01,1.41.02,2.12.02-.04-21.31-.09-43.68-.13-66.76-.65-.01-1.3-.03-1.95-.05Z"/><path class="cls-1" d="m123.23,216.85l-.04,66.76c.71,0,1.42-.01,2.13-.02-.04-21.31-.09-43.68-.13-66.77-.65.02-1.3.02-1.96.02Z"/><path class="cls-1" d="m64.04,189.33l-.05,85.95c.7.22,1.4.44,2.11.65-.05-26.69-.11-54.94-.17-84.11-.65-.81-1.27-1.65-1.89-2.49Z"/><path class="cls-1" d="m130.06,216.59l-.04,66.9c.71-.02,1.42-.05,2.13-.08-.04-21.38-.09-43.82-.13-66.98-.65.06-1.3.11-1.96.16Z"/><path class="cls-1" d="m239.43,86.4l-.08,134.1,1.96-1.96c-.08-41.75-.17-85.9-.25-130.5l-1.64-1.64Z"/><path class="cls-1" d="m127.78,216.73l-.04,66.82c.71-.02,1.42-.04,2.13-.06-.04-21.35-.09-43.75-.13-66.88-.65.04-1.3.09-1.96.12Z"/><path class="cls-1" d="m184.82,31.79v9.21c.05.09.12.18.18.27.46.74.9,1.5,1.34,2.25,0-3.41-.01-6.83-.02-10.24l-1.5-1.5Z"/><path class="cls-1" d="m100.46,214.31l-.04,68.23c.71.07,1.42.14,2.13.2-.04-21.69-.09-44.45-.13-67.95-.66-.15-1.31-.31-1.95-.47Z"/><path class="cls-1" d="m102.74,214.86l-.04,67.9c.7.06,1.41.12,2.12.18-.04-21.6-.09-44.27-.13-67.67-.66-.13-1.3-.26-1.94-.4Z"/><path class="cls-1" d="m98.18,213.69l-.04,68.61c.71.08,1.41.15,2.12.23-.04-21.79-.09-44.67-.13-68.29-.66-.17-1.31-.35-1.95-.54Z"/><path class="cls-1" d="m105.01,215.32l-.04,67.62c.71.05,1.42.1,2.13.15-.04-21.52-.09-44.11-.13-67.43-.66-.11-1.31-.23-1.95-.35Z"/><path class="cls-1" d="m114.12,216.53l-.04,66.93c.71.03,1.42.04,2.13.06-.04-21.34-.09-43.74-.13-66.86-.66-.04-1.31-.08-1.96-.13Z"/><path class="cls-1" d="m111.85,216.32l-.04,67.04c.7.03,1.41.06,2.12.09-.04-21.37-.09-43.8-.13-66.95-.65-.05-1.3-.11-1.95-.18Z"/><path class="cls-1" d="m107.29,215.72l-.04,67.39c.71.05,1.42.09,2.13.13-.04-21.46-.09-43.98-.13-67.23-.66-.09-1.31-.19-1.96-.29Z"/><path class="cls-1" d="m109.57,216.05l-.04,67.2c.71.04,1.42.07,2.13.11-.04-21.41-.09-43.88-.13-67.07-.66-.07-1.31-.15-1.96-.24Z"/><path class="cls-1" d="m36.77,116.26l-.09,147.71c.69.36,1.37.73,2.07,1.09-.09-46.85-.2-98.08-.29-150.49l-1.69,1.69Z"/><path class="cls-1" d="m9.42,143.6l-.06,101.78c.67.58,1.35,1.14,2.03,1.71-.07-33.51-.14-68.96-.21-105.26l-1.77,1.77Z"/><path class="cls-1" d="m4.89,148.14l-.05,93.15c.66.62,1.33,1.25,2,1.86-.06-30.93-.13-63.47-.19-96.77l-1.76,1.76Z"/><path class="cls-1" d="m11.7,141.32l-.06,105.98c.67.56,1.36,1.11,2.04,1.65-.07-34.75-.14-71.62-.21-109.39l-1.76,1.76Z"/><path class="cls-1" d="m193.91,40.88v19.13c.55,1.61,1.08,3.25,1.57,4.92-.01-7.5-.03-15.01-.04-22.51l-1.53-1.53Z"/><path class="cls-1" d="m7.15,145.88l-.06,97.5c.67.6,1.34,1.2,2.02,1.79-.06-32.23-.13-66.24-.2-101.05l-1.76,1.76Z"/><path class="cls-1" d="m20.82,132.21l-.07,122.03c.68.48,1.37.95,2.06,1.42-.08-39.46-.16-81.8-.24-125.19l-1.74,1.74Z"/><path class="cls-1" d="m18.54,134.49l-.07,118.13c.68.49,1.37.97,2.05,1.46-.08-38.32-.16-79.32-.24-121.34l-1.75,1.75Z"/><path class="cls-1" d="m23.1,129.93l-.07,125.88c.68.46,1.36.92,2.05,1.37-.08-40.57-.17-84.24-.25-128.97l-1.73,1.73Z"/><path class="cls-1" d="m13.98,139.04l-.06,110.1c.67.53,1.35,1.07,2.03,1.59-.07-35.96-.15-74.24-.22-113.44l-1.75,1.75Z"/><path class="cls-1" d="m16.26,136.77l-.07,114.14c.68.52,1.36,1.03,2.05,1.54-.07-37.16-.15-76.81-.23-117.43l-1.75,1.75Z"/><path class="cls-1" d="m289.49,137.68c.04-.37.09-.73.13-1.1l-.13-.13v1.22Z"/><path class="cls-1" d="m196.19,43.16v24.3c.57,2.2,1.12,4.45,1.59,6.75-.02-9.83-.03-19.68-.05-29.52l-1.54-1.54Z"/><path class="cls-1" d="m287.22,134.19v19.21c.68-3.69,1.27-7.44,1.75-11.25,0-2.07,0-4.14-.01-6.22l-1.74-1.74Z"/><path class="cls-1" d="m2.64,150.39l-.05,88.74c.66.64,1.32,1.28,1.98,1.91-.06-29.63-.12-60.67-.18-92.4l-1.75,1.75Z"/><path class="cls-1" d="m198.47,45.44l-.02,32.32c.64,3.51,1.19,7.04,1.63,10.59-.02-13.77-.05-27.57-.07-41.37l-1.54-1.54Z"/><path class="cls-1" d="m0,236.55s.04.04.06.06c-.02-9.25-.04-18.64-.06-28.13v28.08Z"/><path class="cls-1" d="m232.6,79.57l-.09,147.76,1.98-1.98c-.09-45.87-.19-94.8-.27-144.16l-1.62-1.62Z"/><path class="cls-1" d="m.38,152.64l-.05,84.24c.15.15.3.31.45.46.5.51,1.02,1.01,1.53,1.51-.06-28.27-.11-57.8-.17-87.98l-1.76,1.76Z"/><path class="cls-1" d="m284.94,131.91l-.02,32.02c.66-2.68,1.26-5.41,1.81-8.17-.01-7.33-.03-14.7-.04-22.11l-1.75-1.75Z"/><path class="cls-1" d="m41.32,111.71l-.09,154.57c.69.34,1.39.67,2.09,1-.09-48.8-.2-102.44-.31-157.26l-1.69,1.69Z"/><path class="cls-1" d="m61.77,186.03l-.05,88.54c.7.23,1.4.45,2.11.67-.05-27.41-.11-56.44-.17-86.43-.65-.9-1.27-1.83-1.88-2.78Z"/><path class="cls-1" d="m25.37,127.66l-.08,129.66c.68.44,1.37.87,2.06,1.3-.08-41.67-.17-86.63-.26-132.69l-1.73,1.73Z"/><path class="cls-1" d="m45.85,139.17l-.08,129.24c.69.31,1.39.61,2.09.91-.07-37.45-.15-77.79-.23-119.37-.7-3.56-1.29-7.16-1.78-10.78Z"/><path class="cls-1" d="m44.1,113.03c0-1.38.01-2.77.04-4.14l-.54.54-.09,157.94c.69.32,1.38.65,2.08.96-.08-41.67-.17-86.9-.26-133.4-.81-7.19-1.23-14.49-1.23-21.89Z"/><path class="cls-1" d="m48.13,152.32l-.07,117.08c.7.3,1.39.6,2.09.89-.07-34.8-.14-72.13-.22-110.63-.68-2.39-1.28-4.84-1.81-7.34Z"/><path class="cls-1" d="m57.22,178.2l-.06,94.8c.7.25,1.4.49,2.1.73-.06-29.15-.12-60.11-.18-92.09-.65-1.13-1.27-2.28-1.87-3.45Z"/><path class="cls-1" d="m60.72,184.43c-.42-.68-.82-1.39-1.22-2.09l-.05,91.45c.7.24,1.39.48,2.09.72-.05-28.23-.11-58.17-.18-89.1-.21-.33-.44-.65-.64-.98Z"/><path class="cls-1" d="m52.68,167.98l-.06,103.3c.29.12.58.24.88.35.4.16.81.3,1.21.45-.06-31.43-.13-64.95-.2-99.56-.65-1.49-1.25-3-1.83-4.54Z"/><path class="cls-1" d="m54.94,173.49l-.06,98.66c.7.26,1.4.53,2.1.79-.06-30.2-.12-62.35-.19-95.54-.65-1.28-1.26-2.59-1.86-3.91Z"/><path class="cls-1" d="m50.4,161.22l-.06,109.13c.69.29,1.39.56,2.1.84-.06-32.93-.13-68.13-.21-104.47-.65-1.8-1.27-3.64-1.83-5.51Z"/><path class="cls-1" d="m27.65,125.37l-.08,133.38c.68.42,1.38.84,2.07,1.26-.08-42.74-.18-88.99-.27-136.36l-1.72,1.72Z"/><path class="cls-1" d="m39.04,113.99l-.09,151.16c.69.35,1.39.69,2.08,1.03-.09-47.83-.2-100.27-.3-153.89l-1.7,1.7Z"/><path class="cls-1" d="m200.75,47.72l-.03,46.42c.6,6.25.9,12.55.9,18.89s-.31,12.8-.92,19.07l-.07,127.12,2.05-2.05c-.13-64.24-.27-136.22-.39-207.91l-1.54-1.54Z"/><path class="cls-1" d="m32.2,120.82l-.08,140.65c.69.39,1.38.78,2.07,1.16-.09-44.83-.19-93.6-.28-143.52l-1.71,1.71Z"/><path class="cls-1" d="m29.93,123.09l-.08,137.04c.68.41,1.37.82,2.06,1.22-.09-43.8-.18-91.31-.27-139.97l-1.71,1.71Z"/><path class="cls-1" d="m34.49,118.54l-.08,144.2c.69.38,1.38.75,2.08,1.12-.09-45.85-.19-95.86-.29-147.03l-1.71,1.71Z"/><path class="cls-1" d="m132.34,216.4l-.04,67c.71-.03,1.41-.06,2.12-.1-.04-21.42-.09-43.9-.13-67.11-.64.07-1.29.14-1.95.2Z"/><path class="cls-1" d="m191.64,38.62v15.5c.53,1.29,1.05,2.59,1.55,3.92-.01-5.97-.02-11.94-.03-17.91l-1.52-1.52Z"/><path class="cls-1" d="m278.11,125.09l-.03,56.68,1.86-1.86c-.03-17.44-.07-35.18-.1-53.09l-1.73-1.73Z"/><path class="cls-1" d="m142.43,10.6c.2.05.4.1.59.15,0-.25,0-.49,0-.74l-.59.59Z"/><path class="cls-1" d="m205.3,52.27l-.12,202.4,2.05-2.05c-.12-61.7-.26-130.3-.38-198.79l-1.56-1.56Z"/><path class="cls-1" d="m166.61,13.58v8.12c.49.36,1,.72,1.48,1.09,0-2.58,0-5.16-.01-7.73l-1.47-1.47Z"/><path class="cls-1" d="m246.25,93.22l-.07,120.44,1.95-1.95c-.07-37.58-.15-76.99-.22-116.84l-1.65-1.65Z"/><path class="cls-1" d="m275.83,122.81l-.04,61.24,1.87-1.87c-.04-18.91-.07-38.18-.11-57.65l-1.72-1.72Z"/><path class="cls-1" d="m171.16,18.14v7.13c.51.44.99.9,1.48,1.35,0-2.34,0-4.67-.01-7.01l-1.47-1.47Z"/><path class="cls-1" d="m143.84,9.19v1.76c.49.12.98.24,1.46.37,0-1.2,0-2.39,0-3.59l-1.46,1.46Z"/><path class="cls-1" d="m146.12,6.91v4.64c.49.14.98.28,1.46.43,0-2.18,0-4.35,0-6.52l-1.45,1.45Z"/><path class="cls-1" d="m271.29,118.26l-.04,70.34,1.88-1.88c-.04-21.84-.09-44.17-.13-66.75l-1.71-1.71Z"/><path class="cls-1" d="m191.57,171.6l-.06,96.74,2.08-2.08c-.06-31.43-.13-64.86-.2-99.31-.57,1.57-1.18,3.12-1.82,4.65Z"/><path class="cls-1" d="m198.41,148.22l-.07,113.29,2.07-2.07c-.08-38.59-.16-80.02-.24-122.55-.47,3.81-1.06,7.58-1.76,11.33Z"/><path class="cls-1" d="m269.01,115.98l-.04,74.9,1.89-1.89c-.05-23.3-.09-47.17-.14-71.31l-1.71-1.71Z"/><path class="cls-1" d="m228.05,75.02l-.09,156.86,1.99-1.99c-.1-48.58-.2-100.72-.29-153.26l-1.61-1.61Z"/><path class="cls-1" d="m189.28,176.65l-.05,93.97,2.09-2.09c-.06-30.36-.12-62.61-.19-95.87-.59,1.35-1.2,2.68-1.85,3.99Z"/><path class="cls-1" d="m173.43,20.41v6.92c.5.47,1.01.95,1.5,1.44,0-2.29,0-4.58-.01-6.87l-1.49-1.49Z"/><path class="cls-1" d="m197.86,151.09c-.5,2.47-1.1,4.88-1.74,7.25l-.06,105.45,2.07-2.07c-.07-35.02-.14-72.43-.22-110.9-.02.09-.03.19-.05.28Z"/><path class="cls-1" d="m193.84,165.71l-.06,100.36,2.08-2.08c-.06-32.86-.13-67.86-.2-103.9-.55,1.91-1.17,3.78-1.82,5.63Z"/><path class="cls-1" d="m280.39,127.36l-.03,51.94c.65-1.86,1.26-3.73,1.84-5.63-.03-14.69-.06-29.58-.09-44.59l-1.73-1.73Z"/><path class="cls-1" d="m282.66,129.63l-.02,42.6c.65-2.16,1.26-4.35,1.83-6.56-.02-11.33-.04-22.78-.07-34.3l-1.74-1.74Z"/><path class="cls-1" d="m273.57,120.54l-.04,65.78,1.87-1.87c-.04-20.38-.08-41.19-.12-62.21l-1.71-1.71Z"/><path class="cls-1" d="m159.78,6.75v10.48c.24.14.5.28.75.43.25.15.48.31.73.46,0-3.3-.01-6.61-.01-9.9l-1.46-1.46Z"/><path class="cls-1" d="m162.06,9.03v9.59c.49.31.98.61,1.47.93,0-3.03,0-6.05-.01-9.07l-1.45-1.45Z"/><path class="cls-1" d="m157.5,4.48v11.52c.49.26.98.51,1.47.78,0-3.62-.01-7.24-.02-10.85l-1.45-1.45Z"/><path class="cls-1" d="m257.63,104.61l-.06,97.66,1.91-1.91c-.06-30.51-.12-62.11-.18-94.09l-1.67-1.67Z"/><path class="cls-1" d="m255.36,102.33l-.06,102.22,1.92-1.92c-.06-31.93-.13-65.08-.19-98.63l-1.67-1.67Z"/><path class="cls-1" d="m250.81,97.78l-.07,111.32,1.92-1.92c-.07-34.77-.14-71.05-.21-107.74l-1.65-1.65Z"/><path class="cls-1" d="m168.89,15.86v7.56c.5.4,1,.8,1.49,1.2,0-2.43,0-4.86-.01-7.29l-1.48-1.48Z"/><path class="cls-1" d="m248.53,95.5l-.07,115.88,1.94-1.94c-.07-36.17-.15-74.01-.21-112.28l-1.66-1.66Z"/><path class="cls-1" d="m164.33,11.3v8.76c.5.34.98.71,1.48,1.06,0-2.79,0-5.57-.01-8.36l-1.47-1.47Z"/><path class="cls-1" d="m253.08,100.05l-.06,106.78,1.93-1.93c-.07-33.35-.13-68.06-.2-103.18l-1.67-1.67Z"/><path class="cls-1" d="m150.67,2.35v10.67c.49.18.98.36,1.46.55,0-4.23-.01-8.45-.02-12.66l-1.44,1.44Z"/><path class="cls-1" d="m266.74,113.71l-.05,79.44,1.88-1.88c-.05-24.75-.1-50.16-.15-75.87l-1.69-1.69Z"/><path class="cls-1" d="m259.9,106.88l-.05,93.12,1.91-1.91c-.06-29.07-.12-59.12-.17-89.53l-1.69-1.69Z"/><path class="cls-1" d="m264.46,111.43l-.05,84,1.9-1.9c-.05-26.19-.1-53.14-.15-80.41l-1.7-1.7Z"/><path class="cls-1" d="m148.4,4.62v7.61c.48.16.97.31,1.45.48,0-3.18,0-6.36-.01-9.53l-1.44,1.44Z"/><path class="cls-1" d="m262.18,109.16l-.05,88.56,1.91-1.91c-.05-27.64-.11-56.14-.16-84.97l-1.69-1.69Z"/><path class="cls-1" d="m155.23,2.21v12.68c.48.23.97.45,1.46.69,0-3.98-.01-7.96-.02-11.94l-1.44-1.44Z"/><path class="cls-1" d="m153.03,0l-.07.07v13.83c.49.2.98.4,1.46.62,0-4.39-.01-8.77-.02-13.15l-1.37-1.37Z"/><path class="cls-1" d="m157.38,209.71l-.04,71.18c.71-.12,1.42-.23,2.12-.35-.04-22.89-.09-46.97-.14-71.83-.64.35-1.28.68-1.94,1Z"/><path class="cls-1" d="m241.7,88.68l-.08,129.54,1.96-1.96c-.08-40.36-.16-82.93-.24-125.94l-1.64-1.64Z"/><path class="cls-1" d="m180.26,27.23v7.42c.52.65,1.01,1.32,1.51,1.99,0-2.64,0-5.27-.01-7.9l-1.5-1.5Z"/><path class="cls-1" d="m160.53,208.05c-.28.16-.58.32-.86.47l-.04,71.99c.71-.13,1.41-.26,2.12-.39-.04-23.17-.09-47.55-.14-72.72-.36.21-.7.44-1.07.65Z"/><path class="cls-1" d="m134.61,216.16l-.04,67.14c.71-.04,1.42-.08,2.13-.12-.04-21.47-.09-44.01-.13-67.27-.65.09-1.3.17-1.96.25Z"/><path class="cls-1" d="m177.99,24.96v7.03c.51.57,1.01,1.15,1.5,1.74,0-2.43,0-4.85-.01-7.28l-1.49-1.49Z"/><path class="cls-1" d="m155.11,210.77l-.04,70.48c.71-.11,1.41-.22,2.11-.33-.04-22.65-.09-46.45-.14-71.04-.64.31-1.28.61-1.93.89Z"/><path class="cls-1" d="m218.95,65.92l-.1,175.08,2.02-2.02c-.11-53.92-.22-112.57-.33-171.48l-1.59-1.59Z"/><path class="cls-1" d="m216.67,63.64l-.1,179.64,2.02-2.02c-.11-55.24-.23-115.53-.33-176.04l-1.58-1.58Z"/><path class="cls-1" d="m161.94,207.18l-.04,72.9c.7-.13,1.41-.26,2.11-.4-.05-23.47-.09-48.17-.14-73.67-.63.4-1.28.79-1.92,1.17Z"/><path class="cls-1" d="m164.22,205.8l-.04,73.85c.71-.14,1.41-.29,2.12-.44-.05-23.8-.1-48.86-.15-74.75-.64.45-1.27.91-1.93,1.34Z"/><path class="cls-1" d="m152.83,211.73l-.04,69.85c.71-.1,1.42-.2,2.12-.31-.04-22.43-.09-46.01-.14-70.35-.64.28-1.29.54-1.94.8Z"/><path class="cls-1" d="m141.45,215.07l-.04,67.77c.71-.06,1.41-.11,2.12-.18-.04-21.7-.09-44.49-.13-68.01-.64.15-1.29.28-1.94.42Z"/><path class="cls-1" d="m182.54,29.51v8.12c.52.73,1.02,1.49,1.52,2.25,0-2.96,0-5.91-.01-8.86l-1.51-1.51Z"/><path class="cls-1" d="m136.89,215.86l-.04,67.31c.71-.04,1.42-.09,2.13-.14-.04-21.54-.09-44.14-.13-67.48-.64.11-1.3.21-1.96.3Z"/><path class="cls-1" d="m139.17,215.5l-.04,67.53c.71-.05,1.42-.11,2.13-.17-.04-21.61-.09-44.3-.13-67.72-.64.13-1.3.25-1.95.36Z"/><path class="cls-1" d="m143.72,214.57l-.04,68.08c.71-.07,1.42-.15,2.13-.22-.04-21.81-.09-44.71-.13-68.35-.64.17-1.3.33-1.95.49Z"/><path class="cls-1" d="m150.55,212.58l-.04,69.31c.71-.09,1.42-.18,2.12-.28-.04-22.24-.09-45.61-.14-69.74-.64.25-1.29.48-1.95.71Z"/><path class="cls-1" d="m148.28,213.32l-.04,68.84c.71-.08,1.41-.17,2.11-.26-.04-22.08-.09-45.27-.14-69.21-.64.22-1.29.43-1.94.63Z"/><path class="cls-1" d="m146,213.99l-.04,68.43c.71-.07,1.42-.15,2.12-.23-.04-21.94-.09-44.97-.13-68.76-.64.2-1.29.38-1.95.56Z"/><path class="cls-1" d="m168.78,202.52l-.04,76.14c.71-.16,1.41-.32,2.11-.49-.05-24.55-.1-50.44-.15-77.18-.63.52-1.27,1.03-1.92,1.53Z"/><path class="cls-1" d="m230.33,77.3l-.09,152.3,1.98-1.98c-.09-47.23-.19-97.77-.28-148.72l-1.6-1.6Z"/><path class="cls-1" d="m209.84,56.82l-.11,193.3,2.04-2.04c-.12-59.14-.25-124.4-.36-189.7l-1.57-1.57Z"/><path class="cls-1" d="m180.16,191.32l-.05,84.34c.7-.21,1.41-.42,2.11-.64-.05-27.34-.11-56.3-.17-86.21-.62.85-1.24,1.7-1.89,2.52Z"/><path class="cls-1" d="m166.5,204.21l-.04,74.96c.71-.15,1.41-.31,2.12-.47-.05-24.16-.1-49.61-.15-75.89-.63.48-1.27.94-1.92,1.4Z"/><path class="cls-1" d="m182.45,188.28l-.05,86.68c.71-.22,1.4-.46,2.1-.69-.05-28.15-.11-57.99-.17-88.81-.61.96-1.23,1.91-1.88,2.82Z"/><path class="cls-1" d="m185,184.43c-.09.14-.18.27-.27.41l-.05,89.37c.48-.16.96-.31,1.44-.48l.65-.65c-.06-28.94-.12-59.66-.18-91.38-.52.92-1.04,1.83-1.59,2.73Z"/><path class="cls-1" d="m225.77,72.75l-.09,161.42,2-2c-.1-49.93-.21-103.69-.3-157.82l-1.6-1.6Z"/><path class="cls-1" d="m207.57,54.55l-.12,197.84,2.03-2.03c-.12-60.43-.25-127.36-.37-194.26l-1.55-1.55Z"/><path class="cls-1" d="m243.98,90.96l-.07,124.98,1.94-1.94c-.08-38.98-.16-79.97-.23-121.4l-1.64-1.64Z"/><path class="cls-1" d="m177.89,193.99l-.05,82.33c.7-.2,1.4-.41,2.1-.62-.05-26.64-.11-54.82-.16-83.92-.61.75-1.24,1.48-1.89,2.21Z"/><path class="cls-1" d="m187,181l-.05,91.9,2.1-2.1c-.06-29.56-.12-60.94-.18-93.33-.6,1.19-1.22,2.37-1.86,3.52Z"/><path class="cls-1" d="m221.23,68.2l-.1,170.52,2-2c-.1-52.6-.22-109.62-.32-166.94l-1.58-1.58Z"/><path class="cls-1" d="m214.4,61.37l-.11,184.18,2.02-2.02c-.11-56.55-.24-118.49-.34-180.6l-1.57-1.57Z"/><path class="cls-1" d="m171.06,200.7l-.05,77.43c.7-.17,1.4-.35,2.1-.53-.05-25-.1-51.37-.15-78.61-.63.58-1.25,1.16-1.9,1.71Z"/><path class="cls-1" d="m173.33,198.66l-.05,78.9c.7-.18,1.41-.36,2.11-.55-.05-25.49-.1-52.4-.16-80.19-.62.63-1.26,1.24-1.91,1.84Z"/><path class="cls-1" d="m175.71,22.69v6.88c.5.51,1.02,1.02,1.5,1.55,0-2.31,0-4.62-.01-6.93l-1.49-1.49Z"/><path class="cls-1" d="m223.49,70.47l-.1,165.98,2-2c-.1-51.27-.21-106.65-.31-162.38l-1.6-1.6Z"/><path class="cls-1" d="m212.12,59.09l-.11,188.74,2.03-2.03c-.11-57.85-.24-121.44-.35-185.14l-1.57-1.57Z"/><path class="cls-1" d="m175.61,196.43l-.05,80.53c.71-.19,1.41-.39,2.11-.59-.05-26.02-.11-53.53-.16-81.93-.61.68-1.26,1.34-1.9,1.99Z"/><path class="cls-2" d="m6.65,146.38c.06,33.3.13,65.84.19,96.77.08.08.17.15.25.23l.06-97.5-.5.5Z"/><path class="cls-2" d="m4.39,148.64c.06,31.73.12,62.78.18,92.4.09.08.18.17.27.25l.05-93.15-.5.5Z"/><path class="cls-2" d="m2.14,150.89c.06,30.17.12,59.71.17,87.98.09.09.18.18.27.27l.05-88.74-.5.5Z"/><path class="cls-2" d="m8.92,144.11c.07,34.81.13,68.82.2,101.05.08.07.17.15.25.22l.06-101.78-.51.51Z"/><path class="cls-2" d="m11.19,141.84c.07,36.3.14,71.75.21,105.26.08.07.16.14.24.21l.06-105.98-.51.51Z"/><path class="cls-2" d="m13.47,139.56c.07,37.77.15,74.64.21,109.39.08.06.16.13.24.19l.06-110.1-.52.52Z"/><path class="cls-2" d="m15.73,137.29c.07,39.2.15,77.47.22,113.44.08.06.16.12.24.18l.07-114.14-.52.52Z"/><path class="cls-2" d="m18.01,135.02c.08,40.62.16,80.27.23,117.43.08.06.15.12.23.17l.07-118.13-.53.53Z"/><path class="cls-2" d="m20.28,132.74c.08,42.01.16,83.02.24,121.34.08.05.15.11.23.16l.07-122.03-.53.53Z"/><path class="cls-2" d="m22.56,130.47c.08,43.38.17,85.73.24,125.19.07.05.15.1.22.15l.07-125.88-.54.54Z"/><path class="cls-2" d="m24.83,128.2c.08,44.73.17,88.4.25,128.97.07.05.15.09.22.14l.08-129.66-.55.55Z"/><path class="cls-2" d="m27.1,125.93c.09,46.06.18,91.02.26,132.69.07.04.14.09.22.14l.08-133.38-.55.55Z"/><path class="cls-2" d="m29.38,123.65c.09,47.37.18,93.62.27,136.36.07.04.14.08.21.13l.08-137.04-.56.56Z"/><path class="cls-2" d="m31.64,121.38c.09,48.65.19,96.17.27,139.97.07.04.14.08.21.12l.08-140.65-.56.56Z"/><path class="cls-2" d="m33.92,119.11c.09,49.92.19,98.69.28,143.52.07.04.14.08.2.11l.08-144.2-.57.57Z"/><path class="cls-2" d="m36.19,116.83c.09,51.17.2,101.18.29,147.03.07.04.13.07.2.11l.09-147.71-.57.57Z"/><path class="cls-2" d="m38.46,114.57c.1,52.41.2,103.64.29,150.49.07.03.13.06.2.1l.09-151.16-.58.58Z"/><path class="cls-2" d="m40.74,112.29c.1,53.62.21,106.06.3,153.89.07.03.13.06.2.1l.09-154.57-.59.59Z"/><path class="cls-2" d="m43.01,110.02c.1,54.82.21,108.46.31,157.26.06.03.13.06.19.09l.09-157.94-.59.59Z"/><path class="cls-2" d="m45.33,134.92c.09,46.5.18,91.73.26,133.4.06.03.13.06.19.09l.08-129.24c-.19-1.41-.37-2.83-.53-4.24Z"/><path class="cls-2" d="m47.85,151.09c-.08-.38-.14-.76-.22-1.14.08,41.57.16,81.92.23,119.37.06.03.13.05.19.08l.07-117.08c-.09-.41-.19-.81-.27-1.23Z"/><path class="cls-2" d="m49.93,159.66c.07,38.5.15,75.82.22,110.63.06.03.12.05.19.07l.06-109.13c-.16-.52-.32-1.04-.47-1.57Z"/><path class="cls-2" d="m52.23,166.73c.07,36.33.14,71.54.21,104.47.06.02.12.05.18.07l.06-103.3c-.15-.41-.3-.83-.45-1.24Z"/><path class="cls-2" d="m54.51,172.52c.07,34.61.13,68.13.2,99.56.06.02.12.05.18.07l.06-98.66c-.14-.32-.29-.64-.43-.97Z"/><path class="cls-2" d="m56.8,177.39c.06,33.19.13,65.34.19,95.54.06.02.12.05.18.07l.06-94.8c-.14-.27-.29-.53-.42-.8Z"/><path class="cls-2" d="m59.09,181.64c.06,31.98.12,62.94.18,92.09.06.02.12.04.18.06l.05-91.45c-.14-.23-.28-.47-.41-.7Z"/><path class="cls-2" d="m61.37,185.41c.06,30.93.12,60.87.18,89.1.06.02.12.04.17.06l.05-88.54c-.13-.21-.27-.41-.4-.61Z"/><path class="cls-2" d="m63.65,188.8c.06,29.99.12,59.02.17,86.43.06.02.12.04.17.05l.05-85.95c-.13-.18-.26-.35-.39-.53Z"/><path class="cls-2" d="m65.94,191.82c.06,29.17.11,57.42.17,84.11.06.02.11.03.17.05l.05-83.7c-.13-.15-.26-.3-.39-.46Z"/><path class="cls-2" d="m68.21,194.51c.06,28.46.11,56.01.16,82.08.06.02.11.03.17.05l.05-81.71c-.13-.14-.25-.28-.38-.42Z"/><path class="cls-2" d="m70.5,196.91c.05,27.83.11,54.78.16,80.3.06.01.11.03.17.04l.05-79.96c-.13-.13-.25-.26-.37-.39Z"/><path class="cls-2" d="m72.78,199.11c.05,27.27.11,53.68.15,78.7.06.01.11.03.17.04l.05-78.41c-.12-.11-.24-.22-.37-.34Z"/><path class="cls-2" d="m75.06,201.12c.05,26.76.1,52.67.15,77.23.06.01.11.03.17.04l.04-76.98c-.12-.1-.24-.19-.36-.29Z"/><path class="cls-2" d="m77.34,202.97c.05,26.3.1,51.76.15,75.93.05.01.11.03.16.04l.04-75.68c-.12-.09-.24-.2-.36-.29Z"/><path class="cls-2" d="m79.62,204.63c.05,25.89.1,50.95.15,74.75.05.01.11.02.16.03l.04-74.53c-.12-.08-.24-.17-.35-.25Z"/><path class="cls-2" d="m81.91,206.19c.05,25.5.1,50.2.14,73.66.05.01.11.02.16.03l.04-73.48c-.12-.07-.23-.14-.35-.22Z"/><path class="cls-2" d="m84.18,207.61c.05,25.16.1,49.52.14,72.67.05,0,.11.02.16.03l.04-72.48c-.12-.07-.23-.15-.35-.22Z"/><path class="cls-2" d="m86.46,208.93c.05,24.84.1,48.89.14,71.76.05,0,.11.02.16.03l.04-71.59c-.12-.06-.23-.13-.34-.19Z"/><path class="cls-2" d="m88.74,210.1c.05,24.55.1,48.33.14,70.95.05,0,.11.02.16.03l.04-70.82c-.11-.05-.23-.1-.34-.16Z"/><path class="cls-2" d="m91.02,211.14c.05,24.31.09,47.86.14,70.27.05,0,.11.01.16.02l.04-70.16c-.11-.05-.23-.09-.34-.14Z"/><path class="cls-2" d="m93.3,212.06c.05,24.1.09,47.45.14,69.66.05,0,.1.01.16.02l.04-69.56c-.11-.04-.22-.08-.33-.12Z"/><path class="cls-2" d="m95.58,212.88c.05,23.92.09,47.09.14,69.14.05,0,.1.01.16.02l.04-69.05c-.11-.04-.22-.07-.33-.11Z"/><path class="cls-2" d="m97.85,213.6c.05,23.76.09,46.77.13,68.69.05,0,.1.01.16.02l.04-68.61c-.11-.03-.22-.06-.33-.1Z"/><path class="cls-2" d="m100.13,214.23c.05,23.62.09,46.5.13,68.29.05,0,.1,0,.15.01l.04-68.23c-.11-.03-.22-.05-.33-.08Z"/><path class="cls-2" d="m102.41,214.78c.05,23.5.09,46.27.13,67.95.05,0,.1,0,.15.01l.04-67.9c-.11-.02-.22-.05-.33-.07Z"/><path class="cls-2" d="m104.68,215.26c.05,23.4.09,46.07.13,67.67.05,0,.1,0,.15.01l.04-67.62c-.11-.02-.22-.04-.33-.06Z"/><path class="cls-2" d="m106.96,215.67c.05,23.32.09,45.91.13,67.43.05,0,.1,0,.15.01l.04-67.39c-.11-.02-.22-.03-.32-.05Z"/><path class="cls-2" d="m109.25,216.01c.05,23.25.09,45.77.13,67.23.05,0,.1,0,.15,0l.04-67.2c-.11-.01-.22-.02-.32-.04Z"/><path class="cls-2" d="m111.53,216.28c.05,23.19.09,45.66.13,67.07.05,0,.1,0,.15,0l.04-67.04c-.11-.01-.22-.02-.32-.04Z"/><path class="cls-2" d="m113.8,216.5c.05,23.15.09,45.58.13,66.95.05,0,.1,0,.15,0l.04-66.93c-.11,0-.21-.02-.32-.03Z"/><path class="cls-2" d="m116.08,216.66c.05,23.12.09,45.52.13,66.86.05,0,.1,0,.15,0l.04-66.84c-.11,0-.21-.01-.32-.02Z"/><path class="cls-2" d="m118.36,216.77c.05,23.1.09,45.48.13,66.8.05,0,.1,0,.15,0l.04-66.79c-.11,0-.21,0-.32-.01Z"/><path class="cls-2" d="m120.63,216.83c.05,23.09.09,45.45.13,66.76.05,0,.1,0,.15,0l.04-66.76c-.11,0-.22,0-.32,0Z"/><path class="cls-2" d="m122.91,216.85c.05,23.09.09,45.45.13,66.76.05,0,.1,0,.15,0l.04-66.76c-.11,0-.21,0-.32,0Z"/><path class="cls-2" d="m125.19,216.82c.05,23.09.09,45.45.13,66.77.05,0,.1,0,.15,0l.04-66.77c-.11,0-.21,0-.32,0Z"/><path class="cls-2" d="m127.46,216.74c.05,23.1.09,45.48.13,66.81.05,0,.1,0,.15,0l.04-66.82c-.11,0-.22,0-.32.01Z"/><path class="cls-2" d="m129.74,216.61c.05,23.13.09,45.53.13,66.88.05,0,.1,0,.15,0l.04-66.9c-.11,0-.22.01-.32.02Z"/><path class="cls-2" d="m132.02,216.43c.05,23.16.09,45.6.13,66.98.05,0,.1,0,.15,0l.04-67c-.11.01-.22.02-.32.03Z"/><path class="cls-2" d="m134.29,216.2c.05,23.21.09,45.69.13,67.11.05,0,.1,0,.15,0l.04-67.14c-.11.01-.22.03-.32.04Z"/><path class="cls-2" d="m136.57,215.91c.05,23.26.09,45.8.13,67.27.05,0,.1,0,.15,0l.04-67.31c-.11.02-.22.03-.32.05Z"/><path class="cls-2" d="m138.84,215.56c.05,23.34.09,45.94.13,67.48.05,0,.1,0,.15,0l.04-67.53c-.11.02-.22.04-.33.06Z"/><path class="cls-2" d="m141.12,215.14c.05,23.42.09,46.1.13,67.72.05,0,.1,0,.15-.01l.04-67.77c-.11.02-.22.05-.33.07Z"/><path class="cls-2" d="m143.39,214.65c.05,23.52.09,46.31.13,68.01.05,0,.1,0,.15-.01l.04-68.08c-.11.03-.22.06-.33.08Z"/><path class="cls-2" d="m143.02,10c0,.25,0,.49,0,.74.27.06.54.13.82.2v-1.76s-.82.82-.82.82Z"/><path class="cls-2" d="m145.3,7.73c0,1.2,0,2.39,0,3.59.27.07.54.15.81.23v-4.64s-.82.82-.82.82Z"/><path class="cls-2" d="m145.67,214.08c.05,23.64.09,46.54.13,68.35.05,0,.1-.01.16-.02l.04-68.43c-.11.03-.22.06-.33.09Z"/><path class="cls-2" d="m147.95,213.43c.05,23.78.09,46.82.13,68.76.05,0,.1-.01.16-.02l.04-68.84c-.11.03-.22.07-.33.11Z"/><path class="cls-2" d="m147.58,5.45c0,2.17,0,4.35,0,6.52.27.08.54.18.81.26v-7.61s-.82.83-.82.83Z"/><path class="cls-2" d="m149.84,3.18c0,3.17,0,6.35.01,9.53.27.1.54.2.81.3V2.35s-.83.83-.83.83Z"/><path class="cls-2" d="m150.22,212.7c.05,23.94.09,47.13.14,69.21.05,0,.1-.01.16-.02l.04-69.31c-.11.04-.22.08-.33.12Z"/><path class="cls-2" d="m152.5,211.86c.05,24.13.09,47.5.14,69.74.05,0,.1-.02.16-.02l.04-69.85c-.11.04-.22.09-.33.14Z"/><path class="cls-2" d="m152.12.91c0,4.21.01,8.43.02,12.66.27.11.54.22.81.33V.07s-.83.84-.83.84Z"/><path class="cls-2" d="m154.78,210.93c.05,24.34.09,47.92.14,70.35.05,0,.11-.01.16-.02l.04-70.48c-.11.05-.22.1-.34.15Z"/><path class="cls-2" d="m154.4,1.37c0,4.37.01,8.76.02,13.15.27.12.54.25.81.37V2.21s-.83-.83-.83-.83Z"/><path class="cls-2" d="m157.04,209.88c.05,24.58.1,48.39.14,71.04.05,0,.11-.02.16-.03l.04-71.18c-.11.06-.23.11-.34.17Z"/><path class="cls-2" d="m156.67,3.65c0,3.97.01,7.95.02,11.94.27.13.54.27.81.41V4.48s-.82-.83-.82-.83Z"/><path class="cls-2" d="m158.96,5.93c0,3.61.01,7.23.02,10.85.27.15.54.3.8.45V6.75s-.82-.83-.82-.83Z"/><path class="cls-2" d="m159.32,208.71c.05,24.86.1,48.93.14,71.83.05,0,.11-.02.16-.03l.04-71.99c-.11.06-.23.13-.34.19Z"/><path class="cls-2" d="m161.6,207.39c.05,25.17.1,49.55.14,72.72.05-.01.11-.02.16-.03l.04-72.9c-.12.07-.23.14-.35.21Z"/><path class="cls-2" d="m161.24,8.21c0,3.3,0,6.6.01,9.9.27.17.53.34.8.51v-9.59s-.82-.82-.82-.82Z"/><path class="cls-2" d="m163.87,206.01c.05,25.51.1,50.21.14,73.67.05-.01.11-.02.16-.03l.04-73.85c-.11.07-.24.14-.35.21Z"/><path class="cls-2" d="m163.51,10.49c0,3.02,0,6.04.01,9.07.26.17.54.33.8.51v-8.76s-.81-.82-.81-.82Z"/><path class="cls-2" d="m165.8,12.77c0,2.78,0,5.57.01,8.36.27.19.53.38.79.57v-8.12s-.81-.81-.81-.81Z"/><path class="cls-2" d="m166.14,204.46c.05,25.88.1,50.95.15,74.75.05-.01.11-.02.16-.03l.04-74.96c-.12.08-.24.16-.35.25Z"/><path class="cls-2" d="m168.08,15.05c0,2.58,0,5.15.01,7.73.27.21.52.43.79.64v-7.56s-.8-.81-.8-.81Z"/><path class="cls-2" d="m168.42,202.81c.05,26.29.1,51.74.15,75.89.05-.01.11-.03.16-.04l.04-76.14c-.12.09-.24.19-.36.29Z"/><path class="cls-2" d="m170.36,17.34c0,2.43,0,4.86.01,7.29.26.21.53.42.79.63v-7.13s-.8-.8-.8-.8Z"/><path class="cls-2" d="m170.7,200.99c.05,26.74.1,52.62.15,77.18.05-.01.11-.03.17-.04l.05-77.43c-.12.1-.24.19-.36.29Z"/><path class="cls-2" d="m172.96,198.99c.05,27.24.11,53.61.15,78.61.06-.01.11-.03.17-.04l.05-78.9c-.12.11-.25.22-.37.33Z"/><path class="cls-2" d="m172.64,19.61c0,2.33,0,4.67.01,7.01.26.24.52.47.78.71v-6.92s-.79-.8-.79-.8Z"/><path class="cls-2" d="m174.92,21.89c0,2.29,0,4.58.01,6.87.26.26.52.53.78.8v-6.88s-.79-.79-.79-.79Z"/><path class="cls-2" d="m175.24,196.82c.05,27.79.11,54.71.16,80.19.06-.02.11-.03.17-.05l.05-80.53c-.12.13-.25.26-.37.38Z"/><path class="cls-2" d="m177.2,24.18c0,2.31,0,4.62.01,6.93.27.29.51.59.77.88v-7.03s-.78-.79-.78-.79Z"/><path class="cls-2" d="m177.51,194.44c.06,28.41.11,55.91.16,81.93.06-.02.11-.03.17-.05l.05-82.33c-.13.15-.25.3-.38.44Z"/><path class="cls-2" d="m179.48,26.45c0,2.43,0,4.85.01,7.28.26.31.52.61.77.92v-7.42s-.78-.78-.78-.78Z"/><path class="cls-2" d="m179.78,191.79c.06,29.1.11,57.28.16,83.92.06-.02.11-.04.17-.05l.05-84.34c-.13.16-.26.31-.39.47Z"/><path class="cls-2" d="m181.76,28.73c0,2.63,0,5.27.01,7.9.25.33.52.66.76.99v-8.12s-.77-.78-.77-.78Z"/><path class="cls-2" d="m182.05,188.8c.06,29.91.12,58.87.17,86.21.06-.02.12-.03.17-.05l.05-86.68c-.13.18-.27.35-.39.52Z"/><path class="cls-2" d="m184.33,185.45c.06,30.83.12,60.67.17,88.81.06-.02.12-.04.18-.06l.05-89.37c-.13.21-.27.41-.4.61Z"/><path class="cls-2" d="m184.04,31.02c0,2.95,0,5.91.01,8.86.25.37.51.74.75,1.12v-9.21s-.77-.77-.77-.77Z"/><path class="cls-2" d="m186.59,181.7c.06,31.72.12,62.44.18,91.38l.18-.18.05-91.9c-.13.24-.28.47-.41.71Z"/><path class="cls-2" d="m186.32,33.29c0,3.41.01,6.82.02,10.24.25.42.5.83.74,1.25v-10.72s-.76-.77-.76-.77Z"/><path class="cls-2" d="m188.86,177.47c.06,32.39.13,63.77.18,93.33l.18-.18.05-93.97c-.14.28-.28.55-.42.83Z"/><path class="cls-2" d="m188.6,35.58c0,4.03.01,8.06.02,12.1.25.48.5.94.74,1.43v-12.76s-.75-.76-.75-.76Z"/><path class="cls-2" d="m191.13,172.66c.06,33.26.13,65.51.19,95.87l.19-.19.06-96.74c-.15.35-.28.71-.44,1.06Z"/><path class="cls-2" d="m190.89,37.86c0,4.85.02,9.7.02,14.55.25.56.48,1.14.72,1.71v-15.5s-.75-.76-.75-.76Z"/><path class="cls-2" d="m193.16,40.13c0,5.97.02,11.94.03,17.91.24.65.48,1.31.71,1.97v-19.13s-.74-.75-.74-.75Z"/><path class="cls-2" d="m193.39,166.96c.07,34.45.13,67.87.2,99.31l.2-.2.06-100.36c-.15.42-.3.83-.45,1.25Z"/><path class="cls-2" d="m195.44,42.42c.01,7.5.02,15.01.04,22.51.24.84.47,1.69.7,2.54v-24.3s-.73-.75-.73-.75Z"/><path class="cls-2" d="m195.66,160.09c.07,36.04.14,71.04.2,103.9l.2-.2.06-105.45c-.16.58-.3,1.17-.47,1.75Z"/><path class="cls-2" d="m197.92,150.81c.07,38.47.15,75.88.22,110.9l.21-.21.07-113.29c-.16.86-.32,1.73-.49,2.59Z"/><path class="cls-2" d="m197.73,44.7c.02,9.84.03,19.68.05,29.52.03.13.06.26.09.4.21,1.05.39,2.1.59,3.15l.02-32.32-.74-.74Z"/><path class="cls-2" d="m200.17,136.89c.08,42.53.16,83.96.24,122.55l.21-.21.07-127.12c-.16,1.6-.33,3.19-.53,4.78Z"/><path class="cls-2" d="m200.01,46.98c.02,13.8.05,27.6.07,41.37.24,1.92.45,3.85.64,5.78l.03-46.42-.74-.74Z"/><path class="cls-2" d="m202.28,49.26c.12,71.7.27,143.68.39,207.91l.22-.22.12-206.96-.73-.73Z"/><path class="cls-2" d="m204.57,51.54c.12,70.09.26,140.38.38,203.35l.22-.22.12-202.4-.73-.73Z"/><path class="cls-2" d="m206.85,53.83c.11,68.49.25,137.09.38,198.79l.23-.23.12-197.84-.72-.72Z"/><path class="cls-2" d="m209.13,56.1c.11,66.9.25,133.83.37,194.26l.24-.24.11-193.3-.72-.72Z"/><path class="cls-2" d="m211.41,58.38c.11,65.3.24,130.55.36,189.7l.24-.24.11-188.74-.71-.71Z"/><path class="cls-2" d="m213.69,60.67c.11,63.7.24,127.29.35,185.14l.25-.25.11-184.18-.71-.71Z"/><path class="cls-2" d="m215.97,62.94c.11,62.11.23,124.05.34,180.6l.25-.25.1-179.64-.7-.7Z"/><path class="cls-2" d="m218.25,65.22c.1,60.51.23,120.8.33,176.04l.26-.26.1-175.08-.7-.7Z"/><path class="cls-2" d="m220.54,67.51c.1,58.91.22,117.56.33,171.48l.27-.27.1-170.52-.69-.69Z"/><path class="cls-2" d="m222.81,69.78c.1,57.32.21,114.34.32,166.94l.27-.27.1-165.98-.69-.69Z"/><path class="cls-2" d="m225.09,72.07c.1,55.73.21,111.11.31,162.38l.28-.28.09-161.42-.68-.68Z"/><path class="cls-2" d="m227.38,74.35c.09,54.13.2,107.89.3,157.82l.28-.28.09-156.86-.67-.67Z"/><path class="cls-2" d="m229.66,76.63c.09,52.54.2,104.68.29,153.26l.29-.29.09-152.3-.67-.67Z"/><path class="cls-2" d="m231.94,78.91c.09,50.95.19,101.49.28,148.72l.29-.29.09-147.76-.66-.66Z"/><path class="cls-2" d="m234.22,81.19c.09,49.36.18,98.29.27,144.16l.3-.3.08-143.2-.66-.66Z"/><path class="cls-2" d="m236.5,83.48c.08,47.77.18,95.1.27,139.6l.31-.31.08-138.64-.65-.65Z"/><path class="cls-2" d="m238.78,85.75c.08,46.19.17,91.93.26,135.06l.31-.31.08-134.1-.65-.65Z"/><path class="cls-2" d="m241.06,88.03c.08,44.6.17,88.75.25,130.5l.32-.32.08-129.54-.64-.64Z"/><path class="cls-2" d="m243.35,90.32c.08,43.02.16,85.58.24,125.94l.32-.32.07-124.98-.64-.64Z"/><path class="cls-2" d="m245.62,92.59c.07,41.44.16,82.43.23,121.4l.33-.33.07-120.44-.63-.63Z"/><path class="cls-2" d="m247.9,94.88c.07,39.85.15,79.27.22,116.84l.34-.34.07-115.88-.63-.63Z"/><path class="cls-2" d="m250.19,97.16c.07,38.27.14,76.11.21,112.28l.34-.34.07-111.32-.62-.62Z"/><path class="cls-2" d="m252.46,99.44c.07,36.7.14,72.98.21,107.74l.35-.35.06-106.78-.62-.62Z"/><path class="cls-2" d="m254.75,101.72c.06,35.12.13,69.83.2,103.18l.35-.35.06-102.22-.61-.61Z"/><path class="cls-2" d="m257.03,104c.06,33.54.13,66.7.19,98.63l.36-.36.06-97.66-.6-.6Z"/><path class="cls-2" d="m259.3,106.28c.06,31.98.12,63.58.18,94.09l.36-.36.05-93.12-.6-.6Z"/><path class="cls-2" d="m261.59,108.56c.06,30.4.11,60.45.17,89.53l.37-.37.05-88.56-.59-.59Z"/><path class="cls-2" d="m263.87,110.85c.05,28.83.11,57.33.16,84.97l.38-.38.05-84-.59-.59Z"/><path class="cls-2" d="m266.16,113.13c.05,27.26.1,54.21.15,80.41l.38-.38.05-79.44-.58-.58Z"/><path class="cls-2" d="m268.43,115.4c.05,25.7.1,51.12.15,75.87l.39-.39.04-74.9-.58-.58Z"/><path class="cls-2" d="m270.72,117.69c.04,24.14.09,48.01.14,71.31l.39-.39.04-70.34-.57-.57Z"/><path class="cls-2" d="m273,119.97c.04,22.57.09,44.91.13,66.75l.4-.4.04-65.78-.57-.57Z"/><path class="cls-2" d="m275.27,122.25c.04,21.02.08,41.83.12,62.21l.4-.4.04-61.24-.56-.56Z"/><path class="cls-2" d="m277.56,124.53c.04,19.46.07,38.73.11,57.65l.41-.41.03-56.68-.55-.55Z"/><path class="cls-2" d="m279.84,126.82c.03,17.91.07,35.65.1,53.09l.33-.33c.03-.09.06-.18.09-.27l.03-51.94-.55-.55Z"/><path class="cls-2" d="m282.12,129.09c.03,15.01.06,29.9.09,44.59.15-.48.29-.97.43-1.45l.02-42.6-.54-.54Z"/><path class="cls-2" d="m284.4,131.37c.02,11.52.04,22.96.07,34.3.15-.58.31-1.15.45-1.74l.02-32.02-.54-.54Z"/><path class="cls-2" d="m286.69,133.66c.01,7.4.03,14.78.04,22.11.16-.79.33-1.57.48-2.37v-19.21s-.52-.53-.52-.53Z"/><path class="cls-2" d="m288.96,135.93c0,2.07,0,4.15.01,6.22.19-1.48.35-2.97.51-4.47v-1.22s-.53-.53-.53-.53Z"/><path class="cls-2" d="m0,153.03v55.44c.02,9.5.04,18.88.06,28.13.09.1.19.19.28.28l.05-84.24-.38.38Z"/></svg>