<?xml version="1.0" encoding="UTF-8"?><svg id="_レイヤー_2" xmlns="http://www.w3.org/2000/svg" viewBox="0 0 172.41 51.18"><defs><style>.cls-1{fill:#231815;}</style></defs><g id="Layer_1"><path class="cls-1" d="m.17,39.55h14.33v1.12H1.48v3.94h10.61v.99H1.48v4.01h13.24v1.12H.17v-11.18Z"/><path class="cls-1" d="m25.07,45.08l-8.45-5.52h2.18l7.41,4.84,7.26-4.84h2.18l-8.4,5.54,8.63,5.64h-2.18l-7.6-4.95-7.46,4.95h-2.24l8.67-5.66Z"/><path class="cls-1" d="m38.16,39.55h1.31v4.83h15.54v-4.83h1.31v11.18h-1.31v-5.32h-15.54v5.32h-1.31v-11.18Z"/><path class="cls-1" d="m59.97,39.55h1.31v11.18h-1.31v-11.18Z"/><path class="cls-1" d="m64.92,39.55h9.69c4.69,0,5.97,1.34,5.97,2.89,0,1.09-.75,2.12-2.65,2.43v.02c2.48.22,3.5,1.39,3.5,2.58,0,1.9-1.55,3.26-5.83,3.26h-10.67v-11.18Zm10.81,4.93c2.63,0,3.62-.87,3.62-1.89,0-1.1-1.14-1.95-4.74-1.95h-8.38v3.84h9.5Zm-.36,5.17c3.48,0,4.73-.93,4.73-2.23,0-1.07-1.19-1.96-4.2-1.96h-9.67v4.18h9.15Z"/><path class="cls-1" d="m84.47,39.55h1.31v11.18h-1.31v-11.18Z"/><path class="cls-1" d="m96.01,40.67h-7.63v-1.12h16.57v1.12h-7.63v10.06h-1.31v-10.06Z"/><path class="cls-1" d="m107.57,39.55h1.31v11.18h-1.31v-11.18Z"/><path class="cls-1" d="m112.01,45.09c0-3.43,3.54-5.76,9.89-5.76s9.91,2.33,9.91,5.76-3.43,5.86-9.91,5.86-9.89-2.23-9.89-5.86Zm18.49,0c0-2.74-3.06-4.66-8.6-4.66s-8.58,1.92-8.58,4.66c0,2.92,2.99,4.76,8.58,4.76s8.6-1.89,8.6-4.76Z"/><path class="cls-1" d="m134.74,39.55h1.9l14.77,9.62h.03v-9.62h1.26v11.18h-1.22l-15.45-10.08h-.02v10.08h-1.28v-11.18Z"/><path class="cls-1" d="m157.68,46.76c.94-1.71,1.13-2.32,1.13-4.16,0-2.18-.11-2.77-.61-2.77s-.67.47-.67,3.24c0,.68.02,1.35.04,1.66h-.72c-.02-.31-.05-.95-.05-1.66,0-3.31.34-4,1.44-4s1.37.81,1.37,3.46c0,2-.32,2.86-1.21,4.5-.76,1.33-.81,1.67-.81,3.22h2.02v.79h-2.81c0-2.27.09-2.75.88-4.29Z"/><path class="cls-1" d="m160.85,45.07c0-5.26.4-6,1.44-6s1.44.74,1.44,6-.34,6.1-1.44,6.1-1.44-.81-1.44-6.1Zm2.11,0c0-4.68-.18-5.2-.67-5.2s-.67.52-.67,5.2.14,5.31.67,5.31.67-.56.67-5.31Z"/><path class="cls-1" d="m165.89,46.76c.94-1.71,1.13-2.32,1.13-4.16,0-2.18-.11-2.77-.61-2.77s-.67.47-.67,3.24c0,.68.02,1.35.04,1.66h-.72c-.02-.31-.05-.95-.05-1.66,0-3.31.34-4,1.44-4s1.37.81,1.37,3.46c0,2-.32,2.86-1.21,4.5-.76,1.33-.81,1.67-.81,3.22h2.02v.79h-2.81c0-2.27.09-2.75.88-4.29Z"/><path class="cls-1" d="m170.8,47.79h-2.03v-.68l1.69-7.9h1.13v7.87h.81v.72h-.81v3.26h-.79v-3.26Zm0-.72v-6.68h-.04l-1.37,6.64v.04h1.4Z"/><path class="cls-1" d="m.89,32c-.59-.62-.89-1.56-.89-2.81V4.03C0,2.68.35,1.68,1.05,1.01,1.75.34,2.64,0,3.71,0h.09c1.04,0,1.91.34,2.63,1.01.72.67,1.08,1.68,1.08,3.02v6.73h-.96V3.98c0-.98-.25-1.74-.75-2.29-.5-.55-1.17-.82-1.99-.82h-.09c-.85,0-1.53.27-2.04.82-.5.55-.75,1.31-.75,2.29v25.17c0,.98.22,1.71.66,2.2s1.09.73,1.95.73h.05c.98,0,1.76-.36,2.36-1.08.6-.72.89-1.68.89-2.91v-12.49l.32.32h-2.97v-.87h3.57v17.43h-.73l-.14-2.7.27-.18c-.12,1.04-.52,1.85-1.19,2.45-.67.59-1.5.89-2.47.89h-.14c-1.04,0-1.85-.31-2.45-.94Z"/><path class="cls-1" d="m15.19,15.92h-3.25v-.87h3.11c2.07,0,3.11-1.07,3.11-3.2v-7.32c0-2.13-1.04-3.2-3.11-3.2h-3.02l.41-.41v31.57h-.96V.46h3.52c1.31,0,2.33.34,3.04,1.01.72.67,1.08,1.71,1.08,3.11v7.23c0,1.1-.24,1.97-.71,2.61-.47.64-1.15,1.07-2.04,1.28l.09-.41c.92.21,1.61.64,2.08,1.28.47.64.71,1.51.71,2.61v13.31h-.92v-13.31c0-2.17-1.05-3.25-3.16-3.25Z"/><path class="cls-1" d="m26.03.46h1.01l3.84,32.03h-.92l-.92-8.1-.05-.18-2.33-20.04-.18-2.79h.14l-.23,2.79-2.33,20.04-.05.18-.92,8.1h-.92L26.03.46Zm-2.47,23.33h5.95v.87h-5.95v-.87Z"/><path class="cls-1" d="m34.04.46h3.71c1.28,0,2.28.34,3,1.01.72.67,1.08,1.71,1.08,3.11v23.79c0,1.4-.36,2.44-1.08,3.11-.72.67-1.72,1.01-3,1.01h-3.71V.46Zm.59,31.16h3.11c1.04,0,1.82-.27,2.36-.8.53-.53.8-1.33.8-2.4V4.53c0-1.07-.27-1.87-.8-2.4-.53-.53-1.32-.8-2.36-.8h-3.16l.41-.37v31.02l-.37-.37Z"/><path class="cls-1" d="m46.94,31.91c-.73-.69-1.1-1.72-1.1-3.09V.46h.96v28.41c0,1.04.27,1.83.8,2.38.53.55,1.23.82,2.08.82h.09c.88,0,1.59-.27,2.13-.82.53-.55.8-1.34.8-2.38V.46h.92v28.37c0,1.37-.36,2.4-1.08,3.09-.72.69-1.62,1.03-2.72,1.03h-.14c-1.1,0-2.01-.34-2.75-1.03Z"/><path class="cls-1" d="m60.35.46h1.01l3.84,32.03h-.92l-.92-8.1-.05-.18-2.33-20.04-.18-2.79h.14l-.23,2.79-2.33,20.04-.05.18-.92,8.1h-.92L60.35.46Zm-2.47,23.33h5.95v.87h-5.95v-.87Z"/><path class="cls-1" d="m69.73.96l.37.37h-4.62V.46h9.47v.87h-4.62l.32-.37v31.52h-.92V.96Z"/><path class="cls-1" d="m77.51.46h.96v32.03h-.96V.46Z"/><path class="cls-1" d="m83.57,31.91c-.72-.69-1.08-1.72-1.08-3.09V4.12c0-1.37.36-2.4,1.08-3.09s1.62-1.03,2.72-1.03h.14c1.1,0,2.01.34,2.72,1.03s1.08,1.72,1.08,3.09v24.71c0,1.37-.36,2.4-1.08,3.09-.72.69-1.62,1.03-2.72,1.03h-.14c-1.1,0-2.01-.34-2.72-1.03Zm4.94-.66c.53-.55.8-1.34.8-2.38V4.07c0-1.04-.26-1.83-.78-2.38-.52-.55-1.22-.82-2.11-.82h-.09c-.89,0-1.59.27-2.13.82-.53.55-.8,1.34-.8,2.38v24.8c0,1.04.27,1.83.8,2.38.53.55,1.24.82,2.13.82h.09c.85,0,1.55-.27,2.08-.82Z"/><path class="cls-1" d="m94.25.46h1.19l5.22,25.67.87,5.49h-.09l-.14-5.63V.46h.92v32.03h-1.19l-5.22-25.67-.87-5.49h.09l.14,5.63v25.53h-.92V.46Z"/><path class="cls-1" d="m111.64.46h.92l2.38,27.5.23,4.35h-.23l.37-4.35L118.45.46h1.05l3.2,27.5.37,4.35h-.23l.23-4.35L125.45.46h.92l-2.88,32.21h-1.1l-3.25-28.6-.23-3.39h.18l-.23,3.39-3.25,28.6h-1.1L111.64.46Z"/><path class="cls-1" d="m130.28,31.91c-.72-.69-1.08-1.72-1.08-3.09V4.12c0-1.37.36-2.4,1.08-3.09s1.62-1.03,2.72-1.03h.14c1.1,0,2.01.34,2.72,1.03s1.08,1.72,1.08,3.09v24.71c0,1.37-.36,2.4-1.08,3.09-.72.69-1.62,1.03-2.72,1.03h-.14c-1.1,0-2.01-.34-2.72-1.03Zm4.94-.66c.53-.55.8-1.34.8-2.38V4.07c0-1.04-.26-1.83-.78-2.38-.52-.55-1.22-.82-2.11-.82h-.09c-.89,0-1.59.27-2.13.82-.53.55-.8,1.34-.8,2.38v24.8c0,1.04.27,1.83.8,2.38.53.55,1.24.82,2.13.82h.09c.85,0,1.55-.27,2.08-.82Z"/><path class="cls-1" d="m144.67,15.92h-3.25v-.87h3.11c2.07,0,3.11-1.07,3.11-3.2v-7.32c0-2.13-1.04-3.2-3.11-3.2h-3.02l.41-.41v31.57h-.96V.46h3.52c1.31,0,2.33.34,3.04,1.01.72.67,1.08,1.71,1.08,3.11v7.23c0,1.1-.24,1.97-.71,2.61-.47.64-1.15,1.07-2.04,1.28l.09-.41c.92.21,1.61.64,2.08,1.28.47.64.71,1.51.71,2.61v13.31h-.92v-13.31c0-2.17-1.05-3.25-3.16-3.25Z"/><path class="cls-1" d="m152.72.46h.96v32.03h-.96V.46Zm.59,17.94L160.23.46h.87l-5.31,13.91-.23.14-2.24,5.58v-1.69Zm1.97-4.26l.55-1.14,5.54,19.49h-.92l-5.17-18.35Z"/><path class="cls-1" d="m164.37,31.91c-.72-.69-1.08-1.72-1.08-3.09v-8.69h.92v8.74c0,1.04.27,1.83.8,2.38.53.55,1.24.82,2.13.82h.09c.85,0,1.55-.27,2.08-.82.53-.55.8-1.34.8-2.38v-4.58c0-1.77-.25-3.23-.73-4.37-.49-1.14-1.25-2.45-2.29-3.91-.06-.12-.14-.23-.23-.32-.79-1.16-1.42-2.13-1.88-2.93-.46-.79-.83-1.71-1.12-2.75s-.43-2.24-.43-3.62v-2.38c0-1.34.35-2.35,1.05-3.02.7-.67,1.58-1.01,2.65-1.01h.09c1.07,0,1.95.34,2.65,1.01.7.67,1.05,1.68,1.05,3.02v6.73h-.92V3.98c0-.98-.26-1.74-.78-2.29-.52-.55-1.19-.82-2.01-.82h-.09c-.82,0-1.5.27-2.01.82-.52.55-.78,1.31-.78,2.29v2.52c0,1.28.14,2.39.41,3.34.27.95.61,1.78,1.01,2.49.4.72.96,1.59,1.69,2.63l.09.14.14.23c.79,1.1,1.41,2.04,1.85,2.81.44.78.8,1.68,1.08,2.7.27,1.02.41,2.2.41,3.55v4.44c0,1.37-.36,2.4-1.08,3.09-.72.69-1.62,1.03-2.72,1.03h-.14c-1.1,0-2.01-.34-2.72-1.03Z"/></g></svg>